<?xml version="1.0" standalone="no"?>
 <!DOCTYPE svg PUBLIC "-//W3C//DTD SVG 1.1//EN" 
 "http://www.w3.org/Graphics/SVG/1.1/DTD/svg11.dtd"> 
<svg
  xmlns:svg="http://www.w3.org/2000/svg"
  xmlns="http://www.w3.org/2000/svg"
  xmlns:xlink="http://www.w3.org/1999/xlink"
  version="1.1"
  width="6.502400cm" height="5.488940cm" viewBox="0 0 25600 21610">
<title>SVG Picture created as esp8266_01-F_Mask.svg date 2020/09/05 00:53:38 </title>
  <desc>Picture generated by PCBNEW </desc>
<g style="fill:#000000; fill-opacity:1;stroke:#000000; stroke-opacity:1;
stroke-linecap:round; stroke-linejoin:round;"
 transform="translate(0 0) scale(1 1)">
</g>
<g style="fill:#000000; fill-opacity:0.0; 
stroke:#000000; stroke-width:-0.000393701; stroke-opacity:1; 
stroke-linecap:round; stroke-linejoin:round;">
</g>
<g style="fill:#000000; fill-opacity:1.0; 
stroke:#000000; stroke-width:0; stroke-opacity:1; 
stroke-linecap:round; stroke-linejoin:round;">
<path style="fill:#000000; fill-opacity:1.0; 
stroke:#000000; stroke-width:0; stroke-opacity:1; 
stroke-linecap:round; stroke-linejoin:round;fill-rule:evenodd;"
d="M 16644.1,20152.8
15934.6,20152.8
15934.6,19718.9
16644.1,19718.9
Z" /> 
<path style="fill:#000000; fill-opacity:1.0; 
stroke:#000000; stroke-width:0; stroke-opacity:1; 
stroke-linecap:round; stroke-linejoin:round;fill-rule:evenodd;"
d="M 14557.5,20152.8
13848,20152.8
13848,19718.9
14557.5,19718.9
Z" /> 
<path style="fill:#000000; fill-opacity:1.0; 
stroke:#000000; stroke-width:0; stroke-opacity:1; 
stroke-linecap:round; stroke-linejoin:round;fill-rule:evenodd;"
d="M 12308.7,18815.7
12369.9,18829.9
12410.1,18846.7
12410.1,18846.7
12463.2,18880.2
12508.8,18923.3
12545,18974.5
12570.6,19031.8
12584.5,19093
12586.2,19155.7
12575.7,19217.6
12544.2,19293.1
12287.6,19737.5
12263.4,19779.4
12260.5,19785.2
12257.7,19792
12222.7,19844.4
12178.1,19889
12125.7,19924
12067.4,19948.1
12005.6,19960.4
11942.5,19960.4
11880.7,19948.1
11822.4,19924
11770,19889
11725.4,19844.4
11690.4,19792
11666.3,19733.7
11654,19671.9
11654,19608.8
11666.3,19547
11690.4,19488.7
11701.2,19472.6
11702.9,19469.9
11712.3,19453.6
11926.5,19082.5
11988.6,18975.1
11988.6,18975.1
11989.8,18973
12026.3,18922
12072.1,18879.1
12125.4,18846
12184.1,18823.8
12246,18813.6
Z" /> 
<path style="fill:#000000; fill-opacity:1.0; 
stroke:#000000; stroke-width:0; stroke-opacity:1; 
stroke-linecap:round; stroke-linejoin:round;fill-rule:evenodd;"
d="M 11626.8,18422
11687.9,18436.2
11728.2,18453
11728.2,18453
11781.3,18486.5
11826.9,18529.6
11863.1,18580.8
11888.7,18638.1
11902.6,18699.3
11904.3,18762
11893.8,18823.9
11862.3,18899.4
11605.7,19343.8
11581.4,19385.7
11578.6,19391.5
11575.8,19398.3
11540.8,19450.7
11496.2,19495.3
11443.8,19530.3
11385.5,19554.4
11323.7,19566.7
11260.6,19566.7
11198.8,19554.4
11140.5,19530.3
11088.1,19495.3
11043.5,19450.7
11008.5,19398.3
10984.4,19340
10972.1,19278.2
10972.1,19215.1
10984.4,19153.3
11008.5,19095
11019.3,19078.9
11021,19076.2
11030.4,19059.9
11244.6,18688.8
11306.7,18581.4
11306.7,18581.4
11307.9,18579.3
11344.4,18528.3
11390.2,18485.4
11443.5,18452.3
11502.2,18430.1
11564.1,18419.9
Z" /> 
<path style="fill:#000000; fill-opacity:1.0; 
stroke:#000000; stroke-width:0; stroke-opacity:1; 
stroke-linecap:round; stroke-linejoin:round;fill-rule:evenodd;"
d="M 10944.9,18028.3
11006,18042.5
11046.3,18059.3
11046.3,18059.3
11099.4,18092.8
11145,18135.9
11181.2,18187.1
11206.8,18244.4
11220.7,18305.6
11222.4,18368.3
11211.9,18430.2
11180.3,18505.7
10909.3,18975.1
10899.5,18992
10896.7,18997.8
10893.9,19004.6
10858.9,19057
10814.3,19101.6
10761.9,19136.6
10703.6,19160.7
10641.8,19173
10578.7,19173
10516.9,19160.7
10458.6,19136.6
10406.2,19101.6
10361.6,19057
10326.6,19004.6
10302.5,18946.3
10290.2,18884.5
10290.2,18821.4
10302.5,18759.6
10326.6,18701.3
10337.4,18685.2
10339.1,18682.5
10348.5,18666.2
10562.7,18295.1
10624.7,18187.7
10624.7,18187.7
10626,18185.6
10662.5,18134.6
10708.3,18091.7
10761.6,18058.5
10820.3,18036.4
10882.2,18026.2
Z" /> 
<path style="fill:#000000; fill-opacity:1.0; 
stroke:#000000; stroke-width:0; stroke-opacity:1; 
stroke-linecap:round; stroke-linejoin:round;fill-rule:evenodd;"
d="M 14557.5,18892.9
13848,18892.9
13848,18459.1
14557.5,18459.1
Z" /> 
<path style="fill:#000000; fill-opacity:1.0; 
stroke:#000000; stroke-width:0; stroke-opacity:1; 
stroke-linecap:round; stroke-linejoin:round;fill-rule:evenodd;"
d="M 16644.1,18892.9
15934.6,18892.9
15934.6,18459.1
16644.1,18459.1
Z" /> 
<path style="fill:#000000; fill-opacity:1.0; 
stroke:#000000; stroke-width:0; stroke-opacity:1; 
stroke-linecap:round; stroke-linejoin:round;fill-rule:evenodd;"
d="M 10263,17634.6
10324.1,17648.8
10364.4,17665.6
10364.4,17665.6
10417.5,17699.1
10463,17742.2
10499.3,17793.4
10524.9,17850.7
10538.8,17911.9
10540.5,17974.6
10530,18036.5
10498.4,18112
10227.4,18581.4
10217.6,18598.3
10214.8,18604.1
10212,18610.9
10176.9,18663.3
10132.4,18707.9
10079.9,18742.9
10021.7,18767
9959.85,18779.3
9896.8,18779.3
9834.96,18767
9776.71,18742.9
9724.29,18707.9
9679.7,18663.3
9644.68,18610.9
9620.55,18552.6
9608.25,18490.8
9608.25,18427.7
9620.55,18365.9
9644.68,18307.6
9655.47,18291.5
9657.17,18288.8
9666.55,18272.5
9823.95,17999.9
9942.83,17794
9942.84,17794
9944.04,17791.9
9980.59,17740.9
10026.4,17698
10079.7,17664.8
10138.4,17642.7
10200.3,17632.5
Z" /> 
<path style="fill:#000000; fill-opacity:1.0; 
stroke:#000000; stroke-width:0; stroke-opacity:1; 
stroke-linecap:round; stroke-linejoin:round;fill-rule:evenodd;"
d="M 19584.5,18402.2
18960.8,18762.2
18600.8,18138.6
19224.4,17778.5
Z" /> 
<path style="fill:#000000; fill-opacity:1.0; 
stroke:#000000; stroke-width:0; stroke-opacity:1; 
stroke-linecap:round; stroke-linejoin:round;fill-rule:evenodd;"
d="M 9581.11,17240.9
9642.22,17255.1
9682.47,17271.9
9682.47,17271.9
9735.58,17305.4
9781.14,17348.5
9817.4,17399.7
9842.98,17457
9856.9,17518.2
9858.6,17580.9
9848.04,17642.8
9816.53,17718.3
9545.51,18187.7
9535.71,18204.6
9532.87,18210.4
9530.07,18217.2
9495.04,18269.6
9450.45,18314.2
9398.03,18349.2
9339.78,18373.3
9277.94,18385.6
9214.89,18385.6
9153.05,18373.3
9094.8,18349.2
9042.38,18314.2
8997.79,18269.6
8962.77,18217.2
8938.64,18158.9
8926.34,18097.1
8926.34,18034
8938.64,17972.2
8962.77,17913.9
8973.56,17897.8
8975.26,17895.1
9000.83,17850.8
9107.83,17665.4
9260.93,17400.3
9260.93,17400.3
9262.13,17398.2
9298.68,17347.2
9344.48,17304.3
9397.76,17271.1
9456.49,17249
9518.4,17238.8
Z" /> 
<path style="fill:#000000; fill-opacity:1.0; 
stroke:#000000; stroke-width:0; stroke-opacity:1; 
stroke-linecap:round; stroke-linejoin:round;fill-rule:evenodd;"
d="M 20063.7,17424.1
20129.2,17451.3
20188.2,17490.7
20238.4,17540.8
20277.8,17599.8
20304.9,17665.3
20318.7,17734.9
20318.7,17805.8
20304.9,17875.4
20277.8,17940.9
20238.4,17999.9
20188.2,18050
20129.2,18089.5
20063.7,18116.6
19994.1,18130.4
19923.2,18130.4
19853.6,18116.6
19788.1,18089.5
19729.1,18050
19679,17999.9
19639.6,17940.9
19612.4,17875.4
19598.6,17805.8
19598.6,17734.9
19612.4,17665.3
19639.6,17599.8
19679,17540.8
19729.1,17490.7
19788.1,17451.3
19853.6,17424.1
19923.2,17410.3
19994.1,17410.3
Z" /> 
<path style="fill:#000000; fill-opacity:1.0; 
stroke:#000000; stroke-width:0; stroke-opacity:1; 
stroke-linecap:round; stroke-linejoin:round;fill-rule:evenodd;"
d="M 18697.7,17058.1
18763.2,17085.2
18822.2,17124.6
18872.3,17174.8
18911.7,17233.8
18938.9,17299.3
18952.7,17368.9
18952.7,17439.8
18938.9,17509.4
18911.7,17574.9
18872.3,17633.9
18822.2,17684
18763.2,17723.4
18697.7,17750.6
18628.1,17764.4
18557.2,17764.4
18487.6,17750.6
18422.1,17723.4
18363.1,17684
18312.9,17633.9
18273.5,17574.9
18246.4,17509.4
18232.6,17439.8
18232.6,17368.9
18246.4,17299.3
18273.5,17233.8
18312.9,17174.8
18363.1,17124.6
18422.1,17085.2
18487.6,17058.1
18557.2,17044.3
18628.1,17044.3
Z" /> 
<path style="fill:#000000; fill-opacity:1.0; 
stroke:#000000; stroke-width:0; stroke-opacity:1; 
stroke-linecap:round; stroke-linejoin:round;fill-rule:evenodd;"
d="M 20929.7,16924.1
20995.2,16951.3
21054.2,16990.7
21104.4,17040.8
21143.8,17099.8
21170.9,17165.3
21184.8,17234.9
21184.8,17305.8
21170.9,17375.4
21143.8,17440.9
21104.4,17499.9
21054.2,17550
20995.2,17589.5
20929.7,17616.6
20860.2,17630.4
20789.2,17630.4
20719.7,17616.6
20654.1,17589.5
20595.2,17550
20545,17499.9
20505.6,17440.9
20478.4,17375.4
20464.6,17305.8
20464.6,17234.9
20478.4,17165.3
20505.6,17099.8
20545,17040.8
20595.2,16990.7
20654.1,16951.3
20719.7,16924.1
20789.2,16910.3
20860.2,16910.3
Z" /> 
<path style="fill:#000000; fill-opacity:1.0; 
stroke:#000000; stroke-width:0; stroke-opacity:1; 
stroke-linecap:round; stroke-linejoin:round;fill-rule:evenodd;"
d="M 19563.7,16558.1
19629.2,16585.2
19688.2,16624.6
19738.4,16674.8
19777.8,16733.8
19804.9,16799.3
19818.7,16868.9
19818.7,16939.8
19804.9,17009.4
19777.8,17074.9
19738.4,17133.9
19688.2,17184
19629.2,17223.4
19563.7,17250.6
19494.1,17264.4
19423.2,17264.4
19353.6,17250.6
19288.1,17223.4
19229.1,17184
19179,17133.9
19139.6,17074.9
19112.4,17009.4
19098.6,16939.8
19098.6,16868.9
19112.4,16799.3
19139.6,16733.8
19179,16674.8
19229.1,16624.6
19288.1,16585.2
19353.6,16558.1
19423.2,16544.3
19494.1,16544.3
Z" /> 
<path style="fill:#000000; fill-opacity:1.0; 
stroke:#000000; stroke-width:0; stroke-opacity:1; 
stroke-linecap:round; stroke-linejoin:round;fill-rule:evenodd;"
d="M 21795.7,16424.1
21861.3,16451.3
21920.2,16490.7
21970.4,16540.8
22009.8,16599.8
22037,16665.3
22050.8,16734.9
22050.8,16805.8
22037,16875.4
22009.8,16940.9
21970.4,16999.9
21920.2,17050
21861.3,17089.5
21795.7,17116.6
21726.2,17130.4
21655.2,17130.4
21585.7,17116.6
21520.2,17089.5
21461.2,17050
21411,16999.9
21371.6,16940.9
21344.5,16875.4
21330.6,16805.8
21330.6,16734.9
21344.5,16665.3
21371.6,16599.8
21411,16540.8
21461.2,16490.7
21520.2,16451.3
21585.7,16424.1
21655.2,16410.3
21726.2,16410.3
Z" /> 
<path style="fill:#000000; fill-opacity:1.0; 
stroke:#000000; stroke-width:0; stroke-opacity:1; 
stroke-linecap:round; stroke-linejoin:round;fill-rule:evenodd;"
d="M 20429.7,16058.1
20495.2,16085.2
20554.2,16124.6
20604.4,16174.8
20643.8,16233.8
20670.9,16299.3
20684.8,16368.9
20684.8,16439.8
20670.9,16509.4
20643.8,16574.9
20604.4,16633.9
20554.2,16684
20495.2,16723.4
20429.7,16750.6
20360.2,16764.4
20289.2,16764.4
20219.7,16750.6
20154.1,16723.4
20095.2,16684
20045,16633.9
20005.6,16574.9
19978.4,16509.4
19964.6,16439.8
19964.6,16368.9
19978.4,16299.3
20005.6,16233.8
20045,16174.8
20095.2,16124.6
20154.1,16085.2
20219.7,16058.1
20289.2,16044.3
20360.2,16044.3
Z" /> 
<path style="fill:#000000; fill-opacity:1.0; 
stroke:#000000; stroke-width:0; stroke-opacity:1; 
stroke-linecap:round; stroke-linejoin:round;fill-rule:evenodd;"
d="M 21295.7,15558.1
21361.3,15585.2
21420.2,15624.6
21470.4,15674.8
21509.8,15733.8
21537,15799.3
21550.8,15868.9
21550.8,15939.8
21537,16009.4
21509.8,16074.9
21470.4,16133.9
21420.2,16184
21361.3,16223.4
21295.7,16250.6
21226.2,16264.4
21155.2,16264.4
21085.7,16250.6
21020.2,16223.4
20961.2,16184
20911,16133.9
20871.6,16074.9
20844.5,16009.4
20830.6,15939.8
20830.6,15868.9
20844.5,15799.3
20871.6,15733.8
20911,15674.8
20961.2,15624.6
21020.2,15585.2
21085.7,15558.1
21155.2,15544.3
21226.2,15544.3
Z" /> 
<path style="fill:#000000; fill-opacity:1.0; 
stroke:#000000; stroke-width:0; stroke-opacity:1; 
stroke-linecap:round; stroke-linejoin:round;fill-rule:evenodd;"
d="M 7606.78,12697
7681.07,12719.6
7749.53,12756.2
7809.54,12805.4
7858.79,12865.4
7895.39,12933.9
7917.92,13008.2
7925.53,13085.4
7917.92,13162.7
7895.39,13237
7858.79,13305.4
7809.54,13365.4
7749.53,13414.7
7681.07,13451.3
7606.78,13473.8
7548.89,13479.5
6880.25,13479.5
6822.35,13473.8
6748.06,13451.3
6679.6,13414.7
6619.59,13365.4
6570.34,13305.4
6533.75,13237
6511.21,13162.7
6503.61,13085.4
6511.21,13008.2
6533.75,12933.9
6570.34,12865.4
6619.59,12805.4
6679.6,12756.2
6748.06,12719.6
6822.35,12697
6880.25,12691.3
7548.89,12691.3
Z" /> 
<path style="fill:#000000; fill-opacity:1.0; 
stroke:#000000; stroke-width:0; stroke-opacity:1; 
stroke-linecap:round; stroke-linejoin:round;fill-rule:evenodd;"
d="M 24144.1,12668.5
23434.6,12668.5
23434.6,11959.1
24144.1,11959.1
Z" /> 
<path style="fill:#000000; fill-opacity:1.0; 
stroke:#000000; stroke-width:0; stroke-opacity:1; 
stroke-linecap:round; stroke-linejoin:round;fill-rule:evenodd;"
d="M 8809.45,12455.9
7785.04,12455.9
7785.04,11982.7
8809.45,11982.7
Z" /> 
<path style="fill:#000000; fill-opacity:1.0; 
stroke:#000000; stroke-width:0; stroke-opacity:1; 
stroke-linecap:round; stroke-linejoin:round;fill-rule:evenodd;"
d="M 7268.35,11516.3
7283.59,11519.3
7296.2,11524.6
7326.65,11537.2
7365.4,11563.1
7398.36,11596
7424.25,11634.8
7442.09,11677.8
7451.18,11723.5
7451.18,11770.2
7442.09,11815.9
7424.25,11858.9
7398.36,11897.7
7365.4,11930.6
7326.65,11956.5
7296.2,11969.1
7283.59,11974.4
7268.35,11977.4
7237.87,11983.5
7191.26,11983.5
7160.79,11977.4
7145.55,11974.4
7132.94,11969.1
7102.49,11956.5
7063.73,11930.6
7030.78,11897.7
7004.88,11858.9
6987.05,11815.9
6977.95,11770.2
6977.95,11723.5
6987.05,11677.8
7004.88,11634.8
7030.78,11596
7063.73,11563.1
7102.49,11537.2
7132.94,11524.6
7145.55,11519.3
7160.79,11516.3
7191.26,11510.2
7237.87,11510.2
Z" /> 
<path style="fill:#000000; fill-opacity:1.0; 
stroke:#000000; stroke-width:0; stroke-opacity:1; 
stroke-linecap:round; stroke-linejoin:round;fill-rule:evenodd;"
d="M 23834.1,10961
23892.8,10972.7
23957.4,10999.4
24015.5,11038.2
24064.9,11087.7
24103.7,11145.8
24130.5,11210.3
24144.1,11278.8
24144.1,11348.7
24130.5,11417.2
24103.7,11481.8
24064.9,11539.9
24015.5,11589.3
23957.4,11628.1
23892.8,11654.9
23834.1,11666.6
23824.3,11668.5
23754.4,11668.5
23744.7,11666.6
23685.9,11654.9
23621.3,11628.1
23563.2,11589.3
23513.8,11539.9
23475,11481.8
23448.3,11417.2
23434.6,11348.7
23434.6,11278.8
23448.3,11210.3
23475,11145.8
23513.8,11087.7
23563.2,11038.2
23621.3,10999.4
23685.9,10972.7
23744.7,10961
23754.4,10959.1
23824.3,10959.1
Z" /> 
<path style="fill:#000000; fill-opacity:1.0; 
stroke:#000000; stroke-width:0; stroke-opacity:1; 
stroke-linecap:round; stroke-linejoin:round;fill-rule:evenodd;"
d="M 8809.45,11471.7
7785.04,11471.7
7785.04,10998.4
8809.45,10998.4
Z" /> 
<path style="fill:#000000; fill-opacity:1.0; 
stroke:#000000; stroke-width:0; stroke-opacity:1; 
stroke-linecap:round; stroke-linejoin:round;fill-rule:evenodd;"
d="M 11363.7,10547.4
11378.5,10551.9
11392.2,10559.2
11404.2,10569.1
11414,10581.1
11421.3,10594.7
11425.8,10609.6
11427.6,10627.4
11427.6,11055.3
11425.8,11073.1
11421.3,11087.9
11414,11101.6
11404.2,11113.6
11392.2,11123.4
11378.5,11130.7
11363.7,11135.3
11345.8,11137
11016.4,11137
10998.6,11135.3
10983.7,11130.7
10970,11123.4
10958.1,11113.6
10948.2,11101.6
10940.9,11087.9
10936.4,11073.1
10934.6,11055.3
10934.6,10627.4
10936.4,10609.6
10940.9,10594.7
10948.2,10581.1
10958.1,10569.1
10970,10559.2
10983.7,10551.9
10998.6,10547.4
11016.4,10545.7
11345.8,10545.7
Z" /> 
<path style="fill:#000000; fill-opacity:1.0; 
stroke:#000000; stroke-width:0; stroke-opacity:1; 
stroke-linecap:round; stroke-linejoin:round;fill-rule:evenodd;"
d="M 12170.7,10547.4
12185.6,10551.9
12199.3,10559.2
12211.2,10569.1
12221.1,10581.1
12228.4,10594.7
12232.9,10609.6
12234.6,10627.4
12234.6,11055.3
12232.9,11073.1
12228.4,11087.9
12221.1,11101.6
12211.2,11113.6
12199.3,11123.4
12185.6,11130.7
12170.7,11135.3
12152.9,11137
11823.5,11137
11805.6,11135.3
11790.8,11130.7
11777.1,11123.4
11765.1,11113.6
11755.3,11101.6
11748,11087.9
11743.5,11073.1
11741.7,11055.3
11741.7,10627.4
11743.5,10609.6
11748,10594.7
11755.3,10581.1
11765.1,10569.1
11777.1,10559.2
11790.8,10551.9
11805.6,10547.4
11823.5,10545.7
12152.9,10545.7
Z" /> 
<path style="fill:#000000; fill-opacity:1.0; 
stroke:#000000; stroke-width:0; stroke-opacity:1; 
stroke-linecap:round; stroke-linejoin:round;fill-rule:evenodd;"
d="M 15694.4,10547.4
15709.2,10551.9
15722.9,10559.2
15734.9,10569.1
15744.7,10581.1
15752,10594.7
15756.5,10609.6
15758.3,10627.4
15758.3,11055.3
15756.5,11073.1
15752,11087.9
15744.7,11101.6
15734.9,11113.6
15722.9,11123.4
15709.2,11130.7
15694.4,11135.3
15676.5,11137
15347.1,11137
15329.3,11135.3
15314.4,11130.7
15300.7,11123.4
15288.8,11113.6
15278.9,11101.6
15271.6,11087.9
15267.1,11073.1
15265.4,11055.3
15265.4,10627.4
15267.1,10609.6
15271.6,10594.7
15278.9,10581.1
15288.8,10569.1
15300.7,10559.2
15314.4,10551.9
15329.3,10547.4
15347.1,10545.7
15676.5,10545.7
Z" /> 
<path style="fill:#000000; fill-opacity:1.0; 
stroke:#000000; stroke-width:0; stroke-opacity:1; 
stroke-linecap:round; stroke-linejoin:round;fill-rule:evenodd;"
d="M 16501.4,10547.4
16516.3,10551.9
16530,10559.2
16541.9,10569.1
16551.8,10581.1
16559.1,10594.7
16563.6,10609.6
16565.4,10627.4
16565.4,11055.3
16563.6,11073.1
16559.1,11087.9
16551.8,11101.6
16541.9,11113.6
16530,11123.4
16516.3,11130.7
16501.4,11135.3
16483.6,11137
16154.2,11137
16136.3,11135.3
16121.5,11130.7
16107.8,11123.4
16095.8,11113.6
16086,11101.6
16078.7,11087.9
16074.2,11073.1
16072.4,11055.3
16072.4,10627.4
16074.2,10609.6
16078.7,10594.7
16086,10581.1
16095.8,10569.1
16107.8,10559.2
16121.5,10551.9
16136.3,10547.4
16154.2,10545.7
16483.6,10545.7
Z" /> 
<path style="fill:#000000; fill-opacity:1.0; 
stroke:#000000; stroke-width:0; stroke-opacity:1; 
stroke-linecap:round; stroke-linejoin:round;fill-rule:evenodd;"
d="M 8809.45,10684.3
7785.04,10684.3
7785.04,10211
8809.45,10211
Z" /> 
<path style="fill:#000000; fill-opacity:1.0; 
stroke:#000000; stroke-width:0; stroke-opacity:1; 
stroke-linecap:round; stroke-linejoin:round;fill-rule:evenodd;"
d="M 23834.1,9961
23892.8,9972.69
23957.4,9999.43
24015.5,10038.2
24064.9,10087.7
24103.7,10145.8
24130.5,10210.3
24144.1,10278.8
24144.1,10348.7
24130.5,10417.2
24103.7,10481.8
24064.9,10539.9
24015.5,10589.3
23957.4,10628.1
23892.8,10654.9
23834.1,10666.6
23824.3,10668.5
23754.4,10668.5
23744.7,10666.6
23685.9,10654.9
23621.3,10628.1
23563.2,10589.3
23513.8,10539.9
23475,10481.8
23448.3,10417.2
23434.6,10348.7
23434.6,10278.8
23448.3,10210.3
23475,10145.8
23513.8,10087.7
23563.2,10038.2
23621.3,9999.43
23685.9,9972.69
23744.7,9961
23754.4,9959.06
23824.3,9959.06
Z" /> 
<path style="fill:#000000; fill-opacity:1.0; 
stroke:#000000; stroke-width:0; stroke-opacity:1; 
stroke-linecap:round; stroke-linejoin:round;fill-rule:evenodd;"
d="M 7268.35,9705.27
7283.59,9708.31
7296.2,9713.53
7326.65,9726.14
7365.4,9752.04
7398.36,9784.99
7424.25,9823.75
7442.09,9866.81
7451.18,9912.52
7451.18,9959.13
7442.09,10004.8
7424.25,10047.9
7398.36,10086.7
7365.4,10119.6
7326.65,10145.5
7296.2,10158.1
7283.59,10163.3
7268.35,10166.4
7237.87,10172.4
7191.26,10172.4
7160.79,10166.4
7145.55,10163.3
7132.94,10158.1
7102.49,10145.5
7063.73,10119.6
7030.78,10086.7
7004.88,10047.9
6987.05,10004.8
6977.95,9959.13
6977.95,9912.52
6987.05,9866.81
7004.88,9823.75
7030.78,9784.99
7063.73,9752.04
7102.49,9726.14
7132.94,9713.53
7145.55,9708.31
7160.79,9705.27
7191.26,9699.21
7237.87,9699.21
Z" /> 
<path style="fill:#000000; fill-opacity:1.0; 
stroke:#000000; stroke-width:0; stroke-opacity:1; 
stroke-linecap:round; stroke-linejoin:round;fill-rule:evenodd;"
d="M 8809.45,9700
7785.04,9700
7785.04,9226.77
8809.45,9226.77
Z" /> 
<path style="fill:#000000; fill-opacity:1.0; 
stroke:#000000; stroke-width:0; stroke-opacity:1; 
stroke-linecap:round; stroke-linejoin:round;fill-rule:evenodd;"
d="M 23834.1,8961
23892.8,8972.69
23957.4,8999.43
24015.5,9038.25
24064.9,9087.66
24103.7,9145.75
24130.5,9210.31
24144.1,9278.84
24144.1,9348.72
24130.5,9417.25
24103.7,9481.81
24064.9,9539.9
24015.5,9589.31
23957.4,9628.13
23892.8,9654.87
23834.1,9666.56
23824.3,9668.5
23754.4,9668.5
23744.7,9666.56
23685.9,9654.87
23621.3,9628.13
23563.2,9589.31
23513.8,9539.9
23475,9481.81
23448.3,9417.25
23434.6,9348.72
23434.6,9278.84
23448.3,9210.31
23475,9145.75
23513.8,9087.66
23563.2,9038.25
23621.3,8999.43
23685.9,8972.69
23744.7,8961
23754.4,8959.06
23824.3,8959.06
Z" /> 
<path style="fill:#000000; fill-opacity:1.0; 
stroke:#000000; stroke-width:0; stroke-opacity:1; 
stroke-linecap:round; stroke-linejoin:round;fill-rule:evenodd;"
d="M 14065.4,9345.67
13434.6,9345.67
13434.6,8518.11
14065.4,8518.11
Z" /> 
<path style="fill:#000000; fill-opacity:1.0; 
stroke:#000000; stroke-width:0; stroke-opacity:1; 
stroke-linecap:round; stroke-linejoin:round;fill-rule:evenodd;"
d="M 13159.8,9345.67
12529.1,9345.67
12529.1,8518.11
13159.8,8518.11
Z" /> 
<path style="fill:#000000; fill-opacity:1.0; 
stroke:#000000; stroke-width:0; stroke-opacity:1; 
stroke-linecap:round; stroke-linejoin:round;fill-rule:evenodd;"
d="M 14970.9,9345.67
14340.2,9345.67
14340.2,8518.11
14970.9,8518.11
Z" /> 
<path style="fill:#000000; fill-opacity:1.0; 
stroke:#000000; stroke-width:0; stroke-opacity:1; 
stroke-linecap:round; stroke-linejoin:round;fill-rule:evenodd;"
d="M 7606.78,8208.85
7681.07,8231.39
7749.53,8267.98
7809.54,8317.23
7858.79,8377.24
7895.39,8445.7
7917.92,8519.99
7925.53,8597.24
7917.92,8674.5
7895.39,8748.79
7858.79,8817.25
7809.54,8877.26
7749.53,8926.51
7681.07,8963.1
7606.78,8985.64
7548.89,8991.34
6880.25,8991.34
6822.35,8985.64
6748.06,8963.1
6679.6,8926.51
6619.59,8877.26
6570.34,8817.25
6533.75,8748.79
6511.21,8674.5
6503.61,8597.24
6511.21,8519.99
6533.75,8445.7
6570.34,8377.24
6619.59,8317.23
6679.6,8267.98
6748.06,8231.39
6822.35,8208.85
6880.25,8203.15
7548.89,8203.15
Z" /> 
<path style="fill:#000000; fill-opacity:1.0; 
stroke:#000000; stroke-width:0; stroke-opacity:1; 
stroke-linecap:round; stroke-linejoin:round;fill-rule:evenodd;"
d="M 21959.1,8144.88
21249.6,8144.88
21249.6,7711.02
21959.1,7711.02
Z" /> 
<path style="fill:#000000; fill-opacity:1.0; 
stroke:#000000; stroke-width:0; stroke-opacity:1; 
stroke-linecap:round; stroke-linejoin:round;fill-rule:evenodd;"
d="M 19478.7,8144.88
18769.3,8144.88
18769.3,7711.02
19478.7,7711.02
Z" /> 
<path style="fill:#000000; fill-opacity:1.0; 
stroke:#000000; stroke-width:0; stroke-opacity:1; 
stroke-linecap:round; stroke-linejoin:round;fill-rule:evenodd;"
d="M 17879.4,6374.2
17894.2,6378.7
17907.9,6386.01
17919.9,6395.85
17929.7,6407.83
17937,6421.51
17941.5,6436.35
17943.3,6454.2
17943.3,6882.02
17941.5,6899.87
17937,6914.71
17929.7,6928.39
17919.9,6940.37
17907.9,6950.21
17894.2,6957.52
17879.4,6962.02
17861.6,6963.78
17532.2,6963.78
17514.3,6962.02
17499.5,6957.52
17485.8,6950.21
17473.8,6940.37
17464,6928.39
17456.7,6914.71
17452.2,6899.87
17450.4,6882.02
17450.4,6454.2
17452.2,6436.35
17456.7,6421.51
17464,6407.83
17473.8,6395.85
17485.8,6386.01
17499.5,6378.7
17514.3,6374.2
17532.2,6372.44
17861.6,6372.44
Z" /> 
<path style="fill:#000000; fill-opacity:1.0; 
stroke:#000000; stroke-width:0; stroke-opacity:1; 
stroke-linecap:round; stroke-linejoin:round;fill-rule:evenodd;"
d="M 17072.3,6374.2
17087.2,6378.7
17100.8,6386.01
17112.8,6395.85
17122.7,6407.83
17130,6421.51
17134.5,6436.35
17136.2,6454.2
17136.2,6882.02
17134.5,6899.87
17130,6914.71
17122.7,6928.39
17112.8,6940.37
17100.8,6950.21
17087.2,6957.52
17072.3,6962.02
17054.5,6963.78
16725.1,6963.78
16707.2,6962.02
16692.4,6957.52
16678.7,6950.21
16666.7,6940.37
16656.9,6928.39
16649.6,6914.71
16645.1,6899.87
16643.3,6882.02
16643.3,6454.2
16645.1,6436.35
16649.6,6421.51
16656.9,6407.83
16666.7,6395.85
16678.7,6386.01
16692.4,6378.7
16707.2,6374.2
16725.1,6372.44
17054.5,6372.44
Z" /> 
<path style="fill:#000000; fill-opacity:1.0; 
stroke:#000000; stroke-width:0; stroke-opacity:1; 
stroke-linecap:round; stroke-linejoin:round;fill-rule:evenodd;"
d="M 14518.1,6865.35
12981.9,6865.35
12981.9,6037.8
14518.1,6037.8
Z" /> 
<path style="fill:#000000; fill-opacity:1.0; 
stroke:#000000; stroke-width:0; stroke-opacity:1; 
stroke-linecap:round; stroke-linejoin:round;fill-rule:evenodd;"
d="M 19478.7,6648.82
18769.3,6648.82
18769.3,6214.96
19478.7,6214.96
Z" /> 
<path style="fill:#000000; fill-opacity:1.0; 
stroke:#000000; stroke-width:0; stroke-opacity:1; 
stroke-linecap:round; stroke-linejoin:round;fill-rule:evenodd;"
d="M 21959.1,6648.82
21249.6,6648.82
21249.6,6214.96
21959.1,6214.96
Z" /> 
<path style="fill:#000000; fill-opacity:1.0; 
stroke:#000000; stroke-width:0; stroke-opacity:1; 
stroke-linecap:round; stroke-linejoin:round;fill-rule:evenodd;"
d="M 9739.69,3838.95
9798.47,3850.64
9863.02,3877.38
9921.12,3916.2
9970.53,3965.61
10009.4,4023.71
10036.1,4088.26
10049.7,4156.8
10049.7,4226.67
10036.1,4295.2
10009.4,4359.76
9970.53,4417.86
9921.12,4467.27
9863.02,4506.09
9798.47,4532.83
9739.69,4544.52
9729.94,4546.46
9660.06,4546.46
9650.31,4544.52
9591.53,4532.83
9526.97,4506.09
9468.87,4467.27
9419.47,4417.86
9380.65,4359.76
9353.91,4295.2
9340.27,4226.67
9340.27,4156.8
9353.91,4088.26
9380.65,4023.71
9419.47,3965.61
9468.87,3916.2
9526.97,3877.38
9591.53,3850.64
9650.31,3838.95
9660.06,3837.01
9729.94,3837.01
Z" /> 
<path style="fill:#000000; fill-opacity:1.0; 
stroke:#000000; stroke-width:0; stroke-opacity:1; 
stroke-linecap:round; stroke-linejoin:round;fill-rule:evenodd;"
d="M 21339.1,3230.6
21397.3,3254.73
21449.7,3289.76
21494.3,3334.34
21529.4,3386.76
21553.5,3445.02
21565.8,3506.85
21565.8,3569.9
21553.5,3631.74
21529.4,3689.99
21518.6,3706.15
21516.9,3708.88
21491.3,3753.24
21367.7,3967.26
21230,4205.76
21193.4,4256.76
21147.6,4299.66
21094.4,4332.79
21035.6,4354.89
20973.7,4365.11
20911,4363.06
20849.9,4348.81
20809.7,4332.01
20809.7,4332.01
20756.6,4298.58
20711,4255.44
20674.7,4204.23
20649.1,4146.94
20635.2,4085.75
20633.5,4023.03
20644.1,3961.18
20675.6,3885.68
20956.4,3399.3
20959.3,3393.52
20962.1,3386.76
20997.1,3334.34
21041.7,3289.76
21094.1,3254.73
21152.3,3230.6
21214.2,3218.3
21277.2,3218.3
Z" /> 
<path style="fill:#000000; fill-opacity:1.0; 
stroke:#000000; stroke-width:0; stroke-opacity:1; 
stroke-linecap:round; stroke-linejoin:round;fill-rule:evenodd;"
d="M 10605.7,3338.95
10664.5,3350.64
10729,3377.38
10787.1,3416.2
10836.6,3465.61
10875.4,3523.71
10902.1,3588.26
10915.7,3656.8
10915.7,3726.67
10902.1,3795.2
10875.4,3859.76
10836.6,3917.86
10787.1,3967.27
10729,4006.09
10664.5,4032.83
10605.7,4044.52
10596,4046.46
10526.1,4046.46
10516.3,4044.52
10457.6,4032.83
10393,4006.09
10334.9,3967.27
10285.5,3917.86
10246.7,3859.76
10219.9,3795.2
10206.3,3726.67
10206.3,3656.8
10219.9,3588.26
10246.7,3523.71
10285.5,3465.61
10334.9,3416.2
10393,3377.38
10457.6,3350.64
10516.3,3338.95
10526.1,3337.01
10596,3337.01
Z" /> 
<path style="fill:#000000; fill-opacity:1.0; 
stroke:#000000; stroke-width:0; stroke-opacity:1; 
stroke-linecap:round; stroke-linejoin:round;fill-rule:evenodd;"
d="M 20657.2,2836.9
20715.4,2861.03
20767.8,2896.06
20812.4,2940.64
20847.5,2993.06
20871.6,3051.31
20883.9,3113.15
20883.9,3176.2
20871.6,3238.04
20847.5,3296.29
20836.7,3312.45
20835,3315.18
20760,3445.02
20609.2,3706.15
20548.1,3812.06
20511.5,3863.06
20465.7,3905.95
20412.5,3939.09
20353.7,3961.19
20291.8,3971.41
20229.1,3969.36
20168,3955.11
20127.7,3938.31
20127.7,3938.31
20074.6,3904.88
20029.1,3861.73
19992.8,3810.53
19967.2,3753.24
19953.3,3692.05
19951.6,3629.33
19962.2,3567.48
19993.7,3491.98
20274.5,3005.6
20277.3,2999.82
20280.1,2993.06
20315.2,2940.64
20359.8,2896.06
20412.2,2861.03
20470.4,2836.9
20532.3,2824.6
20595.3,2824.6
Z" /> 
<path style="fill:#000000; fill-opacity:1.0; 
stroke:#000000; stroke-width:0; stroke-opacity:1; 
stroke-linecap:round; stroke-linejoin:round;fill-rule:evenodd;"
d="M 19975.3,2443.2
20033.5,2467.33
20085.9,2502.35
20130.5,2546.94
20165.5,2599.36
20189.7,2657.61
20202,2719.45
20202,2782.5
20189.7,2844.34
20165.5,2902.59
20154.7,2918.75
20153,2921.48
20078.1,3051.31
19867.4,3416.2
19866.2,3418.36
19829.6,3469.36
19783.8,3512.25
19730.5,3545.39
19671.8,3567.49
19609.9,3577.71
19547.2,3575.66
19486.1,3561.41
19445.8,3544.61
19445.8,3544.6
19392.7,3511.18
19347.2,3468.03
19310.9,3416.83
19285.3,3359.54
19271.4,3298.35
19269.7,3235.63
19280.3,3173.78
19311.8,3098.28
19592.6,2611.89
19595.4,2606.12
19598.2,2599.36
19633.3,2546.94
19677.9,2502.35
19730.3,2467.33
19788.5,2443.2
19850.4,2430.9
19913.4,2430.9
Z" /> 
<path style="fill:#000000; fill-opacity:1.0; 
stroke:#000000; stroke-width:0; stroke-opacity:1; 
stroke-linecap:round; stroke-linejoin:round;fill-rule:evenodd;"
d="M 11471.7,2838.95
11530.5,2850.64
11595.1,2877.38
11653.2,2916.2
11702.6,2965.61
11741.4,3023.71
11768.1,3088.26
11781.8,3156.8
11781.8,3226.67
11768.1,3295.2
11741.4,3359.76
11702.6,3417.86
11653.2,3467.27
11595.1,3506.09
11530.5,3532.83
11471.7,3544.52
11462,3546.46
11392.1,3546.46
11382.4,3544.52
11323.6,3532.83
11259,3506.09
11200.9,3467.27
11151.5,3417.86
11112.7,3359.76
11086,3295.2
11072.3,3226.67
11072.3,3156.8
11086,3088.26
11112.7,3023.71
11151.5,2965.61
11200.9,2916.2
11259,2877.38
11323.6,2850.64
11382.4,2838.95
11392.1,2837.01
11462,2837.01
Z" /> 
<path style="fill:#000000; fill-opacity:1.0; 
stroke:#000000; stroke-width:0; stroke-opacity:1; 
stroke-linecap:round; stroke-linejoin:round;fill-rule:evenodd;"
d="M 19293.3,2049.5
19351.6,2073.63
19404,2108.65
19448.6,2153.24
19483.6,2205.66
19507.8,2263.91
19520.1,2325.75
19520.1,2388.8
19507.8,2450.64
19483.6,2508.89
19472.8,2525.04
19471.1,2527.78
19396.2,2657.61
19233.7,2939.05
19184.3,3024.66
19147.7,3075.66
19101.9,3118.55
19048.6,3151.69
18989.9,3173.79
18928,3184.01
18865.3,3181.96
18804.2,3167.71
18763.9,3150.9
18763.9,3150.9
18710.8,3117.48
18665.3,3074.33
18629,3023.13
18603.4,2965.83
18589.5,2904.65
18587.8,2841.93
18598.4,2780.08
18629.9,2704.58
18910.7,2218.19
18913.5,2212.42
18916.3,2205.66
18951.4,2153.24
18995.9,2108.65
19048.4,2073.63
19106.6,2049.5
19168.5,2037.2
19231.5,2037.2
Z" /> 
<path style="fill:#000000; fill-opacity:1.0; 
stroke:#000000; stroke-width:0; stroke-opacity:1; 
stroke-linecap:round; stroke-linejoin:round;fill-rule:evenodd;"
d="M 12777.6,2821.57
12163.2,3176.3
11808.5,2561.89
12422.9,2207.17
Z" /> 
<path style="fill:#000000; fill-opacity:1.0; 
stroke:#000000; stroke-width:0; stroke-opacity:1; 
stroke-linecap:round; stroke-linejoin:round;fill-rule:evenodd;"
d="M 16644.1,3066.14
15934.6,3066.14
15934.6,2632.28
16644.1,2632.28
Z" /> 
<path style="fill:#000000; fill-opacity:1.0; 
stroke:#000000; stroke-width:0; stroke-opacity:1; 
stroke-linecap:round; stroke-linejoin:round;fill-rule:evenodd;"
d="M 14557.5,3066.14
13848,3066.14
13848,2632.28
14557.5,2632.28
Z" /> 
<path style="fill:#000000; fill-opacity:1.0; 
stroke:#000000; stroke-width:0; stroke-opacity:1; 
stroke-linecap:round; stroke-linejoin:round;fill-rule:evenodd;"
d="M 18611.4,1655.8
18669.7,1679.93
18722.1,1714.95
18766.7,1759.54
18801.7,1811.96
18825.8,1870.21
18838.1,1932.05
18838.1,1995.1
18825.8,2056.94
18801.7,2115.19
18790.9,2131.34
18789.2,2134.08
18714.3,2263.91
18551.8,2545.35
18502.4,2630.96
18465.8,2681.96
18420,2724.85
18366.7,2757.99
18308,2780.09
18246.1,2790.31
18183.4,2788.26
18122.3,2774.01
18082,2757.2
18082,2757.2
18028.9,2723.78
17983.4,2680.63
17947.1,2629.43
17921.5,2572.13
17907.6,2510.95
17905.9,2448.23
17916.4,2386.37
17948,2310.88
18228.8,1824.49
18231.6,1818.72
18234.4,1811.96
18269.4,1759.54
18314,1714.95
18366.5,1679.93
18424.7,1655.8
18486.5,1643.5
18549.6,1643.5
Z" /> 
<path style="fill:#000000; fill-opacity:1.0; 
stroke:#000000; stroke-width:0; stroke-opacity:1; 
stroke-linecap:round; stroke-linejoin:round;fill-rule:evenodd;"
d="M 16644.1,1806.3
15934.6,1806.3
15934.6,1372.44
16644.1,1372.44
Z" /> 
<path style="fill:#000000; fill-opacity:1.0; 
stroke:#000000; stroke-width:0; stroke-opacity:1; 
stroke-linecap:round; stroke-linejoin:round;fill-rule:evenodd;"
d="M 14557.5,1806.3
13848,1806.3
13848,1372.44
14557.5,1372.44
Z" /> 
</g>
<g style="fill:#000000; fill-opacity:1.0; 
stroke:#000000; stroke-width:39.3701; stroke-opacity:1; 
stroke-linecap:round; stroke-linejoin:round;">
</g>
<g style="fill:#000000; fill-opacity:0.0; 
stroke:#000000; stroke-width:39.3701; stroke-opacity:1; 
stroke-linecap:round; stroke-linejoin:round;">
<path d="M5947 5433
L5947 5433
" />
<path d="M5947 16170
L5947 5433
" />
<path d="M15246 21539
L5947 16170
" />
<path d="M24545 16170
L15246 21539
" />
<path d="M24545 5433
L24545 16170
" />
<path d="M15246 64
L24545 5433
" />
<path d="M5947 5433
L15246 64
" />
<g >
</g>
<g >
</g>
<g >
</g>
<g >
</g>
<g >
</g>
<g >
</g>
<g >
</g>
<g >
</g>
<g >
</g>
<g >
</g>
<g >
</g>
<g >
</g>
<g >
</g>
<g >
</g>
<g >
</g>
<g >
</g>
<g >
</g>
<g >
</g>
<g >
</g>
<g >
</g>
<g >
</g>
<g >
</g>
<g >
</g>
<g >
</g>
<g >
</g>
<g >
</g>
<g >
</g>
<g >
</g>
</g> 
</svg>
