<?xml version="1.0" standalone="no"?>
 <!DOCTYPE svg PUBLIC "-//W3C//DTD SVG 1.1//EN" 
 "http://www.w3.org/Graphics/SVG/1.1/DTD/svg11.dtd"> 
<svg xmlns="http://www.w3.org/2000/svg" version="1.1" 
    width="6.5024cm" height="5.85724cm" viewBox="0 0 25600 23060 ">
<title>SVG Picture created as esp8266_01-F_Paste.svg date 2020/09/04 13:53:46 </title>
  <desc>Picture generated by PCBNEW </desc>
<g style="fill:#000000; fill-opacity:1;stroke:#000000; stroke-opacity:1;
stroke-linecap:round; stroke-linejoin:round; "
 transform="translate(0 0) scale(1 1)">
</g>
<g style="fill:#000000; fill-opacity:0.0; 
stroke:#000000; stroke-width:-0.000393701; stroke-opacity:1; 
stroke-linecap:round; stroke-linejoin:round;">
<g >
</g>
<g >
</g>
<g style="fill:#D27FF9; fill-opacity:0.0; 
stroke:#D27FF9; stroke-width:-0.000393701; stroke-opacity:1; 
stroke-linecap:round; stroke-linejoin:round;">
</g>
<g style="fill:#D27FF9; fill-opacity:0.0; 
stroke:#D27FF9; stroke-width:0; stroke-opacity:1; 
stroke-linecap:round; stroke-linejoin:round;">
</g>
<g style="fill:#D27FF9; fill-opacity:1.0; 
stroke:#D27FF9; stroke-width:0; stroke-opacity:1; 
stroke-linecap:round; stroke-linejoin:round;">
<path style="fill:#D27FF9; fill-opacity:1.0; 
stroke:#D27FF9; stroke-width:0; stroke-opacity:1; 
stroke-linecap:round; stroke-linejoin:round;fill-rule:evenodd;"
d="M 18725,2526.99
18753.9,2532.26
18782.2,2540.35
18820,2556.1
18820,2556.1
18845.6,2570.54
18869.7,2587.43
18892.1,2606.6
18912.4,2627.86
18930.6,2651.03
18946.4,2675.86
18959.7,2702.12
18970.4,2729.56
18978.3,2757.91
18983.5,2786.9
18985.7,2816.26
18985.1,2845.69
18981.5,2874.92
18975.2,2903.66
18966,2931.64
18954.1,2958.59
18945.6,2974.43
18655.1,3477.67
18639.1,3502.42
18620.8,3525.48
18600.3,3546.63
18577.9,3565.68
18553.7,3582.44
18527.9,3596.74
18500.9,3608.45
18472.9,3617.45
18444.1,3623.67
18414.9,3627.03
18385.4,3627.51
18356.1,3625.11
18327.1,3619.84
18298.8,3611.75
18261.1,3596
18261.1,3596
18235.4,3581.56
18211.3,3564.67
18189,3545.5
18168.6,3524.23
18150.4,3501.07
18134.6,3476.24
18121.3,3449.98
18110.7,3422.54
18102.7,3394.19
18097.6,3365.2
18095.4,3335.84
18096,3306.41
18099.5,3277.18
18105.9,3248.44
18115.1,3220.46
18126.9,3193.51
18135.4,3177.67
18426,2674.42
18442,2649.68
18460.3,2626.62
18480.7,2605.47
18503.2,2586.42
18527.4,2569.66
18553.1,2555.36
18580.1,2543.65
18608.2,2534.65
18636.9,2528.43
18666.2,2525.07
18695.6,2524.59
Z" /> 
<path style="fill:#D27FF9; fill-opacity:1.0; 
stroke:#D27FF9; stroke-width:0; stroke-opacity:1; 
stroke-linecap:round; stroke-linejoin:round;fill-rule:evenodd;"
d="M 19406.9,2920.69
19435.8,2925.96
19464.1,2934.05
19501.9,2949.8
19501.9,2949.8
19527.5,2964.24
19551.7,2981.13
19574,3000.3
19594.4,3021.57
19612.5,3044.73
19628.3,3069.56
19641.7,3095.82
19652.3,3123.26
19660.3,3151.61
19665.4,3180.6
19667.6,3209.96
19667,3239.39
19663.4,3268.62
19657.1,3297.36
19647.9,3325.34
19636,3352.29
19627.5,3368.13
19337,3871.38
19321,3896.12
19302.7,3919.18
19282.2,3940.33
19259.8,3959.38
19235.6,3976.14
19209.9,3990.44
19182.8,4002.15
19154.8,4011.15
19126,4017.37
19096.8,4020.73
19067.4,4021.21
19038,4018.81
19009,4013.54
18980.7,4005.45
18943,3989.7
18943,3989.7
18917.3,3975.26
18893.2,3958.37
18870.9,3939.2
18850.5,3917.94
18832.4,3894.77
18816.5,3869.94
18803.2,3843.68
18792.6,3816.24
18784.6,3787.89
18779.5,3758.9
18777.3,3729.54
18777.9,3700.11
18781.4,3670.88
18787.8,3642.14
18797,3614.16
18808.8,3587.21
18817.4,3571.37
19107.9,3068.13
19123.9,3043.38
19142.2,3020.32
19162.6,2999.17
19185.1,2980.12
19209.3,2963.36
19235,2949.06
19262,2937.35
19290.1,2928.35
19318.8,2922.13
19348.1,2918.77
19377.5,2918.29
Z" /> 
<path style="fill:#D27FF9; fill-opacity:1.0; 
stroke:#D27FF9; stroke-width:0; stroke-opacity:1; 
stroke-linecap:round; stroke-linejoin:round;fill-rule:evenodd;"
d="M 20088.8,3314.39
20117.7,3319.66
20146.1,3327.75
20183.8,3343.5
20183.8,3343.5
20209.4,3357.94
20233.6,3374.83
20255.9,3394
20276.3,3415.27
20294.4,3438.43
20310.3,3463.26
20323.6,3489.52
20334.2,3516.96
20342.2,3545.31
20347.3,3574.31
20349.5,3603.66
20348.9,3633.09
20345.3,3662.32
20339,3691.06
20329.8,3719.04
20318,3745.99
20309.4,3761.83
20018.9,4265.08
20002.9,4289.82
19984.6,4312.88
19964.2,4334.04
19941.7,4353.08
19917.5,4369.84
19891.8,4384.14
19864.8,4395.85
19836.7,4404.85
19807.9,4411.07
19778.7,4414.43
19749.3,4414.92
19719.9,4412.51
19691,4407.24
19662.6,4399.16
19624.9,4383.4
19624.9,4383.4
19599.3,4368.96
19575.1,4352.07
19552.8,4332.9
19532.4,4311.64
19514.3,4288.48
19498.4,4263.64
19485.1,4237.38
19474.5,4209.94
19466.5,4181.59
19461.4,4152.6
19459.2,4123.24
19459.8,4093.81
19463.4,4064.58
19469.7,4035.84
19478.9,4007.86
19490.7,3980.91
19499.3,3965.08
19789.8,3461.83
19805.8,3437.08
19824.1,3414.02
19844.5,3392.87
19867,3373.82
19891.2,3357.07
19916.9,3342.76
19944,3331.05
19972,3322.05
20000.8,3315.83
20030,3312.47
20059.4,3311.99
Z" /> 
<path style="fill:#D27FF9; fill-opacity:1.0; 
stroke:#D27FF9; stroke-width:0; stroke-opacity:1; 
stroke-linecap:round; stroke-linejoin:round;fill-rule:evenodd;"
d="M 20770.7,3708.09
20799.7,3713.36
20828,3721.45
20865.7,3737.2
20865.7,3737.2
20891.4,3751.64
20915.5,3768.53
20937.8,3787.7
20958.2,3808.97
20976.3,3832.13
20992.2,3856.96
21005.5,3883.22
21016.1,3910.66
21024.1,3939.01
21029.2,3968.01
21031.4,3997.36
21030.8,4026.79
21027.3,4056.02
21020.9,4084.77
21011.7,4112.74
20999.9,4139.69
20991.3,4155.53
20700.8,4658.78
20684.8,4683.52
20666.5,4706.58
20646.1,4727.74
20623.6,4746.78
20599.4,4763.54
20573.7,4777.84
20546.7,4789.55
20518.6,4798.55
20489.9,4804.77
20460.6,4808.13
20431.2,4808.62
20401.8,4806.21
20372.9,4800.94
20344.6,4792.86
20306.8,4777.11
20306.8,4777.1
20281.2,4762.66
20257.1,4745.77
20234.7,4726.6
20214.3,4705.34
20196.2,4682.18
20180.4,4657.35
20167,4631.08
20156.4,4603.64
20148.5,4575.29
20143.3,4546.3
20141.1,4516.94
20141.7,4487.51
20145.3,4458.28
20151.6,4429.54
20160.8,4401.56
20172.7,4374.61
20181.2,4358.78
20471.7,3855.53
20487.7,3830.78
20506,3807.72
20526.5,3786.57
20548.9,3767.52
20573.1,3750.77
20598.8,3736.47
20625.9,3724.76
20653.9,3715.75
20682.7,3709.53
20711.9,3706.17
20741.4,3705.69
Z" /> 
<path style="fill:#D27FF9; fill-opacity:1.0; 
stroke:#D27FF9; stroke-width:0; stroke-opacity:1; 
stroke-linecap:round; stroke-linejoin:round;fill-rule:evenodd;"
d="M 21452.6,4101.79
21481.6,4107.06
21509.9,4115.15
21547.6,4130.9
21547.6,4130.9
21573.3,4145.34
21597.4,4162.23
21619.7,4181.4
21640.1,4202.67
21658.3,4225.83
21674.1,4250.66
21687.4,4276.92
21698.1,4304.36
21706,4332.71
21711.1,4361.71
21713.3,4391.06
21712.7,4420.49
21709.2,4449.72
21702.8,4478.47
21693.6,4506.45
21681.8,4533.39
21673.3,4549.23
21382.7,5052.48
21366.7,5077.22
21348.4,5100.28
21328,5121.44
21305.5,5140.48
21281.3,5157.24
21255.6,5171.54
21228.6,5183.25
21200.5,5192.26
21171.8,5198.47
21142.5,5201.84
21113.1,5202.32
21083.7,5199.91
21054.8,5194.64
21026.5,5186.56
20988.7,5170.81
20988.7,5170.81
20963.1,5156.36
20939,5139.48
20916.6,5120.31
20896.3,5099.04
20878.1,5075.88
20862.3,5051.05
20849,5024.79
20838.3,4997.35
20830.4,4968.99
20825.3,4940
20823,4910.64
20823.6,4881.21
20827.2,4851.98
20833.5,4823.24
20842.7,4795.26
20854.6,4768.31
20863.1,4752.48
21153.6,4249.23
21169.6,4224.48
21187.9,4201.42
21208.4,4180.27
21230.8,4161.22
21255,4144.47
21280.8,4130.17
21307.8,4118.46
21335.8,4109.45
21364.6,4103.24
21393.8,4099.87
21423.3,4099.39
Z" /> 
</g>
<g >
</g>
<g style="fill:#D27FF9; fill-opacity:1.0; 
stroke:#D27FF9; stroke-width:0; stroke-opacity:1; 
stroke-linecap:round; stroke-linejoin:round;">
<path style="fill:#D27FF9; fill-opacity:1.0; 
stroke:#D27FF9; stroke-width:0; stroke-opacity:1; 
stroke-linecap:round; stroke-linejoin:round;fill-rule:evenodd;"
d="M 9421.01,18629.4
9449.97,18634.6
9478.28,18642.7
9516.01,18658.5
9516.01,18658.5
9541.67,18672.9
9565.78,18689.8
9588.13,18709
9608.49,18730.2
9626.66,18753.4
9642.48,18778.2
9655.79,18804.5
9666.46,18831.9
9674.38,18860.3
9679.49,18889.3
9681.74,18918.6
9681.1,18948.1
9677.57,18977.3
9671.2,19006
9662.04,19034
9650.18,19061
9641.66,19076.8
9351.11,19580
9335.15,19604.8
9316.85,19627.8
9296.38,19649
9273.93,19668
9249.72,19684.8
9223.99,19699.1
9196.97,19710.8
9168.94,19719.8
9140.17,19726
9110.92,19729.4
9081.48,19729.9
9052.14,19727.5
9023.18,19722.2
8994.87,19714.1
8957.14,19698.4
8957.13,19698.4
8931.48,19683.9
8907.36,19667
8885.02,19647.9
8864.66,19626.6
8846.49,19603.4
8830.67,19578.6
8817.36,19552.3
8806.69,19524.9
8798.77,19496.6
8793.65,19467.6
8791.41,19438.2
8792.05,19408.8
8795.58,19379.5
8801.95,19350.8
8811.11,19322.8
8822.97,19295.9
8831.49,19280
9122.04,18776.8
9138,18752
9156.3,18729
9176.77,18707.8
9199.22,18688.8
9223.43,18672
9249.16,18657.7
9276.17,18646
9304.2,18637
9332.98,18630.8
9362.23,18627.4
9391.67,18626.9
Z" /> 
<path style="fill:#D27FF9; fill-opacity:1.0; 
stroke:#D27FF9; stroke-width:0; stroke-opacity:1; 
stroke-linecap:round; stroke-linejoin:round;fill-rule:evenodd;"
d="M 10102.9,19023.1
10131.9,19028.3
10160.2,19036.4
10197.9,19052.2
10197.9,19052.2
10223.6,19066.6
10247.7,19083.5
10270,19102.7
10290.4,19123.9
10308.6,19147.1
10324.4,19171.9
10337.7,19198.2
10348.4,19225.6
10356.3,19254
10361.4,19283
10363.6,19312.3
10363,19341.8
10359.5,19371
10353.1,19399.7
10343.9,19427.7
10332.1,19454.7
10323.6,19470.5
10033,19973.7
10017.1,19998.5
9998.76,20021.5
9978.29,20042.7
9955.84,20061.7
9931.63,20078.5
9905.9,20092.8
9878.88,20104.5
9850.85,20113.5
9822.08,20119.7
9792.83,20123.1
9763.39,20123.6
9734.05,20121.2
9705.09,20115.9
9676.78,20107.8
9639.04,20092.1
9639.04,20092.1
9613.39,20077.6
9589.27,20060.7
9566.93,20041.6
9546.57,20020.3
9528.4,19997.1
9512.58,19972.3
9499.27,19946
9488.6,19918.6
9480.68,19890.3
9475.56,19861.3
9473.32,19831.9
9473.96,19802.5
9477.49,19773.2
9483.86,19744.5
9493.02,19716.5
9504.88,19689.6
9513.4,19673.7
9803.95,19170.5
9819.91,19145.7
9838.21,19122.7
9858.68,19101.5
9881.13,19082.5
9905.34,19065.7
9931.07,19051.4
9958.08,19039.7
9986.11,19030.7
10014.9,19024.5
10044.1,19021.1
10073.6,19020.6
Z" /> 
<path style="fill:#D27FF9; fill-opacity:1.0; 
stroke:#D27FF9; stroke-width:0; stroke-opacity:1; 
stroke-linecap:round; stroke-linejoin:round;fill-rule:evenodd;"
d="M 10784.8,19416.8
10813.8,19422
10842.1,19430.1
10879.8,19445.9
10879.8,19445.9
10905.5,19460.3
10929.6,19477.2
10951.9,19496.4
10972.3,19517.6
10990.5,19540.8
11006.3,19565.6
11019.6,19591.9
11030.3,19619.3
11038.2,19647.7
11043.3,19676.7
11045.6,19706
11044.9,19735.5
11041.4,19764.7
11035,19793.4
11025.9,19821.4
11014,19848.4
11005.5,19864.2
10714.9,20367.4
10699,20392.2
10680.7,20415.2
10660.2,20436.4
10637.7,20455.4
10613.5,20472.2
10587.8,20486.5
10560.8,20498.2
10532.8,20507.2
10504,20513.4
10474.7,20516.8
10445.3,20517.3
10416,20514.9
10387,20509.6
10358.7,20501.5
10321,20485.8
10321,20485.8
10295.3,20471.3
10271.2,20454.4
10248.8,20435.3
10228.5,20414
10210.3,20390.8
10194.5,20366
10181.2,20339.7
10170.5,20312.3
10162.6,20284
10157.5,20255
10155.2,20225.6
10155.9,20196.2
10159.4,20166.9
10165.8,20138.2
10174.9,20110.2
10186.8,20083.3
10195.3,20067.4
10485.9,19564.2
10501.8,19539.4
10520.1,19516.4
10540.6,19495.2
10563,19476.2
10587.2,19459.4
10613,19445.1
10640,19433.4
10668,19424.4
10696.8,19418.2
10726,19414.8
10755.5,19414.3
Z" /> 
<path style="fill:#D27FF9; fill-opacity:1.0; 
stroke:#D27FF9; stroke-width:0; stroke-opacity:1; 
stroke-linecap:round; stroke-linejoin:round;fill-rule:evenodd;"
d="M 11466.7,19810.5
11495.7,19815.7
11524,19823.8
11561.7,19839.6
11561.7,19839.6
11587.4,19854
11611.5,19870.9
11633.9,19890.1
11654.2,19911.3
11672.4,19934.5
11688.2,19959.3
11701.5,19985.6
11712.2,20013
11720.1,20041.4
11725.2,20070.4
11727.5,20099.7
11726.8,20129.2
11723.3,20158.4
11716.9,20187.1
11707.8,20215.1
11695.9,20242.1
11687.4,20257.9
11396.8,20761.1
11380.9,20785.9
11362.6,20808.9
11342.1,20830.1
11319.7,20849.1
11295.4,20865.9
11269.7,20880.2
11242.7,20891.9
11214.7,20900.9
11185.9,20907.1
11156.6,20910.5
11127.2,20911
11097.9,20908.6
11068.9,20903.3
11040.6,20895.2
11002.9,20879.5
11002.9,20879.5
10977.2,20865
10953.1,20848.1
10930.7,20829
10910.4,20807.7
10892.2,20784.5
10876.4,20759.7
10863.1,20733.4
10852.4,20706
10844.5,20677.7
10839.4,20648.7
10837.1,20619.3
10837.8,20589.9
10841.3,20560.6
10847.7,20531.9
10856.8,20503.9
10868.7,20477
10877.2,20461.1
11167.8,19957.9
11183.7,19933.1
11202,19910.1
11222.5,19888.9
11245,19869.9
11269.2,19853.1
11294.9,19838.8
11321.9,19827.1
11349.9,19818.1
11378.7,19811.9
11408,19808.5
11437.4,19808
Z" /> 
<path style="fill:#D27FF9; fill-opacity:1.0; 
stroke:#D27FF9; stroke-width:0; stroke-opacity:1; 
stroke-linecap:round; stroke-linejoin:round;fill-rule:evenodd;"
d="M 12148.6,20204.2
12177.6,20209.4
12205.9,20217.5
12243.7,20233.3
12243.7,20233.3
12269.3,20247.7
12293.4,20264.6
12315.8,20283.8
12336.1,20305
12354.3,20328.2
12370.1,20353
12383.4,20379.3
12394.1,20406.7
12402,20435.1
12407.1,20464.1
12409.4,20493.4
12408.7,20522.9
12405.2,20552.1
12398.8,20580.8
12389.7,20608.8
12377.8,20635.8
12369.3,20651.6
12078.7,21154.8
12062.8,21179.6
12044.5,21202.6
12024,21223.8
12001.6,21242.8
11977.4,21259.6
11951.6,21273.9
11924.6,21285.6
11896.6,21294.6
11867.8,21300.8
11838.6,21304.2
11809.1,21304.7
11779.8,21302.3
11750.8,21297
11722.5,21288.9
11684.8,21273.2
11684.8,21273.2
11659.1,21258.7
11635,21241.8
11612.7,21222.7
11592.3,21201.4
11574.1,21178.2
11558.3,21153.4
11545,21127.1
11534.3,21099.7
11526.4,21071.4
11521.3,21042.4
11519,21013
11519.7,20983.6
11523.2,20954.3
11529.6,20925.6
11538.8,20897.6
11550.6,20870.7
11559.1,20854.8
11849.7,20351.6
11865.6,20326.8
11883.9,20303.8
11904.4,20282.6
11926.9,20263.6
11951.1,20246.8
11976.8,20232.5
12003.8,20220.8
12031.8,20211.8
12060.6,20205.6
12089.9,20202.2
12119.3,20201.8
Z" /> 
</g>
<g >
</g>
<g >
</g>
<g >
</g>
<g style="fill:#C27661; fill-opacity:1.0; 
stroke:#C27661; stroke-width:0; stroke-opacity:1; 
stroke-linecap:round; stroke-linejoin:round;">
<path style="fill:#C27661; fill-opacity:1.0; 
stroke:#C27661; stroke-width:0; stroke-opacity:1; 
stroke-linecap:round; stroke-linejoin:round;fill-rule:evenodd;"
d="M 15954.7,4139.04
15954.7,3745.34
16624,3745.34
16624,4139.04
Z" /> 
<path style="fill:#C27661; fill-opacity:1.0; 
stroke:#C27661; stroke-width:0; stroke-opacity:1; 
stroke-linecap:round; stroke-linejoin:round;fill-rule:evenodd;"
d="M 15954.7,2879.2
15954.7,2485.5
16624,2485.5
16624,2879.2
Z" /> 
<path style="fill:#C27661; fill-opacity:1.0; 
stroke:#C27661; stroke-width:0; stroke-opacity:1; 
stroke-linecap:round; stroke-linejoin:round;fill-rule:evenodd;"
d="M 13868.1,4139.04
13868.1,3745.34
14537.4,3745.34
14537.4,4139.04
Z" /> 
<path style="fill:#C27661; fill-opacity:1.0; 
stroke:#C27661; stroke-width:0; stroke-opacity:1; 
stroke-linecap:round; stroke-linejoin:round;fill-rule:evenodd;"
d="M 13868.1,2879.2
13868.1,2485.5
14537.4,2485.5
14537.4,2879.2
Z" /> 
</g>
<g >
</g>
<g style="fill:#C27661; fill-opacity:1.0; 
stroke:#C27661; stroke-width:0; stroke-opacity:1; 
stroke-linecap:round; stroke-linejoin:round;">
<path style="fill:#C27661; fill-opacity:1.0; 
stroke:#C27661; stroke-width:0; stroke-opacity:1; 
stroke-linecap:round; stroke-linejoin:round;fill-rule:evenodd;"
d="M 15954.7,21225.7
15954.7,20832
16624,20832
16624,21225.7
Z" /> 
<path style="fill:#C27661; fill-opacity:1.0; 
stroke:#C27661; stroke-width:0; stroke-opacity:1; 
stroke-linecap:round; stroke-linejoin:round;fill-rule:evenodd;"
d="M 15954.7,19965.8
15954.7,19572.1
16624,19572.1
16624,19965.8
Z" /> 
<path style="fill:#C27661; fill-opacity:1.0; 
stroke:#C27661; stroke-width:0; stroke-opacity:1; 
stroke-linecap:round; stroke-linejoin:round;fill-rule:evenodd;"
d="M 13868.1,21225.7
13868.1,20832
14537.4,20832
14537.4,21225.7
Z" /> 
<path style="fill:#C27661; fill-opacity:1.0; 
stroke:#C27661; stroke-width:0; stroke-opacity:1; 
stroke-linecap:round; stroke-linejoin:round;fill-rule:evenodd;"
d="M 13868.1,19965.8
13868.1,19572.1
14537.4,19572.1
14537.4,19965.8
Z" /> 
</g>
<g >
</g>
<g >
</g>
<g style="fill:#C27661; fill-opacity:1.0; 
stroke:#C27661; stroke-width:0; stroke-opacity:1; 
stroke-linecap:round; stroke-linejoin:round;">
<path style="fill:#C27661; fill-opacity:1.0; 
stroke:#C27661; stroke-width:0; stroke-opacity:1; 
stroke-linecap:round; stroke-linejoin:round;fill-rule:evenodd;"
d="M 21269.7,9217.78
21269.7,8824.08
21939,8824.08
21939,9217.78
Z" /> 
<path style="fill:#C27661; fill-opacity:1.0; 
stroke:#C27661; stroke-width:0; stroke-opacity:1; 
stroke-linecap:round; stroke-linejoin:round;fill-rule:evenodd;"
d="M 18789.4,9217.78
18789.4,8824.08
19458.7,8824.08
19458.7,9217.78
Z" /> 
<path style="fill:#C27661; fill-opacity:1.0; 
stroke:#C27661; stroke-width:0; stroke-opacity:1; 
stroke-linecap:round; stroke-linejoin:round;fill-rule:evenodd;"
d="M 21269.7,7721.72
21269.7,7328.02
21939,7328.02
21939,7721.72
Z" /> 
<path style="fill:#C27661; fill-opacity:1.0; 
stroke:#C27661; stroke-width:0; stroke-opacity:1; 
stroke-linecap:round; stroke-linejoin:round;fill-rule:evenodd;"
d="M 18789.4,7721.72
18789.4,7328.02
19458.7,7328.02
19458.7,7721.72
Z" /> 
</g>
<g >
</g>
<g >
</g>
<g style="fill:#C27661; fill-opacity:1.0; 
stroke:#C27661; stroke-width:0; stroke-opacity:1; 
stroke-linecap:round; stroke-linejoin:round;">
<path style="fill:#C27661; fill-opacity:1.0; 
stroke:#C27661; stroke-width:0; stroke-opacity:1; 
stroke-linecap:round; stroke-linejoin:round;fill-rule:evenodd;"
d="M 13139.8,10418.6
12549.2,10418.6
12549.2,9631.17
13139.8,9631.17
Z" /> 
<path style="fill:#C27661; fill-opacity:1.0; 
stroke:#C27661; stroke-width:0; stroke-opacity:1; 
stroke-linecap:round; stroke-linejoin:round;fill-rule:evenodd;"
d="M 14950.8,10418.6
14360.2,10418.6
14360.2,9631.17
14950.8,9631.17
Z" /> 
<path style="fill:#C27661; fill-opacity:1.0; 
stroke:#C27661; stroke-width:0; stroke-opacity:1; 
stroke-linecap:round; stroke-linejoin:round;fill-rule:evenodd;"
d="M 14045.3,10418.6
13454.7,10418.6
13454.7,9631.17
14045.3,9631.17
Z" /> 
<path style="fill:#C27661; fill-opacity:1.0; 
stroke:#C27661; stroke-width:0; stroke-opacity:1; 
stroke-linecap:round; stroke-linejoin:round;fill-rule:evenodd;"
d="M 14498,7938.25
13002,7938.25
13002,7150.85
14498,7150.85
Z" /> 
</g>
<g >
</g>
<g >
</g>
<g >
</g>
<g >
</g>
<g >
</g>
<g style="fill:#C27661; fill-opacity:1.0; 
stroke:#C27661; stroke-width:0; stroke-opacity:1; 
stroke-linecap:round; stroke-linejoin:round;">
<path style="fill:#C27661; fill-opacity:1.0; 
stroke:#C27661; stroke-width:0; stroke-opacity:1; 
stroke-linecap:round; stroke-linejoin:round;fill-rule:evenodd;"
d="M 17834.5,7485.97
17844,7487.39
17853.4,7489.74
17862.5,7492.99
17871.2,7497.12
17879.5,7502.09
17887.2,7507.84
17894.4,7514.33
17900.9,7521.48
17906.6,7529.24
17911.6,7537.53
17915.7,7546.26
17919,7555.35
17921.3,7564.72
17922.8,7574.28
17923.2,7583.92
17923.2,7938.25
17922.8,7947.9
17921.3,7957.46
17919,7966.83
17915.7,7975.92
17911.6,7984.65
17906.6,7992.94
17900.9,8000.69
17894.4,8007.85
17887.2,8014.34
17879.5,8020.09
17871.2,8025.06
17862.5,8029.19
17853.4,8032.44
17844,8034.79
17834.5,8036.21
17824.8,8036.68
17568.9,8036.68
17559.3,8036.21
17549.7,8034.79
17540.3,8032.44
17531.2,8029.19
17522.5,8025.06
17514.2,8020.09
17506.5,8014.34
17499.3,8007.85
17492.8,8000.69
17487.1,7992.94
17482.1,7984.65
17478,7975.92
17474.7,7966.83
17472.4,7957.46
17470.9,7947.9
17470.5,7938.25
17470.5,7583.92
17470.9,7574.28
17472.4,7564.72
17474.7,7555.35
17478,7546.26
17482.1,7537.53
17487.1,7529.24
17492.8,7521.48
17499.3,7514.33
17506.5,7507.84
17514.2,7502.09
17522.5,7497.12
17531.2,7492.99
17540.3,7489.74
17549.7,7487.39
17559.3,7485.97
17568.9,7485.5
17824.8,7485.5
Z" /> 
<path style="fill:#C27661; fill-opacity:1.0; 
stroke:#C27661; stroke-width:0; stroke-opacity:1; 
stroke-linecap:round; stroke-linejoin:round;fill-rule:evenodd;"
d="M 17027.4,7485.97
17036.9,7487.39
17046.3,7489.74
17055.4,7492.99
17064.1,7497.12
17072.4,7502.09
17080.2,7507.84
17087.3,7514.33
17093.8,7521.48
17099.6,7529.24
17104.5,7537.53
17108.7,7546.26
17111.9,7555.35
17114.3,7564.72
17115.7,7574.28
17116.1,7583.92
17116.1,7938.25
17115.7,7947.9
17114.3,7957.46
17111.9,7966.83
17108.7,7975.92
17104.5,7984.65
17099.6,7992.94
17093.8,8000.69
17087.3,8007.85
17080.2,8014.34
17072.4,8020.09
17064.1,8025.06
17055.4,8029.19
17046.3,8032.44
17036.9,8034.79
17027.4,8036.21
17017.7,8036.68
16761.8,8036.68
16752.2,8036.21
16742.6,8034.79
16733.2,8032.44
16724.1,8029.19
16715.4,8025.06
16707.1,8020.09
16699.4,8014.34
16692.2,8007.85
16685.7,8000.69
16680,7992.94
16675,7984.65
16670.9,7975.92
16667.6,7966.83
16665.3,7957.46
16663.9,7947.9
16663.4,7938.25
16663.4,7583.92
16663.9,7574.28
16665.3,7564.72
16667.6,7555.35
16670.9,7546.26
16675,7537.53
16680,7529.24
16685.7,7521.48
16692.2,7514.33
16699.4,7507.84
16707.1,7502.09
16715.4,7497.12
16724.1,7492.99
16733.2,7489.74
16742.6,7487.39
16752.2,7485.97
16761.8,7485.5
17017.7,7485.5
Z" /> 
</g>
<g >
</g>
<g style="fill:#C27661; fill-opacity:1.0; 
stroke:#C27661; stroke-width:0; stroke-opacity:1; 
stroke-linecap:round; stroke-linejoin:round;">
<path style="fill:#C27661; fill-opacity:1.0; 
stroke:#C27661; stroke-width:0; stroke-opacity:1; 
stroke-linecap:round; stroke-linejoin:round;fill-rule:evenodd;"
d="M 8789.37,10339.8
8789.37,10772.9
7805.12,10772.9
7805.12,10339.8
Z" /> 
<path style="fill:#C27661; fill-opacity:1.0; 
stroke:#C27661; stroke-width:0; stroke-opacity:1; 
stroke-linecap:round; stroke-linejoin:round;fill-rule:evenodd;"
d="M 8789.37,13095.7
8789.37,13528.8
7805.12,13528.8
7805.12,13095.7
Z" /> 
<path style="fill:#C27661; fill-opacity:1.0; 
stroke:#C27661; stroke-width:0; stroke-opacity:1; 
stroke-linecap:round; stroke-linejoin:round;fill-rule:evenodd;"
d="M 8789.37,11324.1
8789.37,11757.2
7805.12,11757.2
7805.12,11324.1
Z" /> 
<path style="fill:#C27661; fill-opacity:1.0; 
stroke:#C27661; stroke-width:0; stroke-opacity:1; 
stroke-linecap:round; stroke-linejoin:round;fill-rule:evenodd;"
d="M 8789.37,12111.5
8789.37,12544.6
7805.12,12544.6
7805.12,12111.5
Z" /> 
</g>
<g >
</g>
<g >
</g>
<g >
</g>
<g >
</g>
<g >
</g>
<g >
</g>
<g >
</g>
<g >
</g>
<g >
</g>
<g style="fill:#C27661; fill-opacity:1.0; 
stroke:#C27661; stroke-width:0; stroke-opacity:1; 
stroke-linecap:round; stroke-linejoin:round;">
<path style="fill:#C27661; fill-opacity:1.0; 
stroke:#C27661; stroke-width:0; stroke-opacity:1; 
stroke-linecap:round; stroke-linejoin:round;fill-rule:evenodd;"
d="M 11318.7,11659.2
11328.3,11660.6
11337.6,11663
11346.7,11666.2
11355.5,11670.3
11363.7,11675.3
11371.5,11681.1
11378.7,11687.6
11385.1,11694.7
11390.9,11702.5
11395.9,11710.8
11400,11719.5
11403.2,11728.6
11405.6,11738
11407,11747.5
11407.5,11757.2
11407.5,12111.5
11407,12121.1
11405.6,12130.7
11403.2,12140.1
11400,12149.1
11395.9,12157.9
11390.9,12166.2
11385.1,12173.9
11378.7,12181.1
11371.5,12187.6
11363.7,12193.3
11355.5,12198.3
11346.7,12202.4
11337.6,12205.7
11328.3,12208
11318.7,12209.4
11309.1,12209.9
11053.1,12209.9
11043.5,12209.4
11033.9,12208
11024.6,12205.7
11015.5,12202.4
11006.8,12198.3
10998.5,12193.3
10990.7,12187.6
10983.6,12181.1
10977.1,12173.9
10971.3,12166.2
10966.3,12157.9
10962.2,12149.1
10959,12140.1
10956.6,12130.7
10955.2,12121.1
10954.7,12111.5
10954.7,11757.2
10955.2,11747.5
10956.6,11738
10959,11728.6
10962.2,11719.5
10966.3,11710.8
10971.3,11702.5
10977.1,11694.7
10983.6,11687.6
10990.7,11681.1
10998.5,11675.3
11006.8,11670.3
11015.5,11666.2
11024.6,11663
11033.9,11660.6
11043.5,11659.2
11053.1,11658.7
11309.1,11658.7
Z" /> 
<path style="fill:#C27661; fill-opacity:1.0; 
stroke:#C27661; stroke-width:0; stroke-opacity:1; 
stroke-linecap:round; stroke-linejoin:round;fill-rule:evenodd;"
d="M 12125.8,11659.2
12135.3,11660.6
12144.7,11663
12153.8,11666.2
12162.5,11670.3
12170.8,11675.3
12178.6,11681.1
12185.7,11687.6
12192.2,11694.7
12198,11702.5
12202.9,11710.8
12207.1,11719.5
12210.3,11728.6
12212.7,11738
12214.1,11747.5
12214.6,11757.2
12214.6,12111.5
12214.1,12121.1
12212.7,12130.7
12210.3,12140.1
12207.1,12149.1
12202.9,12157.9
12198,12166.2
12192.2,12173.9
12185.7,12181.1
12178.6,12187.6
12170.8,12193.3
12162.5,12198.3
12153.8,12202.4
12144.7,12205.7
12135.3,12208
12125.8,12209.4
12116.1,12209.9
11860.2,12209.9
11850.6,12209.4
11841,12208
11831.7,12205.7
11822.6,12202.4
11813.8,12198.3
11805.6,12193.3
11797.8,12187.6
11790.6,12181.1
11784.2,12173.9
11778.4,12166.2
11773.4,12157.9
11769.3,12149.1
11766,12140.1
11763.7,12130.7
11762.3,12121.1
11761.8,12111.5
11761.8,11757.2
11762.3,11747.5
11763.7,11738
11766,11728.6
11769.3,11719.5
11773.4,11710.8
11778.4,11702.5
11784.2,11694.7
11790.6,11687.6
11797.8,11681.1
11805.6,11675.3
11813.8,11670.3
11822.6,11666.2
11831.7,11663
11841,11660.6
11850.6,11659.2
11860.2,11658.7
12116.1,11658.7
Z" /> 
</g>
<g >
</g>
<g style="fill:#C27661; fill-opacity:1.0; 
stroke:#C27661; stroke-width:0; stroke-opacity:1; 
stroke-linecap:round; stroke-linejoin:round;">
<path style="fill:#C27661; fill-opacity:1.0; 
stroke:#C27661; stroke-width:0; stroke-opacity:1; 
stroke-linecap:round; stroke-linejoin:round;fill-rule:evenodd;"
d="M 15649.4,11659.2
15659,11660.6
15668.3,11663
15677.4,11666.2
15686.2,11670.3
15694.4,11675.3
15702.2,11681.1
15709.4,11687.6
15715.8,11694.7
15721.6,11702.5
15726.6,11710.8
15730.7,11719.5
15734,11728.6
15736.3,11738
15737.7,11747.5
15738.2,11757.2
15738.2,12111.5
15737.7,12121.1
15736.3,12130.7
15734,12140.1
15730.7,12149.1
15726.6,12157.9
15721.6,12166.2
15715.8,12173.9
15709.4,12181.1
15702.2,12187.6
15694.4,12193.3
15686.2,12198.3
15677.4,12202.4
15668.3,12205.7
15659,12208
15649.4,12209.4
15639.8,12209.9
15383.9,12209.9
15374.2,12209.4
15364.7,12208
15355.3,12205.7
15346.2,12202.4
15337.5,12198.3
15329.2,12193.3
15321.4,12187.6
15314.3,12181.1
15307.8,12173.9
15302,12166.2
15297.1,12157.9
15292.9,12149.1
15289.7,12140.1
15287.3,12130.7
15285.9,12121.1
15285.4,12111.5
15285.4,11757.2
15285.9,11747.5
15287.3,11738
15289.7,11728.6
15292.9,11719.5
15297.1,11710.8
15302,11702.5
15307.8,11694.7
15314.3,11687.6
15321.4,11681.1
15329.2,11675.3
15337.5,11670.3
15346.2,11666.2
15355.3,11663
15364.7,11660.6
15374.2,11659.2
15383.9,11658.7
15639.8,11658.7
Z" /> 
<path style="fill:#C27661; fill-opacity:1.0; 
stroke:#C27661; stroke-width:0; stroke-opacity:1; 
stroke-linecap:round; stroke-linejoin:round;fill-rule:evenodd;"
d="M 16456.5,11659.2
16466.1,11660.6
16475.4,11663
16484.5,11666.2
16493.2,11670.3
16501.5,11675.3
16509.3,11681.1
16516.4,11687.6
16522.9,11694.7
16528.7,11702.5
16533.7,11710.8
16537.8,11719.5
16541,11728.6
16543.4,11738
16544.8,11747.5
16545.3,11757.2
16545.3,12111.5
16544.8,12121.1
16543.4,12130.7
16541,12140.1
16537.8,12149.1
16533.7,12157.9
16528.7,12166.2
16522.9,12173.9
16516.4,12181.1
16509.3,12187.6
16501.5,12193.3
16493.2,12198.3
16484.5,12202.4
16475.4,12205.7
16466.1,12208
16456.5,12209.4
16446.9,12209.9
16190.9,12209.9
16181.3,12209.4
16171.7,12208
16162.4,12205.7
16153.3,12202.4
16144.5,12198.3
16136.3,12193.3
16128.5,12187.6
16121.3,12181.1
16114.9,12173.9
16109.1,12166.2
16104.1,12157.9
16100,12149.1
16096.8,12140.1
16094.4,12130.7
16093,12121.1
16092.5,12111.5
16092.5,11757.2
16093,11747.5
16094.4,11738
16096.8,11728.6
16100,11719.5
16104.1,11710.8
16109.1,11702.5
16114.9,11694.7
16121.3,11687.6
16128.5,11681.1
16136.3,11675.3
16144.5,11670.3
16153.3,11666.2
16162.4,11663
16171.7,11660.6
16181.3,11659.2
16190.9,11658.7
16446.9,11658.7
Z" /> 
</g>
<g >
</g>
<g >
</g>
<g >
</g>
</g>
<g style="fill:#000000; fill-opacity:1.0; 
stroke:#000000; stroke-width:0; stroke-opacity:1; 
stroke-linecap:round; stroke-linejoin:round;">
</g>
<g style="fill:#C8A339; fill-opacity:1.0; 
stroke:#C8A339; stroke-width:0; stroke-opacity:1; 
stroke-linecap:round; stroke-linejoin:round;">
</g>
<g style="fill:#C8A339; fill-opacity:1.0; 
stroke:#C8A339; stroke-width:39.3701; stroke-opacity:1; 
stroke-linecap:round; stroke-linejoin:round;">
</g>
<g style="fill:#C8A339; fill-opacity:0.0; 
stroke:#C8A339; stroke-width:39.3701; stroke-opacity:1; 
stroke-linecap:round; stroke-linejoin:round;">
<path d="M5947 6526
L5947 6526
" />
<path d="M5947 17263
L5947 6526
" />
<path d="M15246 22632
L5947 17263
" />
<path d="M24545 17263
L15246 22632
" />
<path d="M24545 6526
L24545 17263
" />
<path d="M15246 1157
L24545 6526
" />
<path d="M5947 6526
L15246 1157
" />
<g >
</g>
<g >
</g>
<g >
</g>
<g >
</g>
<g >
</g>
<g >
</g>
<g >
</g>
<g >
</g>
<g >
</g>
<g >
</g>
<g >
</g>
<g >
</g>
<g >
</g>
<g >
</g>
<g >
</g>
<g >
</g>
<g >
</g>
<g >
</g>
<g >
</g>
<g >
</g>
<g >
</g>
<g >
</g>
<g >
</g>
<g >
</g>
<g >
</g>
<g >
</g>
<g >
</g>
<g >
</g>
</g> 
</svg>
