<?xml version="1.0" standalone="no"?>
 <!DOCTYPE svg PUBLIC "-//W3C//DTD SVG 1.1//EN" 
 "http://www.w3.org/Graphics/SVG/1.1/DTD/svg11.dtd"> 
<svg
  xmlns:svg="http://www.w3.org/2000/svg"
  xmlns="http://www.w3.org/2000/svg"
  xmlns:xlink="http://www.w3.org/1999/xlink"
  version="1.1"
  width="6.502400cm" height="5.488940cm" viewBox="0 0 25600 21610">
<title>SVG Picture created as esp8266_01-B_Mask.svg date 2020/09/05 00:53:38 </title>
  <desc>Picture generated by PCBNEW </desc>
<g style="fill:#000000; fill-opacity:1;stroke:#000000; stroke-opacity:1;
stroke-linecap:round; stroke-linejoin:round;"
 transform="translate(0 0) scale(1 1)">
</g>
<g style="fill:#000000; fill-opacity:0.0; 
stroke:#000000; stroke-width:-0.000393701; stroke-opacity:1; 
stroke-linecap:round; stroke-linejoin:round;">
</g>
<g style="fill:#000000; fill-opacity:1.0; 
stroke:#000000; stroke-width:0; stroke-opacity:1; 
stroke-linecap:round; stroke-linejoin:round;">
<path style="fill:#000000; fill-opacity:1.0; 
stroke:#000000; stroke-width:0; stroke-opacity:1; 
stroke-linecap:round; stroke-linejoin:round;fill-rule:evenodd;"
d="M 12308.7,18815.7
12369.9,18829.9
12410.1,18846.7
12410.1,18846.7
12463.2,18880.2
12508.8,18923.3
12545,18974.5
12570.6,19031.8
12584.5,19093
12586.2,19155.7
12575.7,19217.6
12544.2,19293.1
12287.6,19737.5
12263.4,19779.4
12260.5,19785.2
12257.7,19792
12222.7,19844.4
12178.1,19889
12125.7,19924
12067.4,19948.1
12005.6,19960.4
11942.5,19960.4
11880.7,19948.1
11822.4,19924
11770,19889
11725.4,19844.4
11690.4,19792
11666.3,19733.7
11654,19671.9
11654,19608.8
11666.3,19547
11690.4,19488.7
11701.2,19472.6
11702.9,19469.9
11712.3,19453.6
11926.5,19082.5
11988.6,18975.1
11988.6,18975.1
11989.8,18973
12026.3,18922
12072.1,18879.1
12125.4,18846
12184.1,18823.8
12246,18813.6
Z" /> 
<path style="fill:#000000; fill-opacity:1.0; 
stroke:#000000; stroke-width:0; stroke-opacity:1; 
stroke-linecap:round; stroke-linejoin:round;fill-rule:evenodd;"
d="M 11626.8,18422
11687.9,18436.2
11728.2,18453
11728.2,18453
11781.3,18486.5
11826.9,18529.6
11863.1,18580.8
11888.7,18638.1
11902.6,18699.3
11904.3,18762
11893.8,18823.9
11862.3,18899.4
11605.7,19343.8
11581.4,19385.7
11578.6,19391.5
11575.8,19398.3
11540.8,19450.7
11496.2,19495.3
11443.8,19530.3
11385.5,19554.4
11323.7,19566.7
11260.6,19566.7
11198.8,19554.4
11140.5,19530.3
11088.1,19495.3
11043.5,19450.7
11008.5,19398.3
10984.4,19340
10972.1,19278.2
10972.1,19215.1
10984.4,19153.3
11008.5,19095
11019.3,19078.9
11021,19076.2
11030.4,19059.9
11244.6,18688.8
11306.7,18581.4
11306.7,18581.4
11307.9,18579.3
11344.4,18528.3
11390.2,18485.4
11443.5,18452.3
11502.2,18430.1
11564.1,18419.9
Z" /> 
<path style="fill:#000000; fill-opacity:1.0; 
stroke:#000000; stroke-width:0; stroke-opacity:1; 
stroke-linecap:round; stroke-linejoin:round;fill-rule:evenodd;"
d="M 10944.9,18028.3
11006,18042.5
11046.3,18059.3
11046.3,18059.3
11099.4,18092.8
11145,18135.9
11181.2,18187.1
11206.8,18244.4
11220.7,18305.6
11222.4,18368.3
11211.9,18430.2
11180.3,18505.7
10909.3,18975.1
10899.5,18992
10896.7,18997.8
10893.9,19004.6
10858.9,19057
10814.3,19101.6
10761.9,19136.6
10703.6,19160.7
10641.8,19173
10578.7,19173
10516.9,19160.7
10458.6,19136.6
10406.2,19101.6
10361.6,19057
10326.6,19004.6
10302.5,18946.3
10290.2,18884.5
10290.2,18821.4
10302.5,18759.6
10326.6,18701.3
10337.4,18685.2
10339.1,18682.5
10348.5,18666.2
10562.7,18295.1
10624.7,18187.7
10624.7,18187.7
10626,18185.6
10662.5,18134.6
10708.3,18091.7
10761.6,18058.5
10820.3,18036.4
10882.2,18026.2
Z" /> 
<path style="fill:#000000; fill-opacity:1.0; 
stroke:#000000; stroke-width:0; stroke-opacity:1; 
stroke-linecap:round; stroke-linejoin:round;fill-rule:evenodd;"
d="M 10263,17634.6
10324.1,17648.8
10364.4,17665.6
10364.4,17665.6
10417.5,17699.1
10463,17742.2
10499.3,17793.4
10524.9,17850.7
10538.8,17911.9
10540.5,17974.6
10530,18036.5
10498.4,18112
10227.4,18581.4
10217.6,18598.3
10214.8,18604.1
10212,18610.9
10176.9,18663.3
10132.4,18707.9
10079.9,18742.9
10021.7,18767
9959.85,18779.3
9896.8,18779.3
9834.96,18767
9776.71,18742.9
9724.29,18707.9
9679.7,18663.3
9644.68,18610.9
9620.55,18552.6
9608.25,18490.8
9608.25,18427.7
9620.55,18365.9
9644.68,18307.6
9655.47,18291.5
9657.17,18288.8
9666.55,18272.5
9823.95,17999.9
9942.83,17794
9942.84,17794
9944.04,17791.9
9980.59,17740.9
10026.4,17698
10079.7,17664.8
10138.4,17642.7
10200.3,17632.5
Z" /> 
<path style="fill:#000000; fill-opacity:1.0; 
stroke:#000000; stroke-width:0; stroke-opacity:1; 
stroke-linecap:round; stroke-linejoin:round;fill-rule:evenodd;"
d="M 19584.5,18402.2
18960.8,18762.2
18600.8,18138.6
19224.4,17778.5
Z" /> 
<path style="fill:#000000; fill-opacity:1.0; 
stroke:#000000; stroke-width:0; stroke-opacity:1; 
stroke-linecap:round; stroke-linejoin:round;fill-rule:evenodd;"
d="M 9581.11,17240.9
9642.22,17255.1
9682.47,17271.9
9682.47,17271.9
9735.58,17305.4
9781.14,17348.5
9817.4,17399.7
9842.98,17457
9856.9,17518.2
9858.6,17580.9
9848.04,17642.8
9816.53,17718.3
9545.51,18187.7
9535.71,18204.6
9532.87,18210.4
9530.07,18217.2
9495.04,18269.6
9450.45,18314.2
9398.03,18349.2
9339.78,18373.3
9277.94,18385.6
9214.89,18385.6
9153.05,18373.3
9094.8,18349.2
9042.38,18314.2
8997.79,18269.6
8962.77,18217.2
8938.64,18158.9
8926.34,18097.1
8926.34,18034
8938.64,17972.2
8962.77,17913.9
8973.56,17897.8
8975.26,17895.1
9000.83,17850.8
9107.83,17665.4
9260.93,17400.3
9260.93,17400.3
9262.13,17398.2
9298.68,17347.2
9344.48,17304.3
9397.76,17271.1
9456.49,17249
9518.4,17238.8
Z" /> 
<path style="fill:#000000; fill-opacity:1.0; 
stroke:#000000; stroke-width:0; stroke-opacity:1; 
stroke-linecap:round; stroke-linejoin:round;fill-rule:evenodd;"
d="M 20063.7,17424.1
20129.2,17451.3
20188.2,17490.7
20238.4,17540.8
20277.8,17599.8
20304.9,17665.3
20318.7,17734.9
20318.7,17805.8
20304.9,17875.4
20277.8,17940.9
20238.4,17999.9
20188.2,18050
20129.2,18089.5
20063.7,18116.6
19994.1,18130.4
19923.2,18130.4
19853.6,18116.6
19788.1,18089.5
19729.1,18050
19679,17999.9
19639.6,17940.9
19612.4,17875.4
19598.6,17805.8
19598.6,17734.9
19612.4,17665.3
19639.6,17599.8
19679,17540.8
19729.1,17490.7
19788.1,17451.3
19853.6,17424.1
19923.2,17410.3
19994.1,17410.3
Z" /> 
<path style="fill:#000000; fill-opacity:1.0; 
stroke:#000000; stroke-width:0; stroke-opacity:1; 
stroke-linecap:round; stroke-linejoin:round;fill-rule:evenodd;"
d="M 18697.7,17058.1
18763.2,17085.2
18822.2,17124.6
18872.3,17174.8
18911.7,17233.8
18938.9,17299.3
18952.7,17368.9
18952.7,17439.8
18938.9,17509.4
18911.7,17574.9
18872.3,17633.9
18822.2,17684
18763.2,17723.4
18697.7,17750.6
18628.1,17764.4
18557.2,17764.4
18487.6,17750.6
18422.1,17723.4
18363.1,17684
18312.9,17633.9
18273.5,17574.9
18246.4,17509.4
18232.6,17439.8
18232.6,17368.9
18246.4,17299.3
18273.5,17233.8
18312.9,17174.8
18363.1,17124.6
18422.1,17085.2
18487.6,17058.1
18557.2,17044.3
18628.1,17044.3
Z" /> 
<path style="fill:#000000; fill-opacity:1.0; 
stroke:#000000; stroke-width:0; stroke-opacity:1; 
stroke-linecap:round; stroke-linejoin:round;fill-rule:evenodd;"
d="M 20929.7,16924.1
20995.2,16951.3
21054.2,16990.7
21104.4,17040.8
21143.8,17099.8
21170.9,17165.3
21184.8,17234.9
21184.8,17305.8
21170.9,17375.4
21143.8,17440.9
21104.4,17499.9
21054.2,17550
20995.2,17589.5
20929.7,17616.6
20860.2,17630.4
20789.2,17630.4
20719.7,17616.6
20654.1,17589.5
20595.2,17550
20545,17499.9
20505.6,17440.9
20478.4,17375.4
20464.6,17305.8
20464.6,17234.9
20478.4,17165.3
20505.6,17099.8
20545,17040.8
20595.2,16990.7
20654.1,16951.3
20719.7,16924.1
20789.2,16910.3
20860.2,16910.3
Z" /> 
<path style="fill:#000000; fill-opacity:1.0; 
stroke:#000000; stroke-width:0; stroke-opacity:1; 
stroke-linecap:round; stroke-linejoin:round;fill-rule:evenodd;"
d="M 19563.7,16558.1
19629.2,16585.2
19688.2,16624.6
19738.4,16674.8
19777.8,16733.8
19804.9,16799.3
19818.7,16868.9
19818.7,16939.8
19804.9,17009.4
19777.8,17074.9
19738.4,17133.9
19688.2,17184
19629.2,17223.4
19563.7,17250.6
19494.1,17264.4
19423.2,17264.4
19353.6,17250.6
19288.1,17223.4
19229.1,17184
19179,17133.9
19139.6,17074.9
19112.4,17009.4
19098.6,16939.8
19098.6,16868.9
19112.4,16799.3
19139.6,16733.8
19179,16674.8
19229.1,16624.6
19288.1,16585.2
19353.6,16558.1
19423.2,16544.3
19494.1,16544.3
Z" /> 
<path style="fill:#000000; fill-opacity:1.0; 
stroke:#000000; stroke-width:0; stroke-opacity:1; 
stroke-linecap:round; stroke-linejoin:round;fill-rule:evenodd;"
d="M 21795.7,16424.1
21861.3,16451.3
21920.2,16490.7
21970.4,16540.8
22009.8,16599.8
22037,16665.3
22050.8,16734.9
22050.8,16805.8
22037,16875.4
22009.8,16940.9
21970.4,16999.9
21920.2,17050
21861.3,17089.5
21795.7,17116.6
21726.2,17130.4
21655.2,17130.4
21585.7,17116.6
21520.2,17089.5
21461.2,17050
21411,16999.9
21371.6,16940.9
21344.5,16875.4
21330.6,16805.8
21330.6,16734.9
21344.5,16665.3
21371.6,16599.8
21411,16540.8
21461.2,16490.7
21520.2,16451.3
21585.7,16424.1
21655.2,16410.3
21726.2,16410.3
Z" /> 
<path style="fill:#000000; fill-opacity:1.0; 
stroke:#000000; stroke-width:0; stroke-opacity:1; 
stroke-linecap:round; stroke-linejoin:round;fill-rule:evenodd;"
d="M 20429.7,16058.1
20495.2,16085.2
20554.2,16124.6
20604.4,16174.8
20643.8,16233.8
20670.9,16299.3
20684.8,16368.9
20684.8,16439.8
20670.9,16509.4
20643.8,16574.9
20604.4,16633.9
20554.2,16684
20495.2,16723.4
20429.7,16750.6
20360.2,16764.4
20289.2,16764.4
20219.7,16750.6
20154.1,16723.4
20095.2,16684
20045,16633.9
20005.6,16574.9
19978.4,16509.4
19964.6,16439.8
19964.6,16368.9
19978.4,16299.3
20005.6,16233.8
20045,16174.8
20095.2,16124.6
20154.1,16085.2
20219.7,16058.1
20289.2,16044.3
20360.2,16044.3
Z" /> 
<path style="fill:#000000; fill-opacity:1.0; 
stroke:#000000; stroke-width:0; stroke-opacity:1; 
stroke-linecap:round; stroke-linejoin:round;fill-rule:evenodd;"
d="M 21295.7,15558.1
21361.3,15585.2
21420.2,15624.6
21470.4,15674.8
21509.8,15733.8
21537,15799.3
21550.8,15868.9
21550.8,15939.8
21537,16009.4
21509.8,16074.9
21470.4,16133.9
21420.2,16184
21361.3,16223.4
21295.7,16250.6
21226.2,16264.4
21155.2,16264.4
21085.7,16250.6
21020.2,16223.4
20961.2,16184
20911,16133.9
20871.6,16074.9
20844.5,16009.4
20830.6,15939.8
20830.6,15868.9
20844.5,15799.3
20871.6,15733.8
20911,15674.8
20961.2,15624.6
21020.2,15585.2
21085.7,15558.1
21155.2,15544.3
21226.2,15544.3
Z" /> 
<path style="fill:#000000; fill-opacity:1.0; 
stroke:#000000; stroke-width:0; stroke-opacity:1; 
stroke-linecap:round; stroke-linejoin:round;fill-rule:evenodd;"
d="M 22830.4,14445.1
22845.2,14449.5
22858.8,14456.8
22870.8,14466.6
22880.6,14478.6
22887.9,14492.2
22892.3,14507
22894.1,14524.8
22894.1,14953.1
22892.3,14970.9
22887.9,14985.7
22880.6,14999.4
22870.8,15011.3
22858.8,15021.1
22845.2,15028.4
22830.4,15032.9
22812.6,15034.6
22482.7,15034.6
22464.9,15032.9
22450.1,15028.4
22436.5,15021.1
22424.5,15011.3
22414.7,14999.4
22407.4,14985.7
22402.9,14970.9
22401.2,14953.1
22401.2,14524.8
22402.9,14507
22407.4,14492.2
22414.7,14478.6
22424.5,14466.6
22436.5,14456.8
22450.1,14449.5
22464.9,14445.1
22482.7,14443.3
22812.6,14443.3
Z" /> 
<path style="fill:#000000; fill-opacity:1.0; 
stroke:#000000; stroke-width:0; stroke-opacity:1; 
stroke-linecap:round; stroke-linejoin:round;fill-rule:evenodd;"
d="M 23460.3,14445.1
23475.1,14449.5
23488.7,14456.8
23500.7,14466.6
23510.5,14478.6
23517.8,14492.2
23522.3,14507
23524,14524.8
23524,14953.1
23522.3,14970.9
23517.8,14985.7
23510.5,14999.4
23500.7,15011.3
23488.7,15021.1
23475.1,15028.4
23460.3,15032.9
23442.5,15034.6
23112.6,15034.6
23094.8,15032.9
23080,15028.4
23066.4,15021.1
23054.4,15011.3
23044.6,14999.4
23037.3,14985.7
23032.9,14970.9
23031.1,14953.1
23031.1,14524.8
23032.9,14507
23037.3,14492.2
23044.6,14478.6
23054.4,14466.6
23066.4,14456.8
23080,14449.5
23094.8,14445.1
23112.6,14443.3
23442.5,14443.3
Z" /> 
<path style="fill:#000000; fill-opacity:1.0; 
stroke:#000000; stroke-width:0; stroke-opacity:1; 
stroke-linecap:round; stroke-linejoin:round;fill-rule:evenodd;"
d="M 24090,14445.1
24104.9,14449.6
24118.5,14456.9
24130.5,14466.7
24140.4,14478.7
24147.7,14492.4
24152.2,14507.2
24153.9,14525.1
24153.9,14952.9
24152.2,14970.7
24147.7,14985.6
24140.4,14999.3
24130.5,15011.2
24118.5,15021.1
24104.9,15028.4
24090,15032.9
24072.2,15034.6
23742.8,15034.6
23724.9,15032.9
23710.1,15028.4
23696.4,15021.1
23684.4,15011.2
23674.6,14999.3
23667.3,14985.6
23662.8,14970.7
23661,14952.9
23661,14525.1
23662.8,14507.2
23667.3,14492.4
23674.6,14478.7
23684.4,14466.7
23696.4,14456.9
23710.1,14449.6
23724.9,14445.1
23742.8,14443.3
24072.2,14443.3
Z" /> 
<path style="fill:#000000; fill-opacity:1.0; 
stroke:#000000; stroke-width:0; stroke-opacity:1; 
stroke-linecap:round; stroke-linejoin:round;fill-rule:evenodd;"
d="M 15241.8,12407.7
15256.6,12412.1
15270.2,12419.4
15282.2,12429.2
15292,12441.2
15299.3,12454.8
15303.8,12469.6
15305.5,12487.4
15305.5,12817.3
15303.8,12835.1
15299.3,12849.9
15292,12863.5
15282.2,12875.5
15270.2,12885.3
15256.6,12892.6
15241.8,12897.1
15224,12898.8
15157.9,12898.8
15148.3,12899.8
15139,12902.6
15130.5,12907.1
15123.1,12913.2
15117,12920.7
15112.4,12929.2
15109.6,12938.4
15108.7,12948
15108.7,12986.6
15109.6,12996.2
15112.4,13005.4
15117,13014
15123.1,13021.4
15130.5,13027.5
15139,13032.1
15148.3,13034.9
15157.9,13035.8
15224,13035.8
15241.8,13037.6
15256.6,13042.1
15270.2,13049.4
15282.2,13059.2
15292,13071.1
15299.3,13084.8
15303.8,13099.5
15305.5,13117.4
15305.5,13447.2
15303.8,13465
15299.3,13479.8
15292,13493.5
15282.2,13505.4
15270.2,13515.2
15256.6,13522.5
15241.8,13527
15224,13528.7
15157.9,13528.7
15148.3,13529.7
15139,13532.5
15130.5,13537
15123.1,13543.2
15117,13550.6
15112.4,13559.1
15109.6,13568.4
15108.7,13578
15108.7,13616.5
15109.6,13626.1
15112.4,13635.4
15117,13643.9
15123.1,13651.3
15130.5,13657.5
15139,13662
15148.3,13664.8
15157.9,13665.7
15224,13665.7
15241.8,13667.5
15256.6,13672
15270.2,13679.3
15282.2,13689.1
15292,13701
15299.3,13714.7
15303.8,13729.5
15305.5,13747.3
15305.5,14077.1
15303.8,14094.9
15299.3,14109.7
15292,14123.4
15282.2,14135.3
15270.2,14145.1
15256.6,14152.4
15241.8,14156.9
15224,14158.7
15157.9,14158.7
15148.3,14159.6
15139,14162.4
15130.5,14167
15123.1,14173.1
15117,14180.5
15112.4,14189
15109.6,14198.3
15108.7,14207.9
15108.7,14246.5
15109.6,14256.1
15112.4,14265.3
15117,14273.8
15123.1,14281.3
15130.5,14287.4
15139,14291.9
15148.3,14294.7
15157.9,14295.7
15224,14295.7
15241.8,14297.4
15256.6,14301.9
15270.2,14309.2
15282.2,14319
15292,14331
15299.3,14344.6
15303.8,14359.4
15305.5,14377.2
15305.5,14707.1
15303.8,14724.9
15299.3,14739.7
15292,14753.3
15282.2,14765.2
15270.2,14775.1
15256.6,14782.3
15241.8,14786.8
15224,14788.6
14795.7,14788.6
14777.9,14786.8
14763.1,14782.3
14749.5,14775.1
14737.5,14765.2
14727.7,14753.3
14720.4,14739.7
14715.9,14724.9
14714.2,14707.1
14714.2,14377.2
14715.9,14359.4
14720.4,14344.6
14727.7,14331
14737.5,14319
14749.5,14309.2
14763.1,14301.9
14777.9,14297.4
14795.7,14295.7
14861.8,14295.7
14871.4,14294.7
14880.6,14291.9
14889.2,14287.4
14896.6,14281.3
14902.7,14273.8
14907.3,14265.3
14910.1,14256.1
14911,14246.5
14911,14207.9
14910.1,14198.3
14907.3,14189
14902.7,14180.5
14896.6,14173.1
14889.2,14167
14880.6,14162.4
14871.4,14159.6
14861.8,14158.7
14795.7,14158.7
14777.9,14156.9
14763.1,14152.4
14749.5,14145.1
14737.5,14135.3
14727.7,14123.4
14720.4,14109.7
14715.9,14094.9
14714.2,14077.1
14714.2,13747.3
14715.9,13729.5
14720.4,13714.7
14727.7,13701
14737.5,13689.1
14749.5,13679.3
14763.1,13672
14777.9,13667.5
14795.7,13665.7
14861.8,13665.7
14871.4,13664.8
14880.6,13662
14889.2,13657.5
14896.6,13651.3
14902.7,13643.9
14907.3,13635.4
14910.1,13626.1
14911,13616.5
14911,13578
14910.1,13568.4
14907.3,13559.1
14902.7,13550.6
14896.6,13543.2
14889.2,13537
14880.6,13532.5
14871.4,13529.7
14861.8,13528.7
14795.7,13528.7
14777.9,13527
14763.1,13522.5
14749.5,13515.2
14737.5,13505.4
14727.7,13493.5
14720.4,13479.8
14715.9,13465
14714.2,13447.2
14714.2,13117.4
14715.9,13099.5
14720.4,13084.8
14727.7,13071.1
14737.5,13059.2
14749.5,13049.4
14763.1,13042.1
14777.9,13037.6
14795.7,13035.8
14861.8,13035.8
14871.4,13034.9
14880.6,13032.1
14889.2,13027.5
14896.6,13021.4
14902.7,13014
14907.3,13005.4
14910.1,12996.2
14911,12986.6
14911,12948
14910.1,12938.4
14907.3,12929.2
14902.7,12920.7
14896.6,12913.2
14889.2,12907.1
14880.6,12902.6
14871.4,12899.8
14861.8,12898.8
14795.7,12898.8
14777.9,12897.1
14763.1,12892.6
14749.5,12885.3
14737.5,12875.5
14727.7,12863.5
14720.4,12849.9
14715.9,12835.1
14714.2,12817.3
14714.2,12487.4
14715.9,12469.6
14720.4,12454.8
14727.7,12441.2
14737.5,12429.2
14749.5,12419.4
14763.1,12412.1
14777.9,12407.7
14795.7,12405.9
15224,12405.9
Z" /> 
<path style="fill:#000000; fill-opacity:1.0; 
stroke:#000000; stroke-width:0; stroke-opacity:1; 
stroke-linecap:round; stroke-linejoin:round;fill-rule:evenodd;"
d="M 16029.2,14297.4
16044,14301.9
16057.6,14309.2
16069.6,14319
16079.4,14331
16086.7,14344.6
16091.2,14359.4
16092.9,14377.2
16092.9,14707.1
16091.2,14724.9
16086.7,14739.7
16079.4,14753.3
16069.6,14765.2
16057.6,14775.1
16044,14782.3
16029.2,14786.8
16011.4,14788.6
15583.1,14788.6
15565.3,14786.8
15550.5,14782.3
15536.9,14775.1
15524.9,14765.2
15515.1,14753.3
15507.8,14739.7
15503.3,14724.9
15501.6,14707.1
15501.6,14377.2
15503.3,14359.4
15507.8,14344.6
15515.1,14331
15524.9,14319
15536.9,14309.2
15550.5,14301.9
15565.3,14297.4
15583.1,14295.7
16011.4,14295.7
Z" /> 
<path style="fill:#000000; fill-opacity:1.0; 
stroke:#000000; stroke-width:0; stroke-opacity:1; 
stroke-linecap:round; stroke-linejoin:round;fill-rule:evenodd;"
d="M 22830.4,13657.7
22845.2,13662.1
22858.8,13669.4
22870.8,13679.2
22880.6,13691.2
22887.9,13704.8
22892.3,13719.6
22894.1,13737.4
22894.1,13803.5
22895,13813.1
22897.8,13822.4
22902.4,13830.9
22908.5,13838.3
22916,13844.5
22924.5,13849
22933.7,13851.8
22943.3,13852.8
22981.9,13852.8
22991.5,13851.8
23000.7,13849
23009.2,13844.5
23016.7,13838.3
23022.8,13830.9
23027.4,13822.4
23030.2,13813.1
23031.1,13803.5
23031.1,13737.4
23032.9,13719.6
23037.3,13704.8
23044.6,13691.2
23054.4,13679.2
23066.4,13669.4
23080,13662.1
23094.8,13657.7
23112.6,13655.9
23442.5,13655.9
23460.3,13657.7
23475.1,13662.1
23488.7,13669.4
23500.7,13679.2
23510.5,13691.2
23517.8,13704.8
23522.3,13719.6
23524,13737.4
23524,13803.5
23525,13813.1
23527.8,13822.4
23532.3,13830.9
23538.4,13838.3
23545.9,13844.5
23554.4,13849
23563.6,13851.8
23573.2,13852.8
23611.8,13852.8
23621.4,13851.8
23630.6,13849
23639.2,13844.5
23646.6,13838.3
23652.7,13830.9
23657.3,13822.4
23660.1,13813.1
23661,13803.5
23661,13737.4
23662.8,13719.6
23667.3,13704.8
23674.6,13691.2
23684.4,13679.2
23696.3,13669.4
23710,13662.1
23724.7,13657.7
23742.5,13655.9
24072.4,13655.9
24090.2,13657.7
24105,13662.1
24118.6,13669.4
24130.6,13679.2
24140.4,13691.2
24147.7,13704.8
24152.2,13719.6
24153.9,13737.4
24153.9,14165.7
24152.2,14183.5
24147.7,14198.3
24140.4,14212
24130.6,14223.9
24118.6,14233.7
24105,14241
24090.2,14245.5
24072.4,14247.2
23742.5,14247.2
23724.7,14245.5
23710,14241
23696.3,14233.7
23684.4,14223.9
23674.6,14212
23667.3,14198.3
23662.8,14183.5
23661,14165.7
23661,14099.6
23660.1,14090
23657.3,14080.8
23652.7,14072.3
23646.6,14064.8
23639.2,14058.7
23630.6,14054.1
23621.4,14051.3
23611.8,14050.4
23573.2,14050.4
23563.6,14051.3
23554.4,14054.1
23545.9,14058.7
23538.4,14064.8
23532.3,14072.3
23527.8,14080.8
23525,14090
23524,14099.6
23524,14165.7
23522.3,14183.5
23517.8,14198.3
23510.5,14212
23500.7,14223.9
23488.7,14233.7
23475.1,14241
23460.3,14245.5
23442.5,14247.2
23112.6,14247.2
23094.8,14245.5
23080,14241
23066.4,14233.7
23054.4,14223.9
23044.6,14212
23037.3,14198.3
23032.9,14183.5
23031.1,14165.7
23031.1,14099.6
23030.2,14090
23027.4,14080.8
23022.8,14072.3
23016.7,14064.8
23009.2,14058.7
23000.7,14054.1
22991.5,14051.3
22981.9,14050.4
22943.3,14050.4
22933.7,14051.3
22924.5,14054.1
22916,14058.7
22908.5,14064.8
22902.4,14072.3
22897.8,14080.8
22895,14090
22894.1,14099.6
22894.1,14165.7
22892.3,14183.5
22887.9,14198.3
22880.6,14212
22870.8,14223.9
22858.8,14233.7
22845.2,14241
22830.4,14245.5
22812.6,14247.2
22482.7,14247.2
22464.9,14245.5
22450.1,14241
22436.5,14233.7
22424.5,14223.9
22414.7,14212
22407.4,14198.3
22402.9,14183.5
22401.2,14165.7
22401.2,13737.4
22402.9,13719.6
22407.4,13704.8
22414.7,13691.2
22424.5,13679.2
22436.5,13669.4
22450.1,13662.1
22464.9,13657.7
22482.7,13655.9
22812.6,13655.9
Z" /> 
<path style="fill:#000000; fill-opacity:1.0; 
stroke:#000000; stroke-width:0; stroke-opacity:1; 
stroke-linecap:round; stroke-linejoin:round;fill-rule:evenodd;"
d="M 16029.2,13667.5
16044,13672
16057.6,13679.3
16069.6,13689.1
16079.4,13701
16086.7,13714.7
16091.2,13729.5
16092.9,13747.3
16092.9,14077.1
16091.2,14094.9
16086.7,14109.7
16079.4,14123.4
16069.6,14135.3
16057.6,14145.1
16044,14152.4
16029.2,14156.9
16011.4,14158.7
15583.1,14158.7
15565.3,14156.9
15550.5,14152.4
15536.9,14145.1
15524.9,14135.3
15515.1,14123.4
15507.8,14109.7
15503.3,14094.9
15501.6,14077.1
15501.6,13747.3
15503.3,13729.5
15507.8,13714.7
15515.1,13701
15524.9,13689.1
15536.9,13679.3
15550.5,13672
15565.3,13667.5
15583.1,13665.7
16011.4,13665.7
Z" /> 
<path style="fill:#000000; fill-opacity:1.0; 
stroke:#000000; stroke-width:0; stroke-opacity:1; 
stroke-linecap:round; stroke-linejoin:round;fill-rule:evenodd;"
d="M 16029.2,13037.6
16044,13042.1
16057.6,13049.4
16069.6,13059.2
16079.4,13071.1
16086.7,13084.8
16091.2,13099.5
16092.9,13117.4
16092.9,13447.2
16091.2,13465
16086.7,13479.8
16079.4,13493.5
16069.6,13505.4
16057.6,13515.2
16044,13522.5
16029.2,13527
16011.4,13528.7
15583.1,13528.7
15565.3,13527
15550.5,13522.5
15536.9,13515.2
15524.9,13505.4
15515.1,13493.5
15507.8,13479.8
15503.3,13465
15501.6,13447.2
15501.6,13117.4
15503.3,13099.5
15507.8,13084.8
15515.1,13071.1
15524.9,13059.2
15536.9,13049.4
15550.5,13042.1
15565.3,13037.6
15583.1,13035.8
16011.4,13035.8
Z" /> 
<path style="fill:#000000; fill-opacity:1.0; 
stroke:#000000; stroke-width:0; stroke-opacity:1; 
stroke-linecap:round; stroke-linejoin:round;fill-rule:evenodd;"
d="M 7606.78,12697
7681.07,12719.6
7749.53,12756.2
7809.54,12805.4
7858.79,12865.4
7895.39,12933.9
7917.92,13008.2
7925.53,13085.4
7917.92,13162.7
7895.39,13237
7858.79,13305.4
7809.54,13365.4
7749.53,13414.7
7681.07,13451.3
7606.78,13473.8
7548.89,13479.5
6880.25,13479.5
6822.35,13473.8
6748.06,13451.3
6679.6,13414.7
6619.59,13365.4
6570.34,13305.4
6533.75,13237
6511.21,13162.7
6503.61,13085.4
6511.21,13008.2
6533.75,12933.9
6570.34,12865.4
6619.59,12805.4
6679.6,12756.2
6748.06,12719.6
6822.35,12697
6880.25,12691.3
7548.89,12691.3
Z" /> 
<path style="fill:#000000; fill-opacity:1.0; 
stroke:#000000; stroke-width:0; stroke-opacity:1; 
stroke-linecap:round; stroke-linejoin:round;fill-rule:evenodd;"
d="M 19720.1,12358.4
19734.9,12362.9
19748.6,12370.2
19760.5,12380
19770.3,12392
19777.6,12405.6
19782.1,12420.4
19783.9,12438.2
19783.9,12866.5
19782.1,12884.3
19777.6,12899.1
19770.3,12912.7
19760.5,12924.7
19748.6,12934.5
19734.9,12941.8
19720.1,12946.3
19702.3,12948
19372.5,12948
19354.7,12946.3
19339.9,12941.8
19326.2,12934.5
19314.3,12924.7
19304.5,12912.7
19297.2,12899.1
19292.7,12884.3
19290.9,12866.5
19290.9,12438.2
19292.7,12420.4
19297.2,12405.6
19304.5,12392
19314.3,12380
19326.2,12370.2
19339.9,12362.9
19354.7,12358.4
19372.5,12356.7
19702.3,12356.7
Z" /> 
<path style="fill:#000000; fill-opacity:1.0; 
stroke:#000000; stroke-width:0; stroke-opacity:1; 
stroke-linecap:round; stroke-linejoin:round;fill-rule:evenodd;"
d="M 21609.7,12358.5
21624.6,12363
21638.2,12370.3
21650.2,12380.1
21660.1,12392.1
21667.4,12405.8
21671.9,12420.6
21673.6,12438.4
21673.6,12866.3
21671.9,12884.1
21667.4,12899
21660.1,12912.6
21650.2,12924.6
21638.2,12934.5
21624.6,12941.8
21609.7,12946.3
21591.9,12948
21262.5,12948
21244.6,12946.3
21229.8,12941.8
21216.1,12934.5
21204.1,12924.6
21194.3,12912.6
21187,12899
21182.5,12884.1
21180.7,12866.3
21180.7,12438.4
21182.5,12420.6
21187,12405.8
21194.3,12392.1
21204.1,12380.1
21216.1,12370.3
21229.8,12363
21244.6,12358.5
21262.5,12356.7
21591.9,12356.7
Z" /> 
<path style="fill:#000000; fill-opacity:1.0; 
stroke:#000000; stroke-width:0; stroke-opacity:1; 
stroke-linecap:round; stroke-linejoin:round;fill-rule:evenodd;"
d="M 20350.1,12358.4
20364.9,12362.9
20378.5,12370.2
20390.4,12380
20400.2,12392
20407.5,12405.6
20412,12420.4
20413.8,12438.2
20413.8,12866.5
20412,12884.3
20407.5,12899.1
20400.2,12912.7
20390.4,12924.7
20378.5,12934.5
20364.9,12941.8
20350.1,12946.3
20332.3,12948
20002.4,12948
19984.6,12946.3
19969.8,12941.8
19956.2,12934.5
19944.2,12924.7
19934.4,12912.7
19927.1,12899.1
19922.6,12884.3
19920.9,12866.5
19920.9,12438.2
19922.6,12420.4
19927.1,12405.6
19934.4,12392
19944.2,12380
19956.2,12370.2
19969.8,12362.9
19984.6,12358.4
20002.4,12356.7
20332.3,12356.7
Z" /> 
<path style="fill:#000000; fill-opacity:1.0; 
stroke:#000000; stroke-width:0; stroke-opacity:1; 
stroke-linecap:round; stroke-linejoin:round;fill-rule:evenodd;"
d="M 20980,12358.4
20994.8,12362.9
21008.4,12370.2
21020.4,12380
21030.2,12392
21037.5,12405.6
21041.9,12420.4
21043.7,12438.2
21043.7,12866.5
21041.9,12884.3
21037.5,12899.1
21030.2,12912.7
21020.4,12924.7
21008.4,12934.5
20994.8,12941.8
20980,12946.3
20962.2,12948
20632.3,12948
20614.5,12946.3
20599.7,12941.8
20586.1,12934.5
20574.1,12924.7
20564.3,12912.7
20557,12899.1
20552.5,12884.3
20550.8,12866.5
20550.8,12438.2
20552.5,12420.4
20557,12405.6
20564.3,12392
20574.1,12380
20586.1,12370.2
20599.7,12362.9
20614.5,12358.4
20632.3,12356.7
20962.2,12356.7
Z" /> 
<path style="fill:#000000; fill-opacity:1.0; 
stroke:#000000; stroke-width:0; stroke-opacity:1; 
stroke-linecap:round; stroke-linejoin:round;fill-rule:evenodd;"
d="M 16029,12407.7
16043.8,12412.2
16057.5,12419.5
16069.5,12429.3
16079.3,12441.3
16086.7,12455
16091.2,12469.8
16092.9,12487.7
16092.9,12817.1
16091.2,12834.9
16086.7,12849.8
16079.3,12863.4
16069.5,12875.4
16057.5,12885.2
16043.8,12892.6
16029,12897.1
16011.2,12898.8
15583.3,12898.8
15565.5,12897.1
15550.6,12892.6
15537,12885.2
15525,12875.4
15515.1,12863.4
15507.8,12849.8
15503.3,12834.9
15501.6,12817.1
15501.6,12487.7
15503.3,12469.8
15507.8,12455
15515.1,12441.3
15525,12429.3
15537,12419.5
15550.6,12412.2
15565.5,12407.7
15583.3,12405.9
16011.2,12405.9
Z" /> 
<path style="fill:#000000; fill-opacity:1.0; 
stroke:#000000; stroke-width:0; stroke-opacity:1; 
stroke-linecap:round; stroke-linejoin:round;fill-rule:evenodd;"
d="M 9434.52,12279.7
9449.36,12284.2
9463.03,12291.5
9475.02,12301.4
9484.86,12313.3
9492.17,12327
9496.67,12341.9
9498.43,12359.7
9498.43,12787.5
9496.67,12805.4
9492.17,12820.2
9484.86,12833.9
9475.02,12845.9
9463.03,12855.7
9449.36,12863
9434.52,12867.5
9416.67,12869.3
9087.27,12869.3
9069.42,12867.5
9054.58,12863
9040.9,12855.7
9028.92,12845.9
9019.08,12833.9
9011.77,12820.2
9007.27,12805.4
9005.51,12787.5
9005.51,12359.7
9007.27,12341.9
9011.77,12327
9019.08,12313.3
9028.92,12301.4
9040.9,12291.5
9054.58,12284.2
9069.42,12279.7
9087.27,12278
9416.67,12278
Z" /> 
<path style="fill:#000000; fill-opacity:1.0; 
stroke:#000000; stroke-width:0; stroke-opacity:1; 
stroke-linecap:round; stroke-linejoin:round;fill-rule:evenodd;"
d="M 11599.9,12279.7
11614.7,12284.2
11628.4,12291.5
11640.4,12301.4
11650.2,12313.3
11657.5,12327
11662,12341.9
11663.8,12359.7
11663.8,12787.5
11662,12805.4
11657.5,12820.2
11650.2,12833.9
11640.4,12845.9
11628.4,12855.7
11614.7,12863
11599.9,12867.5
11582,12869.3
11252.6,12869.3
11234.8,12867.5
11219.9,12863
11206.3,12855.7
11194.3,12845.9
11184.4,12833.9
11177.1,12820.2
11172.6,12805.4
11170.9,12787.5
11170.9,12359.7
11172.6,12341.9
11177.1,12327
11184.4,12313.3
11194.3,12301.4
11206.3,12291.5
11219.9,12284.2
11234.8,12279.7
11252.6,12278
11582,12278
Z" /> 
<path style="fill:#000000; fill-opacity:1.0; 
stroke:#000000; stroke-width:0; stroke-opacity:1; 
stroke-linecap:round; stroke-linejoin:round;fill-rule:evenodd;"
d="M 10241.6,12279.7
10256.4,12284.2
10270.1,12291.5
10282.1,12301.4
10291.9,12313.3
10299.3,12327
10303.8,12341.9
10305.5,12359.7
10305.5,12787.5
10303.8,12805.4
10299.3,12820.2
10291.9,12833.9
10282.1,12845.9
10270.1,12855.7
10256.4,12863
10241.6,12867.5
10223.8,12869.3
9894.36,12869.3
9876.51,12867.5
9861.67,12863
9847.99,12855.7
9836.01,12845.9
9826.17,12833.9
9818.86,12820.2
9814.36,12805.4
9812.6,12787.5
9812.6,12359.7
9814.36,12341.9
9818.86,12327
9826.17,12313.3
9836.01,12301.4
9847.99,12291.5
9861.67,12284.2
9876.51,12279.7
9894.36,12278
10223.8,12278
Z" /> 
<path style="fill:#000000; fill-opacity:1.0; 
stroke:#000000; stroke-width:0; stroke-opacity:1; 
stroke-linecap:round; stroke-linejoin:round;fill-rule:evenodd;"
d="M 12407,12279.7
12421.8,12284.2
12435.5,12291.5
12447.5,12301.4
12457.3,12313.3
12464.6,12327
12469.1,12341.9
12470.9,12359.7
12470.9,12787.5
12469.1,12805.4
12464.6,12820.2
12457.3,12833.9
12447.5,12845.9
12435.5,12855.7
12421.8,12863
12407,12867.5
12389.1,12869.3
12059.7,12869.3
12041.9,12867.5
12027,12863
12013.3,12855.7
12001.4,12845.9
11991.5,12833.9
11984.2,12820.2
11979.7,12805.4
11978,12787.5
11978,12359.7
11979.7,12341.9
11984.2,12327
11991.5,12313.3
12001.4,12301.4
12013.3,12291.5
12027,12284.2
12041.9,12279.7
12059.7,12278
12389.1,12278
Z" /> 
<path style="fill:#000000; fill-opacity:1.0; 
stroke:#000000; stroke-width:0; stroke-opacity:1; 
stroke-linecap:round; stroke-linejoin:round;fill-rule:evenodd;"
d="M 24144.1,12668.5
23434.6,12668.5
23434.6,11959.1
24144.1,11959.1
Z" /> 
<path style="fill:#000000; fill-opacity:1.0; 
stroke:#000000; stroke-width:0; stroke-opacity:1; 
stroke-linecap:round; stroke-linejoin:round;fill-rule:evenodd;"
d="M 19720.1,11571
19734.9,11575.5
19748.6,11582.8
19760.5,11592.6
19770.3,11604.6
19777.6,11618.2
19782.1,11633
19783.9,11650.8
19783.9,11716.9
19784.8,11726.5
19787.6,11735.8
19792.2,11744.3
19798.3,11751.7
19805.7,11757.8
19814.2,11762.4
19823.5,11765.2
19833.1,11766.1
19871.7,11766.1
19881.3,11765.2
19890.5,11762.4
19899,11757.8
19906.5,11751.7
19912.6,11744.3
19917.1,11735.8
19919.9,11726.5
19920.9,11716.9
19920.9,11650.8
19922.6,11633
19927.1,11618.2
19934.4,11604.6
19944.2,11592.6
19956.2,11582.8
19969.8,11575.5
19984.6,11571
20002.4,11569.3
20332.3,11569.3
20350.1,11571
20364.9,11575.5
20378.5,11582.8
20390.4,11592.6
20400.2,11604.6
20407.5,11618.2
20412,11633
20413.8,11650.8
20413.8,11716.9
20414.7,11726.5
20417.5,11735.8
20422.1,11744.3
20428.2,11751.7
20435.7,11757.8
20444.2,11762.4
20453.4,11765.2
20463,11766.1
20501.6,11766.1
20511.2,11765.2
20520.4,11762.4
20528.9,11757.8
20536.4,11751.7
20542.5,11744.3
20547,11735.8
20549.8,11726.5
20550.8,11716.9
20550.8,11650.8
20552.5,11633
20557,11618.2
20564.3,11604.6
20574.1,11592.6
20586.1,11582.8
20599.7,11575.5
20614.5,11571
20632.3,11569.3
20962.2,11569.3
20980,11571
20994.8,11575.5
21008.4,11582.8
21020.4,11592.6
21030.2,11604.6
21037.5,11618.2
21041.9,11633
21043.7,11650.8
21043.7,11716.9
21044.6,11726.5
21047.4,11735.8
21052,11744.3
21058.1,11751.7
21065.6,11757.8
21074.1,11762.4
21083.3,11765.2
21092.9,11766.1
21131.5,11766.1
21141.1,11765.2
21150.3,11762.4
21158.8,11757.8
21166.3,11751.7
21172.4,11744.3
21177,11735.8
21179.8,11726.5
21180.7,11716.9
21180.7,11650.8
21182.5,11633
21187,11618.2
21194.2,11604.6
21204,11592.6
21216,11582.8
21229.6,11575.5
21244.4,11571
21262.2,11569.3
21592.1,11569.3
21609.9,11571
21624.7,11575.5
21638.3,11582.8
21650.3,11592.6
21660.1,11604.6
21667.4,11618.2
21671.9,11633
21673.6,11650.8
21673.6,12079.1
21671.9,12096.9
21667.4,12111.7
21660.1,12125.3
21650.3,12137.3
21638.3,12147.1
21624.7,12154.4
21609.9,12158.9
21592.1,12160.6
21262.2,12160.6
21244.4,12158.9
21229.6,12154.4
21216,12147.1
21204,12137.3
21194.2,12125.3
21187,12111.7
21182.5,12096.9
21180.7,12079.1
21180.7,12013
21179.8,12003.4
21177,11994.2
21172.4,11985.7
21166.3,11978.2
21158.8,11972.1
21150.3,11967.5
21141.1,11964.7
21131.5,11963.8
21092.9,11963.8
21083.3,11964.7
21074.1,11967.5
21065.6,11972.1
21058.1,11978.2
21052,11985.7
21047.4,11994.2
21044.6,12003.4
21043.7,12013
21043.7,12079.1
21041.9,12096.9
21037.5,12111.7
21030.2,12125.3
21020.4,12137.3
21008.4,12147.1
20994.8,12154.4
20980,12158.9
20962.2,12160.6
20632.3,12160.6
20614.5,12158.9
20599.7,12154.4
20586.1,12147.1
20574.1,12137.3
20564.3,12125.3
20557,12111.7
20552.5,12096.9
20550.8,12079.1
20550.8,12013
20549.8,12003.4
20547,11994.2
20542.5,11985.7
20536.4,11978.2
20528.9,11972.1
20520.4,11967.5
20511.2,11964.7
20501.6,11963.8
20463,11963.8
20453.4,11964.7
20444.2,11967.5
20435.7,11972.1
20428.2,11978.2
20422.1,11985.7
20417.5,11994.2
20414.7,12003.4
20413.8,12013
20413.8,12079.1
20412,12096.9
20407.5,12111.7
20400.2,12125.3
20390.4,12137.3
20378.5,12147.1
20364.9,12154.4
20350.1,12158.9
20332.3,12160.6
20002.4,12160.6
19984.6,12158.9
19969.8,12154.4
19956.2,12147.1
19944.2,12137.3
19934.4,12125.3
19927.1,12111.7
19922.6,12096.9
19920.9,12079.1
19920.9,12013
19919.9,12003.4
19917.1,11994.2
19912.6,11985.7
19906.5,11978.2
19899,11972.1
19890.5,11967.5
19881.3,11964.7
19871.7,11963.8
19833.1,11963.8
19823.5,11964.7
19814.2,11967.5
19805.7,11972.1
19798.3,11978.2
19792.2,11985.7
19787.6,11994.2
19784.8,12003.4
19783.9,12013
19783.9,12079.1
19782.1,12096.9
19777.6,12111.7
19770.3,12125.3
19760.5,12137.3
19748.6,12147.1
19734.9,12154.4
19720.1,12158.9
19702.3,12160.6
19372.5,12160.6
19354.7,12158.9
19339.9,12154.4
19326.2,12147.1
19314.3,12137.3
19304.5,12125.3
19297.2,12111.7
19292.7,12096.9
19290.9,12079.1
19290.9,11650.8
19292.7,11633
19297.2,11618.2
19304.5,11604.6
19314.3,11592.6
19326.2,11582.8
19339.9,11575.5
19354.7,11571
19372.5,11569.3
19702.3,11569.3
Z" /> 
<path style="fill:#000000; fill-opacity:1.0; 
stroke:#000000; stroke-width:0; stroke-opacity:1; 
stroke-linecap:round; stroke-linejoin:round;fill-rule:evenodd;"
d="M 7268.35,11516.3
7283.59,11519.3
7296.2,11524.6
7326.65,11537.2
7365.4,11563.1
7398.36,11596
7424.25,11634.8
7432.79,11655.4
7441.43,11676.3
7442.09,11677.8
7451.18,11723.5
7451.18,11770.2
7442.09,11815.9
7424.25,11858.9
7398.36,11897.7
7365.4,11930.6
7326.65,11956.5
7296.2,11969.1
7283.59,11974.4
7268.35,11977.4
7237.87,11983.5
7191.26,11983.5
7160.79,11977.4
7145.55,11974.4
7132.94,11969.1
7102.49,11956.5
7063.73,11930.6
7030.78,11897.7
7004.88,11858.9
6987.05,11815.9
6977.95,11770.2
6977.95,11723.5
6987.05,11677.8
6987.7,11676.3
6996.34,11655.4
7004.88,11634.8
7030.78,11596
7063.73,11563.1
7102.49,11537.2
7132.94,11524.6
7145.55,11519.3
7160.79,11516.3
7191.26,11510.2
7237.87,11510.2
Z" /> 
<path style="fill:#000000; fill-opacity:1.0; 
stroke:#000000; stroke-width:0; stroke-opacity:1; 
stroke-linecap:round; stroke-linejoin:round;fill-rule:evenodd;"
d="M 23834.1,10961
23892.8,10972.7
23957.4,10999.4
24015.5,11038.2
24064.9,11087.7
24103.7,11145.8
24130.5,11210.3
24144.1,11278.8
24144.1,11348.7
24130.5,11417.2
24103.7,11481.8
24064.9,11539.9
24015.5,11589.3
23957.4,11628.1
23892.8,11654.9
23834.1,11666.6
23824.3,11668.5
23754.4,11668.5
23744.7,11666.6
23685.9,11654.9
23621.3,11628.1
23563.2,11589.3
23513.8,11539.9
23475,11481.8
23448.3,11417.2
23434.6,11348.7
23434.6,11278.8
23448.3,11210.3
23475,11145.8
23513.8,11087.7
23563.2,11038.2
23621.3,10999.4
23685.9,10972.7
23744.7,10961
23754.4,10959.1
23824.3,10959.1
Z" /> 
<path style="fill:#000000; fill-opacity:1.0; 
stroke:#000000; stroke-width:0; stroke-opacity:1; 
stroke-linecap:round; stroke-linejoin:round;fill-rule:evenodd;"
d="M 14557.5,11648.8
13848,11648.8
13848,11215
14557.5,11215
Z" /> 
<path style="fill:#000000; fill-opacity:1.0; 
stroke:#000000; stroke-width:0; stroke-opacity:1; 
stroke-linecap:round; stroke-linejoin:round;fill-rule:evenodd;"
d="M 16644.1,11648.8
15934.6,11648.8
15934.6,11215
16644.1,11215
Z" /> 
<path style="fill:#000000; fill-opacity:1.0; 
stroke:#000000; stroke-width:0; stroke-opacity:1; 
stroke-linecap:round; stroke-linejoin:round;fill-rule:evenodd;"
d="M 10241.6,10744.3
10256.4,10748.8
10270.1,10756.1
10282.1,10765.9
10291.9,10777.9
10299.3,10791.6
10303.8,10806.4
10305.5,10824.3
10305.5,11252.1
10303.8,11270
10299.3,11284.8
10291.9,11298.5
10282.1,11310.5
10270.1,11320.3
10256.4,11327.6
10241.6,11332.1
10223.8,11333.9
9894.36,11333.9
9876.51,11332.1
9861.67,11327.6
9847.99,11320.3
9836.01,11310.5
9826.17,11298.5
9818.86,11284.8
9814.36,11270
9812.6,11252.1
9812.6,10824.3
9814.36,10806.4
9818.86,10791.6
9826.17,10777.9
9836.01,10765.9
9847.99,10756.1
9861.67,10748.8
9876.51,10744.3
9894.36,10742.5
10223.8,10742.5
Z" /> 
<path style="fill:#000000; fill-opacity:1.0; 
stroke:#000000; stroke-width:0; stroke-opacity:1; 
stroke-linecap:round; stroke-linejoin:round;fill-rule:evenodd;"
d="M 11599.9,10744.3
11614.7,10748.8
11628.4,10756.1
11640.4,10765.9
11650.2,10777.9
11657.5,10791.6
11662,10806.4
11663.8,10824.3
11663.8,11252.1
11662,11270
11657.5,11284.8
11650.2,11298.5
11640.4,11310.5
11628.4,11320.3
11614.7,11327.6
11599.9,11332.1
11582,11333.9
11252.6,11333.9
11234.8,11332.1
11219.9,11327.6
11206.3,11320.3
11194.3,11310.5
11184.4,11298.5
11177.1,11284.8
11172.6,11270
11170.9,11252.1
11170.9,10824.3
11172.6,10806.4
11177.1,10791.6
11184.4,10777.9
11194.3,10765.9
11206.3,10756.1
11219.9,10748.8
11234.8,10744.3
11252.6,10742.5
11582,10742.5
Z" /> 
<path style="fill:#000000; fill-opacity:1.0; 
stroke:#000000; stroke-width:0; stroke-opacity:1; 
stroke-linecap:round; stroke-linejoin:round;fill-rule:evenodd;"
d="M 12407,10744.3
12421.8,10748.8
12435.5,10756.1
12447.5,10765.9
12457.3,10777.9
12464.6,10791.6
12469.1,10806.4
12470.9,10824.3
12470.9,11252.1
12469.1,11270
12464.6,11284.8
12457.3,11298.5
12447.5,11310.5
12435.5,11320.3
12421.8,11327.6
12407,11332.1
12389.1,11333.9
12059.7,11333.9
12041.9,11332.1
12027,11327.6
12013.3,11320.3
12001.4,11310.5
11991.5,11298.5
11984.2,11284.8
11979.7,11270
11978,11252.1
11978,10824.3
11979.7,10806.4
11984.2,10791.6
11991.5,10777.9
12001.4,10765.9
12013.3,10756.1
12027,10748.8
12041.9,10744.3
12059.7,10742.5
12389.1,10742.5
Z" /> 
<path style="fill:#000000; fill-opacity:1.0; 
stroke:#000000; stroke-width:0; stroke-opacity:1; 
stroke-linecap:round; stroke-linejoin:round;fill-rule:evenodd;"
d="M 9434.52,10744.3
9449.36,10748.8
9463.03,10756.1
9475.02,10765.9
9484.86,10777.9
9492.17,10791.6
9496.67,10806.4
9498.43,10824.3
9498.43,11252.1
9496.67,11270
9492.17,11284.8
9484.86,11298.5
9475.02,11310.5
9463.03,11320.3
9449.36,11327.6
9434.52,11332.1
9416.67,11333.9
9087.27,11333.9
9069.42,11332.1
9054.58,11327.6
9040.9,11320.3
9028.92,11310.5
9019.08,11298.5
9011.77,11284.8
9007.27,11270
9005.51,11252.1
9005.51,10824.3
9007.27,10806.4
9011.77,10791.6
9019.08,10777.9
9028.92,10765.9
9040.9,10756.1
9054.58,10748.8
9069.42,10744.3
9087.27,10742.5
9416.67,10742.5
Z" /> 
<path style="fill:#000000; fill-opacity:1.0; 
stroke:#000000; stroke-width:0; stroke-opacity:1; 
stroke-linecap:round; stroke-linejoin:round;fill-rule:evenodd;"
d="M 23827.3,9959.65
23892.8,9972.69
23957.4,9999.43
24015.5,10038.2
24064.9,10087.7
24103.7,10145.8
24130.5,10210.3
24144.1,10278.8
24144.1,10348.7
24130.5,10417.2
24103.7,10481.8
24064.9,10539.9
24015.5,10589.3
23957.4,10628.1
23892.8,10654.9
23834.1,10666.6
23824.3,10668.5
23754.4,10668.5
23744.7,10666.6
23685.9,10654.9
23621.3,10628.1
23563.2,10589.3
23513.8,10539.9
23475,10481.8
23448.3,10417.2
23434.6,10348.7
23434.6,10278.8
23448.3,10210.3
23475,10145.8
23513.8,10087.7
23563.2,10038.2
23621.3,9999.43
23685.9,9972.69
23751.4,9959.65
23754.4,9959.06
23824.3,9959.06
Z" /> 
<path style="fill:#000000; fill-opacity:1.0; 
stroke:#000000; stroke-width:0; stroke-opacity:1; 
stroke-linecap:round; stroke-linejoin:round;fill-rule:evenodd;"
d="M 16644.1,10389
15934.6,10389
15934.6,9955.12
16644.1,9955.12
Z" /> 
<path style="fill:#000000; fill-opacity:1.0; 
stroke:#000000; stroke-width:0; stroke-opacity:1; 
stroke-linecap:round; stroke-linejoin:round;fill-rule:evenodd;"
d="M 14557.5,10389
13848,10389
13848,9955.12
14557.5,9955.12
Z" /> 
<path style="fill:#000000; fill-opacity:1.0; 
stroke:#000000; stroke-width:0; stroke-opacity:1; 
stroke-linecap:round; stroke-linejoin:round;fill-rule:evenodd;"
d="M 7268.35,9705.27
7283.59,9708.31
7296.2,9713.53
7326.65,9726.14
7365.4,9752.04
7398.36,9784.99
7424.25,9823.75
7442.09,9866.81
7451.18,9912.52
7451.18,9959.13
7448.49,9972.69
7442.09,10004.8
7436.86,10017.5
7424.25,10047.9
7398.36,10086.7
7365.4,10119.6
7326.65,10145.5
7296.2,10158.1
7283.59,10163.3
7268.35,10166.4
7237.87,10172.4
7191.26,10172.4
7160.79,10166.4
7145.55,10163.3
7132.94,10158.1
7102.49,10145.5
7063.73,10119.6
7030.78,10086.7
7004.88,10047.9
6992.27,10017.5
6987.05,10004.8
6980.65,9972.69
6977.95,9959.13
6977.95,9912.52
6987.05,9866.81
7004.88,9823.75
7030.78,9784.99
7063.73,9752.04
7102.49,9726.14
7132.94,9713.53
7145.55,9708.31
7160.79,9705.27
7191.26,9699.21
7237.87,9699.21
Z" /> 
<path style="fill:#000000; fill-opacity:1.0; 
stroke:#000000; stroke-width:0; stroke-opacity:1; 
stroke-linecap:round; stroke-linejoin:round;fill-rule:evenodd;"
d="M 19641.4,9563.17
19656.2,9567.66
19669.8,9574.95
19681.8,9584.76
19691.6,9596.71
19698.9,9610.34
19703.4,9625.14
19705.1,9642.94
19705.1,9709.06
19706.1,9718.66
19708.9,9727.89
19713.4,9736.4
19719.5,9743.85
19727,9749.97
19735.5,9754.52
19744.7,9757.32
19754.3,9758.27
19792.9,9758.27
19802.5,9757.32
19811.7,9754.52
19820.3,9749.97
19827.7,9743.85
19833.8,9736.4
19838.4,9727.89
19841.2,9718.66
19842.1,9709.06
19842.1,9642.94
19843.9,9625.14
19848.4,9610.34
19855.7,9596.71
19865.5,9584.76
19877.4,9574.95
19891.1,9567.66
19905.8,9563.17
19923.7,9561.42
20253.5,9561.42
20271.3,9563.17
20286.1,9567.66
20299.8,9574.95
20311.7,9584.76
20321.5,9596.71
20328.8,9610.34
20333.3,9625.14
20335,9642.94
20335,9709.06
20336,9718.66
20338.8,9727.89
20343.3,9736.4
20349.5,9743.85
20356.9,9749.97
20365.4,9754.52
20374.7,9757.32
20384.3,9758.27
20422.8,9758.27
20432.4,9757.32
20441.7,9754.52
20450.2,9749.97
20457.6,9743.85
20463.8,9736.4
20468.3,9727.89
20471.1,9718.66
20472,9709.06
20472,9642.94
20473.8,9625.14
20478.3,9610.34
20485.6,9596.71
20495.4,9584.76
20507.3,9574.95
20521,9567.66
20535.8,9563.17
20553.6,9561.42
20883.4,9561.42
20901.2,9563.17
20916,9567.66
20929.7,9574.95
20941.6,9584.76
20951.4,9596.71
20958.7,9610.34
20963.2,9625.14
20965,9642.94
20965,9709.06
20965.9,9718.66
20968.7,9727.89
20973.3,9736.4
20979.4,9743.85
20986.8,9749.97
20995.3,9754.52
21004.6,9757.32
21014.2,9758.27
21052.8,9758.27
21062.4,9757.32
21071.6,9754.52
21080.1,9749.97
21087.6,9743.85
21093.7,9736.4
21098.2,9727.89
21101,9718.66
21102,9709.06
21102,9642.94
21103.7,9625.14
21108.2,9610.34
21115.5,9596.71
21125.3,9584.76
21137.3,9574.95
21150.9,9567.66
21165.7,9563.17
21183.5,9561.42
21513.4,9561.42
21531.2,9563.17
21546,9567.66
21559.6,9574.95
21571.5,9584.76
21581.4,9596.71
21588.6,9610.34
21593.1,9625.14
21594.9,9642.94
21594.9,10071.2
21593.1,10089
21588.6,10103.8
21581.4,10117.5
21571.5,10129.4
21559.6,10139.2
21546,10146.5
21531.2,10151
21513.4,10152.8
21183.5,10152.8
21165.7,10151
21150.9,10146.5
21137.3,10139.2
21125.3,10129.4
21115.5,10117.5
21108.2,10103.8
21103.7,10089
21102,10071.2
21102,10005.1
21101,9995.52
21098.2,9986.29
21093.7,9977.78
21087.6,9970.32
21080.1,9964.2
21071.6,9959.65
21062.4,9956.85
21052.8,9955.91
21014.2,9955.91
21004.6,9956.85
20995.3,9959.65
20986.8,9964.2
20979.4,9970.32
20973.3,9977.78
20968.7,9986.29
20965.9,9995.52
20965,10005.1
20965,10071.2
20963.2,10089
20958.7,10103.8
20951.4,10117.5
20941.6,10129.4
20929.7,10139.2
20916,10146.5
20901.2,10151
20883.4,10152.8
20553.6,10152.8
20535.8,10151
20521,10146.5
20507.3,10139.2
20495.4,10129.4
20485.6,10117.5
20478.3,10103.8
20473.8,10089
20472,10071.2
20472,10005.1
20471.1,9995.52
20468.3,9986.29
20463.8,9977.78
20457.6,9970.32
20450.2,9964.2
20441.7,9959.65
20432.4,9956.85
20422.8,9955.91
20384.3,9955.91
20374.7,9956.85
20365.4,9959.65
20356.9,9964.2
20349.5,9970.32
20343.3,9977.78
20338.8,9986.29
20336,9995.52
20335,10005.1
20335,10071.2
20333.3,10089
20328.8,10103.8
20321.5,10117.5
20311.7,10129.4
20299.8,10139.2
20286.1,10146.5
20271.3,10151
20253.5,10152.8
19923.7,10152.8
19905.8,10151
19891.1,10146.5
19877.4,10139.2
19865.5,10129.4
19855.7,10117.5
19848.4,10103.8
19843.9,10089
19842.1,10071.2
19842.1,10005.1
19841.2,9995.52
19838.4,9986.29
19833.8,9977.78
19827.7,9970.32
19820.3,9964.2
19811.7,9959.65
19802.5,9956.85
19792.9,9955.91
19754.3,9955.91
19744.7,9956.85
19735.5,9959.65
19727,9964.2
19719.5,9970.32
19713.4,9977.78
19708.9,9986.29
19706.1,9995.52
19705.1,10005.1
19705.1,10071.2
19703.4,10089
19698.9,10103.8
19691.6,10117.5
19681.8,10129.4
19669.8,10139.2
19656.2,10146.5
19641.4,10151
19623.6,10152.8
19293.7,10152.8
19275.9,10151
19261.1,10146.5
19247.5,10139.2
19235.5,10129.4
19225.7,10117.5
19218.4,10103.8
19214,10089
19212.2,10071.2
19212.2,9642.94
19214,9625.14
19218.4,9610.34
19225.7,9596.71
19235.5,9584.76
19247.5,9574.95
19261.1,9567.66
19275.9,9563.17
19293.7,9561.42
19623.6,9561.42
Z" /> 
<path style="fill:#000000; fill-opacity:1.0; 
stroke:#000000; stroke-width:0; stroke-opacity:1; 
stroke-linecap:round; stroke-linejoin:round;fill-rule:evenodd;"
d="M 23834.1,8961
23892.8,8972.69
23957.4,8999.43
24015.5,9038.25
24064.9,9087.66
24103.7,9145.75
24130.5,9210.31
24144.1,9278.84
24144.1,9348.72
24130.5,9417.25
24103.7,9481.81
24064.9,9539.9
24015.5,9589.31
23957.4,9628.13
23892.8,9654.87
23834.1,9666.56
23824.3,9668.5
23754.4,9668.5
23744.7,9666.56
23685.9,9654.87
23621.3,9628.13
23563.2,9589.31
23513.8,9539.9
23475,9481.81
23448.3,9417.25
23434.6,9348.72
23434.6,9278.84
23448.3,9210.31
23475,9145.75
23513.8,9087.66
23563.2,9038.25
23621.3,8999.43
23685.9,8972.69
23744.7,8961
23754.4,8959.06
23824.3,8959.06
Z" /> 
<path style="fill:#000000; fill-opacity:1.0; 
stroke:#000000; stroke-width:0; stroke-opacity:1; 
stroke-linecap:round; stroke-linejoin:round;fill-rule:evenodd;"
d="M 8638.07,6156
8652.54,6161.45
8665.67,6169.61
8676.95,6180.18
8687.37,6194.73
8700.09,6216.75
8810.88,6408.64
8852.3,6480.39
8859.69,6496.69
8863.2,6511.75
8863.7,6527.2
8861.18,6542.45
8855.74,6556.92
8847.57,6570.05
8837,6581.34
8822.46,6591.76
8765.21,6624.82
8757.36,6630.44
8750.77,6637.48
8745.68,6645.67
8742.28,6654.7
8740.71,6664.22
8741.02,6673.86
8743.21,6683.25
8747.19,6692.04
8766.13,6724.84
8766.49,6725.46
8772.11,6733.3
8779.15,6739.89
8787.34,6744.99
8796.37,6748.38
8805.89,6749.96
8815.53,6749.64
8824.92,6747.45
8833.71,6743.47
8890.96,6710.41
8907.26,6703.03
8922.32,6699.52
8937.77,6699.01
8953.03,6701.53
8967.5,6706.98
8980.63,6715.14
8991.91,6725.71
9002.33,6740.25
9015.05,6762.28
9137.78,6974.86
9167.26,7025.92
9174.65,7042.22
9178.16,7057.28
9178.66,7072.73
9176.15,7087.98
9170.7,7102.45
9162.53,7115.58
9151.96,7126.87
9137.42,7137.29
9080.17,7170.34
9072.33,7175.96
9065.73,7183
9060.64,7191.2
9057.24,7200.23
9055.67,7209.74
9055.98,7219.39
9058.17,7228.78
9062.15,7237.57
9079.38,7267.41
9081.45,7270.98
9087.07,7278.82
9094.11,7285.42
9102.3,7290.51
9111.33,7293.91
9120.85,7295.48
9130.49,7295.17
9139.88,7292.98
9148.67,7289
9205.92,7255.94
9222.22,7248.56
9237.28,7245.04
9252.73,7244.54
9267.99,7247.06
9282.46,7252.5
9295.59,7260.67
9306.87,7271.24
9317.29,7285.78
9330.01,7307.81
9443.26,7503.95
9482.22,7571.45
9489.61,7587.74
9493.12,7602.8
9493.62,7618.26
9491.11,7633.51
9485.66,7647.98
9477.49,7661.11
9466.93,7672.39
9452.38,7682.81
9395.13,7715.87
9387.29,7721.49
9380.69,7728.53
9375.6,7736.72
9372.2,7745.75
9370.63,7755.27
9370.94,7764.91
9373.13,7774.31
9377.11,7783.09
9396.41,7816.51
9402.03,7824.35
9409.07,7830.95
9417.26,7836.04
9426.29,7839.44
9435.81,7841.01
9445.45,7840.7
9454.84,7838.5
9463.63,7834.52
9520.88,7801.47
9537.18,7794.08
9552.24,7790.57
9567.69,7790.07
9582.95,7792.59
9597.42,7798.03
9610.55,7806.2
9621.83,7816.77
9632.25,7831.31
9644.97,7853.34
9758.22,8049.48
9797.18,8116.98
9804.57,8133.27
9808.08,8148.33
9808.58,8163.78
9806.07,8179.04
9800.62,8193.51
9792.46,8206.64
9781.89,8217.92
9767.34,8228.34
9710.09,8261.4
9702.25,8267.02
9695.65,8274.06
9690.56,8282.25
9687.16,8291.28
9685.59,8300.8
9685.9,8310.44
9688.09,8319.84
9692.07,8328.62
9711.37,8362.04
9716.99,8369.88
9724.03,8376.47
9732.22,8381.57
9741.25,8384.97
9750.77,8386.54
9760.41,8386.22
9769.81,8384.03
9778.59,8380.05
9835.84,8347
9852.14,8339.61
9867.2,8336.1
9882.65,8335.59
9897.91,8338.11
9912.38,8343.56
9925.51,8351.72
9936.79,8362.29
9947.22,8376.84
9959.93,8398.86
10073.2,8595.01
10112.1,8662.51
10119.5,8678.8
10123,8693.86
10123.5,8709.31
10121,8724.56
10115.6,8739.04
10107.4,8752.16
10096.8,8763.45
10082.3,8773.87
10025,8806.93
10017.2,8812.55
10010.6,8819.59
10005.5,8827.78
10002.1,8836.81
10000.5,8846.33
10000.9,8855.97
10003.1,8865.36
10007,8874.15
10026.3,8907.57
10031.9,8915.41
10039,8922
10047.2,8927.1
10056.2,8930.5
10065.7,8932.07
10075.4,8931.75
10084.8,8929.56
10093.6,8925.58
10150.8,8892.52
10167.1,8885.14
10182.2,8881.63
10197.6,8881.12
10212.9,8883.64
10227.3,8889.09
10240.5,8897.25
10251.8,8907.82
10262.2,8922.37
10274.9,8944.39
10388.1,9140.54
10427.1,9208.03
10434.5,9224.33
10438,9239.39
10438.5,9254.84
10436,9270.09
10430.5,9284.56
10422.4,9297.69
10411.8,9308.98
10397.3,9319.4
10026.4,9533.54
10010.1,9540.93
9995,9544.44
9979.55,9544.94
9964.3,9542.42
9949.83,9536.98
9936.7,9528.81
9925.41,9518.24
9914.99,9503.7
9750.06,9218.03
9742.68,9201.74
9739.17,9186.68
9738.66,9171.23
9741.18,9155.97
9746.63,9141.5
9754.79,9128.37
9765.36,9117.09
9779.9,9106.67
9837.16,9073.61
9845,9067.99
9851.59,9060.95
9856.69,9052.76
9860.09,9043.73
9861.66,9034.21
9861.34,9024.57
9859.15,9015.17
9855.17,9006.39
9851.15,8999.43
9835.88,8972.97
9830.26,8965.13
9823.22,8958.53
9815.02,8953.44
9806,8950.04
9796.48,8948.47
9786.84,8948.79
9777.44,8950.98
9768.65,8954.96
9711.4,8988.01
9695.1,8995.4
9680.04,8998.91
9664.59,8999.41
9649.34,8996.9
9634.87,8991.45
9621.74,8983.29
9610.45,8972.72
9600.03,8958.17
9581.75,8926.51
9447.82,8694.53
9435.1,8672.5
9427.72,8656.21
9424.21,8641.15
9423.7,8625.7
9426.22,8610.44
9431.66,8595.97
9439.83,8582.84
9450.4,8571.56
9464.94,8561.14
9522.2,8528.08
9530.04,8522.46
9536.63,8515.42
9541.73,8507.23
9545.12,8498.2
9546.7,8488.68
9546.38,8479.04
9544.19,8469.64
9540.21,8460.86
9520.91,8427.44
9515.3,8419.6
9508.26,8413.01
9500.06,8407.91
9491.03,8404.51
9481.52,8402.94
9471.87,8403.26
9462.48,8405.45
9453.69,8409.43
9396.44,8442.48
9380.14,8449.87
9365.08,8453.38
9349.63,8453.89
9334.38,8451.37
9319.91,8445.92
9306.78,8437.76
9295.49,8427.19
9285.07,8412.64
9170.12,8213.54
9132.86,8149.01
9120.14,8126.98
9112.76,8110.68
9109.24,8095.62
9108.74,8080.17
9111.26,8064.92
9116.7,8050.45
9124.87,8037.32
9135.44,8026.03
9149.98,8015.61
9207.24,7982.55
9215.08,7976.94
9221.67,7969.89
9226.77,7961.7
9230.16,7952.67
9231.74,7943.15
9231.42,7933.51
9229.23,7924.12
9225.25,7915.33
9205.95,7881.91
9200.34,7874.07
9193.3,7867.48
9185.1,7862.38
9176.07,7858.99
9166.56,7857.41
9156.91,7857.73
9147.52,7859.92
9138.73,7863.9
9081.48,7896.96
9065.18,7904.34
9050.12,7907.85
9034.67,7908.36
9019.42,7905.84
9004.94,7900.39
8991.82,7892.23
8980.53,7881.66
8970.11,7867.12
8805.18,7581.45
8797.8,7565.15
8794.28,7550.09
8793.78,7534.64
8796.3,7519.39
8801.74,7504.92
8809.91,7491.79
8820.48,7480.5
8835.02,7470.08
8892.27,7437.03
8900.12,7431.41
8906.71,7424.37
8911.81,7416.17
8915.2,7407.14
8916.77,7397.63
8916.46,7387.98
8914.27,7378.59
8910.29,7369.81
8890.99,7336.39
8885.38,7328.55
8878.33,7321.95
8870.14,7316.86
8861.11,7313.46
8851.59,7311.89
8841.95,7312.2
8832.56,7314.39
8823.77,7318.37
8766.52,7351.43
8750.22,7358.81
8735.16,7362.33
8719.71,7362.83
8704.46,7360.31
8689.98,7354.87
8676.85,7346.7
8665.57,7336.13
8655.15,7321.59
8612.98,7248.56
8502.94,7057.95
8490.22,7035.92
8482.83,7019.63
8479.32,7004.57
8478.82,6989.11
8481.34,6973.86
8486.78,6959.39
8494.95,6946.26
8505.52,6934.98
8520.06,6924.56
8577.31,6891.5
8585.16,6885.88
8591.75,6878.84
8596.84,6870.65
8600.24,6861.62
8601.81,6852.1
8601.5,6842.46
8599.31,6833.06
8595.33,6824.28
8576.03,6790.86
8570.42,6783.02
8563.37,6776.42
8555.18,6771.33
8546.15,6767.93
8536.63,6766.36
8526.99,6766.67
8517.6,6768.87
8508.81,6772.85
8451.56,6805.9
8435.26,6813.29
8420.2,6816.8
8404.75,6817.3
8389.49,6814.79
8375.02,6809.34
8361.89,6801.17
8350.61,6790.6
8340.19,6776.06
8251.85,6623.06
8187.98,6512.42
8175.26,6490.39
8167.87,6474.1
8164.36,6459.04
8163.86,6443.59
8166.38,6428.33
8171.82,6413.86
8179.99,6400.73
8190.56,6389.45
8205.1,6379.03
8576,6164.88
8592.3,6157.5
8607.36,6153.99
8622.81,6153.48
Z" /> 
<path style="fill:#000000; fill-opacity:1.0; 
stroke:#000000; stroke-width:0; stroke-opacity:1; 
stroke-linecap:round; stroke-linejoin:round;fill-rule:evenodd;"
d="M 20271.3,8775.77
20286.1,8780.26
20299.8,8787.55
20311.7,8797.35
20321.5,8809.31
20328.8,8822.94
20333.3,8837.74
20335,8855.54
20335,9283.83
20333.3,9301.63
20328.8,9316.43
20321.5,9330.06
20311.7,9342.02
20299.8,9351.82
20286.1,9359.11
20271.3,9363.6
20253.5,9365.35
19923.7,9365.35
19905.8,9363.6
19891.1,9359.11
19877.4,9351.82
19865.5,9342.02
19855.7,9330.06
19848.4,9316.43
19843.9,9301.63
19842.1,9283.83
19842.1,8855.54
19843.9,8837.74
19848.4,8822.94
19855.7,8809.31
19865.5,8797.35
19877.4,8787.55
19891.1,8780.26
19905.8,8775.77
19923.7,8774.02
20253.5,8774.02
Z" /> 
<path style="fill:#000000; fill-opacity:1.0; 
stroke:#000000; stroke-width:0; stroke-opacity:1; 
stroke-linecap:round; stroke-linejoin:round;fill-rule:evenodd;"
d="M 20901.2,8775.77
20916,8780.26
20929.7,8787.55
20941.6,8797.35
20951.4,8809.31
20958.7,8822.94
20963.2,8837.74
20965,8855.54
20965,9283.83
20963.2,9301.63
20958.7,9316.43
20951.4,9330.06
20941.6,9342.02
20929.7,9351.82
20916,9359.11
20901.2,9363.6
20883.4,9365.35
20553.6,9365.35
20535.8,9363.6
20521,9359.11
20507.3,9351.82
20495.4,9342.02
20485.6,9330.06
20478.3,9316.43
20473.8,9301.63
20472,9283.83
20472,8855.54
20473.8,8837.74
20478.3,8822.94
20485.6,8809.31
20495.4,8797.35
20507.3,8787.55
20521,8780.26
20535.8,8775.77
20553.6,8774.02
20883.4,8774.02
Z" /> 
<path style="fill:#000000; fill-opacity:1.0; 
stroke:#000000; stroke-width:0; stroke-opacity:1; 
stroke-linecap:round; stroke-linejoin:round;fill-rule:evenodd;"
d="M 19641.2,8775.77
19656.1,8780.28
19669.7,8787.59
19681.7,8797.42
19691.5,8809.41
19698.9,8823.08
19703.4,8837.92
19705.1,8855.77
19705.1,9283.6
19703.4,9301.45
19698.9,9316.29
19691.5,9329.96
19681.7,9341.95
19669.7,9351.79
19656.1,9359.1
19641.2,9363.6
19623.4,9365.35
19294,9365.35
19276.1,9363.6
19261.3,9359.1
19247.6,9351.79
19235.6,9341.95
19225.8,9329.96
19218.5,9316.29
19214,9301.45
19212.2,9283.6
19212.2,8855.77
19214,8837.92
19218.5,8823.08
19225.8,8809.41
19235.6,8797.42
19247.6,8787.59
19261.3,8780.28
19276.1,8775.77
19294,8774.02
19623.4,8774.02
Z" /> 
<path style="fill:#000000; fill-opacity:1.0; 
stroke:#000000; stroke-width:0; stroke-opacity:1; 
stroke-linecap:round; stroke-linejoin:round;fill-rule:evenodd;"
d="M 21531.2,8775.77
21546,8780.26
21559.6,8787.55
21571.5,8797.35
21581.4,8809.31
21588.6,8822.94
21593.1,8837.74
21594.9,8855.54
21594.9,9283.83
21593.1,9301.63
21588.6,9316.43
21581.4,9330.06
21571.5,9342.02
21559.6,9351.82
21546,9359.11
21531.2,9363.6
21513.4,9365.35
21183.5,9365.35
21165.7,9363.6
21150.9,9359.11
21137.3,9351.82
21125.3,9342.02
21115.5,9330.06
21108.2,9316.43
21103.7,9301.63
21102,9283.83
21102,8855.54
21103.7,8837.74
21108.2,8822.94
21115.5,8809.31
21125.3,8797.35
21137.3,8787.55
21150.9,8780.26
21165.7,8775.77
21183.5,8774.02
21513.4,8774.02
Z" /> 
<path style="fill:#000000; fill-opacity:1.0; 
stroke:#000000; stroke-width:0; stroke-opacity:1; 
stroke-linecap:round; stroke-linejoin:round;fill-rule:evenodd;"
d="M 10894.8,8489.94
10909.2,8495.39
10922.4,8503.55
10933.7,8514.12
10944.1,8528.66
10956.8,8550.69
10987.1,8603.2
11109,8814.33
11116.4,8830.63
11119.9,8845.69
11120.4,8861.14
11117.9,8876.39
11112.5,8890.86
11104.3,8903.99
11093.7,8915.28
11079.2,8925.7
10708.3,9139.84
10692,9147.22
10676.9,9150.74
10661.5,9151.24
10646.2,9148.72
10631.7,9143.28
10618.6,9135.11
10607.3,9124.54
10596.9,9110
10471.3,8892.52
10444.7,8846.36
10432,8824.33
10424.6,8808.04
10421.1,8792.98
10420.6,8777.53
10423.1,8762.27
10428.5,8747.8
10436.7,8734.67
10447.3,8723.39
10461.8,8712.97
10832.7,8498.82
10849,8491.44
10864.1,8487.93
10879.5,8487.42
Z" /> 
<path style="fill:#000000; fill-opacity:1.0; 
stroke:#000000; stroke-width:0; stroke-opacity:1; 
stroke-linecap:round; stroke-linejoin:round;fill-rule:evenodd;"
d="M 7606.78,8208.85
7681.07,8231.39
7749.53,8267.98
7809.54,8317.23
7858.79,8377.24
7895.39,8445.7
7895.39,8445.7
7897.1,8451.37
7917.92,8519.99
7925.53,8597.24
7917.92,8674.5
7895.39,8748.79
7858.79,8817.25
7809.54,8877.26
7749.53,8926.51
7681.07,8963.1
7606.78,8985.64
7548.89,8991.34
6880.25,8991.34
6822.35,8985.64
6748.06,8963.1
6679.6,8926.51
6619.59,8877.26
6570.34,8817.25
6533.75,8748.79
6511.21,8674.5
6503.61,8597.24
6511.21,8519.99
6532.03,8451.37
6533.75,8445.7
6533.75,8445.7
6570.34,8377.24
6619.59,8317.23
6679.6,8267.98
6748.06,8231.39
6822.35,8208.85
6880.25,8203.15
7548.89,8203.15
Z" /> 
<path style="fill:#000000; fill-opacity:1.0; 
stroke:#000000; stroke-width:0; stroke-opacity:1; 
stroke-linecap:round; stroke-linejoin:round;fill-rule:evenodd;"
d="M 10579.8,7944.41
10594.3,7949.86
10607.4,7958.02
10618.7,7968.59
10629.1,7983.14
10794.1,8268.8
10801.4,8285.1
10804.9,8300.16
10805.5,8315.61
10802.9,8330.86
10797.5,8345.33
10789.3,8358.46
10778.8,8369.75
10764.2,8380.17
10393.3,8594.31
10377,8601.7
10362,8605.21
10346.5,8605.71
10331.2,8603.2
10316.8,8597.75
10303.6,8589.58
10292.4,8579.02
10281.9,8564.47
10239.8,8491.44
10129.7,8300.83
10117,8278.8
10109.6,8262.51
10106.1,8247.45
10105.6,8232
10108.1,8216.74
10113.6,8202.27
10121.7,8189.14
10132.3,8177.86
10146.8,8167.44
10517.8,7953.29
10534.1,7945.91
10549.1,7942.4
10564.6,7941.89
Z" /> 
<path style="fill:#000000; fill-opacity:1.0; 
stroke:#000000; stroke-width:0; stroke-opacity:1; 
stroke-linecap:round; stroke-linejoin:round;fill-rule:evenodd;"
d="M 10264.9,7398.88
10279.3,7404.33
10292.5,7412.5
10303.7,7423.06
10314.2,7437.61
10326.9,7459.64
10396.4,7580.02
10479.1,7723.28
10486.5,7739.57
10490,7754.63
10490.5,7770.08
10488,7785.34
10482.5,7799.81
10474.4,7812.94
10463.8,7824.22
10449.3,7834.64
10078.3,8048.79
10062.1,8056.17
10047,8059.68
10031.5,8060.19
10016.3,8057.67
10001.8,8052.22
9988.69,8044.06
9977.4,8033.49
9966.98,8018.94
9841.42,7801.47
9814.77,7755.3
9802.05,7733.28
9794.67,7716.98
9791.15,7701.92
9790.65,7686.47
9793.17,7671.22
9798.61,7656.75
9806.78,7643.62
9817.35,7632.33
9831.89,7621.91
10202.8,7407.77
10219.1,7400.38
10234.2,7396.87
10249.6,7396.37
Z" /> 
<path style="fill:#000000; fill-opacity:1.0; 
stroke:#000000; stroke-width:0; stroke-opacity:1; 
stroke-linecap:round; stroke-linejoin:round;fill-rule:evenodd;"
d="M 22830.4,7358.45
22845.2,7362.94
22858.8,7370.22
22870.8,7380.03
22880.6,7391.98
22887.9,7405.62
22892.3,7420.41
22894.1,7438.22
22894.1,7504.33
22895,7513.93
22897.8,7523.16
22902.4,7531.67
22908.5,7539.13
22916,7545.25
22924.5,7549.8
22933.7,7552.6
22943.3,7553.54
22981.9,7553.54
22991.5,7552.6
23000.7,7549.8
23009.2,7545.25
23016.7,7539.13
23022.8,7531.67
23027.4,7523.16
23030.2,7513.93
23031.1,7504.33
23031.1,7438.22
23032.9,7420.41
23037.3,7405.62
23044.6,7391.98
23054.4,7380.03
23066.4,7370.22
23080,7362.94
23094.8,7358.45
23112.6,7356.69
23442.5,7356.69
23460.3,7358.45
23475.1,7362.94
23488.7,7370.22
23500.7,7380.03
23510.5,7391.98
23517.8,7405.62
23522.3,7420.41
23524,7438.22
23524,7504.33
23525,7513.93
23527.8,7523.16
23532.3,7531.67
23538.4,7539.13
23545.9,7545.25
23554.4,7549.8
23563.6,7552.6
23573.2,7553.54
23611.8,7553.54
23621.4,7552.6
23630.6,7549.8
23639.2,7545.25
23646.6,7539.13
23652.7,7531.67
23657.3,7523.16
23660.1,7513.93
23661,7504.33
23661,7438.22
23662.8,7420.41
23667.3,7405.62
23674.6,7391.98
23684.4,7380.03
23696.3,7370.22
23710,7362.94
23724.7,7358.45
23742.5,7356.69
24072.4,7356.69
24090.2,7358.45
24105,7362.94
24118.6,7370.22
24130.6,7380.03
24140.4,7391.98
24147.7,7405.62
24152.2,7420.41
24153.9,7438.22
24153.9,7866.51
24152.2,7884.31
24147.7,7899.11
24140.4,7912.74
24130.6,7924.69
24118.6,7934.5
24105,7941.79
24090.2,7946.28
24072.4,7948.03
23742.5,7948.03
23724.7,7946.28
23710,7941.79
23696.3,7934.5
23684.4,7924.69
23674.6,7912.74
23667.3,7899.11
23662.8,7884.31
23661,7866.51
23661,7800.39
23660.1,7790.79
23657.3,7781.56
23652.7,7773.05
23646.6,7765.6
23639.2,7759.48
23630.6,7754.93
23621.4,7752.13
23611.8,7751.18
23573.2,7751.18
23563.6,7752.13
23554.4,7754.93
23545.9,7759.48
23538.4,7765.6
23532.3,7773.05
23527.8,7781.56
23525,7790.79
23524,7800.39
23524,7866.51
23522.3,7884.31
23517.8,7899.11
23510.5,7912.74
23500.7,7924.69
23488.7,7934.5
23475.1,7941.79
23460.3,7946.28
23442.5,7948.03
23112.6,7948.03
23094.8,7946.28
23080,7941.79
23066.4,7934.5
23054.4,7924.69
23044.6,7912.74
23037.3,7899.11
23032.9,7884.31
23031.1,7866.51
23031.1,7800.39
23030.2,7790.79
23027.4,7781.56
23022.8,7773.05
23016.7,7765.6
23009.2,7759.48
23000.7,7754.93
22991.5,7752.13
22981.9,7751.18
22943.3,7751.18
22933.7,7752.13
22924.5,7754.93
22916,7759.48
22908.5,7765.6
22902.4,7773.05
22897.8,7781.56
22895,7790.79
22894.1,7800.39
22894.1,7866.51
22892.3,7884.31
22887.9,7899.11
22880.6,7912.74
22870.8,7924.69
22858.8,7934.5
22845.2,7941.79
22830.4,7946.28
22812.6,7948.03
22482.7,7948.03
22464.9,7946.28
22450.1,7941.79
22436.5,7934.5
22424.5,7924.69
22414.7,7912.74
22407.4,7899.11
22402.9,7884.31
22401.2,7866.51
22401.2,7438.22
22402.9,7420.41
22407.4,7405.62
22414.7,7391.98
22424.5,7380.03
22436.5,7370.22
22450.1,7362.94
22464.9,7358.45
22482.7,7356.69
22812.6,7356.69
Z" /> 
<path style="fill:#000000; fill-opacity:1.0; 
stroke:#000000; stroke-width:0; stroke-opacity:1; 
stroke-linecap:round; stroke-linejoin:round;fill-rule:evenodd;"
d="M 9949.9,6853.36
9964.37,6858.8
9977.5,6866.97
9988.78,6877.54
9999.2,6892.08
10011.9,6914.11
10042.2,6966.61
10164.1,7177.75
10171.5,7194.04
10175,7209.1
10175.5,7224.55
10173,7239.81
10167.6,7254.28
10159.4,7267.41
10148.8,7278.69
10134.3,7289.11
9763.39,7503.26
9747.09,7510.64
9732.03,7514.15
9716.58,7514.66
9701.33,7512.14
9686.85,7506.69
9673.73,7498.53
9662.44,7487.96
9652.02,7473.41
9526.46,7255.94
9499.81,7209.78
9487.09,7187.75
9479.71,7171.45
9476.19,7156.39
9475.69,7140.94
9478.21,7125.69
9483.65,7111.22
9491.82,7098.09
9502.39,7086.8
9516.93,7076.38
9887.84,6862.24
9904.13,6854.86
9919.19,6851.34
9934.64,6850.84
Z" /> 
<path style="fill:#000000; fill-opacity:1.0; 
stroke:#000000; stroke-width:0; stroke-opacity:1; 
stroke-linecap:round; stroke-linejoin:round;fill-rule:evenodd;"
d="M 12614.4,3951.28
12628.9,3956.72
12642,3964.89
12653.3,3975.46
12663.8,3990
12676.5,4012.03
12780.4,4192.02
12828.7,4275.67
12836.1,4291.96
12839.6,4307.02
12840.1,4322.48
12837.6,4337.73
12832.1,4352.2
12824,4365.33
12813.4,4376.61
12798.8,4387.03
12741.6,4420.09
12733.7,4425.71
12727.1,4432.75
12722.1,4440.94
12718.7,4449.97
12717.1,4459.49
12717.4,4469.13
12719.6,4478.53
12723.6,4487.31
12742.9,4520.73
12748.5,4528.57
12755.5,4535.17
12763.7,4540.26
12772.7,4543.66
12782.3,4545.23
12791.9,4544.92
12801.3,4542.72
12810.1,4538.74
12867.3,4505.69
12883.6,4498.3
12898.7,4494.79
12914.2,4494.29
12929.4,4496.81
12943.9,4502.25
12957,4510.42
12968.3,4520.99
12978.7,4535.53
12991.4,4557.56
13104.7,4753.7
13143.6,4821.2
13151,4837.49
13154.5,4852.55
13155,4868
13152.5,4883.26
13147.1,4897.73
13138.9,4910.86
13128.3,4922.14
13113.8,4932.56
13056.5,4965.62
13048.7,4971.24
13042.1,4978.28
13037,4986.47
13033.6,4995.5
13032,5005.02
13032.4,5014.66
13034.6,5024.06
13038.5,5032.84
13055.8,5062.68
13057.8,5066.26
13063.4,5074.1
13070.5,5080.69
13078.7,5085.79
13087.7,5089.19
13097.2,5090.76
13106.9,5090.44
13116.3,5088.25
13125,5084.27
13182.3,5051.22
13198.6,5043.83
13213.7,5040.32
13229.1,5039.81
13244.4,5042.33
13258.8,5047.78
13272,5055.94
13283.2,5066.51
13293.7,5081.06
13306.4,5103.08
13419.6,5299.23
13458.6,5366.72
13466,5383.02
13469.5,5398.08
13470,5413.53
13467.5,5428.78
13462,5443.26
13453.9,5456.38
13443.3,5467.67
13428.8,5478.09
13371.5,5511.15
13363.7,5516.77
13357.1,5523.81
13352,5532
13348.6,5541.03
13347,5550.55
13347.3,5560.19
13349.5,5569.58
13353.5,5578.37
13372.8,5611.79
13378.4,5619.63
13385.4,5626.22
13393.6,5631.32
13402.7,5634.72
13412.2,5636.29
13421.8,5635.97
13431.2,5633.78
13440,5629.8
13497.3,5596.74
13513.6,5589.36
13528.6,5585.85
13544.1,5585.34
13559.3,5587.86
13573.8,5593.31
13586.9,5601.47
13598.2,5612.04
13608.6,5626.59
13621.3,5648.61
13734.6,5844.76
13773.6,5912.25
13780.9,5928.55
13784.5,5943.61
13785,5959.06
13782.4,5974.31
13777,5988.78
13768.8,6001.91
13758.3,6013.2
13743.7,6023.62
13686.5,6056.67
13678.6,6062.29
13672,6069.34
13666.9,6077.53
13663.5,6086.56
13662,6096.08
13662.3,6105.72
13664.5,6115.11
13668.5,6123.9
13687.7,6157.32
13693.4,6165.16
13700.4,6171.75
13708.6,6176.84
13717.6,6180.24
13727.1,6181.81
13736.8,6181.5
13746.2,6179.31
13755,6175.33
13812.2,6142.27
13828.5,6134.89
13843.6,6131.38
13859,6130.87
13874.3,6133.39
13888.8,6138.84
13901.9,6147
13913.2,6157.57
13923.6,6172.11
13936.3,6194.14
14063.2,6413.86
14088.5,6457.78
14095.9,6474.07
14099.4,6489.13
14099.9,6504.59
14097.4,6519.84
14092,6534.31
14083.8,6547.44
14073.2,6558.73
14058.7,6569.15
14001.4,6602.2
13993.6,6607.82
13987,6614.86
13981.9,6623.06
13978.5,6632.08
13976.9,6641.6
13977.2,6651.25
13979.4,6660.64
13983.4,6669.42
14001.9,6701.53
14002.7,6702.84
14008.3,6710.68
14015.4,6717.28
14023.6,6722.37
14032.6,6725.77
14042.1,6727.34
14051.7,6727.03
14061.1,6724.84
14069.9,6720.85
14127.2,6687.8
14143.5,6680.41
14158.5,6676.9
14174,6676.4
14189.2,6678.92
14203.7,6684.36
14216.8,6692.53
14228.1,6703.1
14238.6,6717.64
14251.3,6739.67
14364.5,6935.81
14403.5,7003.31
14410.9,7019.6
14414.4,7034.66
14414.9,7050.11
14412.4,7065.37
14406.9,7079.84
14398.8,7092.97
14388.2,7104.25
14373.6,7114.67
14002.7,7328.82
13986.4,7336.2
13971.4,7339.71
13955.9,7340.22
13940.7,7337.7
13926.2,7332.25
13913.1,7324.09
13901.8,7313.52
13891.4,7298.97
13756.5,7065.37
13739.2,7035.34
13726.4,7013.31
13719.1,6997.01
13715.5,6981.95
13715,6966.5
13717.6,6951.25
13723,6936.78
13731.2,6923.65
13741.7,6912.36
13756.3,6901.94
13813.5,6868.89
13821.4,6863.27
13828,6856.23
13833.1,6848.03
13836.5,6839
13838,6829.49
13837.7,6819.84
13835.5,6810.45
13831.5,6801.66
13831.3,6801.17
13812.3,6768.24
13806.6,6760.41
13799.6,6753.81
13791.4,6748.72
13782.4,6745.32
13772.9,6743.75
13763.2,6744.06
13753.8,6746.25
13745,6750.23
13687.8,6783.29
13671.5,6790.67
13656.4,6794.18
13641,6794.69
13625.7,6792.17
13611.2,6786.73
13598.1,6778.56
13586.8,6767.99
13576.4,6753.45
13533.4,6679.03
13424.2,6489.81
13411.5,6467.78
13404.1,6451.49
13400.6,6436.43
13400.1,6420.97
13402.6,6405.72
13408,6391.25
13416.2,6378.12
13426.8,6366.83
13441.3,6356.41
13498.6,6323.36
13506.4,6317.74
13513,6310.7
13518.1,6302.51
13521.5,6293.48
13523.1,6283.96
13522.8,6274.32
13520.6,6264.92
13516.6,6256.14
13497.3,6222.72
13491.7,6214.88
13484.6,6208.28
13476.4,6203.19
13467.4,6199.79
13457.9,6198.22
13448.3,6198.53
13438.9,6200.72
13430.1,6204.71
13372.8,6237.76
13356.5,6245.15
13341.5,6248.66
13326,6249.16
13310.8,6246.64
13296.3,6241.2
13283.2,6233.03
13271.9,6222.46
13261.4,6207.92
13191.4,6086.56
13109.2,5944.28
13096.5,5922.25
13089.1,5905.96
13085.6,5890.9
13085.1,5875.45
13087.6,5860.19
13093.1,5845.72
13101.2,5832.59
13111.8,5821.31
13126.4,5810.89
13183.6,5777.83
13191.5,5772.21
13198,5765.17
13203.1,5756.98
13206.5,5747.95
13208.1,5738.43
13207.8,5728.79
13205.6,5719.39
13201.6,5710.61
13182.3,5677.19
13176.7,5669.35
13169.7,5662.75
13161.5,5657.66
13152.5,5654.26
13142.9,5652.69
13133.3,5653.01
13123.9,5655.2
13115.1,5659.18
13057.9,5692.23
13041.6,5699.62
13026.5,5703.13
13011,5703.63
12995.8,5701.12
12981.3,5695.67
12968.2,5687.51
12956.9,5676.94
12946.5,5662.39
12781.6,5376.72
12774.2,5360.43
12770.7,5345.37
12770.2,5329.92
12772.7,5314.66
12778.1,5300.19
12786.3,5287.06
12796.9,5275.78
12811.4,5265.36
12868.7,5232.3
12876.5,5226.68
12883.1,5219.64
12888.2,5211.45
12891.6,5202.42
12893.2,5192.9
12892.8,5183.26
12890.6,5173.86
12886.7,5165.08
12867.4,5131.66
12861.8,5123.82
12854.7,5117.23
12846.5,5112.13
12837.5,5108.73
12828,5107.16
12818.3,5107.48
12808.9,5109.67
12800.1,5113.65
12742.9,5146.7
12726.6,5154.09
12711.5,5157.6
12696.1,5158.11
12680.8,5155.59
12666.4,5150.14
12653.2,5141.98
12641.9,5131.41
12631.5,5116.86
12589.4,5043.83
12479.3,4853.23
12466.6,4831.2
12459.2,4814.9
12455.7,4799.84
12455.2,4784.39
12457.7,4769.14
12463.2,4754.67
12471.3,4741.54
12481.9,4730.25
12496.4,4719.83
12553.7,4686.77
12561.5,4681.16
12568.1,4674.11
12573.2,4665.92
12576.6,4656.89
12578.2,4647.37
12577.9,4637.73
12575.7,4628.34
12571.7,4619.55
12552.4,4586.13
12546.8,4578.29
12539.8,4571.7
12531.6,4566.6
12522.5,4563.21
12513,4561.63
12503.4,4561.95
12494,4564.14
12485.2,4568.12
12427.9,4601.18
12411.6,4608.56
12396.6,4612.07
12381.1,4612.58
12365.9,4610.06
12351.4,4604.61
12338.3,4596.45
12327,4585.88
12316.6,4571.34
12197.4,4364.88
12164.4,4307.7
12151.6,4285.67
12144.3,4269.37
12140.7,4254.31
12140.2,4238.86
12142.8,4223.61
12148.2,4209.14
12156.4,4196.01
12166.9,4184.72
12181.5,4174.3
12552.4,3960.16
12568.7,3952.78
12583.7,3949.26
12599.2,3948.76
Z" /> 
<path style="fill:#000000; fill-opacity:1.0; 
stroke:#000000; stroke-width:0; stroke-opacity:1; 
stroke-linecap:round; stroke-linejoin:round;fill-rule:evenodd;"
d="M 22830.2,6571.05
22845,6575.55
22858.7,6582.86
22870.7,6592.7
22880.5,6604.68
22887.8,6618.36
22892.3,6633.2
22894.1,6651.05
22894.1,7078.87
22892.3,7096.72
22887.8,7111.56
22880.5,7125.24
22870.7,7137.22
22858.7,7147.06
22845,7154.37
22830.2,7158.87
22812.3,7160.63
22482.9,7160.63
22465.1,7158.87
22450.2,7154.37
22436.6,7147.06
22424.6,7137.22
22414.8,7125.24
22407.4,7111.56
22402.9,7096.72
22401.2,7078.87
22401.2,6651.05
22402.9,6633.2
22407.4,6618.36
22414.8,6604.68
22424.6,6592.7
22436.6,6582.86
22450.2,6575.55
22465.1,6571.05
22482.9,6569.29
22812.3,6569.29
Z" /> 
<path style="fill:#000000; fill-opacity:1.0; 
stroke:#000000; stroke-width:0; stroke-opacity:1; 
stroke-linecap:round; stroke-linejoin:round;fill-rule:evenodd;"
d="M 23460.3,6571.05
23475.1,6575.53
23488.7,6582.82
23500.7,6592.63
23510.5,6604.58
23517.8,6618.22
23522.3,6633.01
23524,6650.82
23524,7079.1
23522.3,7096.91
23517.8,7111.7
23510.5,7125.34
23500.7,7137.29
23488.7,7147.1
23475.1,7154.39
23460.3,7158.88
23442.5,7160.63
23112.6,7160.63
23094.8,7158.88
23080,7154.39
23066.4,7147.1
23054.4,7137.29
23044.6,7125.34
23037.3,7111.7
23032.9,7096.91
23031.1,7079.1
23031.1,6650.82
23032.9,6633.01
23037.3,6618.22
23044.6,6604.58
23054.4,6592.63
23066.4,6582.82
23080,6575.53
23094.8,6571.05
23112.6,6569.29
23442.5,6569.29
Z" /> 
<path style="fill:#000000; fill-opacity:1.0; 
stroke:#000000; stroke-width:0; stroke-opacity:1; 
stroke-linecap:round; stroke-linejoin:round;fill-rule:evenodd;"
d="M 24090.2,6571.05
24105,6575.53
24118.6,6582.82
24130.6,6592.63
24140.4,6604.58
24147.7,6618.22
24152.2,6633.01
24153.9,6650.82
24153.9,7079.1
24152.2,7096.91
24147.7,7111.7
24140.4,7125.34
24130.6,7137.29
24118.6,7147.1
24105,7154.39
24090.2,7158.88
24072.4,7160.63
23742.5,7160.63
23724.7,7158.88
23710,7154.39
23696.3,7147.1
23684.4,7137.29
23674.6,7125.34
23667.3,7111.7
23662.8,7096.91
23661,7079.1
23661,6650.82
23662.8,6633.01
23667.3,6618.22
23674.6,6604.58
23684.4,6592.63
23696.3,6582.82
23710,6575.53
23724.7,6571.05
23742.5,6569.29
24072.4,6569.29
Z" /> 
<path style="fill:#000000; fill-opacity:1.0; 
stroke:#000000; stroke-width:0; stroke-opacity:1; 
stroke-linecap:round; stroke-linejoin:round;fill-rule:evenodd;"
d="M 9634.94,6307.83
9649.41,6313.28
9662.54,6321.44
9673.82,6332.01
9684.24,6346.55
9696.96,6368.58
9819.69,6581.16
9849.17,6632.22
9856.56,6648.51
9860.07,6663.57
9860.57,6679.03
9858.06,6694.28
9852.61,6708.75
9844.44,6721.88
9833.87,6733.17
9819.33,6743.59
9448.43,6957.73
9432.13,6965.11
9417.07,6968.62
9401.62,6969.13
9386.36,6966.61
9371.89,6961.17
9358.76,6953
9347.48,6942.43
9337.06,6927.89
9294.89,6854.86
9184.85,6664.25
9172.13,6642.22
9164.74,6625.93
9161.23,6610.87
9160.73,6595.41
9163.25,6580.16
9168.69,6565.69
9176.86,6552.56
9187.43,6541.27
9201.97,6530.85
9572.87,6316.71
9589.17,6309.33
9604.23,6305.82
9619.68,6305.31
Z" /> 
<path style="fill:#000000; fill-opacity:1.0; 
stroke:#000000; stroke-width:0; stroke-opacity:1; 
stroke-linecap:round; stroke-linejoin:round;fill-rule:evenodd;"
d="M 14871.2,6285.22
14885.6,6290.66
14898.8,6298.83
14910,6309.4
14920.5,6323.94
14933.2,6345.97
15056.3,6559.15
15085.4,6609.61
15092.8,6625.9
15096.3,6640.96
15096.8,6656.41
15094.3,6671.67
15088.8,6686.14
15080.7,6699.27
15070.1,6710.55
15055.6,6720.97
14684.6,6935.12
14668.3,6942.5
14653.3,6946.01
14637.8,6946.52
14622.6,6944
14608.1,6938.55
14595,6930.39
14583.7,6919.82
14573.3,6905.27
14529.5,6829.49
14421.1,6641.64
14408.3,6619.61
14401,6603.31
14397.5,6588.25
14396.9,6572.8
14399.5,6557.55
14404.9,6543.08
14413.1,6529.95
14423.6,6518.66
14438.2,6508.24
14809.1,6294.1
14825.4,6286.71
14840.5,6283.2
14855.9,6282.7
Z" /> 
<path style="fill:#000000; fill-opacity:1.0; 
stroke:#000000; stroke-width:0; stroke-opacity:1; 
stroke-linecap:round; stroke-linejoin:round;fill-rule:evenodd;"
d="M 9319.95,5762.39
9334.46,5767.86
9347.63,5776.04
9358.95,5786.64
9369.4,5801.22
9382.1,5823.22
9382.1,5823.22
9516.88,6056.67
9534.1,6086.49
9541.5,6102.83
9545.02,6117.93
9545.53,6133.43
9543,6148.73
9537.54,6163.24
9529.35,6176.41
9518.75,6187.73
9504.17,6198.17
9482.18,6210.87
9155.66,6399.39
9155.66,6399.39
9133.66,6412.09
9117.33,6419.49
9102.23,6423.01
9086.73,6423.52
9071.43,6420.99
9056.92,6415.53
9043.75,6407.34
9032.43,6396.74
9021.98,6382.16
9009.04,6359.75
8869.98,6118.89
8869.98,6118.89
8857.28,6096.89
8849.88,6080.56
8846.36,6065.45
8845.85,6049.96
8848.38,6034.66
8853.84,6020.14
8862.03,6006.98
8872.63,5995.66
8887.21,5985.21
8932.5,5959.06
9235.72,5784
9235.72,5784
9257.72,5771.3
9274.05,5763.9
9289.15,5760.37
9304.65,5759.87
Z" /> 
<path style="fill:#000000; fill-opacity:1.0; 
stroke:#000000; stroke-width:0; stroke-opacity:1; 
stroke-linecap:round; stroke-linejoin:round;fill-rule:evenodd;"
d="M 14556.2,5739.69
14570.7,5745.13
14583.8,5753.3
14595.1,5763.87
14605.5,5778.41
14770.4,6064.08
14777.8,6080.37
14781.3,6095.43
14781.8,6110.89
14779.3,6126.14
14773.9,6140.61
14765.7,6153.74
14755.1,6165.03
14740.6,6175.45
14369.7,6389.59
14353.4,6396.97
14338.3,6400.48
14322.9,6400.99
14307.6,6398.47
14293.2,6393.02
14280,6384.86
14268.7,6374.29
14258.3,6359.75
14216.2,6286.71
14106.1,6096.11
14093.4,6074.08
14086,6057.79
14082.5,6042.73
14082,6027.27
14084.5,6012.02
14090,5997.55
14098.1,5984.42
14108.7,5973.13
14123.2,5962.71
14494.1,5748.57
14510.4,5741.19
14525.5,5737.68
14540.9,5737.17
Z" /> 
<path style="fill:#000000; fill-opacity:1.0; 
stroke:#000000; stroke-width:0; stroke-opacity:1; 
stroke-linecap:round; stroke-linejoin:round;fill-rule:evenodd;"
d="M 14241.2,5194.16
14255.7,5199.61
14268.8,5207.77
14280.1,5218.34
14290.5,5232.88
14455.5,5518.55
14462.9,5534.85
14466.4,5549.91
14466.9,5565.36
14464.4,5580.61
14458.9,5595.08
14450.7,5608.21
14440.2,5619.5
14425.6,5629.92
14054.7,5844.06
14038.4,5851.44
14023.4,5854.96
14007.9,5855.46
13992.7,5852.94
13978.2,5847.5
13965.1,5839.33
13953.8,5828.76
13943.4,5814.22
13817.8,5596.74
13791.1,5550.58
13778.4,5528.55
13771,5512.26
13767.5,5497.2
13767,5481.75
13769.5,5466.49
13775,5452.02
13783.2,5438.89
13793.7,5427.61
13808.3,5417.19
14179.2,5203.04
14195.5,5195.66
14210.5,5192.15
14226,5191.64
Z" /> 
<path style="fill:#000000; fill-opacity:1.0; 
stroke:#000000; stroke-width:0; stroke-opacity:1; 
stroke-linecap:round; stroke-linejoin:round;fill-rule:evenodd;"
d="M 13926.3,4648.63
13940.7,4654.08
13953.9,4662.24
13965.2,4672.81
13975.6,4687.36
13988.3,4709.38
14018.6,4761.89
14140.5,4973.02
14147.9,4989.32
14151.4,5004.38
14151.9,5019.83
14149.4,5035.08
14143.9,5049.55
14135.8,5062.68
14125.2,5073.97
14110.7,5084.39
13739.8,5298.53
13723.5,5305.92
13708.4,5309.43
13693,5309.93
13677.7,5307.42
13663.2,5301.97
13650.1,5293.8
13638.8,5283.24
13628.4,5268.69
13502.8,5051.22
13476.2,5005.05
13463.5,4983.02
13456.1,4966.73
13452.6,4951.67
13452.1,4936.22
13454.6,4920.96
13460,4906.49
13468.2,4893.36
13478.8,4882.08
13493.3,4871.66
13864.2,4657.51
13880.5,4650.13
13895.6,4646.62
13911,4646.11
Z" /> 
<path style="fill:#000000; fill-opacity:1.0; 
stroke:#000000; stroke-width:0; stroke-opacity:1; 
stroke-linecap:round; stroke-linejoin:round;fill-rule:evenodd;"
d="M 13611.3,4103.1
13625.8,4108.55
13638.9,4116.72
13650.2,4127.28
13660.6,4141.83
13673.3,4163.86
13780.1,4348.81
13825.6,4427.5
13832.9,4443.79
13836.4,4458.85
13837,4474.3
13834.4,4489.56
13829,4504.03
13820.8,4517.16
13810.3,4528.44
13795.7,4538.86
13424.8,4753.01
13408.5,4760.39
13393.4,4763.9
13378,4764.41
13362.7,4761.89
13348.3,4756.44
13335.1,4748.28
13323.9,4737.71
13313.4,4723.16
13271.3,4650.13
13161.2,4459.52
13148.5,4437.5
13141.1,4421.2
13137.6,4406.14
13137.1,4390.69
13139.6,4375.44
13145.1,4360.97
13153.2,4347.84
13163.8,4336.55
13178.3,4326.13
13549.3,4111.99
13565.5,4104.6
13580.6,4101.09
13596.1,4100.59
Z" /> 
<path style="fill:#000000; fill-opacity:1.0; 
stroke:#000000; stroke-width:0; stroke-opacity:1; 
stroke-linecap:round; stroke-linejoin:round;fill-rule:evenodd;"
d="M 9739.69,3838.95
9798.47,3850.64
9863.02,3877.38
9921.12,3916.2
9970.53,3965.61
10009.4,4023.71
10036.1,4088.26
10049.7,4156.8
10049.7,4226.67
10036.1,4295.2
10009.4,4359.76
9970.53,4417.86
9921.12,4467.27
9863.02,4506.09
9798.47,4532.83
9744,4543.66
9729.94,4546.46
9660.06,4546.46
9646,4543.66
9591.53,4532.83
9526.97,4506.09
9468.87,4467.27
9419.47,4417.86
9380.65,4359.76
9353.91,4295.2
9340.27,4226.67
9340.27,4156.8
9353.91,4088.26
9380.65,4023.71
9419.47,3965.61
9468.87,3916.2
9526.97,3877.38
9591.53,3850.64
9650.31,3838.95
9660.06,3837.01
9729.94,3837.01
Z" /> 
<path style="fill:#000000; fill-opacity:1.0; 
stroke:#000000; stroke-width:0; stroke-opacity:1; 
stroke-linecap:round; stroke-linejoin:round;fill-rule:evenodd;"
d="M 21339.1,3230.6
21397.3,3254.73
21449.7,3289.76
21494.3,3334.34
21529.4,3386.76
21553.5,3445.02
21565.8,3506.85
21565.8,3569.9
21553.5,3631.74
21529.4,3689.99
21518.6,3706.15
21516.9,3708.88
21406.9,3899.36
21236.4,4194.66
21230,4205.76
21193.4,4256.76
21147.6,4299.66
21094.4,4332.79
21035.6,4354.89
20973.7,4365.11
20911,4363.06
20849.9,4348.81
20809.7,4332.01
20809.7,4332.01
20756.6,4298.58
20711,4255.44
20674.7,4204.23
20649.1,4146.94
20635.2,4085.75
20633.5,4023.03
20644.1,3961.18
20675.6,3885.68
20956.4,3399.3
20959.3,3393.52
20962.1,3386.76
20997.1,3334.34
21041.7,3289.76
21094.1,3254.73
21152.3,3230.6
21214.2,3218.3
21277.2,3218.3
Z" /> 
<path style="fill:#000000; fill-opacity:1.0; 
stroke:#000000; stroke-width:0; stroke-opacity:1; 
stroke-linecap:round; stroke-linejoin:round;fill-rule:evenodd;"
d="M 13296.3,3557.67
13310.8,3563.13
13324,3571.32
13335.3,3581.92
13345.8,3596.5
13358.5,3618.49
13358.5,3618.49
13492.5,3850.64
13510.5,3881.77
13517.9,3898.1
13521.4,3913.21
13521.9,3928.7
13519.4,3944
13513.9,3958.52
13505.7,3971.69
13495.1,3983
13480.5,3993.45
13458.6,4006.15
13132,4194.66
13132,4194.66
13110,4207.36
13093.7,4214.76
13078.6,4218.29
13063.1,4218.79
13047.8,4216.27
13033.3,4210.81
13020.1,4202.62
13008.8,4192.02
12998.4,4177.44
12967.9,4124.7
12846.4,3914.16
12846.4,3914.16
12833.7,3892.17
12826.3,3875.83
12822.7,3860.73
12822.2,3845.23
12824.8,3829.93
12830.2,3815.42
12838.4,3802.25
12849,3790.93
12863.6,3780.49
12910.8,3753.24
13212.1,3579.27
13212.1,3579.27
13234.1,3566.57
13250.4,3559.17
13265.5,3555.65
13281,3555.14
Z" /> 
<path style="fill:#000000; fill-opacity:1.0; 
stroke:#000000; stroke-width:0; stroke-opacity:1; 
stroke-linecap:round; stroke-linejoin:round;fill-rule:evenodd;"
d="M 10605.7,3338.95
10664.5,3350.64
10729,3377.38
10787.1,3416.2
10836.6,3465.61
10875.4,3523.71
10902.1,3588.26
10915.7,3656.8
10915.7,3726.67
10902.1,3795.2
10875.4,3859.76
10836.6,3917.86
10787.1,3967.27
10729,4006.09
10664.5,4032.83
10605.7,4044.52
10596,4046.46
10526.1,4046.46
10516.3,4044.52
10457.6,4032.83
10393,4006.09
10334.9,3967.27
10285.5,3917.86
10246.7,3859.76
10219.9,3795.2
10206.3,3726.67
10206.3,3656.8
10219.9,3588.26
10246.7,3523.71
10285.5,3465.61
10334.9,3416.2
10393,3377.38
10457.6,3350.64
10516.3,3338.95
10526.1,3337.01
10596,3337.01
Z" /> 
<path style="fill:#000000; fill-opacity:1.0; 
stroke:#000000; stroke-width:0; stroke-opacity:1; 
stroke-linecap:round; stroke-linejoin:round;fill-rule:evenodd;"
d="M 20657.2,2836.9
20715.4,2861.03
20767.8,2896.06
20812.4,2940.64
20847.5,2993.06
20871.6,3051.31
20883.9,3113.15
20883.9,3176.2
20871.6,3238.04
20847.5,3296.29
20836.7,3312.45
20835,3315.18
20760,3445.02
20553.7,3802.25
20548.1,3812.06
20511.5,3863.06
20465.7,3905.95
20412.5,3939.09
20353.7,3961.19
20291.8,3971.41
20229.1,3969.36
20168,3955.11
20127.7,3938.31
20127.7,3938.31
20074.6,3904.88
20029.1,3861.73
19992.8,3810.53
19967.2,3753.24
19953.3,3692.05
19951.6,3629.33
19962.2,3567.48
19993.7,3491.98
20274.5,3005.6
20277.3,2999.82
20280.1,2993.06
20315.2,2940.64
20359.8,2896.06
20412.2,2861.03
20470.4,2836.9
20532.3,2824.6
20595.3,2824.6
Z" /> 
<path style="fill:#000000; fill-opacity:1.0; 
stroke:#000000; stroke-width:0; stroke-opacity:1; 
stroke-linecap:round; stroke-linejoin:round;fill-rule:evenodd;"
d="M 19975.3,2443.2
20033.5,2467.33
20085.9,2502.35
20130.5,2546.94
20165.5,2599.36
20189.7,2657.61
20202,2719.45
20202,2782.5
20189.7,2844.34
20165.5,2902.59
20154.7,2918.75
20153,2921.48
20078.1,3051.31
19867.4,3416.2
19866.2,3418.36
19829.6,3469.36
19783.8,3512.25
19730.5,3545.39
19671.8,3567.49
19609.9,3577.71
19547.2,3575.66
19486.1,3561.41
19445.8,3544.61
19445.8,3544.6
19392.7,3511.18
19347.2,3468.03
19310.9,3416.83
19285.3,3359.54
19271.4,3298.35
19269.7,3235.63
19280.3,3173.78
19311.8,3098.28
19592.6,2611.89
19595.4,2606.12
19598.2,2599.36
19633.3,2546.94
19677.9,2502.35
19730.3,2467.33
19788.5,2443.2
19850.4,2430.9
19913.4,2430.9
Z" /> 
<path style="fill:#000000; fill-opacity:1.0; 
stroke:#000000; stroke-width:0; stroke-opacity:1; 
stroke-linecap:round; stroke-linejoin:round;fill-rule:evenodd;"
d="M 11471.7,2838.95
11530.5,2850.64
11595.1,2877.38
11653.2,2916.2
11702.6,2965.61
11741.4,3023.71
11768.1,3088.26
11781.8,3156.8
11781.8,3226.67
11768.1,3295.2
11741.4,3359.76
11702.6,3417.86
11653.2,3467.27
11595.1,3506.09
11530.5,3532.83
11471.7,3544.52
11462,3546.46
11392.1,3546.46
11382.4,3544.52
11323.6,3532.83
11259,3506.09
11200.9,3467.27
11151.5,3417.86
11112.7,3359.76
11086,3295.2
11072.3,3226.67
11072.3,3156.8
11086,3088.26
11112.7,3023.71
11151.5,2965.61
11200.9,2916.2
11259,2877.38
11323.6,2850.64
11382.4,2838.95
11392.1,2837.01
11462,2837.01
Z" /> 
<path style="fill:#000000; fill-opacity:1.0; 
stroke:#000000; stroke-width:0; stroke-opacity:1; 
stroke-linecap:round; stroke-linejoin:round;fill-rule:evenodd;"
d="M 19293.3,2049.5
19351.6,2073.63
19404,2108.65
19448.6,2153.24
19483.6,2205.66
19507.8,2263.91
19520.1,2325.75
19520.1,2388.8
19507.8,2450.64
19483.6,2508.89
19472.8,2525.04
19471.1,2527.78
19396.2,2657.61
19233.7,2939.05
19184.3,3024.66
19147.7,3075.66
19101.9,3118.55
19048.6,3151.69
18989.9,3173.79
18928,3184.01
18865.3,3181.96
18804.2,3167.71
18763.9,3150.9
18763.9,3150.9
18710.8,3117.48
18665.3,3074.33
18629,3023.13
18603.4,2965.83
18589.5,2904.65
18587.8,2841.93
18598.4,2780.08
18629.9,2704.58
18910.7,2218.19
18913.5,2212.42
18916.3,2205.66
18951.4,2153.24
18995.9,2108.65
19048.4,2073.63
19106.6,2049.5
19168.5,2037.2
19231.5,2037.2
Z" /> 
<path style="fill:#000000; fill-opacity:1.0; 
stroke:#000000; stroke-width:0; stroke-opacity:1; 
stroke-linecap:round; stroke-linejoin:round;fill-rule:evenodd;"
d="M 12777.6,2821.57
12163.2,3176.3
11808.5,2561.89
12422.9,2207.17
Z" /> 
<path style="fill:#000000; fill-opacity:1.0; 
stroke:#000000; stroke-width:0; stroke-opacity:1; 
stroke-linecap:round; stroke-linejoin:round;fill-rule:evenodd;"
d="M 18611.4,1655.8
18669.7,1679.93
18722.1,1714.95
18766.7,1759.54
18801.7,1811.96
18825.8,1870.21
18838.1,1932.05
18838.1,1995.1
18825.8,2056.94
18801.7,2115.19
18790.9,2131.34
18789.2,2134.08
18714.3,2263.91
18551.8,2545.35
18502.4,2630.96
18465.8,2681.96
18420,2724.85
18366.7,2757.99
18308,2780.09
18246.1,2790.31
18183.4,2788.26
18122.3,2774.01
18082,2757.2
18082,2757.2
18028.9,2723.78
17983.4,2680.63
17947.1,2629.43
17921.5,2572.13
17907.6,2510.95
17905.9,2448.23
17916.4,2386.37
17948,2310.88
18228.8,1824.49
18231.6,1818.72
18234.4,1811.96
18269.4,1759.54
18314,1714.95
18366.5,1679.93
18424.7,1655.8
18486.5,1643.5
18549.6,1643.5
Z" /> 
<path style="fill:#000000; fill-opacity:1.0; 
stroke:#000000; stroke-width:0; stroke-opacity:1; 
stroke-linecap:round; stroke-linejoin:round;fill-rule:evenodd;"
d="M 14402.3,1218.54
14416.8,1223.99
14429.9,1232.15
14441.2,1242.72
14451.6,1257.26
14464.3,1279.29
14568.2,1459.28
14616.5,1542.93
14623.9,1559.23
14627.4,1574.29
14627.9,1589.74
14625.4,1604.99
14620,1619.46
14611.8,1632.59
14601.2,1643.88
14586.7,1654.3
14529.4,1687.35
14521.6,1692.97
14515,1700.01
14509.9,1708.21
14506.5,1717.24
14504.9,1726.75
14505.3,1736.4
14507.4,1745.79
14511.4,1754.58
14523.2,1774.98
14530.7,1787.99
14536.3,1795.83
14543.4,1802.43
14551.6,1807.52
14560.6,1810.92
14570.1,1812.49
14579.8,1812.18
14589.2,1809.99
14597.9,1806.01
14655.2,1772.95
14671.5,1765.57
14686.6,1762.05
14702,1761.55
14717.3,1764.07
14731.7,1769.51
14744.9,1777.68
14756.1,1788.25
14766.6,1802.79
14779.3,1824.82
14892.5,2020.96
14931.5,2088.46
14938.9,2104.75
14942.4,2119.81
14942.9,2135.27
14940.4,2150.52
14934.9,2164.99
14926.8,2178.12
14916.2,2189.4
14901.7,2199.82
14530.8,2413.97
14514.5,2421.35
14499.4,2424.86
14483.9,2425.37
14468.7,2422.85
14454.2,2417.4
14441.1,2409.24
14429.8,2398.67
14419.4,2384.13
14254.5,2098.46
14247.1,2082.16
14243.6,2067.11
14243.1,2051.65
14245.6,2036.4
14251,2021.93
14259.2,2008.8
14269.8,1997.51
14284.3,1987.09
14341.5,1954.04
14349.4,1948.42
14356,1941.38
14361.1,1933.18
14364.5,1924.15
14366,1914.64
14365.7,1904.99
14363.5,1895.6
14359.6,1886.81
14340.3,1853.4
14334.6,1845.56
14327.6,1838.96
14319.4,1833.87
14310.4,1830.47
14300.9,1828.9
14291.2,1829.21
14281.8,1831.4
14273,1835.38
14215.8,1868.44
14199.5,1875.82
14184.4,1879.34
14169,1879.84
14153.7,1877.32
14139.3,1871.88
14126.1,1863.71
14114.8,1853.14
14104.4,1838.6
13939.5,1552.93
13932.1,1536.64
13928.6,1521.58
13928.1,1506.12
13930.6,1490.87
13936.1,1476.4
13944.2,1463.27
13954.8,1451.99
13969.3,1441.57
14340.2,1227.42
14356.5,1220.04
14371.6,1216.53
14387,1216.02
Z" /> 
<path style="fill:#000000; fill-opacity:1.0; 
stroke:#000000; stroke-width:0; stroke-opacity:1; 
stroke-linecap:round; stroke-linejoin:round;fill-rule:evenodd;"
d="M 15399.2,1370.37
15413.6,1375.81
15426.8,1383.98
15438.1,1394.55
15448.5,1409.09
15613.4,1694.76
15620.8,1711.05
15624.3,1726.11
15624.8,1741.56
15622.3,1756.82
15616.8,1771.29
15608.7,1784.42
15598.1,1795.7
15583.6,1806.12
15212.7,2020.27
15196.4,2027.65
15181.3,2031.16
15165.9,2031.67
15150.6,2029.15
15136.1,2023.7
15123,2015.54
15111.7,2004.97
15101.3,1990.43
14975.7,1772.95
14949.1,1726.79
14936.4,1704.76
14929,1688.46
14925.5,1673.4
14925,1657.95
14927.5,1642.7
14932.9,1628.23
14941.1,1615.1
14951.7,1603.81
14966.2,1593.39
15337.1,1379.25
15353.4,1371.87
15368.5,1368.35
15383.9,1367.85
Z" /> 
<path style="fill:#000000; fill-opacity:1.0; 
stroke:#000000; stroke-width:0; stroke-opacity:1; 
stroke-linecap:round; stroke-linejoin:round;fill-rule:evenodd;"
d="M 15084.2,824.931
15098.7,830.393
15111.9,838.583
15123.2,849.181
15133.6,863.761
15146.3,885.756
15146.3,885.757
15277.2,1112.49
15298.3,1149.03
15305.7,1165.37
15309.3,1180.47
15309.8,1195.97
15307.2,1211.27
15301.8,1225.78
15293.6,1238.95
15283,1250.26
15268.4,1260.71
15246.4,1273.41
14919.9,1461.93
14919.9,1461.93
14897.9,1474.62
14881.6,1482.03
14866.5,1485.55
14851,1486.06
14835.7,1483.53
14821.1,1478.07
14808,1469.88
14796.7,1459.28
14786.2,1444.7
14773.5,1422.7
14634.2,1181.43
14634.2,1181.42
14621.5,1159.43
14614.1,1143.09
14610.6,1127.99
14610.1,1112.49
14612.6,1097.19
14618.1,1082.68
14626.3,1069.51
14636.9,1058.2
14651.4,1047.75
14970.1,863.761
15000,846.535
15000,846.535
15021.9,833.836
15038.3,826.434
15053.4,822.913
15068.9,822.406
Z" /> 
</g>
<g style="fill:#000000; fill-opacity:1.0; 
stroke:#000000; stroke-width:39.3701; stroke-opacity:1; 
stroke-linecap:round; stroke-linejoin:round;">
</g>
<g style="fill:#000000; fill-opacity:0.0; 
stroke:#000000; stroke-width:39.3701; stroke-opacity:1; 
stroke-linecap:round; stroke-linejoin:round;">
<path d="M5947 5433
L5947 5433
" />
<path d="M5947 16170
L5947 5433
" />
<path d="M15246 21539
L5947 16170
" />
<path d="M24545 16170
L15246 21539
" />
<path d="M24545 5433
L24545 16170
" />
<path d="M15246 64
L24545 5433
" />
<path d="M5947 5433
L15246 64
" />
<g >
</g>
<g >
</g>
<g >
</g>
<g >
</g>
<g >
</g>
<g >
</g>
<g >
</g>
<g >
</g>
<g >
</g>
<g >
</g>
<g >
</g>
<g >
</g>
<g >
</g>
<g >
</g>
<g >
</g>
<g >
</g>
<g >
</g>
<g >
</g>
<g >
</g>
<g >
</g>
<g >
</g>
<g >
</g>
<g >
</g>
<g >
</g>
<g >
</g>
<g >
</g>
<g >
</g>
<g >
</g>
</g> 
</svg>
