G04 #@! TF.GenerationSoftware,KiCad,Pcbnew,5.1.9-73d0e3b20d~88~ubuntu20.10.1*
G04 #@! TF.CreationDate,2021-03-27T00:21:14+01:00*
G04 #@! TF.ProjectId,esp8266_01,65737038-3236-4365-9f30-312e6b696361,rev?*
G04 #@! TF.SameCoordinates,Original*
G04 #@! TF.FileFunction,Paste,Top*
G04 #@! TF.FilePolarity,Positive*
%FSLAX46Y46*%
G04 Gerber Fmt 4.6, Leading zero omitted, Abs format (unit mm)*
G04 Created by KiCad (PCBNEW 5.1.9-73d0e3b20d~88~ubuntu20.10.1) date 2021-03-27 00:21:14*
%MOMM*%
%LPD*%
G01*
G04 APERTURE LIST*
%ADD10R,1.700000X1.000000*%
%ADD11R,1.500000X2.000000*%
%ADD12R,3.800000X2.000000*%
%ADD13R,2.500000X1.100000*%
G04 APERTURE END LIST*
G36*
G01*
X189400000Y-61500000D02*
X189400000Y-61500000D01*
G75*
G02*
X190400000Y-60500000I1000000J0D01*
G01*
X192400000Y-60500000D01*
G75*
G02*
X193400000Y-61500000I0J-1000000D01*
G01*
X193400000Y-61500000D01*
G75*
G02*
X192400000Y-62500000I-1000000J0D01*
G01*
X190400000Y-62500000D01*
G75*
G02*
X189400000Y-61500000I0J1000000D01*
G01*
G37*
G36*
G01*
X189400000Y-78500000D02*
X189400000Y-78500000D01*
G75*
G02*
X190400000Y-77500000I1000000J0D01*
G01*
X192400000Y-77500000D01*
G75*
G02*
X193400000Y-78500000I0J-1000000D01*
G01*
X193400000Y-78500000D01*
G75*
G02*
X192400000Y-79500000I-1000000J0D01*
G01*
X190400000Y-79500000D01*
G75*
G02*
X189400000Y-78500000I0J1000000D01*
G01*
G37*
D10*
X214450000Y-49800000D03*
X214450000Y-46600000D03*
X209150000Y-49800000D03*
X209150000Y-46600000D03*
X214450000Y-93200000D03*
X214450000Y-90000000D03*
X209150000Y-93200000D03*
X209150000Y-90000000D03*
X211750000Y-64900000D03*
X205450000Y-64900000D03*
X211750000Y-61100000D03*
X205450000Y-61100000D03*
D11*
X200120000Y-74290000D03*
X204720000Y-74290000D03*
X202420000Y-74290000D03*
D12*
X202420000Y-67990000D03*
G36*
G01*
X216050000Y-63550001D02*
X216050000Y-62649999D01*
G75*
G02*
X216299999Y-62400000I249999J0D01*
G01*
X216950001Y-62400000D01*
G75*
G02*
X217200000Y-62649999I0J-249999D01*
G01*
X217200000Y-63550001D01*
G75*
G02*
X216950001Y-63800000I-249999J0D01*
G01*
X216299999Y-63800000D01*
G75*
G02*
X216050000Y-63550001I0J249999D01*
G01*
G37*
G36*
G01*
X214000000Y-63550001D02*
X214000000Y-62649999D01*
G75*
G02*
X214249999Y-62400000I249999J0D01*
G01*
X214900001Y-62400000D01*
G75*
G02*
X215150000Y-62649999I0J-249999D01*
G01*
X215150000Y-63550001D01*
G75*
G02*
X214900001Y-63800000I-249999J0D01*
G01*
X214249999Y-63800000D01*
G75*
G02*
X214000000Y-63550001I0J249999D01*
G01*
G37*
D13*
X193800000Y-66350000D03*
X193800000Y-73350000D03*
X193800000Y-68850000D03*
X193800000Y-70850000D03*
G36*
G01*
X198990000Y-78339999D02*
X198990000Y-79240001D01*
G75*
G02*
X198740001Y-79490000I-249999J0D01*
G01*
X198089999Y-79490000D01*
G75*
G02*
X197840000Y-79240001I0J249999D01*
G01*
X197840000Y-78339999D01*
G75*
G02*
X198089999Y-78090000I249999J0D01*
G01*
X198740001Y-78090000D01*
G75*
G02*
X198990000Y-78339999I0J-249999D01*
G01*
G37*
G36*
G01*
X201040000Y-78339999D02*
X201040000Y-79240001D01*
G75*
G02*
X200790001Y-79490000I-249999J0D01*
G01*
X200139999Y-79490000D01*
G75*
G02*
X199890000Y-79240001I0J249999D01*
G01*
X199890000Y-78339999D01*
G75*
G02*
X200139999Y-78090000I249999J0D01*
G01*
X200790001Y-78090000D01*
G75*
G02*
X201040000Y-78339999I0J-249999D01*
G01*
G37*
G36*
G01*
X204690000Y-78339999D02*
X204690000Y-79240001D01*
G75*
G02*
X204440001Y-79490000I-249999J0D01*
G01*
X203789999Y-79490000D01*
G75*
G02*
X203540000Y-79240001I0J249999D01*
G01*
X203540000Y-78339999D01*
G75*
G02*
X203789999Y-78090000I249999J0D01*
G01*
X204440001Y-78090000D01*
G75*
G02*
X204690000Y-78339999I0J-249999D01*
G01*
G37*
G36*
G01*
X206740000Y-78339999D02*
X206740000Y-79240001D01*
G75*
G02*
X206490001Y-79490000I-249999J0D01*
G01*
X205839999Y-79490000D01*
G75*
G02*
X205590000Y-79240001I0J249999D01*
G01*
X205590000Y-78339999D01*
G75*
G02*
X205839999Y-78090000I249999J0D01*
G01*
X206490001Y-78090000D01*
G75*
G02*
X206740000Y-78339999I0J-249999D01*
G01*
G37*
M02*
