M48
; DRILL file {KiCad 5.1.9-73d0e3b20d~88~ubuntu20.10.1} date Sat Mar 27 00:21:20 2021
; FORMAT={-:-/ absolute / inch / decimal}
; #@! TF.CreationDate,2021-03-27T00:21:20+01:00
; #@! TF.GenerationSoftware,Kicad,Pcbnew,5.1.9-73d0e3b20d~88~ubuntu20.10.1
; #@! TF.FileFunction,Plated,1,2,PTH
FMAT,2
INCH
T1C0.0157
T2C0.0236
T3C0.0335
T4C0.0354
T5C0.0394
T6C0.0400
%
G90
G05
T1
X7.735Y-2.2913
X7.7575Y-3.1476
X7.7673Y-2.3457
X7.7992Y-2.4
X7.8299Y-2.4539
X7.8606Y-2.5091
X7.8748Y-3.3472
X7.8923Y-3.102
X7.8933Y-2.5642
X7.8961Y-2.8618
X7.9878Y-3.1587
X8.0354Y-2.5118
X8.0405Y-2.4528
X8.0925Y-2.7559
X8.1024Y-2.5128
X8.128Y-3.3449
X8.1319Y-2.0657
X8.1551Y-2.8185
X8.1614Y-2.4016
X8.163Y-2.1209
X8.1772Y-2.5128
X8.1933Y-2.1744
X8.2039Y-2.9437
X8.224Y-3.4437
X8.226Y-2.2287
X8.2362Y-3.6209
X8.2415Y-3.177
X8.2445Y-3.0031
X8.2528Y-3.0547
X8.2571Y-2.2831
X8.287Y-2.3382
X8.2986Y-3.264
X8.3075Y-3.1685
X8.3087Y-1.7913
X8.3272Y-3.5087
X8.374Y-3.5197
X8.3772Y-3.4378
X8.3787Y-2.8508
X8.4154Y-2.0752
X8.4961Y-2.6099
X8.5059Y-2.648
X8.5079Y-2.3268
X8.5319Y-2.698
X8.5321Y-2.2156
X8.5339Y-3.1906
X8.5384Y-2.3573
X8.5406Y-2.0764
X8.5449Y-2.7646
X8.5546Y-3.1062
X8.5668Y-2.9288
X8.5705Y-2.3303
X8.5732Y-3.0004
X8.5744Y-2.4138
X8.5965Y-2.2156
X8.6098Y-1.9973
X8.6138Y-2.8697
X8.6146Y-3.1661
X8.6222Y-2.4643
X8.6287Y-2.0976
X8.6323Y-2.6299
X8.6398Y-3.2453
X8.6425Y-3.1071
X8.6583Y-2.3496
X8.6654Y-2.4929
X8.7156Y-2.0598
X8.7375Y-2.2984
X8.7423Y-2.3606
X8.7451Y-2.1819
X8.7701Y-2.098
X8.778Y-2.137
X8.7846Y-3.1091
X8.8035Y-2.9882
X8.8063Y-2.8228
X8.8091Y-2.3268
X8.8091Y-2.4291
X8.8287Y-2.239
X8.865Y-2.989
X8.9157Y-3.1197
X8.9228Y-2.626
X8.9744Y-2.7634
X8.9772Y-2.1906
X9.0102Y-3.1496
X9.0205Y-3.0315
X9.0268Y-2.6917
X9.1043Y-2.6614
X9.1059Y-2.8555
X9.1224Y-3.2096
X9.2043Y-3.1504
T3
X8.3399Y-3.5989
X8.5104Y-3.5005
T5
X7.7402Y-3.4012
X7.7835Y-2.0949
X7.8268Y-3.4512
X7.8701Y-2.0449
X7.9134Y-3.5012
X7.9567Y-1.9949
X8.0Y-3.5512
X8.0433Y-1.9449
X8.0866Y-3.6012
X8.5984Y-1.9173
X8.685Y-1.9673
X8.7716Y-2.0173
X8.8582Y-2.0673
X8.9448Y-2.1173
X9.1929Y-2.6071
X9.1929Y-2.7071
X9.1929Y-2.8071
X9.1929Y-2.9071
T6
X8.6732Y-3.4161
X8.7232Y-3.5027
X8.7598Y-3.3661
X8.8098Y-3.4527
X8.8464Y-3.3161
X8.8964Y-3.4027
X8.933Y-3.2661
X8.983Y-3.3527
T2
G00X8.3658Y-3.7226
M15
G01X8.3521Y-3.6987
M16
G05
G00X8.5907Y-3.5609
M15
G01X8.6045Y-3.5848
M16
G05
T4
G00X7.5531Y-2.5256
M15
G01X7.4902Y-2.5256
M16
G05
G00X7.5531Y-2.9744
M15
G01X7.4902Y-2.9744
M16
G05
T0
M30
