G04 #@! TF.GenerationSoftware,KiCad,Pcbnew,5.1.9-73d0e3b20d~88~ubuntu20.10.1*
G04 #@! TF.CreationDate,2021-03-27T00:21:14+01:00*
G04 #@! TF.ProjectId,esp8266_01,65737038-3236-4365-9f30-312e6b696361,rev?*
G04 #@! TF.SameCoordinates,Original*
G04 #@! TF.FileFunction,Copper,L2,Bot*
G04 #@! TF.FilePolarity,Positive*
%FSLAX46Y46*%
G04 Gerber Fmt 4.6, Leading zero omitted, Abs format (unit mm)*
G04 Created by KiCad (PCBNEW 5.1.9-73d0e3b20d~88~ubuntu20.10.1) date 2021-03-27 00:21:14*
%MOMM*%
%LPD*%
G01*
G04 APERTURE LIST*
G04 #@! TA.AperFunction,ComponentPad*
%ADD10C,0.100000*%
G04 #@! TD*
G04 #@! TA.AperFunction,SMDPad,CuDef*
%ADD11C,0.100000*%
G04 #@! TD*
G04 #@! TA.AperFunction,ComponentPad*
%ADD12C,1.450000*%
G04 #@! TD*
G04 #@! TA.AperFunction,SMDPad,CuDef*
%ADD13R,1.700000X1.000000*%
G04 #@! TD*
G04 #@! TA.AperFunction,ComponentPad*
%ADD14O,3.500000X1.900000*%
G04 #@! TD*
G04 #@! TA.AperFunction,ComponentPad*
%ADD15O,1.700000X1.700000*%
G04 #@! TD*
G04 #@! TA.AperFunction,ComponentPad*
%ADD16R,1.700000X1.700000*%
G04 #@! TD*
G04 #@! TA.AperFunction,ViaPad*
%ADD17C,0.800000*%
G04 #@! TD*
G04 #@! TA.AperFunction,Conductor*
%ADD18C,0.250000*%
G04 #@! TD*
G04 #@! TA.AperFunction,Conductor*
%ADD19C,0.350000*%
G04 #@! TD*
G04 #@! TA.AperFunction,Conductor*
%ADD20C,0.254000*%
G04 #@! TD*
G04 #@! TA.AperFunction,Conductor*
%ADD21C,0.100000*%
G04 #@! TD*
G04 APERTURE END LIST*
G04 #@! TA.AperFunction,ComponentPad*
D10*
G36*
X203971884Y-92343057D02*
G01*
X204706884Y-91070000D01*
X204707719Y-91070482D01*
X204727346Y-91036487D01*
X204773075Y-90972672D01*
X204824839Y-90913646D01*
X204882139Y-90859978D01*
X204944424Y-90812186D01*
X205011093Y-90770728D01*
X205081505Y-90736005D01*
X205154981Y-90708350D01*
X205230815Y-90688030D01*
X205308275Y-90675242D01*
X205386615Y-90670107D01*
X205465081Y-90672676D01*
X205542917Y-90682923D01*
X205619375Y-90700751D01*
X205693717Y-90725987D01*
X205765227Y-90758388D01*
X205833217Y-90797642D01*
X205897032Y-90843371D01*
X205956058Y-90895135D01*
X206009726Y-90952435D01*
X206057518Y-91014720D01*
X206098976Y-91081389D01*
X206133699Y-91151801D01*
X206161354Y-91225277D01*
X206181674Y-91301111D01*
X206194462Y-91378571D01*
X206199597Y-91456911D01*
X206197028Y-91535377D01*
X206186781Y-91613213D01*
X206168953Y-91689671D01*
X206143717Y-91764013D01*
X206111316Y-91835523D01*
X206091689Y-91869518D01*
X206092524Y-91870000D01*
X205357524Y-93143057D01*
X203971884Y-92343057D01*
G37*
G04 #@! TD.AperFunction*
G04 #@! TA.AperFunction,ComponentPad*
G36*
X201772180Y-91073057D02*
G01*
X202507180Y-89800000D01*
X202508015Y-89800482D01*
X202527642Y-89766487D01*
X202573371Y-89702672D01*
X202625135Y-89643646D01*
X202682435Y-89589978D01*
X202744720Y-89542186D01*
X202811389Y-89500728D01*
X202881801Y-89466005D01*
X202955277Y-89438350D01*
X203031111Y-89418030D01*
X203108571Y-89405242D01*
X203186911Y-89400107D01*
X203265377Y-89402676D01*
X203343213Y-89412923D01*
X203419671Y-89430751D01*
X203494013Y-89455987D01*
X203565523Y-89488388D01*
X203633513Y-89527642D01*
X203697328Y-89573371D01*
X203756354Y-89625135D01*
X203810022Y-89682435D01*
X203857814Y-89744720D01*
X203899272Y-89811389D01*
X203933995Y-89881801D01*
X203961650Y-89955277D01*
X203981970Y-90031111D01*
X203994758Y-90108571D01*
X203999893Y-90186911D01*
X203997324Y-90265377D01*
X203987077Y-90343213D01*
X203969249Y-90419671D01*
X203944013Y-90494013D01*
X203911612Y-90565523D01*
X203891985Y-90599518D01*
X203892820Y-90600000D01*
X203157820Y-91873057D01*
X201772180Y-91073057D01*
G37*
G04 #@! TD.AperFunction*
G04 #@! TA.AperFunction,ComponentPad*
G36*
X199572475Y-89803057D02*
G01*
X200307475Y-88530000D01*
X200308310Y-88530482D01*
X200327937Y-88496487D01*
X200373666Y-88432672D01*
X200425430Y-88373646D01*
X200482730Y-88319978D01*
X200545015Y-88272186D01*
X200611684Y-88230728D01*
X200682096Y-88196005D01*
X200755572Y-88168350D01*
X200831406Y-88148030D01*
X200908866Y-88135242D01*
X200987206Y-88130107D01*
X201065672Y-88132676D01*
X201143508Y-88142923D01*
X201219966Y-88160751D01*
X201294308Y-88185987D01*
X201365818Y-88218388D01*
X201433808Y-88257642D01*
X201497623Y-88303371D01*
X201556649Y-88355135D01*
X201610317Y-88412435D01*
X201658109Y-88474720D01*
X201699567Y-88541389D01*
X201734290Y-88611801D01*
X201761945Y-88685277D01*
X201782265Y-88761111D01*
X201795053Y-88838571D01*
X201800188Y-88916911D01*
X201797619Y-88995377D01*
X201787372Y-89073213D01*
X201769544Y-89149671D01*
X201744308Y-89224013D01*
X201711907Y-89295523D01*
X201692280Y-89329518D01*
X201693115Y-89330000D01*
X200958115Y-90603057D01*
X199572475Y-89803057D01*
G37*
G04 #@! TD.AperFunction*
G04 #@! TA.AperFunction,ComponentPad*
G36*
X197372771Y-88533057D02*
G01*
X198107771Y-87260000D01*
X198108606Y-87260482D01*
X198128233Y-87226487D01*
X198173962Y-87162672D01*
X198225726Y-87103646D01*
X198283026Y-87049978D01*
X198345311Y-87002186D01*
X198411980Y-86960728D01*
X198482392Y-86926005D01*
X198555868Y-86898350D01*
X198631702Y-86878030D01*
X198709162Y-86865242D01*
X198787502Y-86860107D01*
X198865968Y-86862676D01*
X198943804Y-86872923D01*
X199020262Y-86890751D01*
X199094604Y-86915987D01*
X199166114Y-86948388D01*
X199234104Y-86987642D01*
X199297919Y-87033371D01*
X199356945Y-87085135D01*
X199410613Y-87142435D01*
X199458405Y-87204720D01*
X199499863Y-87271389D01*
X199534586Y-87341801D01*
X199562241Y-87415277D01*
X199582561Y-87491111D01*
X199595349Y-87568571D01*
X199600484Y-87646911D01*
X199597915Y-87725377D01*
X199587668Y-87803213D01*
X199569840Y-87879671D01*
X199544604Y-87954013D01*
X199512203Y-88025523D01*
X199492576Y-88059518D01*
X199493411Y-88060000D01*
X198758411Y-89333057D01*
X197372771Y-88533057D01*
G37*
G04 #@! TD.AperFunction*
G04 #@! TA.AperFunction,ComponentPad*
G36*
X195173066Y-87263057D02*
G01*
X195908066Y-85990000D01*
X195908901Y-85990482D01*
X195928528Y-85956487D01*
X195974257Y-85892672D01*
X196026021Y-85833646D01*
X196083321Y-85779978D01*
X196145606Y-85732186D01*
X196212275Y-85690728D01*
X196282687Y-85656005D01*
X196356163Y-85628350D01*
X196431997Y-85608030D01*
X196509457Y-85595242D01*
X196587797Y-85590107D01*
X196666263Y-85592676D01*
X196744099Y-85602923D01*
X196820557Y-85620751D01*
X196894899Y-85645987D01*
X196966409Y-85678388D01*
X197034399Y-85717642D01*
X197098214Y-85763371D01*
X197157240Y-85815135D01*
X197210908Y-85872435D01*
X197258700Y-85934720D01*
X197300158Y-86001389D01*
X197334881Y-86071801D01*
X197362536Y-86145277D01*
X197382856Y-86221111D01*
X197395644Y-86298571D01*
X197400779Y-86376911D01*
X197398210Y-86455377D01*
X197387963Y-86533213D01*
X197370135Y-86609671D01*
X197344899Y-86684013D01*
X197312498Y-86755523D01*
X197292871Y-86789518D01*
X197293706Y-86790000D01*
X196558706Y-88063057D01*
X195173066Y-87263057D01*
G37*
G04 #@! TD.AperFunction*
G04 #@! TA.AperFunction,ComponentPad*
G36*
X228626638Y-52906943D02*
G01*
X227891638Y-54180000D01*
X227890803Y-54179518D01*
X227871176Y-54213513D01*
X227825447Y-54277328D01*
X227773683Y-54336354D01*
X227716383Y-54390022D01*
X227654098Y-54437814D01*
X227587429Y-54479272D01*
X227517017Y-54513995D01*
X227443541Y-54541650D01*
X227367707Y-54561970D01*
X227290247Y-54574758D01*
X227211907Y-54579893D01*
X227133441Y-54577324D01*
X227055605Y-54567077D01*
X226979147Y-54549249D01*
X226904805Y-54524013D01*
X226833295Y-54491612D01*
X226765305Y-54452358D01*
X226701490Y-54406629D01*
X226642464Y-54354865D01*
X226588796Y-54297565D01*
X226541004Y-54235280D01*
X226499546Y-54168611D01*
X226464823Y-54098199D01*
X226437168Y-54024723D01*
X226416848Y-53948889D01*
X226404060Y-53871429D01*
X226398925Y-53793089D01*
X226401494Y-53714623D01*
X226411741Y-53636787D01*
X226429569Y-53560329D01*
X226454805Y-53485987D01*
X226487206Y-53414477D01*
X226506833Y-53380482D01*
X226505998Y-53380000D01*
X227240998Y-52106943D01*
X228626638Y-52906943D01*
G37*
G04 #@! TD.AperFunction*
G04 #@! TA.AperFunction,ComponentPad*
G36*
X226426934Y-51636943D02*
G01*
X225691934Y-52910000D01*
X225691099Y-52909518D01*
X225671472Y-52943513D01*
X225625743Y-53007328D01*
X225573979Y-53066354D01*
X225516679Y-53120022D01*
X225454394Y-53167814D01*
X225387725Y-53209272D01*
X225317313Y-53243995D01*
X225243837Y-53271650D01*
X225168003Y-53291970D01*
X225090543Y-53304758D01*
X225012203Y-53309893D01*
X224933737Y-53307324D01*
X224855901Y-53297077D01*
X224779443Y-53279249D01*
X224705101Y-53254013D01*
X224633591Y-53221612D01*
X224565601Y-53182358D01*
X224501786Y-53136629D01*
X224442760Y-53084865D01*
X224389092Y-53027565D01*
X224341300Y-52965280D01*
X224299842Y-52898611D01*
X224265119Y-52828199D01*
X224237464Y-52754723D01*
X224217144Y-52678889D01*
X224204356Y-52601429D01*
X224199221Y-52523089D01*
X224201790Y-52444623D01*
X224212037Y-52366787D01*
X224229865Y-52290329D01*
X224255101Y-52215987D01*
X224287502Y-52144477D01*
X224307129Y-52110482D01*
X224306294Y-52110000D01*
X225041294Y-50836943D01*
X226426934Y-51636943D01*
G37*
G04 #@! TD.AperFunction*
G04 #@! TA.AperFunction,ComponentPad*
G36*
X224227229Y-50366943D02*
G01*
X223492229Y-51640000D01*
X223491394Y-51639518D01*
X223471767Y-51673513D01*
X223426038Y-51737328D01*
X223374274Y-51796354D01*
X223316974Y-51850022D01*
X223254689Y-51897814D01*
X223188020Y-51939272D01*
X223117608Y-51973995D01*
X223044132Y-52001650D01*
X222968298Y-52021970D01*
X222890838Y-52034758D01*
X222812498Y-52039893D01*
X222734032Y-52037324D01*
X222656196Y-52027077D01*
X222579738Y-52009249D01*
X222505396Y-51984013D01*
X222433886Y-51951612D01*
X222365896Y-51912358D01*
X222302081Y-51866629D01*
X222243055Y-51814865D01*
X222189387Y-51757565D01*
X222141595Y-51695280D01*
X222100137Y-51628611D01*
X222065414Y-51558199D01*
X222037759Y-51484723D01*
X222017439Y-51408889D01*
X222004651Y-51331429D01*
X221999516Y-51253089D01*
X222002085Y-51174623D01*
X222012332Y-51096787D01*
X222030160Y-51020329D01*
X222055396Y-50945987D01*
X222087797Y-50874477D01*
X222107424Y-50840482D01*
X222106589Y-50840000D01*
X222841589Y-49566943D01*
X224227229Y-50366943D01*
G37*
G04 #@! TD.AperFunction*
G04 #@! TA.AperFunction,ComponentPad*
G36*
X222027525Y-49096943D02*
G01*
X221292525Y-50370000D01*
X221291690Y-50369518D01*
X221272063Y-50403513D01*
X221226334Y-50467328D01*
X221174570Y-50526354D01*
X221117270Y-50580022D01*
X221054985Y-50627814D01*
X220988316Y-50669272D01*
X220917904Y-50703995D01*
X220844428Y-50731650D01*
X220768594Y-50751970D01*
X220691134Y-50764758D01*
X220612794Y-50769893D01*
X220534328Y-50767324D01*
X220456492Y-50757077D01*
X220380034Y-50739249D01*
X220305692Y-50714013D01*
X220234182Y-50681612D01*
X220166192Y-50642358D01*
X220102377Y-50596629D01*
X220043351Y-50544865D01*
X219989683Y-50487565D01*
X219941891Y-50425280D01*
X219900433Y-50358611D01*
X219865710Y-50288199D01*
X219838055Y-50214723D01*
X219817735Y-50138889D01*
X219804947Y-50061429D01*
X219799812Y-49983089D01*
X219802381Y-49904623D01*
X219812628Y-49826787D01*
X219830456Y-49750329D01*
X219855692Y-49675987D01*
X219888093Y-49604477D01*
X219907720Y-49570482D01*
X219906885Y-49570000D01*
X220641885Y-48296943D01*
X222027525Y-49096943D01*
G37*
G04 #@! TD.AperFunction*
G04 #@! TA.AperFunction,ComponentPad*
G36*
X219827820Y-47826943D02*
G01*
X219092820Y-49100000D01*
X219091985Y-49099518D01*
X219072358Y-49133513D01*
X219026629Y-49197328D01*
X218974865Y-49256354D01*
X218917565Y-49310022D01*
X218855280Y-49357814D01*
X218788611Y-49399272D01*
X218718199Y-49433995D01*
X218644723Y-49461650D01*
X218568889Y-49481970D01*
X218491429Y-49494758D01*
X218413089Y-49499893D01*
X218334623Y-49497324D01*
X218256787Y-49487077D01*
X218180329Y-49469249D01*
X218105987Y-49444013D01*
X218034477Y-49411612D01*
X217966487Y-49372358D01*
X217902672Y-49326629D01*
X217843646Y-49274865D01*
X217789978Y-49217565D01*
X217742186Y-49155280D01*
X217700728Y-49088611D01*
X217666005Y-49018199D01*
X217638350Y-48944723D01*
X217618030Y-48868889D01*
X217605242Y-48791429D01*
X217600107Y-48713089D01*
X217602676Y-48634623D01*
X217612923Y-48556787D01*
X217630751Y-48480329D01*
X217655987Y-48405987D01*
X217688388Y-48334477D01*
X217708015Y-48300482D01*
X217707180Y-48300000D01*
X218442180Y-47026943D01*
X219827820Y-47826943D01*
G37*
G04 #@! TD.AperFunction*
G04 #@! TA.AperFunction,SMDPad,CuDef*
D11*
G36*
X233225000Y-62700000D02*
G01*
X233225000Y-62250000D01*
X232775000Y-62250000D01*
X232775000Y-62700000D01*
X231625000Y-62700000D01*
X231625000Y-62250000D01*
X231175000Y-62250000D01*
X231175000Y-62700000D01*
X230025000Y-62700000D01*
X230025000Y-61300000D01*
X231175000Y-61300000D01*
X231175000Y-61750000D01*
X231625000Y-61750000D01*
X231625000Y-61300000D01*
X232775000Y-61300000D01*
X232775000Y-61750000D01*
X233225000Y-61750000D01*
X233225000Y-61300000D01*
X234375000Y-61300000D01*
X234375000Y-62700000D01*
X233225000Y-62700000D01*
G37*
G04 #@! TD.AperFunction*
G04 #@! TA.AperFunction,SMDPad,CuDef*
G36*
G01*
X233225000Y-60450450D02*
X233225000Y-59549550D01*
G75*
G02*
X233474550Y-59300000I249550J0D01*
G01*
X234125450Y-59300000D01*
G75*
G02*
X234375000Y-59549550I0J-249550D01*
G01*
X234375000Y-60450450D01*
G75*
G02*
X234125450Y-60700000I-249550J0D01*
G01*
X233474550Y-60700000D01*
G75*
G02*
X233225000Y-60450450I0J249550D01*
G01*
G37*
G04 #@! TD.AperFunction*
G04 #@! TA.AperFunction,SMDPad,CuDef*
G36*
G01*
X232775000Y-59549550D02*
X232775000Y-60450450D01*
G75*
G02*
X232525450Y-60700000I-249550J0D01*
G01*
X231874550Y-60700000D01*
G75*
G02*
X231625000Y-60450450I0J249550D01*
G01*
X231625000Y-59549550D01*
G75*
G02*
X231874550Y-59300000I249550J0D01*
G01*
X232525450Y-59300000D01*
G75*
G02*
X232775000Y-59549550I0J-249550D01*
G01*
G37*
G04 #@! TD.AperFunction*
G04 #@! TA.AperFunction,SMDPad,CuDef*
G36*
G01*
X230025000Y-60450001D02*
X230025000Y-59549999D01*
G75*
G02*
X230274999Y-59300000I249999J0D01*
G01*
X230925001Y-59300000D01*
G75*
G02*
X231175000Y-59549999I0J-249999D01*
G01*
X231175000Y-60450001D01*
G75*
G02*
X230925001Y-60700000I-249999J0D01*
G01*
X230274999Y-60700000D01*
G75*
G02*
X230025000Y-60450001I0J249999D01*
G01*
G37*
G04 #@! TD.AperFunction*
G04 #@! TA.AperFunction,SMDPad,CuDef*
G36*
X231175000Y-77300000D02*
G01*
X231175000Y-77750000D01*
X231625000Y-77750000D01*
X231625000Y-77300000D01*
X232775000Y-77300000D01*
X232775000Y-77750000D01*
X233225000Y-77750000D01*
X233225000Y-77300000D01*
X234375000Y-77300000D01*
X234375000Y-78700000D01*
X233225000Y-78700000D01*
X233225000Y-78250000D01*
X232775000Y-78250000D01*
X232775000Y-78700000D01*
X231625000Y-78700000D01*
X231625000Y-78250000D01*
X231175000Y-78250000D01*
X231175000Y-78700000D01*
X230025000Y-78700000D01*
X230025000Y-77300000D01*
X231175000Y-77300000D01*
G37*
G04 #@! TD.AperFunction*
G04 #@! TA.AperFunction,SMDPad,CuDef*
G36*
G01*
X231175000Y-79549550D02*
X231175000Y-80450450D01*
G75*
G02*
X230925450Y-80700000I-249550J0D01*
G01*
X230274550Y-80700000D01*
G75*
G02*
X230025000Y-80450450I0J249550D01*
G01*
X230025000Y-79549550D01*
G75*
G02*
X230274550Y-79300000I249550J0D01*
G01*
X230925450Y-79300000D01*
G75*
G02*
X231175000Y-79549550I0J-249550D01*
G01*
G37*
G04 #@! TD.AperFunction*
G04 #@! TA.AperFunction,SMDPad,CuDef*
G36*
G01*
X231625000Y-80450450D02*
X231625000Y-79549550D01*
G75*
G02*
X231874550Y-79300000I249550J0D01*
G01*
X232525450Y-79300000D01*
G75*
G02*
X232775000Y-79549550I0J-249550D01*
G01*
X232775000Y-80450450D01*
G75*
G02*
X232525450Y-80700000I-249550J0D01*
G01*
X231874550Y-80700000D01*
G75*
G02*
X231625000Y-80450450I0J249550D01*
G01*
G37*
G04 #@! TD.AperFunction*
G04 #@! TA.AperFunction,SMDPad,CuDef*
G36*
G01*
X234375000Y-79549999D02*
X234375000Y-80450001D01*
G75*
G02*
X234125001Y-80700000I-249999J0D01*
G01*
X233474999Y-80700000D01*
G75*
G02*
X233225000Y-80450001I0J249999D01*
G01*
X233225000Y-79549999D01*
G75*
G02*
X233474999Y-79300000I249999J0D01*
G01*
X234125001Y-79300000D01*
G75*
G02*
X234375000Y-79549999I0J-249999D01*
G01*
G37*
G04 #@! TD.AperFunction*
G04 #@! TA.AperFunction,SMDPad,CuDef*
G36*
X210500000Y-78175000D02*
G01*
X210950000Y-78175000D01*
X210950000Y-77725000D01*
X210500000Y-77725000D01*
X210500000Y-76575000D01*
X210950000Y-76575000D01*
X210950000Y-76125000D01*
X210500000Y-76125000D01*
X210500000Y-74975000D01*
X210950000Y-74975000D01*
X210950000Y-74525000D01*
X210500000Y-74525000D01*
X210500000Y-73375000D01*
X211900000Y-73375000D01*
X211900000Y-74525000D01*
X211450000Y-74525000D01*
X211450000Y-74975000D01*
X211900000Y-74975000D01*
X211900000Y-76125000D01*
X211450000Y-76125000D01*
X211450000Y-76575000D01*
X211900000Y-76575000D01*
X211900000Y-77725000D01*
X211450000Y-77725000D01*
X211450000Y-78175000D01*
X211900000Y-78175000D01*
X211900000Y-79325000D01*
X210500000Y-79325000D01*
X210500000Y-78175000D01*
G37*
G04 #@! TD.AperFunction*
G04 #@! TA.AperFunction,SMDPad,CuDef*
G36*
G01*
X213650450Y-79325000D02*
X212749550Y-79325000D01*
G75*
G02*
X212500000Y-79075450I0J249550D01*
G01*
X212500000Y-78424550D01*
G75*
G02*
X212749550Y-78175000I249550J0D01*
G01*
X213650450Y-78175000D01*
G75*
G02*
X213900000Y-78424550I0J-249550D01*
G01*
X213900000Y-79075450D01*
G75*
G02*
X213650450Y-79325000I-249550J0D01*
G01*
G37*
G04 #@! TD.AperFunction*
G04 #@! TA.AperFunction,SMDPad,CuDef*
G36*
G01*
X212749550Y-76575000D02*
X213650450Y-76575000D01*
G75*
G02*
X213900000Y-76824550I0J-249550D01*
G01*
X213900000Y-77475450D01*
G75*
G02*
X213650450Y-77725000I-249550J0D01*
G01*
X212749550Y-77725000D01*
G75*
G02*
X212500000Y-77475450I0J249550D01*
G01*
X212500000Y-76824550D01*
G75*
G02*
X212749550Y-76575000I249550J0D01*
G01*
G37*
G04 #@! TD.AperFunction*
G04 #@! TA.AperFunction,SMDPad,CuDef*
G36*
G01*
X213650450Y-76125000D02*
X212749550Y-76125000D01*
G75*
G02*
X212500000Y-75875450I0J249550D01*
G01*
X212500000Y-75224550D01*
G75*
G02*
X212749550Y-74975000I249550J0D01*
G01*
X213650450Y-74975000D01*
G75*
G02*
X213900000Y-75224550I0J-249550D01*
G01*
X213900000Y-75875450D01*
G75*
G02*
X213650450Y-76125000I-249550J0D01*
G01*
G37*
G04 #@! TD.AperFunction*
G04 #@! TA.AperFunction,SMDPad,CuDef*
G36*
G01*
X212749999Y-73375000D02*
X213650001Y-73375000D01*
G75*
G02*
X213900000Y-73624999I0J-249999D01*
G01*
X213900000Y-74275001D01*
G75*
G02*
X213650001Y-74525000I-249999J0D01*
G01*
X212749999Y-74525000D01*
G75*
G02*
X212500000Y-74275001I0J249999D01*
G01*
X212500000Y-73624999D01*
G75*
G02*
X212749999Y-73375000I249999J0D01*
G01*
G37*
G04 #@! TD.AperFunction*
G04 #@! TA.AperFunction,SMDPad,CuDef*
G36*
X226025000Y-69500000D02*
G01*
X226025000Y-69050000D01*
X225575000Y-69050000D01*
X225575000Y-69500000D01*
X224425000Y-69500000D01*
X224425000Y-69050000D01*
X223975000Y-69050000D01*
X223975000Y-69500000D01*
X222825000Y-69500000D01*
X222825000Y-69050000D01*
X222375000Y-69050000D01*
X222375000Y-69500000D01*
X221225000Y-69500000D01*
X221225000Y-68100000D01*
X222375000Y-68100000D01*
X222375000Y-68550000D01*
X222825000Y-68550000D01*
X222825000Y-68100000D01*
X223975000Y-68100000D01*
X223975000Y-68550000D01*
X224425000Y-68550000D01*
X224425000Y-68100000D01*
X225575000Y-68100000D01*
X225575000Y-68550000D01*
X226025000Y-68550000D01*
X226025000Y-68100000D01*
X227175000Y-68100000D01*
X227175000Y-69500000D01*
X226025000Y-69500000D01*
G37*
G04 #@! TD.AperFunction*
G04 #@! TA.AperFunction,SMDPad,CuDef*
G36*
G01*
X227175000Y-66349550D02*
X227175000Y-67250450D01*
G75*
G02*
X226925450Y-67500000I-249550J0D01*
G01*
X226274550Y-67500000D01*
G75*
G02*
X226025000Y-67250450I0J249550D01*
G01*
X226025000Y-66349550D01*
G75*
G02*
X226274550Y-66100000I249550J0D01*
G01*
X226925450Y-66100000D01*
G75*
G02*
X227175000Y-66349550I0J-249550D01*
G01*
G37*
G04 #@! TD.AperFunction*
G04 #@! TA.AperFunction,SMDPad,CuDef*
G36*
G01*
X224425000Y-67250450D02*
X224425000Y-66349550D01*
G75*
G02*
X224674550Y-66100000I249550J0D01*
G01*
X225325450Y-66100000D01*
G75*
G02*
X225575000Y-66349550I0J-249550D01*
G01*
X225575000Y-67250450D01*
G75*
G02*
X225325450Y-67500000I-249550J0D01*
G01*
X224674550Y-67500000D01*
G75*
G02*
X224425000Y-67250450I0J249550D01*
G01*
G37*
G04 #@! TD.AperFunction*
G04 #@! TA.AperFunction,SMDPad,CuDef*
G36*
G01*
X223975000Y-66349550D02*
X223975000Y-67250450D01*
G75*
G02*
X223725450Y-67500000I-249550J0D01*
G01*
X223074550Y-67500000D01*
G75*
G02*
X222825000Y-67250450I0J249550D01*
G01*
X222825000Y-66349550D01*
G75*
G02*
X223074550Y-66100000I249550J0D01*
G01*
X223725450Y-66100000D01*
G75*
G02*
X223975000Y-66349550I0J-249550D01*
G01*
G37*
G04 #@! TD.AperFunction*
G04 #@! TA.AperFunction,SMDPad,CuDef*
G36*
G01*
X221225000Y-67250001D02*
X221225000Y-66349999D01*
G75*
G02*
X221474999Y-66100000I249999J0D01*
G01*
X222125001Y-66100000D01*
G75*
G02*
X222375000Y-66349999I0J-249999D01*
G01*
X222375000Y-67250001D01*
G75*
G02*
X222125001Y-67500000I-249999J0D01*
G01*
X221474999Y-67500000D01*
G75*
G02*
X221225000Y-67250001I0J249999D01*
G01*
G37*
G04 #@! TD.AperFunction*
G04 #@! TA.AperFunction,SMDPad,CuDef*
G36*
X222575000Y-73200000D02*
G01*
X222575000Y-73650000D01*
X223025000Y-73650000D01*
X223025000Y-73200000D01*
X224175000Y-73200000D01*
X224175000Y-73650000D01*
X224625000Y-73650000D01*
X224625000Y-73200000D01*
X225775000Y-73200000D01*
X225775000Y-73650000D01*
X226225000Y-73650000D01*
X226225000Y-73200000D01*
X227375000Y-73200000D01*
X227375000Y-74600000D01*
X226225000Y-74600000D01*
X226225000Y-74150000D01*
X225775000Y-74150000D01*
X225775000Y-74600000D01*
X224625000Y-74600000D01*
X224625000Y-74150000D01*
X224175000Y-74150000D01*
X224175000Y-74600000D01*
X223025000Y-74600000D01*
X223025000Y-74150000D01*
X222575000Y-74150000D01*
X222575000Y-74600000D01*
X221425000Y-74600000D01*
X221425000Y-73200000D01*
X222575000Y-73200000D01*
G37*
G04 #@! TD.AperFunction*
G04 #@! TA.AperFunction,SMDPad,CuDef*
G36*
G01*
X221425000Y-76350450D02*
X221425000Y-75449550D01*
G75*
G02*
X221674550Y-75200000I249550J0D01*
G01*
X222325450Y-75200000D01*
G75*
G02*
X222575000Y-75449550I0J-249550D01*
G01*
X222575000Y-76350450D01*
G75*
G02*
X222325450Y-76600000I-249550J0D01*
G01*
X221674550Y-76600000D01*
G75*
G02*
X221425000Y-76350450I0J249550D01*
G01*
G37*
G04 #@! TD.AperFunction*
G04 #@! TA.AperFunction,SMDPad,CuDef*
G36*
G01*
X224175000Y-75449550D02*
X224175000Y-76350450D01*
G75*
G02*
X223925450Y-76600000I-249550J0D01*
G01*
X223274550Y-76600000D01*
G75*
G02*
X223025000Y-76350450I0J249550D01*
G01*
X223025000Y-75449550D01*
G75*
G02*
X223274550Y-75200000I249550J0D01*
G01*
X223925450Y-75200000D01*
G75*
G02*
X224175000Y-75449550I0J-249550D01*
G01*
G37*
G04 #@! TD.AperFunction*
G04 #@! TA.AperFunction,SMDPad,CuDef*
G36*
G01*
X224625000Y-76350450D02*
X224625000Y-75449550D01*
G75*
G02*
X224874550Y-75200000I249550J0D01*
G01*
X225525450Y-75200000D01*
G75*
G02*
X225775000Y-75449550I0J-249550D01*
G01*
X225775000Y-76350450D01*
G75*
G02*
X225525450Y-76600000I-249550J0D01*
G01*
X224874550Y-76600000D01*
G75*
G02*
X224625000Y-76350450I0J249550D01*
G01*
G37*
G04 #@! TD.AperFunction*
G04 #@! TA.AperFunction,SMDPad,CuDef*
G36*
G01*
X227375000Y-75449999D02*
X227375000Y-76350001D01*
G75*
G02*
X227125001Y-76600000I-249999J0D01*
G01*
X226474999Y-76600000D01*
G75*
G02*
X226225000Y-76350001I0J249999D01*
G01*
X226225000Y-75449999D01*
G75*
G02*
X226474999Y-75200000I249999J0D01*
G01*
X227125001Y-75200000D01*
G75*
G02*
X227375000Y-75449999I0J-249999D01*
G01*
G37*
G04 #@! TD.AperFunction*
G04 #@! TA.AperFunction,SMDPad,CuDef*
G36*
X209247436Y-47732420D02*
G01*
X209637148Y-47507420D01*
X209412148Y-47117709D01*
X209022436Y-47342709D01*
X208447436Y-46346779D01*
X209659872Y-45646779D01*
X210234872Y-46642709D01*
X209845160Y-46867709D01*
X210070160Y-47257420D01*
X210459872Y-47032420D01*
X211034872Y-48028349D01*
X209822436Y-48728349D01*
X209247436Y-47732420D01*
G37*
G04 #@! TD.AperFunction*
G04 #@! TA.AperFunction,SMDPad,CuDef*
G36*
G01*
X212550806Y-47153125D02*
X211770604Y-47603575D01*
G75*
G02*
X211429712Y-47512233I-124775J216117D01*
G01*
X211104262Y-46948537D01*
G75*
G02*
X211195604Y-46607645I216117J124775D01*
G01*
X211975806Y-46157195D01*
G75*
G02*
X212316698Y-46248537I124775J-216117D01*
G01*
X212642148Y-46812233D01*
G75*
G02*
X212550806Y-47153125I-216117J-124775D01*
G01*
G37*
G04 #@! TD.AperFunction*
G04 #@! TA.AperFunction,SMDPad,CuDef*
G36*
G01*
X210395993Y-45221780D02*
X211175418Y-44771779D01*
G75*
G02*
X211516922Y-44863284I124999J-216505D01*
G01*
X211841923Y-45426203D01*
G75*
G02*
X211750418Y-45767708I-216505J-125000D01*
G01*
X210970993Y-46217709D01*
G75*
G02*
X210629488Y-46126203I-125000J216505D01*
G01*
X210304487Y-45563284D01*
G75*
G02*
X210395993Y-45221780I216505J124999D01*
G01*
G37*
G04 #@! TD.AperFunction*
G04 #@! TA.AperFunction,SMDPad,CuDef*
G36*
X207980385Y-60144486D02*
G01*
X208370097Y-59919486D01*
X208170097Y-59573076D01*
X207780385Y-59798076D01*
X207180385Y-58758845D01*
X207570097Y-58533845D01*
X207370097Y-58187435D01*
X206980385Y-58412435D01*
X206380385Y-57373205D01*
X206770097Y-57148205D01*
X206570097Y-56801795D01*
X206180385Y-57026795D01*
X205580385Y-55987564D01*
X205970097Y-55762564D01*
X205770097Y-55416154D01*
X205380385Y-55641154D01*
X204780385Y-54601923D01*
X205170097Y-54376923D01*
X204957597Y-54008863D01*
X204567885Y-54233863D01*
X203992885Y-53237933D01*
X205205321Y-52537933D01*
X205780321Y-53533863D01*
X205390609Y-53758863D01*
X205603109Y-54126923D01*
X205992821Y-53901923D01*
X206592821Y-54941154D01*
X206203109Y-55166154D01*
X206403109Y-55512564D01*
X206792821Y-55287564D01*
X207392821Y-56326795D01*
X207003109Y-56551795D01*
X207203109Y-56898205D01*
X207592821Y-56673205D01*
X208192821Y-57712435D01*
X207803109Y-57937435D01*
X208003109Y-58283845D01*
X208392821Y-58058845D01*
X208992821Y-59098076D01*
X208603109Y-59323076D01*
X208803109Y-59669486D01*
X209192821Y-59444486D01*
X209792821Y-60483716D01*
X208580385Y-61183716D01*
X207980385Y-60144486D01*
G37*
G04 #@! TD.AperFunction*
G04 #@! TA.AperFunction,SMDPad,CuDef*
G36*
G01*
X209854450Y-59091361D02*
X210634652Y-58640911D01*
G75*
G02*
X210975544Y-58732253I124775J-216117D01*
G01*
X211300994Y-59295949D01*
G75*
G02*
X211209652Y-59636841I-216117J-124775D01*
G01*
X210429450Y-60087291D01*
G75*
G02*
X210088558Y-59995949I-124775J216117D01*
G01*
X209763108Y-59432253D01*
G75*
G02*
X209854450Y-59091361I216117J124775D01*
G01*
G37*
G04 #@! TD.AperFunction*
G04 #@! TA.AperFunction,SMDPad,CuDef*
G36*
G01*
X209054450Y-57705721D02*
X209834652Y-57255271D01*
G75*
G02*
X210175544Y-57346613I124775J-216117D01*
G01*
X210500994Y-57910309D01*
G75*
G02*
X210409652Y-58251201I-216117J-124775D01*
G01*
X209629450Y-58701651D01*
G75*
G02*
X209288558Y-58610309I-124775J216117D01*
G01*
X208963108Y-58046613D01*
G75*
G02*
X209054450Y-57705721I216117J124775D01*
G01*
G37*
G04 #@! TD.AperFunction*
G04 #@! TA.AperFunction,SMDPad,CuDef*
G36*
G01*
X209609652Y-56865560D02*
X208829450Y-57316010D01*
G75*
G02*
X208488558Y-57224668I-124775J216117D01*
G01*
X208163108Y-56660972D01*
G75*
G02*
X208254450Y-56320080I216117J124775D01*
G01*
X209034652Y-55869630D01*
G75*
G02*
X209375544Y-55960972I124775J-216117D01*
G01*
X209700994Y-56524668D01*
G75*
G02*
X209609652Y-56865560I-216117J-124775D01*
G01*
G37*
G04 #@! TD.AperFunction*
G04 #@! TA.AperFunction,SMDPad,CuDef*
G36*
G01*
X207454450Y-54934439D02*
X208234652Y-54483989D01*
G75*
G02*
X208575544Y-54575331I124775J-216117D01*
G01*
X208900994Y-55139027D01*
G75*
G02*
X208809652Y-55479919I-216117J-124775D01*
G01*
X208029450Y-55930369D01*
G75*
G02*
X207688558Y-55839027I-124775J216117D01*
G01*
X207363108Y-55275331D01*
G75*
G02*
X207454450Y-54934439I216117J124775D01*
G01*
G37*
G04 #@! TD.AperFunction*
G04 #@! TA.AperFunction,SMDPad,CuDef*
G36*
G01*
X208009652Y-54094279D02*
X207229450Y-54544729D01*
G75*
G02*
X206888558Y-54453387I-124775J216117D01*
G01*
X206563108Y-53889691D01*
G75*
G02*
X206654450Y-53548799I216117J124775D01*
G01*
X207434652Y-53098349D01*
G75*
G02*
X207775544Y-53189691I124775J-216117D01*
G01*
X208100994Y-53753387D01*
G75*
G02*
X208009652Y-54094279I-216117J-124775D01*
G01*
G37*
G04 #@! TD.AperFunction*
G04 #@! TA.AperFunction,SMDPad,CuDef*
G36*
G01*
X205854839Y-52162934D02*
X206634264Y-51712933D01*
G75*
G02*
X206975768Y-51804438I124999J-216505D01*
G01*
X207300769Y-52367357D01*
G75*
G02*
X207209264Y-52708862I-216505J-125000D01*
G01*
X206429839Y-53158863D01*
G75*
G02*
X206088334Y-53067357I-125000J216505D01*
G01*
X205763333Y-52504438D01*
G75*
G02*
X205854839Y-52162934I216505J124999D01*
G01*
G37*
G04 #@! TD.AperFunction*
G04 #@! TA.AperFunction,SMDPad,CuDef*
G36*
X197921539Y-65903332D02*
G01*
X198311251Y-65678332D01*
X198111251Y-65331922D01*
X197721539Y-65556922D01*
X197121539Y-64517691D01*
X197511251Y-64292691D01*
X197311251Y-63946281D01*
X196921539Y-64171281D01*
X196321539Y-63132051D01*
X196711251Y-62907051D01*
X196511251Y-62560641D01*
X196121539Y-62785641D01*
X195521539Y-61746410D01*
X195911251Y-61521410D01*
X195711251Y-61175000D01*
X195321539Y-61400000D01*
X194721539Y-60360769D01*
X195111251Y-60135769D01*
X194898751Y-59767709D01*
X194509039Y-59992709D01*
X193934039Y-58996779D01*
X195146475Y-58296779D01*
X195721475Y-59292709D01*
X195331763Y-59517709D01*
X195544263Y-59885769D01*
X195933975Y-59660769D01*
X196533975Y-60700000D01*
X196144263Y-60925000D01*
X196344263Y-61271410D01*
X196733975Y-61046410D01*
X197333975Y-62085641D01*
X196944263Y-62310641D01*
X197144263Y-62657051D01*
X197533975Y-62432051D01*
X198133975Y-63471281D01*
X197744263Y-63696281D01*
X197944263Y-64042691D01*
X198333975Y-63817691D01*
X198933975Y-64856922D01*
X198544263Y-65081922D01*
X198744263Y-65428332D01*
X199133975Y-65203332D01*
X199733975Y-66242562D01*
X198521539Y-66942562D01*
X197921539Y-65903332D01*
G37*
G04 #@! TD.AperFunction*
G04 #@! TA.AperFunction,SMDPad,CuDef*
G36*
G01*
X199795604Y-64850207D02*
X200575806Y-64399757D01*
G75*
G02*
X200916698Y-64491099I124775J-216117D01*
G01*
X201242148Y-65054795D01*
G75*
G02*
X201150806Y-65395687I-216117J-124775D01*
G01*
X200370604Y-65846137D01*
G75*
G02*
X200029712Y-65754795I-124775J216117D01*
G01*
X199704262Y-65191099D01*
G75*
G02*
X199795604Y-64850207I216117J124775D01*
G01*
G37*
G04 #@! TD.AperFunction*
G04 #@! TA.AperFunction,SMDPad,CuDef*
G36*
G01*
X198995604Y-63464567D02*
X199775806Y-63014117D01*
G75*
G02*
X200116698Y-63105459I124775J-216117D01*
G01*
X200442148Y-63669155D01*
G75*
G02*
X200350806Y-64010047I-216117J-124775D01*
G01*
X199570604Y-64460497D01*
G75*
G02*
X199229712Y-64369155I-124775J216117D01*
G01*
X198904262Y-63805459D01*
G75*
G02*
X198995604Y-63464567I216117J124775D01*
G01*
G37*
G04 #@! TD.AperFunction*
G04 #@! TA.AperFunction,SMDPad,CuDef*
G36*
G01*
X199550806Y-62624406D02*
X198770604Y-63074856D01*
G75*
G02*
X198429712Y-62983514I-124775J216117D01*
G01*
X198104262Y-62419818D01*
G75*
G02*
X198195604Y-62078926I216117J124775D01*
G01*
X198975806Y-61628476D01*
G75*
G02*
X199316698Y-61719818I124775J-216117D01*
G01*
X199642148Y-62283514D01*
G75*
G02*
X199550806Y-62624406I-216117J-124775D01*
G01*
G37*
G04 #@! TD.AperFunction*
G04 #@! TA.AperFunction,SMDPad,CuDef*
G36*
G01*
X197395604Y-60693285D02*
X198175806Y-60242835D01*
G75*
G02*
X198516698Y-60334177I124775J-216117D01*
G01*
X198842148Y-60897873D01*
G75*
G02*
X198750806Y-61238765I-216117J-124775D01*
G01*
X197970604Y-61689215D01*
G75*
G02*
X197629712Y-61597873I-124775J216117D01*
G01*
X197304262Y-61034177D01*
G75*
G02*
X197395604Y-60693285I216117J124775D01*
G01*
G37*
G04 #@! TD.AperFunction*
G04 #@! TA.AperFunction,SMDPad,CuDef*
G36*
G01*
X197950806Y-59853125D02*
X197170604Y-60303575D01*
G75*
G02*
X196829712Y-60212233I-124775J216117D01*
G01*
X196504262Y-59648537D01*
G75*
G02*
X196595604Y-59307645I216117J124775D01*
G01*
X197375806Y-58857195D01*
G75*
G02*
X197716698Y-58948537I124775J-216117D01*
G01*
X198042148Y-59512233D01*
G75*
G02*
X197950806Y-59853125I-216117J-124775D01*
G01*
G37*
G04 #@! TD.AperFunction*
G04 #@! TA.AperFunction,SMDPad,CuDef*
G36*
G01*
X195795993Y-57921780D02*
X196575418Y-57471779D01*
G75*
G02*
X196916922Y-57563284I124999J-216505D01*
G01*
X197241923Y-58126203D01*
G75*
G02*
X197150418Y-58467708I-216505J-125000D01*
G01*
X196370993Y-58917709D01*
G75*
G02*
X196029488Y-58826203I-125000J216505D01*
G01*
X195704487Y-58263284D01*
G75*
G02*
X195795993Y-57921780I216505J124999D01*
G01*
G37*
G04 #@! TD.AperFunction*
G04 #@! TA.AperFunction,SMDPad,CuDef*
G36*
X217904615Y-89927276D02*
G01*
X218854615Y-91572724D01*
X217815385Y-92172724D01*
X216865385Y-90527276D01*
X217904615Y-89927276D01*
G37*
G04 #@! TD.AperFunction*
G04 #@! TA.AperFunction,SMDPad,CuDef*
G36*
X212881667Y-92827276D02*
G01*
X213831667Y-94472724D01*
X212792437Y-95072724D01*
X211842437Y-93427276D01*
X212881667Y-92827276D01*
G37*
G04 #@! TD.AperFunction*
G04 #@! TA.AperFunction,ComponentPad*
G36*
G01*
X212662052Y-93646891D02*
X213012052Y-94253109D01*
G75*
G02*
X212792437Y-95072724I-519615J-300000D01*
G01*
X212792437Y-95072724D01*
G75*
G02*
X211972822Y-94853109I-300000J519615D01*
G01*
X211622822Y-94246891D01*
G75*
G02*
X211842437Y-93427276I519615J300000D01*
G01*
X211842437Y-93427276D01*
G75*
G02*
X212662052Y-93646891I300000J-519615D01*
G01*
G37*
G04 #@! TD.AperFunction*
G04 #@! TA.AperFunction,ComponentPad*
G36*
G01*
X218035000Y-91353109D02*
X217685000Y-90746891D01*
G75*
G02*
X217904615Y-89927276I519615J300000D01*
G01*
X217904615Y-89927276D01*
G75*
G02*
X218724230Y-90146891I300000J-519615D01*
G01*
X219074230Y-90753109D01*
G75*
G02*
X218854615Y-91572724I-519615J-300000D01*
G01*
X218854615Y-91572724D01*
G75*
G02*
X218035000Y-91353109I-300000J519615D01*
G01*
G37*
G04 #@! TD.AperFunction*
G04 #@! TA.AperFunction,SMDPad,CuDef*
G36*
X216389070Y-90802276D02*
G01*
X217339070Y-92447724D01*
X216040032Y-93197724D01*
X215090032Y-91552276D01*
X216389070Y-90802276D01*
G37*
G04 #@! TD.AperFunction*
D12*
X211833462Y-91411732D03*
G04 #@! TA.AperFunction,SMDPad,CuDef*
D11*
G36*
X213834231Y-89477165D02*
G01*
X214509231Y-90646299D01*
X214162821Y-90846299D01*
X213487821Y-89677165D01*
X213834231Y-89477165D01*
G37*
G04 #@! TD.AperFunction*
G04 #@! TA.AperFunction,SMDPad,CuDef*
G36*
X213271314Y-89802165D02*
G01*
X213946314Y-90971299D01*
X213599904Y-91171299D01*
X212924904Y-90002165D01*
X213271314Y-89802165D01*
G37*
G04 #@! TD.AperFunction*
G04 #@! TA.AperFunction,SMDPad,CuDef*
G36*
X212708398Y-90127165D02*
G01*
X213383398Y-91296299D01*
X213036988Y-91496299D01*
X212361988Y-90327165D01*
X212708398Y-90127165D01*
G37*
G04 #@! TD.AperFunction*
G04 #@! TA.AperFunction,SMDPad,CuDef*
G36*
X214960064Y-88827165D02*
G01*
X215635064Y-89996299D01*
X215288654Y-90196299D01*
X214613654Y-89027165D01*
X214960064Y-88827165D01*
G37*
G04 #@! TD.AperFunction*
G04 #@! TA.AperFunction,SMDPad,CuDef*
G36*
X214397148Y-89152165D02*
G01*
X215072148Y-90321299D01*
X214725738Y-90521299D01*
X214050738Y-89352165D01*
X214397148Y-89152165D01*
G37*
G04 #@! TD.AperFunction*
D12*
X216163590Y-88911732D03*
G04 #@! TA.AperFunction,SMDPad,CuDef*
D11*
G36*
X214657020Y-91802276D02*
G01*
X215607020Y-93447724D01*
X214307982Y-94197724D01*
X213357982Y-92552276D01*
X214657020Y-91802276D01*
G37*
G04 #@! TD.AperFunction*
G04 #@! TA.AperFunction,ComponentPad*
G36*
G01*
X227331209Y-83707900D02*
X227331209Y-83707900D01*
G75*
G02*
X226151509Y-83391800I-431800J747900D01*
G01*
X226151509Y-83391800D01*
G75*
G02*
X226467609Y-82212100I747900J431800D01*
G01*
X226467609Y-82212100D01*
G75*
G02*
X227647309Y-82528200I431800J-747900D01*
G01*
X227647309Y-82528200D01*
G75*
G02*
X227331209Y-83707900I-747900J-431800D01*
G01*
G37*
G04 #@! TD.AperFunction*
G04 #@! TA.AperFunction,ComponentPad*
G36*
G01*
X228601209Y-85907605D02*
X228601209Y-85907605D01*
G75*
G02*
X227421509Y-85591505I-431800J747900D01*
G01*
X227421509Y-85591505D01*
G75*
G02*
X227737609Y-84411805I747900J431800D01*
G01*
X227737609Y-84411805D01*
G75*
G02*
X228917309Y-84727905I431800J-747900D01*
G01*
X228917309Y-84727905D01*
G75*
G02*
X228601209Y-85907605I-747900J-431800D01*
G01*
G37*
G04 #@! TD.AperFunction*
G04 #@! TA.AperFunction,ComponentPad*
G36*
G01*
X225131504Y-84977900D02*
X225131504Y-84977900D01*
G75*
G02*
X223951804Y-84661800I-431800J747900D01*
G01*
X223951804Y-84661800D01*
G75*
G02*
X224267904Y-83482100I747900J431800D01*
G01*
X224267904Y-83482100D01*
G75*
G02*
X225447604Y-83798200I431800J-747900D01*
G01*
X225447604Y-83798200D01*
G75*
G02*
X225131504Y-84977900I-747900J-431800D01*
G01*
G37*
G04 #@! TD.AperFunction*
G04 #@! TA.AperFunction,ComponentPad*
G36*
G01*
X226401504Y-87177605D02*
X226401504Y-87177605D01*
G75*
G02*
X225221804Y-86861505I-431800J747900D01*
G01*
X225221804Y-86861505D01*
G75*
G02*
X225537904Y-85681805I747900J431800D01*
G01*
X225537904Y-85681805D01*
G75*
G02*
X226717604Y-85997905I431800J-747900D01*
G01*
X226717604Y-85997905D01*
G75*
G02*
X226401504Y-87177605I-747900J-431800D01*
G01*
G37*
G04 #@! TD.AperFunction*
G04 #@! TA.AperFunction,ComponentPad*
G36*
G01*
X222931800Y-86247900D02*
X222931800Y-86247900D01*
G75*
G02*
X221752100Y-85931800I-431800J747900D01*
G01*
X221752100Y-85931800D01*
G75*
G02*
X222068200Y-84752100I747900J431800D01*
G01*
X222068200Y-84752100D01*
G75*
G02*
X223247900Y-85068200I431800J-747900D01*
G01*
X223247900Y-85068200D01*
G75*
G02*
X222931800Y-86247900I-747900J-431800D01*
G01*
G37*
G04 #@! TD.AperFunction*
G04 #@! TA.AperFunction,ComponentPad*
G36*
G01*
X224201800Y-88447605D02*
X224201800Y-88447605D01*
G75*
G02*
X223022100Y-88131505I-431800J747900D01*
G01*
X223022100Y-88131505D01*
G75*
G02*
X223338200Y-86951805I747900J431800D01*
G01*
X223338200Y-86951805D01*
G75*
G02*
X224517900Y-87267905I431800J-747900D01*
G01*
X224517900Y-87267905D01*
G75*
G02*
X224201800Y-88447605I-747900J-431800D01*
G01*
G37*
G04 #@! TD.AperFunction*
G04 #@! TA.AperFunction,ComponentPad*
G36*
G01*
X220732095Y-87517900D02*
X220732095Y-87517900D01*
G75*
G02*
X219552395Y-87201800I-431800J747900D01*
G01*
X219552395Y-87201800D01*
G75*
G02*
X219868495Y-86022100I747900J431800D01*
G01*
X219868495Y-86022100D01*
G75*
G02*
X221048195Y-86338200I431800J-747900D01*
G01*
X221048195Y-86338200D01*
G75*
G02*
X220732095Y-87517900I-747900J-431800D01*
G01*
G37*
G04 #@! TD.AperFunction*
G04 #@! TA.AperFunction,ComponentPad*
D10*
G36*
X222749995Y-89285805D02*
G01*
X221254195Y-90149405D01*
X220390595Y-88653605D01*
X221886395Y-87790005D01*
X222749995Y-89285805D01*
G37*
G04 #@! TD.AperFunction*
D13*
X209150000Y-71600000D03*
X209150000Y-68400000D03*
X214450000Y-71600000D03*
X214450000Y-68400000D03*
G04 #@! TA.AperFunction,SMDPad,CuDef*
G36*
G01*
X198050000Y-77450001D02*
X198050000Y-76549999D01*
G75*
G02*
X198299999Y-76300000I249999J0D01*
G01*
X198950001Y-76300000D01*
G75*
G02*
X199200000Y-76549999I0J-249999D01*
G01*
X199200000Y-77450001D01*
G75*
G02*
X198950001Y-77700000I-249999J0D01*
G01*
X198299999Y-77700000D01*
G75*
G02*
X198050000Y-77450001I0J249999D01*
G01*
G37*
G04 #@! TD.AperFunction*
G04 #@! TA.AperFunction,SMDPad,CuDef*
G36*
G01*
X196000000Y-77450001D02*
X196000000Y-76549999D01*
G75*
G02*
X196249999Y-76300000I249999J0D01*
G01*
X196900001Y-76300000D01*
G75*
G02*
X197150000Y-76549999I0J-249999D01*
G01*
X197150000Y-77450001D01*
G75*
G02*
X196900001Y-77700000I-249999J0D01*
G01*
X196249999Y-77700000D01*
G75*
G02*
X196000000Y-77450001I0J249999D01*
G01*
G37*
G04 #@! TD.AperFunction*
G04 #@! TA.AperFunction,SMDPad,CuDef*
G36*
G01*
X198050000Y-72050001D02*
X198050000Y-71149999D01*
G75*
G02*
X198299999Y-70900000I249999J0D01*
G01*
X198950001Y-70900000D01*
G75*
G02*
X199200000Y-71149999I0J-249999D01*
G01*
X199200000Y-72050001D01*
G75*
G02*
X198950001Y-72300000I-249999J0D01*
G01*
X198299999Y-72300000D01*
G75*
G02*
X198050000Y-72050001I0J249999D01*
G01*
G37*
G04 #@! TD.AperFunction*
G04 #@! TA.AperFunction,SMDPad,CuDef*
G36*
G01*
X196000000Y-72050001D02*
X196000000Y-71149999D01*
G75*
G02*
X196249999Y-70900000I249999J0D01*
G01*
X196900001Y-70900000D01*
G75*
G02*
X197150000Y-71149999I0J-249999D01*
G01*
X197150000Y-72050001D01*
G75*
G02*
X196900001Y-72300000I-249999J0D01*
G01*
X196249999Y-72300000D01*
G75*
G02*
X196000000Y-72050001I0J249999D01*
G01*
G37*
G04 #@! TD.AperFunction*
G04 #@! TA.AperFunction,SMDPad,CuDef*
G36*
G01*
X203550000Y-77450001D02*
X203550000Y-76549999D01*
G75*
G02*
X203799999Y-76300000I249999J0D01*
G01*
X204450001Y-76300000D01*
G75*
G02*
X204700000Y-76549999I0J-249999D01*
G01*
X204700000Y-77450001D01*
G75*
G02*
X204450001Y-77700000I-249999J0D01*
G01*
X203799999Y-77700000D01*
G75*
G02*
X203550000Y-77450001I0J249999D01*
G01*
G37*
G04 #@! TD.AperFunction*
G04 #@! TA.AperFunction,SMDPad,CuDef*
G36*
G01*
X201500000Y-77450001D02*
X201500000Y-76549999D01*
G75*
G02*
X201749999Y-76300000I249999J0D01*
G01*
X202400001Y-76300000D01*
G75*
G02*
X202650000Y-76549999I0J-249999D01*
G01*
X202650000Y-77450001D01*
G75*
G02*
X202400001Y-77700000I-249999J0D01*
G01*
X201749999Y-77700000D01*
G75*
G02*
X201500000Y-77450001I0J249999D01*
G01*
G37*
G04 #@! TD.AperFunction*
G04 #@! TA.AperFunction,SMDPad,CuDef*
G36*
G01*
X203550000Y-72050001D02*
X203550000Y-71149999D01*
G75*
G02*
X203799999Y-70900000I249999J0D01*
G01*
X204450001Y-70900000D01*
G75*
G02*
X204700000Y-71149999I0J-249999D01*
G01*
X204700000Y-72050001D01*
G75*
G02*
X204450001Y-72300000I-249999J0D01*
G01*
X203799999Y-72300000D01*
G75*
G02*
X203550000Y-72050001I0J249999D01*
G01*
G37*
G04 #@! TD.AperFunction*
G04 #@! TA.AperFunction,SMDPad,CuDef*
G36*
G01*
X201500000Y-72050001D02*
X201500000Y-71149999D01*
G75*
G02*
X201749999Y-70900000I249999J0D01*
G01*
X202400001Y-70900000D01*
G75*
G02*
X202650000Y-71149999I0J-249999D01*
G01*
X202650000Y-72050001D01*
G75*
G02*
X202400001Y-72300000I-249999J0D01*
G01*
X201749999Y-72300000D01*
G75*
G02*
X201500000Y-72050001I0J249999D01*
G01*
G37*
G04 #@! TD.AperFunction*
D14*
X191050000Y-64150000D03*
X191050000Y-75550000D03*
D15*
X233500000Y-66220000D03*
X233500000Y-68760000D03*
X233500000Y-71300000D03*
D16*
X233500000Y-73840000D03*
G04 #@! TA.AperFunction,ComponentPad*
G36*
G01*
X198125295Y-53946122D02*
X198125295Y-53946122D01*
G75*
G02*
X196964173Y-53635000I-425000J736122D01*
G01*
X196964173Y-53635000D01*
G75*
G02*
X197275295Y-52473878I736122J425000D01*
G01*
X197275295Y-52473878D01*
G75*
G02*
X198436417Y-52785000I425000J-736122D01*
G01*
X198436417Y-52785000D01*
G75*
G02*
X198125295Y-53946122I-736122J-425000D01*
G01*
G37*
G04 #@! TD.AperFunction*
G04 #@! TA.AperFunction,ComponentPad*
G36*
G01*
X200325000Y-52676122D02*
X200325000Y-52676122D01*
G75*
G02*
X199163878Y-52365000I-425000J736122D01*
G01*
X199163878Y-52365000D01*
G75*
G02*
X199475000Y-51203878I736122J425000D01*
G01*
X199475000Y-51203878D01*
G75*
G02*
X200636122Y-51515000I425000J-736122D01*
G01*
X200636122Y-51515000D01*
G75*
G02*
X200325000Y-52676122I-736122J-425000D01*
G01*
G37*
G04 #@! TD.AperFunction*
G04 #@! TA.AperFunction,ComponentPad*
G36*
G01*
X202524704Y-51406122D02*
X202524704Y-51406122D01*
G75*
G02*
X201363582Y-51095000I-425000J736122D01*
G01*
X201363582Y-51095000D01*
G75*
G02*
X201674704Y-49933878I736122J425000D01*
G01*
X201674704Y-49933878D01*
G75*
G02*
X202835826Y-50245000I425000J-736122D01*
G01*
X202835826Y-50245000D01*
G75*
G02*
X202524704Y-51406122I-736122J-425000D01*
G01*
G37*
G04 #@! TD.AperFunction*
G04 #@! TA.AperFunction,ComponentPad*
D10*
G36*
X205460531Y-49711122D02*
G01*
X203988287Y-50561122D01*
X203138287Y-49088878D01*
X204610531Y-48238878D01*
X205460531Y-49711122D01*
G37*
G04 #@! TD.AperFunction*
D17*
X217760000Y-76210000D03*
X211510010Y-89119990D03*
X217597660Y-74392340D03*
X209200000Y-91970000D03*
X216100000Y-59100000D03*
X207140000Y-71590000D03*
X205550000Y-70000000D03*
X200560000Y-72690000D03*
X202890000Y-80230000D03*
X228860000Y-80000000D03*
X221932501Y-58378532D03*
X206450000Y-84960000D03*
X213750000Y-52710000D03*
X208890000Y-87470000D03*
X212780000Y-87320000D03*
X226460000Y-79240000D03*
X216930000Y-52740000D03*
X217690000Y-59190000D03*
X219920000Y-59680000D03*
X224250000Y-56870000D03*
X228020000Y-55640000D03*
X212700000Y-89400000D03*
X217040000Y-70220000D03*
X233790000Y-80020000D03*
X209620000Y-77590000D03*
X211010000Y-80480000D03*
X223680000Y-71700000D03*
X218688015Y-50731985D03*
X222054133Y-59959328D03*
X211040000Y-45500000D03*
X210785010Y-82904990D03*
X217790000Y-61310000D03*
X200465000Y-78790000D03*
X197040000Y-79950000D03*
X223750000Y-59100000D03*
X231710000Y-81525000D03*
X209335000Y-80695000D03*
X223750000Y-61700000D03*
X200020000Y-85020000D03*
X221375010Y-52320000D03*
X208940000Y-56610000D03*
X198880000Y-62330000D03*
X216760000Y-81040000D03*
X223130000Y-78970000D03*
X227950000Y-70190000D03*
X222125000Y-55419744D03*
X226640000Y-66700000D03*
X208110000Y-55230000D03*
X198100000Y-60960000D03*
X223610000Y-75900000D03*
X229280000Y-68370000D03*
X222960000Y-54280000D03*
X218810000Y-80420000D03*
X217287660Y-78897660D03*
X207340000Y-53870000D03*
X197290000Y-59580000D03*
X225170000Y-75920000D03*
X231250000Y-67600000D03*
X231290000Y-72530000D03*
X229120000Y-77000000D03*
X222760000Y-53290000D03*
X219450000Y-82430000D03*
X206550000Y-52470000D03*
X196470000Y-58200000D03*
X216710000Y-68530000D03*
X212820000Y-72410000D03*
X219260000Y-66800000D03*
X219170000Y-53280000D03*
X219520000Y-78920000D03*
X218790000Y-72890000D03*
X220100000Y-63320000D03*
X205800000Y-63825000D03*
X207700000Y-63825000D03*
X200490000Y-65130000D03*
X210490000Y-59390000D03*
X215800122Y-66291721D03*
X208380000Y-74770000D03*
X216715010Y-56274990D03*
X216874990Y-59874990D03*
X204100002Y-63800000D03*
X209730000Y-57990000D03*
X199660000Y-63730000D03*
X216050000Y-67260000D03*
X209410000Y-76280000D03*
X219004573Y-62594132D03*
X218350000Y-56274990D03*
X204228611Y-62300000D03*
X207300000Y-60999994D03*
D18*
X217760000Y-75580000D02*
X217760000Y-76210000D01*
X214450000Y-72270000D02*
X217760000Y-75580000D01*
X214450000Y-71600000D02*
X214450000Y-72270000D01*
X211510010Y-89659990D02*
X211510010Y-89119990D01*
X209200000Y-91970000D02*
X211510010Y-89659990D01*
X217597660Y-71937660D02*
X215000000Y-69340000D01*
X217597660Y-74392340D02*
X217597660Y-71937660D01*
X212700000Y-68700000D02*
X212700000Y-62500000D01*
X215000000Y-69340000D02*
X213340000Y-69340000D01*
X212700000Y-62500000D02*
X216100000Y-59100000D01*
X213340000Y-69340000D02*
X212700000Y-68700000D01*
D19*
X207140000Y-71590000D02*
X209100000Y-71590000D01*
X202643900Y-72690000D02*
X200560000Y-72690000D01*
X203025010Y-72308890D02*
X202643900Y-72690000D01*
X203916120Y-70000000D02*
X203025010Y-70891110D01*
X203025010Y-70891110D02*
X203025010Y-72308890D01*
X205550000Y-70000000D02*
X203916120Y-70000000D01*
X228860000Y-80000000D02*
X230580000Y-80000000D01*
X230580000Y-80000000D02*
X230590000Y-80010000D01*
X222781033Y-57530000D02*
X221932501Y-58378532D01*
X233430000Y-57530000D02*
X222781033Y-57530000D01*
X233800000Y-60000000D02*
X233800000Y-57900000D01*
X233800000Y-57900000D02*
X233430000Y-57530000D01*
X206450000Y-84960000D02*
X206450000Y-83250000D01*
X206450000Y-83250000D02*
X203430000Y-80230000D01*
X203430000Y-80230000D02*
X202890000Y-80230000D01*
X198820000Y-84300000D02*
X202890000Y-80230000D01*
X198820000Y-87480000D02*
X198820000Y-84300000D01*
X198800000Y-87500000D02*
X198820000Y-87480000D01*
X213099999Y-89799999D02*
X213099999Y-89988420D01*
X212700000Y-89400000D02*
X213099999Y-89799999D01*
X213099999Y-89988420D02*
X213400000Y-90288421D01*
X213400000Y-90288421D02*
X213400000Y-90500000D01*
X209620000Y-77590000D02*
X209620000Y-79090000D01*
X209620000Y-79090000D02*
X211010000Y-80480000D01*
X223670000Y-71690000D02*
X223680000Y-71700000D01*
X222200000Y-70220000D02*
X223670000Y-71690000D01*
X217040000Y-70220000D02*
X222200000Y-70220000D01*
X213456030Y-45500000D02*
X218288016Y-50331986D01*
X218288016Y-50331986D02*
X218688015Y-50731985D01*
X211020000Y-45500000D02*
X213456030Y-45500000D01*
X222094805Y-60000000D02*
X222054133Y-59959328D01*
X230600000Y-60000000D02*
X222094805Y-60000000D01*
X214450000Y-68400000D02*
X215220000Y-68400000D01*
X215220000Y-68400000D02*
X217040000Y-70220000D01*
X215063589Y-87183569D02*
X210785010Y-82904990D01*
X215063589Y-89450962D02*
X215063589Y-87183569D01*
X215124359Y-89511732D02*
X215063589Y-89450962D01*
X196575000Y-71600000D02*
X196575000Y-76975000D01*
X200465000Y-78790000D02*
X196900000Y-78790000D01*
X196900000Y-78790000D02*
X196530000Y-78420000D01*
X196530000Y-78420000D02*
X196530000Y-77000000D01*
X198200000Y-78790000D02*
X197040000Y-79950000D01*
X200465000Y-78790000D02*
X198200000Y-78790000D01*
X223750000Y-59100000D02*
X224640000Y-58210000D01*
X224640000Y-58210000D02*
X231810000Y-58210000D01*
X231810000Y-58210000D02*
X232200000Y-58600000D01*
X232200000Y-58600000D02*
X232200000Y-60000000D01*
X228230000Y-86002539D02*
X228230000Y-85390000D01*
X228230000Y-85390000D02*
X228080000Y-85240000D01*
X228080000Y-85240000D02*
X228230000Y-85240000D01*
X228230000Y-85240000D02*
X228280000Y-85190000D01*
X228169409Y-85941948D02*
X228230000Y-86002539D01*
X228169409Y-85159705D02*
X228169409Y-85941948D01*
X232200000Y-81035000D02*
X231710000Y-81525000D01*
X232200000Y-80000000D02*
X232200000Y-81035000D01*
X228230000Y-86066270D02*
X228230000Y-86002539D01*
X225736270Y-88560000D02*
X228230000Y-86066270D01*
X224100000Y-88560000D02*
X225736270Y-88560000D01*
X223770000Y-88230000D02*
X224100000Y-88560000D01*
X223770000Y-87699705D02*
X223770000Y-88230000D01*
X217790000Y-61310000D02*
X223360000Y-61310000D01*
X223360000Y-61310000D02*
X223750000Y-61700000D01*
X219844415Y-90524415D02*
X210015000Y-80695000D01*
X222166604Y-90524415D02*
X219844415Y-90524415D01*
X210015000Y-80695000D02*
X209335000Y-80695000D01*
X223770000Y-88921019D02*
X222166604Y-90524415D01*
X223770000Y-87699705D02*
X223770000Y-88921019D01*
X200720000Y-85720000D02*
X200020000Y-85020000D01*
X200720000Y-88520000D02*
X200720000Y-85720000D01*
X201100000Y-88900000D02*
X200720000Y-88520000D01*
X211870000Y-46880000D02*
X213740000Y-46880000D01*
X213740000Y-46880000D02*
X219180000Y-52320000D01*
X219180000Y-52320000D02*
X221375010Y-52320000D01*
D18*
X233800000Y-78000000D02*
X233800000Y-74200000D01*
X233800000Y-74200000D02*
X233510000Y-73910000D01*
X233500000Y-73900000D02*
X233800000Y-74200000D01*
X233500000Y-73840000D02*
X233500000Y-73900000D01*
X226800000Y-73900000D02*
X229360000Y-71340000D01*
X229360000Y-71340000D02*
X233440000Y-71340000D01*
X233440000Y-71340000D02*
X233470000Y-71340000D01*
X214470000Y-78750000D02*
X216760000Y-81040000D01*
X213200000Y-78750000D02*
X214470000Y-78750000D01*
X223130000Y-78970000D02*
X224240000Y-78970000D01*
X224240000Y-78970000D02*
X226900000Y-81630000D01*
X226900000Y-81630000D02*
X226900000Y-82960000D01*
X223130000Y-78970000D02*
X222699990Y-78539990D01*
X222699990Y-78539990D02*
X222000000Y-77840000D01*
X222000000Y-77840000D02*
X222000000Y-75900000D01*
X227950000Y-68150000D02*
X227950000Y-70190000D01*
X226600000Y-66800000D02*
X227950000Y-68150000D01*
X210450023Y-55099977D02*
X221805233Y-55099977D01*
X208940000Y-56610000D02*
X210450023Y-55099977D01*
X221805233Y-55099977D02*
X222125000Y-55419744D01*
X225000000Y-66800000D02*
X225000000Y-65840000D01*
X225000000Y-65840000D02*
X225430000Y-65410000D01*
X225430000Y-65410000D02*
X227580000Y-65410000D01*
X229280000Y-67110000D02*
X229280000Y-68370000D01*
X227580000Y-65410000D02*
X229280000Y-67110000D01*
X208132051Y-55207179D02*
X208689264Y-54649966D01*
X208689264Y-54649966D02*
X222590034Y-54649966D01*
X222590034Y-54649966D02*
X222960000Y-54280000D01*
X222500000Y-84110000D02*
X222500000Y-85500000D01*
X218810000Y-80420000D02*
X222500000Y-84110000D01*
X215540000Y-77150000D02*
X217287660Y-78897660D01*
X213200000Y-77150000D02*
X215540000Y-77150000D01*
X228609991Y-64959991D02*
X231250000Y-67600000D01*
X225240009Y-64959991D02*
X228609991Y-64959991D01*
X223400000Y-66800000D02*
X225240009Y-64959991D01*
X229120000Y-74700000D02*
X229120000Y-77000000D01*
X231290000Y-72530000D02*
X229120000Y-74700000D01*
X207515513Y-54005001D02*
X222044999Y-54005001D01*
X222044999Y-54005001D02*
X222760000Y-53290000D01*
X207332051Y-53821539D02*
X207515513Y-54005001D01*
X219450000Y-84130000D02*
X219450000Y-82430000D01*
X221580000Y-88970000D02*
X221580000Y-86260000D01*
X221580000Y-86260000D02*
X219450000Y-84130000D01*
X213200000Y-75550000D02*
X215013004Y-75550000D01*
X215013004Y-75550000D02*
X218012662Y-78549658D01*
X218012662Y-78549658D02*
X218012662Y-80992662D01*
X218012662Y-80992662D02*
X219450000Y-82430000D01*
X214386410Y-73950000D02*
X218080010Y-77643600D01*
X213200000Y-73950000D02*
X214386410Y-73950000D01*
X218080010Y-77643600D02*
X220353600Y-77643600D01*
X220353600Y-77643600D02*
X224670000Y-81960000D01*
X224670000Y-81960000D02*
X224670000Y-84280000D01*
X228088010Y-83530529D02*
X227388539Y-84230000D01*
X228088010Y-77188010D02*
X228088010Y-83530529D01*
X226800000Y-75900000D02*
X228088010Y-77188010D01*
X227388539Y-84230000D02*
X224690000Y-84230000D01*
X218440000Y-66800000D02*
X216710000Y-68530000D01*
X212820000Y-72410000D02*
X212820000Y-73610000D01*
X212820000Y-73610000D02*
X213190000Y-73980000D01*
X213190000Y-73980000D02*
X213230000Y-73980000D01*
X219260000Y-66800000D02*
X218440000Y-66800000D01*
X221800000Y-66800000D02*
X219260000Y-66800000D01*
X217250000Y-51360000D02*
X219170000Y-53280000D01*
X206550000Y-52470000D02*
X207660000Y-51360000D01*
X207660000Y-51360000D02*
X217250000Y-51360000D01*
X230483002Y-68710000D02*
X233470000Y-68710000D01*
X221800000Y-68800000D02*
X223915001Y-70915001D01*
X223915001Y-70915001D02*
X228278001Y-70915001D01*
X228278001Y-70915001D02*
X230483002Y-68710000D01*
X230600000Y-62000000D02*
X230600000Y-63260000D01*
X230600000Y-63260000D02*
X233490000Y-66150000D01*
X233490000Y-66150000D02*
X233520000Y-66150000D01*
X211200000Y-73950000D02*
X211200000Y-70450000D01*
X211200000Y-70450000D02*
X209170000Y-68420000D01*
D19*
X204299409Y-49400000D02*
X206410000Y-49400000D01*
X206410000Y-49400000D02*
X209270000Y-46540000D01*
D18*
X202075000Y-71600000D02*
X202075000Y-70525000D01*
X202075000Y-70525000D02*
X203295000Y-69305000D01*
X215600000Y-57000000D02*
X203295000Y-69305000D01*
X221630000Y-57000000D02*
X215600000Y-57000000D01*
X225100000Y-53530000D02*
X221630000Y-57000000D01*
X225100000Y-52400000D02*
X225100000Y-53530000D01*
X203295000Y-69305000D02*
X203207502Y-69217502D01*
X203207502Y-69217502D02*
X203207502Y-54992498D01*
X203207502Y-54992498D02*
X204900000Y-53300000D01*
X204100000Y-77860000D02*
X204100000Y-77100000D01*
X197080000Y-81160000D02*
X200800000Y-81160000D01*
X200800000Y-81160000D02*
X204100000Y-77860000D01*
X195400000Y-79480000D02*
X197080000Y-81160000D01*
X195400000Y-63800000D02*
X195400000Y-79480000D01*
X194500000Y-62900000D02*
X195400000Y-63800000D01*
X194500000Y-59472501D02*
X194500000Y-62900000D01*
X194827757Y-59144744D02*
X194500000Y-59472501D01*
X206280000Y-67596996D02*
X206280000Y-74920000D01*
X221756411Y-57510000D02*
X216366996Y-57510000D01*
X206280000Y-74920000D02*
X204140000Y-77060000D01*
X225466411Y-53800000D02*
X221756411Y-57510000D01*
X216366996Y-57510000D02*
X206280000Y-67596996D01*
X227200000Y-53800000D02*
X225466411Y-53800000D01*
X202075000Y-77000000D02*
X198700000Y-77000000D01*
X198625000Y-77000000D02*
X197600000Y-75975000D01*
X197600000Y-75975000D02*
X197600000Y-70400000D01*
X197600000Y-70400000D02*
X200000000Y-68000000D01*
X201000000Y-68000000D02*
X202300000Y-66700000D01*
X200000000Y-68000000D02*
X201000000Y-68000000D01*
X202300000Y-66700000D02*
X202300000Y-56500000D01*
X202300000Y-56500000D02*
X199100000Y-53300000D01*
X199100000Y-53300000D02*
X197600000Y-53300000D01*
X204100000Y-73100000D02*
X204100000Y-71700000D01*
X199580000Y-73910000D02*
X203290000Y-73910000D01*
X198625000Y-72955000D02*
X199580000Y-73910000D01*
X203290000Y-73910000D02*
X204100000Y-73100000D01*
X198625000Y-71600000D02*
X198625000Y-72955000D01*
X202757491Y-67467509D02*
X202757491Y-54757491D01*
X198625000Y-71600000D02*
X202757491Y-67467509D01*
X202757491Y-54757491D02*
X199900000Y-51900000D01*
X223511103Y-84800529D02*
X223511103Y-82911103D01*
X225140279Y-86429705D02*
X223511103Y-84800529D01*
X223511103Y-82911103D02*
X219520000Y-78920000D01*
X225969704Y-86429705D02*
X225140279Y-86429705D01*
X232935999Y-67584999D02*
X228671000Y-63320000D01*
X228671000Y-63320000D02*
X220100000Y-63320000D01*
X234064001Y-67584999D02*
X232935999Y-67584999D01*
X234675001Y-68195999D02*
X234064001Y-67584999D01*
X234064001Y-69935001D02*
X234675001Y-69324001D01*
X234675001Y-69324001D02*
X234675001Y-68195999D01*
X229894411Y-69935001D02*
X234064001Y-69935001D01*
X219189999Y-72490001D02*
X227339411Y-72490001D01*
X227339411Y-72490001D02*
X229894411Y-69935001D01*
X218790000Y-72890000D02*
X219189999Y-72490001D01*
X205800000Y-63825000D02*
X207700000Y-63825000D01*
X213621162Y-56274990D02*
X216715010Y-56274990D01*
X210532051Y-59364101D02*
X213621162Y-56274990D01*
X203270000Y-90200000D02*
X203200000Y-90200000D01*
X208080000Y-85390000D02*
X203270000Y-90200000D01*
X208080000Y-75070000D02*
X208080000Y-85390000D01*
X208380000Y-74770000D02*
X208080000Y-75070000D01*
X215800122Y-66291721D02*
X215800122Y-60949858D01*
X215800122Y-60949858D02*
X216874990Y-59874990D01*
X210490000Y-60383002D02*
X207940498Y-62932504D01*
X207940498Y-62932504D02*
X204967498Y-62932504D01*
X210490000Y-59390000D02*
X210490000Y-60383002D01*
X204967498Y-62932504D02*
X204100002Y-63800000D01*
X216050000Y-67260000D02*
X219004573Y-64305427D01*
X219004573Y-64305427D02*
X219004573Y-62594132D01*
X212170012Y-55549988D02*
X217624998Y-55549988D01*
X217624998Y-55549988D02*
X218350000Y-56274990D01*
X209730000Y-57990000D02*
X212170012Y-55549988D01*
X209010001Y-76679999D02*
X209410000Y-76280000D01*
X208610000Y-77080000D02*
X209010001Y-76679999D01*
X208610000Y-85800000D02*
X208610000Y-77080000D01*
X205400000Y-89010000D02*
X208610000Y-85800000D01*
X205400000Y-91500000D02*
X205400000Y-89010000D01*
X204228611Y-62300000D02*
X205999994Y-62300000D01*
X205999994Y-62300000D02*
X207300000Y-60999994D01*
D20*
X210215337Y-82040849D02*
X210125236Y-82101053D01*
X209981073Y-82245216D01*
X209867805Y-82414734D01*
X209789784Y-82603092D01*
X209750010Y-82803051D01*
X209750010Y-83006929D01*
X209789784Y-83206888D01*
X209867805Y-83395246D01*
X209981073Y-83564764D01*
X210125236Y-83708927D01*
X210294754Y-83822195D01*
X210483112Y-83900216D01*
X210672369Y-83937861D01*
X214253590Y-87519083D01*
X214253589Y-88503979D01*
X214192944Y-88547437D01*
X214192574Y-88547832D01*
X214192046Y-88547955D01*
X214078112Y-88599579D01*
X213731702Y-88799579D01*
X213630028Y-88872437D01*
X213629658Y-88872832D01*
X213629129Y-88872955D01*
X213515195Y-88924579D01*
X213168785Y-89124579D01*
X213067111Y-89197437D01*
X213065228Y-89199447D01*
X212981310Y-89236364D01*
X212956432Y-89329212D01*
X212915552Y-89394953D01*
X212872031Y-89510585D01*
X212750130Y-89490459D01*
X212672755Y-89492992D01*
X212579908Y-89468114D01*
X212505981Y-89522329D01*
X212503296Y-89522955D01*
X212454148Y-89545224D01*
X212505236Y-89421888D01*
X212545010Y-89221929D01*
X212545010Y-89018051D01*
X212505236Y-88818092D01*
X212427215Y-88629734D01*
X212313947Y-88460216D01*
X212169784Y-88316053D01*
X212000266Y-88202785D01*
X211811908Y-88124764D01*
X211611949Y-88084990D01*
X211408071Y-88084990D01*
X211208112Y-88124764D01*
X211019754Y-88202785D01*
X210850236Y-88316053D01*
X210706073Y-88460216D01*
X210592805Y-88629734D01*
X210514784Y-88818092D01*
X210475010Y-89018051D01*
X210475010Y-89221929D01*
X210514784Y-89421888D01*
X210561215Y-89533982D01*
X209160199Y-90935000D01*
X209098061Y-90935000D01*
X208898102Y-90974774D01*
X208709744Y-91052795D01*
X208540226Y-91166063D01*
X208396063Y-91310226D01*
X208282795Y-91479744D01*
X208204774Y-91668102D01*
X208165000Y-91868061D01*
X208165000Y-92071939D01*
X208204774Y-92271898D01*
X208282795Y-92460256D01*
X208396063Y-92629774D01*
X208540226Y-92773937D01*
X208709744Y-92887205D01*
X208898102Y-92965226D01*
X209098061Y-93005000D01*
X209301939Y-93005000D01*
X209501898Y-92965226D01*
X209690256Y-92887205D01*
X209859774Y-92773937D01*
X210003937Y-92629774D01*
X210117205Y-92460256D01*
X210195226Y-92271898D01*
X210235000Y-92071939D01*
X210235000Y-92009801D01*
X210510901Y-91733900D01*
X210525726Y-91808429D01*
X210628246Y-92055933D01*
X210777081Y-92278681D01*
X210966513Y-92468113D01*
X211189261Y-92616948D01*
X211436765Y-92719468D01*
X211699514Y-92771732D01*
X211701729Y-92771732D01*
X211548925Y-92859954D01*
X211521950Y-92872176D01*
X211324206Y-93013877D01*
X211157906Y-93191434D01*
X211029441Y-93398022D01*
X210943748Y-93625703D01*
X210904119Y-93865727D01*
X210912079Y-94108869D01*
X210967321Y-94345789D01*
X211042564Y-94511853D01*
X211453228Y-95223146D01*
X211559423Y-95371340D01*
X211736980Y-95537640D01*
X211943568Y-95666105D01*
X212171248Y-95751798D01*
X212411272Y-95791426D01*
X212654415Y-95783467D01*
X212891335Y-95728225D01*
X213112924Y-95627824D01*
X213136996Y-95610574D01*
X214150703Y-95025310D01*
X214252377Y-94952452D01*
X214337884Y-94861158D01*
X214356338Y-94831481D01*
X214391267Y-94830337D01*
X214513084Y-94801934D01*
X214627018Y-94750311D01*
X215926056Y-94000311D01*
X216027730Y-93927452D01*
X216113237Y-93836158D01*
X216116722Y-93830553D01*
X216123317Y-93830337D01*
X216245134Y-93801934D01*
X216359068Y-93750311D01*
X217658106Y-93000311D01*
X217759780Y-92927452D01*
X217845287Y-92836158D01*
X217863741Y-92806481D01*
X217898670Y-92805337D01*
X218020487Y-92776934D01*
X218134421Y-92725310D01*
X219148127Y-92140046D01*
X219175102Y-92127824D01*
X219372846Y-91986123D01*
X219539146Y-91808566D01*
X219667611Y-91601978D01*
X219753304Y-91374297D01*
X219760604Y-91330080D01*
X219804624Y-91334415D01*
X219804626Y-91334415D01*
X219844414Y-91338334D01*
X219884202Y-91334415D01*
X220716839Y-91334415D01*
X211800001Y-96482554D01*
X206074685Y-93177042D01*
X206645111Y-92189036D01*
X206661329Y-92153241D01*
X206680983Y-92119199D01*
X206732605Y-92005265D01*
X206783015Y-91856761D01*
X206811418Y-91734946D01*
X206831888Y-91579461D01*
X206835981Y-91454449D01*
X206825725Y-91297956D01*
X206805349Y-91174537D01*
X206764759Y-91023054D01*
X206720697Y-90905984D01*
X206651333Y-90765330D01*
X206585282Y-90659113D01*
X206489812Y-90534694D01*
X206404308Y-90443402D01*
X206286400Y-90339998D01*
X206184721Y-90267135D01*
X206160000Y-90252862D01*
X206160000Y-89324801D01*
X209121004Y-86363798D01*
X209150001Y-86340001D01*
X209244974Y-86224276D01*
X209315546Y-86092247D01*
X209359003Y-85948986D01*
X209370000Y-85837333D01*
X209370000Y-85837332D01*
X209373677Y-85800000D01*
X209370000Y-85762667D01*
X209370000Y-81730000D01*
X209436939Y-81730000D01*
X209636898Y-81690226D01*
X209797988Y-81623500D01*
X210215337Y-82040849D01*
G04 #@! TA.AperFunction,Conductor*
D21*
G36*
X210215337Y-82040849D02*
G01*
X210125236Y-82101053D01*
X209981073Y-82245216D01*
X209867805Y-82414734D01*
X209789784Y-82603092D01*
X209750010Y-82803051D01*
X209750010Y-83006929D01*
X209789784Y-83206888D01*
X209867805Y-83395246D01*
X209981073Y-83564764D01*
X210125236Y-83708927D01*
X210294754Y-83822195D01*
X210483112Y-83900216D01*
X210672369Y-83937861D01*
X214253590Y-87519083D01*
X214253589Y-88503979D01*
X214192944Y-88547437D01*
X214192574Y-88547832D01*
X214192046Y-88547955D01*
X214078112Y-88599579D01*
X213731702Y-88799579D01*
X213630028Y-88872437D01*
X213629658Y-88872832D01*
X213629129Y-88872955D01*
X213515195Y-88924579D01*
X213168785Y-89124579D01*
X213067111Y-89197437D01*
X213065228Y-89199447D01*
X212981310Y-89236364D01*
X212956432Y-89329212D01*
X212915552Y-89394953D01*
X212872031Y-89510585D01*
X212750130Y-89490459D01*
X212672755Y-89492992D01*
X212579908Y-89468114D01*
X212505981Y-89522329D01*
X212503296Y-89522955D01*
X212454148Y-89545224D01*
X212505236Y-89421888D01*
X212545010Y-89221929D01*
X212545010Y-89018051D01*
X212505236Y-88818092D01*
X212427215Y-88629734D01*
X212313947Y-88460216D01*
X212169784Y-88316053D01*
X212000266Y-88202785D01*
X211811908Y-88124764D01*
X211611949Y-88084990D01*
X211408071Y-88084990D01*
X211208112Y-88124764D01*
X211019754Y-88202785D01*
X210850236Y-88316053D01*
X210706073Y-88460216D01*
X210592805Y-88629734D01*
X210514784Y-88818092D01*
X210475010Y-89018051D01*
X210475010Y-89221929D01*
X210514784Y-89421888D01*
X210561215Y-89533982D01*
X209160199Y-90935000D01*
X209098061Y-90935000D01*
X208898102Y-90974774D01*
X208709744Y-91052795D01*
X208540226Y-91166063D01*
X208396063Y-91310226D01*
X208282795Y-91479744D01*
X208204774Y-91668102D01*
X208165000Y-91868061D01*
X208165000Y-92071939D01*
X208204774Y-92271898D01*
X208282795Y-92460256D01*
X208396063Y-92629774D01*
X208540226Y-92773937D01*
X208709744Y-92887205D01*
X208898102Y-92965226D01*
X209098061Y-93005000D01*
X209301939Y-93005000D01*
X209501898Y-92965226D01*
X209690256Y-92887205D01*
X209859774Y-92773937D01*
X210003937Y-92629774D01*
X210117205Y-92460256D01*
X210195226Y-92271898D01*
X210235000Y-92071939D01*
X210235000Y-92009801D01*
X210510901Y-91733900D01*
X210525726Y-91808429D01*
X210628246Y-92055933D01*
X210777081Y-92278681D01*
X210966513Y-92468113D01*
X211189261Y-92616948D01*
X211436765Y-92719468D01*
X211699514Y-92771732D01*
X211701729Y-92771732D01*
X211548925Y-92859954D01*
X211521950Y-92872176D01*
X211324206Y-93013877D01*
X211157906Y-93191434D01*
X211029441Y-93398022D01*
X210943748Y-93625703D01*
X210904119Y-93865727D01*
X210912079Y-94108869D01*
X210967321Y-94345789D01*
X211042564Y-94511853D01*
X211453228Y-95223146D01*
X211559423Y-95371340D01*
X211736980Y-95537640D01*
X211943568Y-95666105D01*
X212171248Y-95751798D01*
X212411272Y-95791426D01*
X212654415Y-95783467D01*
X212891335Y-95728225D01*
X213112924Y-95627824D01*
X213136996Y-95610574D01*
X214150703Y-95025310D01*
X214252377Y-94952452D01*
X214337884Y-94861158D01*
X214356338Y-94831481D01*
X214391267Y-94830337D01*
X214513084Y-94801934D01*
X214627018Y-94750311D01*
X215926056Y-94000311D01*
X216027730Y-93927452D01*
X216113237Y-93836158D01*
X216116722Y-93830553D01*
X216123317Y-93830337D01*
X216245134Y-93801934D01*
X216359068Y-93750311D01*
X217658106Y-93000311D01*
X217759780Y-92927452D01*
X217845287Y-92836158D01*
X217863741Y-92806481D01*
X217898670Y-92805337D01*
X218020487Y-92776934D01*
X218134421Y-92725310D01*
X219148127Y-92140046D01*
X219175102Y-92127824D01*
X219372846Y-91986123D01*
X219539146Y-91808566D01*
X219667611Y-91601978D01*
X219753304Y-91374297D01*
X219760604Y-91330080D01*
X219804624Y-91334415D01*
X219804626Y-91334415D01*
X219844414Y-91338334D01*
X219884202Y-91334415D01*
X220716839Y-91334415D01*
X211800001Y-96482554D01*
X206074685Y-93177042D01*
X206645111Y-92189036D01*
X206661329Y-92153241D01*
X206680983Y-92119199D01*
X206732605Y-92005265D01*
X206783015Y-91856761D01*
X206811418Y-91734946D01*
X206831888Y-91579461D01*
X206835981Y-91454449D01*
X206825725Y-91297956D01*
X206805349Y-91174537D01*
X206764759Y-91023054D01*
X206720697Y-90905984D01*
X206651333Y-90765330D01*
X206585282Y-90659113D01*
X206489812Y-90534694D01*
X206404308Y-90443402D01*
X206286400Y-90339998D01*
X206184721Y-90267135D01*
X206160000Y-90252862D01*
X206160000Y-89324801D01*
X209121004Y-86363798D01*
X209150001Y-86340001D01*
X209244974Y-86224276D01*
X209315546Y-86092247D01*
X209359003Y-85948986D01*
X209370000Y-85837333D01*
X209370000Y-85837332D01*
X209373677Y-85800000D01*
X209370000Y-85762667D01*
X209370000Y-81730000D01*
X209436939Y-81730000D01*
X209636898Y-81690226D01*
X209797988Y-81623500D01*
X210215337Y-82040849D01*
G37*
G04 #@! TD.AperFunction*
D20*
X215725000Y-81079802D02*
X215725000Y-81141939D01*
X215764774Y-81341898D01*
X215842795Y-81530256D01*
X215956063Y-81699774D01*
X216100226Y-81843937D01*
X216269744Y-81957205D01*
X216458102Y-82035226D01*
X216658061Y-82075000D01*
X216861939Y-82075000D01*
X217061898Y-82035226D01*
X217250256Y-81957205D01*
X217419774Y-81843937D01*
X217563937Y-81699774D01*
X217596395Y-81651196D01*
X218415000Y-82469802D01*
X218415000Y-82531939D01*
X218454774Y-82731898D01*
X218532795Y-82920256D01*
X218646063Y-83089774D01*
X218690001Y-83133712D01*
X218690000Y-84092677D01*
X218686324Y-84130000D01*
X218690000Y-84167322D01*
X218690000Y-84167332D01*
X218700997Y-84278985D01*
X218735195Y-84391721D01*
X218744454Y-84422246D01*
X218815026Y-84554276D01*
X218845756Y-84591720D01*
X218909999Y-84670001D01*
X218939003Y-84693804D01*
X219764044Y-85518846D01*
X219743372Y-85551381D01*
X220346780Y-86596515D01*
X220364101Y-86586515D01*
X220491101Y-86806485D01*
X220473780Y-86816485D01*
X220483780Y-86833806D01*
X220263810Y-86960806D01*
X220253810Y-86943485D01*
X219208115Y-87547217D01*
X219219774Y-87808408D01*
X219443119Y-87999255D01*
X219699405Y-88142862D01*
X219929006Y-88217523D01*
X219884379Y-88265171D01*
X219818326Y-88371393D01*
X219774265Y-88488460D01*
X219753889Y-88611873D01*
X219757982Y-88736890D01*
X219786385Y-88858706D01*
X219838008Y-88972641D01*
X220266271Y-89714415D01*
X220179928Y-89714415D01*
X217363222Y-86897709D01*
X218807141Y-86897709D01*
X218860747Y-87186555D01*
X219081115Y-87327247D01*
X220126810Y-86723515D01*
X219523401Y-85678381D01*
X219261890Y-85689482D01*
X219154172Y-85804485D01*
X218987832Y-86046635D01*
X218871929Y-86316583D01*
X218810917Y-86603955D01*
X218807141Y-86897709D01*
X217363222Y-86897709D01*
X211709612Y-81244099D01*
X211813937Y-81139774D01*
X211927205Y-80970256D01*
X212005226Y-80781898D01*
X212045000Y-80581939D01*
X212045000Y-80378061D01*
X212005226Y-80178102D01*
X211927205Y-79989744D01*
X211908804Y-79962205D01*
X212024482Y-79950812D01*
X212144180Y-79914502D01*
X212254494Y-79855537D01*
X212286285Y-79829447D01*
X212409872Y-79895506D01*
X212576384Y-79946017D01*
X212749550Y-79963072D01*
X213650450Y-79963072D01*
X213823616Y-79946017D01*
X213990128Y-79895506D01*
X214143586Y-79813481D01*
X214278094Y-79703094D01*
X214309736Y-79664537D01*
X215725000Y-81079802D01*
G04 #@! TA.AperFunction,Conductor*
D21*
G36*
X215725000Y-81079802D02*
G01*
X215725000Y-81141939D01*
X215764774Y-81341898D01*
X215842795Y-81530256D01*
X215956063Y-81699774D01*
X216100226Y-81843937D01*
X216269744Y-81957205D01*
X216458102Y-82035226D01*
X216658061Y-82075000D01*
X216861939Y-82075000D01*
X217061898Y-82035226D01*
X217250256Y-81957205D01*
X217419774Y-81843937D01*
X217563937Y-81699774D01*
X217596395Y-81651196D01*
X218415000Y-82469802D01*
X218415000Y-82531939D01*
X218454774Y-82731898D01*
X218532795Y-82920256D01*
X218646063Y-83089774D01*
X218690001Y-83133712D01*
X218690000Y-84092677D01*
X218686324Y-84130000D01*
X218690000Y-84167322D01*
X218690000Y-84167332D01*
X218700997Y-84278985D01*
X218735195Y-84391721D01*
X218744454Y-84422246D01*
X218815026Y-84554276D01*
X218845756Y-84591720D01*
X218909999Y-84670001D01*
X218939003Y-84693804D01*
X219764044Y-85518846D01*
X219743372Y-85551381D01*
X220346780Y-86596515D01*
X220364101Y-86586515D01*
X220491101Y-86806485D01*
X220473780Y-86816485D01*
X220483780Y-86833806D01*
X220263810Y-86960806D01*
X220253810Y-86943485D01*
X219208115Y-87547217D01*
X219219774Y-87808408D01*
X219443119Y-87999255D01*
X219699405Y-88142862D01*
X219929006Y-88217523D01*
X219884379Y-88265171D01*
X219818326Y-88371393D01*
X219774265Y-88488460D01*
X219753889Y-88611873D01*
X219757982Y-88736890D01*
X219786385Y-88858706D01*
X219838008Y-88972641D01*
X220266271Y-89714415D01*
X220179928Y-89714415D01*
X217363222Y-86897709D01*
X218807141Y-86897709D01*
X218860747Y-87186555D01*
X219081115Y-87327247D01*
X220126810Y-86723515D01*
X219523401Y-85678381D01*
X219261890Y-85689482D01*
X219154172Y-85804485D01*
X218987832Y-86046635D01*
X218871929Y-86316583D01*
X218810917Y-86603955D01*
X218807141Y-86897709D01*
X217363222Y-86897709D01*
X211709612Y-81244099D01*
X211813937Y-81139774D01*
X211927205Y-80970256D01*
X212005226Y-80781898D01*
X212045000Y-80581939D01*
X212045000Y-80378061D01*
X212005226Y-80178102D01*
X211927205Y-79989744D01*
X211908804Y-79962205D01*
X212024482Y-79950812D01*
X212144180Y-79914502D01*
X212254494Y-79855537D01*
X212286285Y-79829447D01*
X212409872Y-79895506D01*
X212576384Y-79946017D01*
X212749550Y-79963072D01*
X213650450Y-79963072D01*
X213823616Y-79946017D01*
X213990128Y-79895506D01*
X214143586Y-79813481D01*
X214278094Y-79703094D01*
X214309736Y-79664537D01*
X215725000Y-81079802D01*
G37*
G04 #@! TD.AperFunction*
D20*
X196384305Y-52506589D02*
X196272363Y-52776842D01*
X196215295Y-53063740D01*
X196215295Y-53356260D01*
X196272363Y-53643158D01*
X196384305Y-53913411D01*
X196546820Y-54156632D01*
X196753663Y-54363475D01*
X196996884Y-54525990D01*
X197267137Y-54637932D01*
X197554035Y-54695000D01*
X197846555Y-54695000D01*
X198133453Y-54637932D01*
X198403706Y-54525990D01*
X198646927Y-54363475D01*
X198853770Y-54156632D01*
X198865010Y-54139811D01*
X201540001Y-56814804D01*
X201540000Y-64294547D01*
X201469284Y-64172063D01*
X201367930Y-64030624D01*
X201240931Y-63911676D01*
X201111063Y-63830919D01*
X201106059Y-63678072D01*
X201066547Y-63508613D01*
X200994734Y-63350119D01*
X200669284Y-62786423D01*
X200567930Y-62644984D01*
X200440931Y-62526036D01*
X200311063Y-62445279D01*
X200306059Y-62292431D01*
X200266547Y-62122972D01*
X200194734Y-61964478D01*
X199869284Y-61400782D01*
X199767930Y-61259343D01*
X199640931Y-61140395D01*
X199511063Y-61059638D01*
X199506059Y-60906790D01*
X199466547Y-60737331D01*
X199394734Y-60578837D01*
X199069284Y-60015141D01*
X198967930Y-59873702D01*
X198840931Y-59754754D01*
X198711063Y-59673997D01*
X198706059Y-59521150D01*
X198666547Y-59351691D01*
X198594734Y-59193197D01*
X198269284Y-58629501D01*
X198167930Y-58488062D01*
X198040931Y-58369114D01*
X197910899Y-58288255D01*
X197905891Y-58135287D01*
X197866359Y-57965742D01*
X197794510Y-57807168D01*
X197469509Y-57244249D01*
X197368104Y-57102738D01*
X197241041Y-56983730D01*
X197093201Y-56891797D01*
X196930267Y-56830473D01*
X196758500Y-56802114D01*
X196584501Y-56807811D01*
X196414956Y-56847343D01*
X196256382Y-56919192D01*
X195476957Y-57369193D01*
X195335446Y-57470598D01*
X195216438Y-57597661D01*
X195177408Y-57660427D01*
X195063190Y-57664166D01*
X194941374Y-57692569D01*
X194827439Y-57744192D01*
X193615003Y-58444192D01*
X193513329Y-58517051D01*
X193427823Y-58608345D01*
X193361770Y-58714567D01*
X193317709Y-58831634D01*
X193297333Y-58955047D01*
X193301426Y-59080064D01*
X193329829Y-59201880D01*
X193381452Y-59315815D01*
X193740000Y-59936839D01*
X193740001Y-62862668D01*
X193736324Y-62900000D01*
X193740001Y-62937333D01*
X193750998Y-63048986D01*
X193755856Y-63065000D01*
X193794454Y-63192246D01*
X193865026Y-63324276D01*
X193936201Y-63411002D01*
X193960000Y-63440001D01*
X193988998Y-63463799D01*
X194640000Y-64114802D01*
X194640001Y-79442667D01*
X194636324Y-79480000D01*
X194650998Y-79628985D01*
X194694454Y-79772246D01*
X194765026Y-79904276D01*
X194815047Y-79965226D01*
X194860000Y-80020001D01*
X194888998Y-80043799D01*
X196516201Y-81671003D01*
X196539999Y-81700001D01*
X196655724Y-81794974D01*
X196787753Y-81865546D01*
X196931014Y-81909003D01*
X197042667Y-81920000D01*
X197042675Y-81920000D01*
X197080000Y-81923676D01*
X197117325Y-81920000D01*
X200762678Y-81920000D01*
X200800000Y-81923676D01*
X200837322Y-81920000D01*
X200837333Y-81920000D01*
X200948986Y-81909003D01*
X201092247Y-81865546D01*
X201224276Y-81794974D01*
X201340001Y-81700001D01*
X201363804Y-81670997D01*
X204611004Y-78423798D01*
X204640001Y-78400001D01*
X204731868Y-78288061D01*
X204789851Y-78270472D01*
X204943387Y-78188405D01*
X205077962Y-78077962D01*
X205188405Y-77943387D01*
X205270472Y-77789851D01*
X205321008Y-77623255D01*
X205338072Y-77450001D01*
X205338072Y-76936729D01*
X206791003Y-75483799D01*
X206820001Y-75460001D01*
X206868410Y-75401015D01*
X206914974Y-75344277D01*
X206985546Y-75212247D01*
X206990997Y-75194276D01*
X207029003Y-75068986D01*
X207040000Y-74957333D01*
X207040000Y-74957324D01*
X207043676Y-74920001D01*
X207040000Y-74882678D01*
X207040000Y-72100000D01*
X207661928Y-72100000D01*
X207674188Y-72224482D01*
X207710498Y-72344180D01*
X207769463Y-72454494D01*
X207848815Y-72551185D01*
X207945506Y-72630537D01*
X208055820Y-72689502D01*
X208175518Y-72725812D01*
X208300000Y-72738072D01*
X208864250Y-72735000D01*
X209023000Y-72576250D01*
X209023000Y-71727000D01*
X207823750Y-71727000D01*
X207665000Y-71885750D01*
X207661928Y-72100000D01*
X207040000Y-72100000D01*
X207040000Y-71100000D01*
X207661928Y-71100000D01*
X207665000Y-71314250D01*
X207823750Y-71473000D01*
X209023000Y-71473000D01*
X209023000Y-70623750D01*
X208864250Y-70465000D01*
X208300000Y-70461928D01*
X208175518Y-70474188D01*
X208055820Y-70510498D01*
X207945506Y-70569463D01*
X207848815Y-70648815D01*
X207769463Y-70745506D01*
X207710498Y-70855820D01*
X207674188Y-70975518D01*
X207661928Y-71100000D01*
X207040000Y-71100000D01*
X207040000Y-67911797D01*
X211940001Y-63011797D01*
X211940000Y-68662677D01*
X211936324Y-68700000D01*
X211940000Y-68737322D01*
X211940000Y-68737332D01*
X211950997Y-68848985D01*
X211980007Y-68944620D01*
X211994454Y-68992246D01*
X212065026Y-69124276D01*
X212090241Y-69155000D01*
X212159999Y-69240001D01*
X212189002Y-69263803D01*
X212776200Y-69851002D01*
X212799999Y-69880001D01*
X212915724Y-69974974D01*
X213047753Y-70045546D01*
X213191014Y-70089003D01*
X213302667Y-70100000D01*
X213302675Y-70100000D01*
X213340000Y-70103676D01*
X213377325Y-70100000D01*
X214685199Y-70100000D01*
X215047127Y-70461928D01*
X213600000Y-70461928D01*
X213475518Y-70474188D01*
X213355820Y-70510498D01*
X213245506Y-70569463D01*
X213148815Y-70648815D01*
X213069463Y-70745506D01*
X213010498Y-70855820D01*
X212974188Y-70975518D01*
X212961928Y-71100000D01*
X212961928Y-71382954D01*
X212921939Y-71375000D01*
X212718061Y-71375000D01*
X212518102Y-71414774D01*
X212329744Y-71492795D01*
X212160226Y-71606063D01*
X212016063Y-71750226D01*
X211960000Y-71834130D01*
X211960000Y-70487333D01*
X211963677Y-70450000D01*
X211949003Y-70301014D01*
X211905546Y-70157753D01*
X211834974Y-70025724D01*
X211763799Y-69938997D01*
X211740001Y-69909999D01*
X211711003Y-69886201D01*
X210638072Y-68813271D01*
X210638072Y-67900000D01*
X210625812Y-67775518D01*
X210589502Y-67655820D01*
X210530537Y-67545506D01*
X210451185Y-67448815D01*
X210354494Y-67369463D01*
X210244180Y-67310498D01*
X210124482Y-67274188D01*
X210000000Y-67261928D01*
X208300000Y-67261928D01*
X208175518Y-67274188D01*
X208055820Y-67310498D01*
X207945506Y-67369463D01*
X207848815Y-67448815D01*
X207769463Y-67545506D01*
X207710498Y-67655820D01*
X207674188Y-67775518D01*
X207661928Y-67900000D01*
X207661928Y-68900000D01*
X207674188Y-69024482D01*
X207710498Y-69144180D01*
X207769463Y-69254494D01*
X207848815Y-69351185D01*
X207945506Y-69430537D01*
X208055820Y-69489502D01*
X208175518Y-69525812D01*
X208300000Y-69538072D01*
X209213271Y-69538072D01*
X210160230Y-70485032D01*
X210124482Y-70474188D01*
X210000000Y-70461928D01*
X209435750Y-70465000D01*
X209277000Y-70623750D01*
X209277000Y-71473000D01*
X209297000Y-71473000D01*
X209297000Y-71727000D01*
X209277000Y-71727000D01*
X209277000Y-72576250D01*
X209435750Y-72735000D01*
X210000000Y-72738072D01*
X210124482Y-72725812D01*
X210244180Y-72689502D01*
X210354494Y-72630537D01*
X210440000Y-72560364D01*
X210440000Y-72742837D01*
X210375518Y-72749188D01*
X210255820Y-72785498D01*
X210145506Y-72844463D01*
X210048815Y-72923815D01*
X209969463Y-73020506D01*
X209910498Y-73130820D01*
X209874188Y-73250518D01*
X209861928Y-73375000D01*
X209861928Y-74525000D01*
X209874188Y-74649482D01*
X209904680Y-74750000D01*
X209874188Y-74850518D01*
X209861928Y-74975000D01*
X209861928Y-75346919D01*
X209711898Y-75284774D01*
X209511939Y-75245000D01*
X209308061Y-75245000D01*
X209303117Y-75245983D01*
X209375226Y-75071898D01*
X209415000Y-74871939D01*
X209415000Y-74668061D01*
X209375226Y-74468102D01*
X209297205Y-74279744D01*
X209183937Y-74110226D01*
X209039774Y-73966063D01*
X208870256Y-73852795D01*
X208681898Y-73774774D01*
X208481939Y-73735000D01*
X208278061Y-73735000D01*
X208078102Y-73774774D01*
X207889744Y-73852795D01*
X207720226Y-73966063D01*
X207576063Y-74110226D01*
X207462795Y-74279744D01*
X207384774Y-74468102D01*
X207345000Y-74668061D01*
X207345000Y-74871939D01*
X207345350Y-74873699D01*
X207330997Y-74921015D01*
X207320000Y-75032668D01*
X207320000Y-75032678D01*
X207316324Y-75070000D01*
X207320000Y-75107322D01*
X207320001Y-85075197D01*
X203580070Y-88815129D01*
X203464946Y-88788286D01*
X203309461Y-88767816D01*
X203184449Y-88763723D01*
X203027956Y-88773979D01*
X202904537Y-88794355D01*
X202753054Y-88834945D01*
X202635984Y-88879007D01*
X202495330Y-88948371D01*
X202434217Y-88986374D01*
X202436572Y-88914449D01*
X202426316Y-88757956D01*
X202405940Y-88634537D01*
X202365350Y-88483054D01*
X202321288Y-88365984D01*
X202251924Y-88225330D01*
X202185873Y-88119113D01*
X202090403Y-87994694D01*
X202004899Y-87903402D01*
X201886991Y-87799998D01*
X201785312Y-87727135D01*
X201649494Y-87648721D01*
X201535560Y-87597099D01*
X201530000Y-87595212D01*
X201530000Y-85759787D01*
X201533919Y-85719999D01*
X201528965Y-85669705D01*
X201518280Y-85561212D01*
X201471963Y-85408527D01*
X201396749Y-85267811D01*
X201295528Y-85144472D01*
X201264618Y-85119105D01*
X201052871Y-84907359D01*
X201015226Y-84718102D01*
X200937205Y-84529744D01*
X200823937Y-84360226D01*
X200679774Y-84216063D01*
X200510256Y-84102795D01*
X200321898Y-84024774D01*
X200121939Y-83985000D01*
X199918061Y-83985000D01*
X199718102Y-84024774D01*
X199529744Y-84102795D01*
X199360226Y-84216063D01*
X199216063Y-84360226D01*
X199102795Y-84529744D01*
X199024774Y-84718102D01*
X198985000Y-84918061D01*
X198985000Y-85121939D01*
X199024774Y-85321898D01*
X199102795Y-85510256D01*
X199216063Y-85679774D01*
X199360226Y-85823937D01*
X199529744Y-85937205D01*
X199718102Y-86015226D01*
X199907359Y-86052871D01*
X199910001Y-86055514D01*
X199910001Y-86749848D01*
X199890699Y-86724694D01*
X199805195Y-86633402D01*
X199687287Y-86529998D01*
X199585608Y-86457135D01*
X199449790Y-86378721D01*
X199335856Y-86327099D01*
X199187352Y-86276689D01*
X199065537Y-86248286D01*
X198910052Y-86227816D01*
X198785040Y-86223723D01*
X198628547Y-86233979D01*
X198505128Y-86254355D01*
X198353645Y-86294945D01*
X198236575Y-86339007D01*
X198095921Y-86408371D01*
X198034808Y-86446374D01*
X198037163Y-86374449D01*
X198026907Y-86217956D01*
X198006531Y-86094537D01*
X197965941Y-85943054D01*
X197921879Y-85825984D01*
X197852515Y-85685330D01*
X197786464Y-85579113D01*
X197690994Y-85454694D01*
X197605490Y-85363402D01*
X197487582Y-85259998D01*
X197385903Y-85187135D01*
X197250085Y-85108721D01*
X197136151Y-85057099D01*
X196987647Y-85006689D01*
X196865832Y-84978286D01*
X196710347Y-84957816D01*
X196585335Y-84953723D01*
X196428842Y-84963979D01*
X196305423Y-84984355D01*
X196153940Y-85024945D01*
X196036870Y-85069007D01*
X195896216Y-85138371D01*
X195789999Y-85204422D01*
X195665580Y-85299892D01*
X195574288Y-85385396D01*
X195470884Y-85503304D01*
X195398021Y-85604983D01*
X195378370Y-85639020D01*
X195355479Y-85670964D01*
X194785053Y-86658970D01*
X188865436Y-83241278D01*
X188865436Y-76322011D01*
X188925744Y-76434839D01*
X189123813Y-76676187D01*
X189365161Y-76874256D01*
X189640512Y-77021434D01*
X189939286Y-77112066D01*
X190172136Y-77135000D01*
X191927864Y-77135000D01*
X192160714Y-77112066D01*
X192459488Y-77021434D01*
X192734839Y-76874256D01*
X192976187Y-76676187D01*
X193174256Y-76434839D01*
X193321434Y-76159488D01*
X193412066Y-75860714D01*
X193442669Y-75550000D01*
X193412066Y-75239286D01*
X193321434Y-74940512D01*
X193174256Y-74665161D01*
X192976187Y-74423813D01*
X192734839Y-74225744D01*
X192459488Y-74078566D01*
X192160714Y-73987934D01*
X191927864Y-73965000D01*
X190172136Y-73965000D01*
X189939286Y-73987934D01*
X189640512Y-74078566D01*
X189365161Y-74225744D01*
X189123813Y-74423813D01*
X188925744Y-74665161D01*
X188865436Y-74777989D01*
X188865436Y-72033288D01*
X189865000Y-72033288D01*
X189865000Y-72266712D01*
X189910539Y-72495652D01*
X189999866Y-72711308D01*
X190129550Y-72905394D01*
X190294606Y-73070450D01*
X190488692Y-73200134D01*
X190704348Y-73289461D01*
X190933288Y-73335000D01*
X191166712Y-73335000D01*
X191395652Y-73289461D01*
X191611308Y-73200134D01*
X191805394Y-73070450D01*
X191970450Y-72905394D01*
X192100134Y-72711308D01*
X192189461Y-72495652D01*
X192235000Y-72266712D01*
X192235000Y-72033288D01*
X192189461Y-71804348D01*
X192100134Y-71588692D01*
X191970450Y-71394606D01*
X191805394Y-71229550D01*
X191611308Y-71099866D01*
X191395652Y-71010539D01*
X191166712Y-70965000D01*
X190933288Y-70965000D01*
X190704348Y-71010539D01*
X190488692Y-71099866D01*
X190294606Y-71229550D01*
X190129550Y-71394606D01*
X189999866Y-71588692D01*
X189910539Y-71804348D01*
X189865000Y-72033288D01*
X188865436Y-72033288D01*
X188865436Y-67433288D01*
X189865000Y-67433288D01*
X189865000Y-67666712D01*
X189910539Y-67895652D01*
X189999866Y-68111308D01*
X190129550Y-68305394D01*
X190294606Y-68470450D01*
X190488692Y-68600134D01*
X190704348Y-68689461D01*
X190933288Y-68735000D01*
X191166712Y-68735000D01*
X191395652Y-68689461D01*
X191611308Y-68600134D01*
X191805394Y-68470450D01*
X191970450Y-68305394D01*
X192100134Y-68111308D01*
X192189461Y-67895652D01*
X192235000Y-67666712D01*
X192235000Y-67433288D01*
X192189461Y-67204348D01*
X192100134Y-66988692D01*
X191970450Y-66794606D01*
X191805394Y-66629550D01*
X191611308Y-66499866D01*
X191395652Y-66410539D01*
X191166712Y-66365000D01*
X190933288Y-66365000D01*
X190704348Y-66410539D01*
X190488692Y-66499866D01*
X190294606Y-66629550D01*
X190129550Y-66794606D01*
X189999866Y-66988692D01*
X189910539Y-67204348D01*
X189865000Y-67433288D01*
X188865436Y-67433288D01*
X188865436Y-64922011D01*
X188925744Y-65034839D01*
X189123813Y-65276187D01*
X189365161Y-65474256D01*
X189640512Y-65621434D01*
X189939286Y-65712066D01*
X190172136Y-65735000D01*
X191927864Y-65735000D01*
X192160714Y-65712066D01*
X192459488Y-65621434D01*
X192734839Y-65474256D01*
X192976187Y-65276187D01*
X193174256Y-65034839D01*
X193321434Y-64759488D01*
X193412066Y-64460714D01*
X193442669Y-64150000D01*
X193412066Y-63839286D01*
X193321434Y-63540512D01*
X193174256Y-63265161D01*
X192976187Y-63023813D01*
X192734839Y-62825744D01*
X192459488Y-62678566D01*
X192160714Y-62587934D01*
X191927864Y-62565000D01*
X190172136Y-62565000D01*
X189939286Y-62587934D01*
X189640512Y-62678566D01*
X189365161Y-62825744D01*
X189123813Y-63023813D01*
X188925744Y-63265161D01*
X188865436Y-63377989D01*
X188865436Y-56758722D01*
X196481000Y-52361874D01*
X196384305Y-52506589D01*
G04 #@! TA.AperFunction,Conductor*
D21*
G36*
X196384305Y-52506589D02*
G01*
X196272363Y-52776842D01*
X196215295Y-53063740D01*
X196215295Y-53356260D01*
X196272363Y-53643158D01*
X196384305Y-53913411D01*
X196546820Y-54156632D01*
X196753663Y-54363475D01*
X196996884Y-54525990D01*
X197267137Y-54637932D01*
X197554035Y-54695000D01*
X197846555Y-54695000D01*
X198133453Y-54637932D01*
X198403706Y-54525990D01*
X198646927Y-54363475D01*
X198853770Y-54156632D01*
X198865010Y-54139811D01*
X201540001Y-56814804D01*
X201540000Y-64294547D01*
X201469284Y-64172063D01*
X201367930Y-64030624D01*
X201240931Y-63911676D01*
X201111063Y-63830919D01*
X201106059Y-63678072D01*
X201066547Y-63508613D01*
X200994734Y-63350119D01*
X200669284Y-62786423D01*
X200567930Y-62644984D01*
X200440931Y-62526036D01*
X200311063Y-62445279D01*
X200306059Y-62292431D01*
X200266547Y-62122972D01*
X200194734Y-61964478D01*
X199869284Y-61400782D01*
X199767930Y-61259343D01*
X199640931Y-61140395D01*
X199511063Y-61059638D01*
X199506059Y-60906790D01*
X199466547Y-60737331D01*
X199394734Y-60578837D01*
X199069284Y-60015141D01*
X198967930Y-59873702D01*
X198840931Y-59754754D01*
X198711063Y-59673997D01*
X198706059Y-59521150D01*
X198666547Y-59351691D01*
X198594734Y-59193197D01*
X198269284Y-58629501D01*
X198167930Y-58488062D01*
X198040931Y-58369114D01*
X197910899Y-58288255D01*
X197905891Y-58135287D01*
X197866359Y-57965742D01*
X197794510Y-57807168D01*
X197469509Y-57244249D01*
X197368104Y-57102738D01*
X197241041Y-56983730D01*
X197093201Y-56891797D01*
X196930267Y-56830473D01*
X196758500Y-56802114D01*
X196584501Y-56807811D01*
X196414956Y-56847343D01*
X196256382Y-56919192D01*
X195476957Y-57369193D01*
X195335446Y-57470598D01*
X195216438Y-57597661D01*
X195177408Y-57660427D01*
X195063190Y-57664166D01*
X194941374Y-57692569D01*
X194827439Y-57744192D01*
X193615003Y-58444192D01*
X193513329Y-58517051D01*
X193427823Y-58608345D01*
X193361770Y-58714567D01*
X193317709Y-58831634D01*
X193297333Y-58955047D01*
X193301426Y-59080064D01*
X193329829Y-59201880D01*
X193381452Y-59315815D01*
X193740000Y-59936839D01*
X193740001Y-62862668D01*
X193736324Y-62900000D01*
X193740001Y-62937333D01*
X193750998Y-63048986D01*
X193755856Y-63065000D01*
X193794454Y-63192246D01*
X193865026Y-63324276D01*
X193936201Y-63411002D01*
X193960000Y-63440001D01*
X193988998Y-63463799D01*
X194640000Y-64114802D01*
X194640001Y-79442667D01*
X194636324Y-79480000D01*
X194650998Y-79628985D01*
X194694454Y-79772246D01*
X194765026Y-79904276D01*
X194815047Y-79965226D01*
X194860000Y-80020001D01*
X194888998Y-80043799D01*
X196516201Y-81671003D01*
X196539999Y-81700001D01*
X196655724Y-81794974D01*
X196787753Y-81865546D01*
X196931014Y-81909003D01*
X197042667Y-81920000D01*
X197042675Y-81920000D01*
X197080000Y-81923676D01*
X197117325Y-81920000D01*
X200762678Y-81920000D01*
X200800000Y-81923676D01*
X200837322Y-81920000D01*
X200837333Y-81920000D01*
X200948986Y-81909003D01*
X201092247Y-81865546D01*
X201224276Y-81794974D01*
X201340001Y-81700001D01*
X201363804Y-81670997D01*
X204611004Y-78423798D01*
X204640001Y-78400001D01*
X204731868Y-78288061D01*
X204789851Y-78270472D01*
X204943387Y-78188405D01*
X205077962Y-78077962D01*
X205188405Y-77943387D01*
X205270472Y-77789851D01*
X205321008Y-77623255D01*
X205338072Y-77450001D01*
X205338072Y-76936729D01*
X206791003Y-75483799D01*
X206820001Y-75460001D01*
X206868410Y-75401015D01*
X206914974Y-75344277D01*
X206985546Y-75212247D01*
X206990997Y-75194276D01*
X207029003Y-75068986D01*
X207040000Y-74957333D01*
X207040000Y-74957324D01*
X207043676Y-74920001D01*
X207040000Y-74882678D01*
X207040000Y-72100000D01*
X207661928Y-72100000D01*
X207674188Y-72224482D01*
X207710498Y-72344180D01*
X207769463Y-72454494D01*
X207848815Y-72551185D01*
X207945506Y-72630537D01*
X208055820Y-72689502D01*
X208175518Y-72725812D01*
X208300000Y-72738072D01*
X208864250Y-72735000D01*
X209023000Y-72576250D01*
X209023000Y-71727000D01*
X207823750Y-71727000D01*
X207665000Y-71885750D01*
X207661928Y-72100000D01*
X207040000Y-72100000D01*
X207040000Y-71100000D01*
X207661928Y-71100000D01*
X207665000Y-71314250D01*
X207823750Y-71473000D01*
X209023000Y-71473000D01*
X209023000Y-70623750D01*
X208864250Y-70465000D01*
X208300000Y-70461928D01*
X208175518Y-70474188D01*
X208055820Y-70510498D01*
X207945506Y-70569463D01*
X207848815Y-70648815D01*
X207769463Y-70745506D01*
X207710498Y-70855820D01*
X207674188Y-70975518D01*
X207661928Y-71100000D01*
X207040000Y-71100000D01*
X207040000Y-67911797D01*
X211940001Y-63011797D01*
X211940000Y-68662677D01*
X211936324Y-68700000D01*
X211940000Y-68737322D01*
X211940000Y-68737332D01*
X211950997Y-68848985D01*
X211980007Y-68944620D01*
X211994454Y-68992246D01*
X212065026Y-69124276D01*
X212090241Y-69155000D01*
X212159999Y-69240001D01*
X212189002Y-69263803D01*
X212776200Y-69851002D01*
X212799999Y-69880001D01*
X212915724Y-69974974D01*
X213047753Y-70045546D01*
X213191014Y-70089003D01*
X213302667Y-70100000D01*
X213302675Y-70100000D01*
X213340000Y-70103676D01*
X213377325Y-70100000D01*
X214685199Y-70100000D01*
X215047127Y-70461928D01*
X213600000Y-70461928D01*
X213475518Y-70474188D01*
X213355820Y-70510498D01*
X213245506Y-70569463D01*
X213148815Y-70648815D01*
X213069463Y-70745506D01*
X213010498Y-70855820D01*
X212974188Y-70975518D01*
X212961928Y-71100000D01*
X212961928Y-71382954D01*
X212921939Y-71375000D01*
X212718061Y-71375000D01*
X212518102Y-71414774D01*
X212329744Y-71492795D01*
X212160226Y-71606063D01*
X212016063Y-71750226D01*
X211960000Y-71834130D01*
X211960000Y-70487333D01*
X211963677Y-70450000D01*
X211949003Y-70301014D01*
X211905546Y-70157753D01*
X211834974Y-70025724D01*
X211763799Y-69938997D01*
X211740001Y-69909999D01*
X211711003Y-69886201D01*
X210638072Y-68813271D01*
X210638072Y-67900000D01*
X210625812Y-67775518D01*
X210589502Y-67655820D01*
X210530537Y-67545506D01*
X210451185Y-67448815D01*
X210354494Y-67369463D01*
X210244180Y-67310498D01*
X210124482Y-67274188D01*
X210000000Y-67261928D01*
X208300000Y-67261928D01*
X208175518Y-67274188D01*
X208055820Y-67310498D01*
X207945506Y-67369463D01*
X207848815Y-67448815D01*
X207769463Y-67545506D01*
X207710498Y-67655820D01*
X207674188Y-67775518D01*
X207661928Y-67900000D01*
X207661928Y-68900000D01*
X207674188Y-69024482D01*
X207710498Y-69144180D01*
X207769463Y-69254494D01*
X207848815Y-69351185D01*
X207945506Y-69430537D01*
X208055820Y-69489502D01*
X208175518Y-69525812D01*
X208300000Y-69538072D01*
X209213271Y-69538072D01*
X210160230Y-70485032D01*
X210124482Y-70474188D01*
X210000000Y-70461928D01*
X209435750Y-70465000D01*
X209277000Y-70623750D01*
X209277000Y-71473000D01*
X209297000Y-71473000D01*
X209297000Y-71727000D01*
X209277000Y-71727000D01*
X209277000Y-72576250D01*
X209435750Y-72735000D01*
X210000000Y-72738072D01*
X210124482Y-72725812D01*
X210244180Y-72689502D01*
X210354494Y-72630537D01*
X210440000Y-72560364D01*
X210440000Y-72742837D01*
X210375518Y-72749188D01*
X210255820Y-72785498D01*
X210145506Y-72844463D01*
X210048815Y-72923815D01*
X209969463Y-73020506D01*
X209910498Y-73130820D01*
X209874188Y-73250518D01*
X209861928Y-73375000D01*
X209861928Y-74525000D01*
X209874188Y-74649482D01*
X209904680Y-74750000D01*
X209874188Y-74850518D01*
X209861928Y-74975000D01*
X209861928Y-75346919D01*
X209711898Y-75284774D01*
X209511939Y-75245000D01*
X209308061Y-75245000D01*
X209303117Y-75245983D01*
X209375226Y-75071898D01*
X209415000Y-74871939D01*
X209415000Y-74668061D01*
X209375226Y-74468102D01*
X209297205Y-74279744D01*
X209183937Y-74110226D01*
X209039774Y-73966063D01*
X208870256Y-73852795D01*
X208681898Y-73774774D01*
X208481939Y-73735000D01*
X208278061Y-73735000D01*
X208078102Y-73774774D01*
X207889744Y-73852795D01*
X207720226Y-73966063D01*
X207576063Y-74110226D01*
X207462795Y-74279744D01*
X207384774Y-74468102D01*
X207345000Y-74668061D01*
X207345000Y-74871939D01*
X207345350Y-74873699D01*
X207330997Y-74921015D01*
X207320000Y-75032668D01*
X207320000Y-75032678D01*
X207316324Y-75070000D01*
X207320000Y-75107322D01*
X207320001Y-85075197D01*
X203580070Y-88815129D01*
X203464946Y-88788286D01*
X203309461Y-88767816D01*
X203184449Y-88763723D01*
X203027956Y-88773979D01*
X202904537Y-88794355D01*
X202753054Y-88834945D01*
X202635984Y-88879007D01*
X202495330Y-88948371D01*
X202434217Y-88986374D01*
X202436572Y-88914449D01*
X202426316Y-88757956D01*
X202405940Y-88634537D01*
X202365350Y-88483054D01*
X202321288Y-88365984D01*
X202251924Y-88225330D01*
X202185873Y-88119113D01*
X202090403Y-87994694D01*
X202004899Y-87903402D01*
X201886991Y-87799998D01*
X201785312Y-87727135D01*
X201649494Y-87648721D01*
X201535560Y-87597099D01*
X201530000Y-87595212D01*
X201530000Y-85759787D01*
X201533919Y-85719999D01*
X201528965Y-85669705D01*
X201518280Y-85561212D01*
X201471963Y-85408527D01*
X201396749Y-85267811D01*
X201295528Y-85144472D01*
X201264618Y-85119105D01*
X201052871Y-84907359D01*
X201015226Y-84718102D01*
X200937205Y-84529744D01*
X200823937Y-84360226D01*
X200679774Y-84216063D01*
X200510256Y-84102795D01*
X200321898Y-84024774D01*
X200121939Y-83985000D01*
X199918061Y-83985000D01*
X199718102Y-84024774D01*
X199529744Y-84102795D01*
X199360226Y-84216063D01*
X199216063Y-84360226D01*
X199102795Y-84529744D01*
X199024774Y-84718102D01*
X198985000Y-84918061D01*
X198985000Y-85121939D01*
X199024774Y-85321898D01*
X199102795Y-85510256D01*
X199216063Y-85679774D01*
X199360226Y-85823937D01*
X199529744Y-85937205D01*
X199718102Y-86015226D01*
X199907359Y-86052871D01*
X199910001Y-86055514D01*
X199910001Y-86749848D01*
X199890699Y-86724694D01*
X199805195Y-86633402D01*
X199687287Y-86529998D01*
X199585608Y-86457135D01*
X199449790Y-86378721D01*
X199335856Y-86327099D01*
X199187352Y-86276689D01*
X199065537Y-86248286D01*
X198910052Y-86227816D01*
X198785040Y-86223723D01*
X198628547Y-86233979D01*
X198505128Y-86254355D01*
X198353645Y-86294945D01*
X198236575Y-86339007D01*
X198095921Y-86408371D01*
X198034808Y-86446374D01*
X198037163Y-86374449D01*
X198026907Y-86217956D01*
X198006531Y-86094537D01*
X197965941Y-85943054D01*
X197921879Y-85825984D01*
X197852515Y-85685330D01*
X197786464Y-85579113D01*
X197690994Y-85454694D01*
X197605490Y-85363402D01*
X197487582Y-85259998D01*
X197385903Y-85187135D01*
X197250085Y-85108721D01*
X197136151Y-85057099D01*
X196987647Y-85006689D01*
X196865832Y-84978286D01*
X196710347Y-84957816D01*
X196585335Y-84953723D01*
X196428842Y-84963979D01*
X196305423Y-84984355D01*
X196153940Y-85024945D01*
X196036870Y-85069007D01*
X195896216Y-85138371D01*
X195789999Y-85204422D01*
X195665580Y-85299892D01*
X195574288Y-85385396D01*
X195470884Y-85503304D01*
X195398021Y-85604983D01*
X195378370Y-85639020D01*
X195355479Y-85670964D01*
X194785053Y-86658970D01*
X188865436Y-83241278D01*
X188865436Y-76322011D01*
X188925744Y-76434839D01*
X189123813Y-76676187D01*
X189365161Y-76874256D01*
X189640512Y-77021434D01*
X189939286Y-77112066D01*
X190172136Y-77135000D01*
X191927864Y-77135000D01*
X192160714Y-77112066D01*
X192459488Y-77021434D01*
X192734839Y-76874256D01*
X192976187Y-76676187D01*
X193174256Y-76434839D01*
X193321434Y-76159488D01*
X193412066Y-75860714D01*
X193442669Y-75550000D01*
X193412066Y-75239286D01*
X193321434Y-74940512D01*
X193174256Y-74665161D01*
X192976187Y-74423813D01*
X192734839Y-74225744D01*
X192459488Y-74078566D01*
X192160714Y-73987934D01*
X191927864Y-73965000D01*
X190172136Y-73965000D01*
X189939286Y-73987934D01*
X189640512Y-74078566D01*
X189365161Y-74225744D01*
X189123813Y-74423813D01*
X188925744Y-74665161D01*
X188865436Y-74777989D01*
X188865436Y-72033288D01*
X189865000Y-72033288D01*
X189865000Y-72266712D01*
X189910539Y-72495652D01*
X189999866Y-72711308D01*
X190129550Y-72905394D01*
X190294606Y-73070450D01*
X190488692Y-73200134D01*
X190704348Y-73289461D01*
X190933288Y-73335000D01*
X191166712Y-73335000D01*
X191395652Y-73289461D01*
X191611308Y-73200134D01*
X191805394Y-73070450D01*
X191970450Y-72905394D01*
X192100134Y-72711308D01*
X192189461Y-72495652D01*
X192235000Y-72266712D01*
X192235000Y-72033288D01*
X192189461Y-71804348D01*
X192100134Y-71588692D01*
X191970450Y-71394606D01*
X191805394Y-71229550D01*
X191611308Y-71099866D01*
X191395652Y-71010539D01*
X191166712Y-70965000D01*
X190933288Y-70965000D01*
X190704348Y-71010539D01*
X190488692Y-71099866D01*
X190294606Y-71229550D01*
X190129550Y-71394606D01*
X189999866Y-71588692D01*
X189910539Y-71804348D01*
X189865000Y-72033288D01*
X188865436Y-72033288D01*
X188865436Y-67433288D01*
X189865000Y-67433288D01*
X189865000Y-67666712D01*
X189910539Y-67895652D01*
X189999866Y-68111308D01*
X190129550Y-68305394D01*
X190294606Y-68470450D01*
X190488692Y-68600134D01*
X190704348Y-68689461D01*
X190933288Y-68735000D01*
X191166712Y-68735000D01*
X191395652Y-68689461D01*
X191611308Y-68600134D01*
X191805394Y-68470450D01*
X191970450Y-68305394D01*
X192100134Y-68111308D01*
X192189461Y-67895652D01*
X192235000Y-67666712D01*
X192235000Y-67433288D01*
X192189461Y-67204348D01*
X192100134Y-66988692D01*
X191970450Y-66794606D01*
X191805394Y-66629550D01*
X191611308Y-66499866D01*
X191395652Y-66410539D01*
X191166712Y-66365000D01*
X190933288Y-66365000D01*
X190704348Y-66410539D01*
X190488692Y-66499866D01*
X190294606Y-66629550D01*
X190129550Y-66794606D01*
X189999866Y-66988692D01*
X189910539Y-67204348D01*
X189865000Y-67433288D01*
X188865436Y-67433288D01*
X188865436Y-64922011D01*
X188925744Y-65034839D01*
X189123813Y-65276187D01*
X189365161Y-65474256D01*
X189640512Y-65621434D01*
X189939286Y-65712066D01*
X190172136Y-65735000D01*
X191927864Y-65735000D01*
X192160714Y-65712066D01*
X192459488Y-65621434D01*
X192734839Y-65474256D01*
X192976187Y-65276187D01*
X193174256Y-65034839D01*
X193321434Y-64759488D01*
X193412066Y-64460714D01*
X193442669Y-64150000D01*
X193412066Y-63839286D01*
X193321434Y-63540512D01*
X193174256Y-63265161D01*
X192976187Y-63023813D01*
X192734839Y-62825744D01*
X192459488Y-62678566D01*
X192160714Y-62587934D01*
X191927864Y-62565000D01*
X190172136Y-62565000D01*
X189939286Y-62587934D01*
X189640512Y-62678566D01*
X189365161Y-62825744D01*
X189123813Y-63023813D01*
X188925744Y-63265161D01*
X188865436Y-63377989D01*
X188865436Y-56758722D01*
X196481000Y-52361874D01*
X196384305Y-52506589D01*
G37*
G04 #@! TD.AperFunction*
D20*
X229018061Y-78035000D02*
X229221939Y-78035000D01*
X229386928Y-78002182D01*
X229386928Y-78700000D01*
X229399188Y-78824482D01*
X229435498Y-78944180D01*
X229465335Y-79000000D01*
X229435498Y-79055820D01*
X229399188Y-79175518D01*
X229386928Y-79300000D01*
X229390000Y-79714250D01*
X229548750Y-79873000D01*
X230473000Y-79873000D01*
X230473000Y-79853000D01*
X230727000Y-79853000D01*
X230727000Y-79873000D01*
X230747000Y-79873000D01*
X230747000Y-80127000D01*
X230727000Y-80127000D01*
X230727000Y-81176250D01*
X230732078Y-81181328D01*
X230714774Y-81223102D01*
X230675000Y-81423061D01*
X230675000Y-81626939D01*
X230714774Y-81826898D01*
X230792795Y-82015256D01*
X230906063Y-82184774D01*
X231050226Y-82328937D01*
X231219744Y-82442205D01*
X231408102Y-82520226D01*
X231608061Y-82560000D01*
X231811939Y-82560000D01*
X232011898Y-82520226D01*
X232200256Y-82442205D01*
X232369774Y-82328937D01*
X232513937Y-82184774D01*
X232627205Y-82015256D01*
X232705226Y-81826898D01*
X232742871Y-81637641D01*
X232744612Y-81635900D01*
X232775528Y-81610528D01*
X232876749Y-81487189D01*
X232888996Y-81464276D01*
X232951963Y-81346474D01*
X232970933Y-81283937D01*
X232996272Y-81200408D01*
X233000171Y-81198324D01*
X233135149Y-81270472D01*
X233301745Y-81321008D01*
X233474999Y-81338072D01*
X234125001Y-81338072D01*
X234298255Y-81321008D01*
X234464851Y-81270472D01*
X234618387Y-81188405D01*
X234734565Y-81093060D01*
X234734565Y-83241277D01*
X228738917Y-86702866D01*
X228774619Y-86667164D01*
X228805528Y-86641798D01*
X228906749Y-86518459D01*
X228947556Y-86442115D01*
X229124711Y-86323744D01*
X229333448Y-86115007D01*
X229497451Y-85869558D01*
X229610419Y-85596830D01*
X229668009Y-85307304D01*
X229668009Y-85012106D01*
X229610419Y-84722580D01*
X229497451Y-84449852D01*
X229333448Y-84204403D01*
X229124711Y-83995666D01*
X228879262Y-83831663D01*
X228800728Y-83799133D01*
X228837013Y-83679515D01*
X228848010Y-83567862D01*
X228848010Y-83567853D01*
X228851686Y-83530530D01*
X228848010Y-83493207D01*
X228848010Y-80700000D01*
X229386928Y-80700000D01*
X229399188Y-80824482D01*
X229435498Y-80944180D01*
X229494463Y-81054494D01*
X229573815Y-81151185D01*
X229670506Y-81230537D01*
X229780820Y-81289502D01*
X229900518Y-81325812D01*
X230025000Y-81338072D01*
X230314250Y-81335000D01*
X230473000Y-81176250D01*
X230473000Y-80127000D01*
X229548750Y-80127000D01*
X229390000Y-80285750D01*
X229386928Y-80700000D01*
X228848010Y-80700000D01*
X228848010Y-78001175D01*
X229018061Y-78035000D01*
G04 #@! TA.AperFunction,Conductor*
D21*
G36*
X229018061Y-78035000D02*
G01*
X229221939Y-78035000D01*
X229386928Y-78002182D01*
X229386928Y-78700000D01*
X229399188Y-78824482D01*
X229435498Y-78944180D01*
X229465335Y-79000000D01*
X229435498Y-79055820D01*
X229399188Y-79175518D01*
X229386928Y-79300000D01*
X229390000Y-79714250D01*
X229548750Y-79873000D01*
X230473000Y-79873000D01*
X230473000Y-79853000D01*
X230727000Y-79853000D01*
X230727000Y-79873000D01*
X230747000Y-79873000D01*
X230747000Y-80127000D01*
X230727000Y-80127000D01*
X230727000Y-81176250D01*
X230732078Y-81181328D01*
X230714774Y-81223102D01*
X230675000Y-81423061D01*
X230675000Y-81626939D01*
X230714774Y-81826898D01*
X230792795Y-82015256D01*
X230906063Y-82184774D01*
X231050226Y-82328937D01*
X231219744Y-82442205D01*
X231408102Y-82520226D01*
X231608061Y-82560000D01*
X231811939Y-82560000D01*
X232011898Y-82520226D01*
X232200256Y-82442205D01*
X232369774Y-82328937D01*
X232513937Y-82184774D01*
X232627205Y-82015256D01*
X232705226Y-81826898D01*
X232742871Y-81637641D01*
X232744612Y-81635900D01*
X232775528Y-81610528D01*
X232876749Y-81487189D01*
X232888996Y-81464276D01*
X232951963Y-81346474D01*
X232970933Y-81283937D01*
X232996272Y-81200408D01*
X233000171Y-81198324D01*
X233135149Y-81270472D01*
X233301745Y-81321008D01*
X233474999Y-81338072D01*
X234125001Y-81338072D01*
X234298255Y-81321008D01*
X234464851Y-81270472D01*
X234618387Y-81188405D01*
X234734565Y-81093060D01*
X234734565Y-83241277D01*
X228738917Y-86702866D01*
X228774619Y-86667164D01*
X228805528Y-86641798D01*
X228906749Y-86518459D01*
X228947556Y-86442115D01*
X229124711Y-86323744D01*
X229333448Y-86115007D01*
X229497451Y-85869558D01*
X229610419Y-85596830D01*
X229668009Y-85307304D01*
X229668009Y-85012106D01*
X229610419Y-84722580D01*
X229497451Y-84449852D01*
X229333448Y-84204403D01*
X229124711Y-83995666D01*
X228879262Y-83831663D01*
X228800728Y-83799133D01*
X228837013Y-83679515D01*
X228848010Y-83567862D01*
X228848010Y-83567853D01*
X228851686Y-83530530D01*
X228848010Y-83493207D01*
X228848010Y-80700000D01*
X229386928Y-80700000D01*
X229399188Y-80824482D01*
X229435498Y-80944180D01*
X229494463Y-81054494D01*
X229573815Y-81151185D01*
X229670506Y-81230537D01*
X229780820Y-81289502D01*
X229900518Y-81325812D01*
X230025000Y-81338072D01*
X230314250Y-81335000D01*
X230473000Y-81176250D01*
X230473000Y-80127000D01*
X229548750Y-80127000D01*
X229390000Y-80285750D01*
X229386928Y-80700000D01*
X228848010Y-80700000D01*
X228848010Y-78001175D01*
X229018061Y-78035000D01*
G37*
G04 #@! TD.AperFunction*
D20*
X226135149Y-77170472D02*
X226301745Y-77221008D01*
X226474999Y-77238072D01*
X227063270Y-77238072D01*
X227328010Y-77502812D01*
X227328011Y-80983209D01*
X224803804Y-78459003D01*
X224780001Y-78429999D01*
X224664276Y-78335026D01*
X224532247Y-78264454D01*
X224388986Y-78220997D01*
X224277333Y-78210000D01*
X224277322Y-78210000D01*
X224240000Y-78206324D01*
X224202678Y-78210000D01*
X223833711Y-78210000D01*
X223789774Y-78166063D01*
X223620256Y-78052795D01*
X223431898Y-77974774D01*
X223231939Y-77935000D01*
X223169802Y-77935000D01*
X222760000Y-77525199D01*
X222760000Y-77119796D01*
X222800000Y-77098415D01*
X222934872Y-77170506D01*
X223101384Y-77221017D01*
X223274550Y-77238072D01*
X223925450Y-77238072D01*
X224098616Y-77221017D01*
X224265128Y-77170506D01*
X224400000Y-77098415D01*
X224534872Y-77170506D01*
X224701384Y-77221017D01*
X224874550Y-77238072D01*
X225525450Y-77238072D01*
X225698616Y-77221017D01*
X225865128Y-77170506D01*
X226000171Y-77098324D01*
X226135149Y-77170472D01*
G04 #@! TA.AperFunction,Conductor*
D21*
G36*
X226135149Y-77170472D02*
G01*
X226301745Y-77221008D01*
X226474999Y-77238072D01*
X227063270Y-77238072D01*
X227328010Y-77502812D01*
X227328011Y-80983209D01*
X224803804Y-78459003D01*
X224780001Y-78429999D01*
X224664276Y-78335026D01*
X224532247Y-78264454D01*
X224388986Y-78220997D01*
X224277333Y-78210000D01*
X224277322Y-78210000D01*
X224240000Y-78206324D01*
X224202678Y-78210000D01*
X223833711Y-78210000D01*
X223789774Y-78166063D01*
X223620256Y-78052795D01*
X223431898Y-77974774D01*
X223231939Y-77935000D01*
X223169802Y-77935000D01*
X222760000Y-77525199D01*
X222760000Y-77119796D01*
X222800000Y-77098415D01*
X222934872Y-77170506D01*
X223101384Y-77221017D01*
X223274550Y-77238072D01*
X223925450Y-77238072D01*
X224098616Y-77221017D01*
X224265128Y-77170506D01*
X224400000Y-77098415D01*
X224534872Y-77170506D01*
X224701384Y-77221017D01*
X224874550Y-77238072D01*
X225525450Y-77238072D01*
X225698616Y-77221017D01*
X225865128Y-77170506D01*
X226000171Y-77098324D01*
X226135149Y-77170472D01*
G37*
G04 #@! TD.AperFunction*
D20*
X205520001Y-74605197D02*
X204462081Y-75663118D01*
X204450001Y-75661928D01*
X203799999Y-75661928D01*
X203626745Y-75678992D01*
X203460149Y-75729528D01*
X203306613Y-75811595D01*
X203172038Y-75922038D01*
X203100000Y-76009816D01*
X203027962Y-75922038D01*
X202893387Y-75811595D01*
X202739851Y-75729528D01*
X202573255Y-75678992D01*
X202400001Y-75661928D01*
X201749999Y-75661928D01*
X201576745Y-75678992D01*
X201410149Y-75729528D01*
X201256613Y-75811595D01*
X201122038Y-75922038D01*
X201011595Y-76056613D01*
X200929528Y-76210149D01*
X200920473Y-76240000D01*
X199779527Y-76240000D01*
X199770472Y-76210149D01*
X199688405Y-76056613D01*
X199577962Y-75922038D01*
X199443387Y-75811595D01*
X199289851Y-75729528D01*
X199123255Y-75678992D01*
X198950001Y-75661928D01*
X198361729Y-75661928D01*
X198360000Y-75660199D01*
X198360000Y-73764801D01*
X199016200Y-74421002D01*
X199039999Y-74450001D01*
X199068997Y-74473799D01*
X199155723Y-74544974D01*
X199286453Y-74614851D01*
X199287753Y-74615546D01*
X199431014Y-74659003D01*
X199542667Y-74670000D01*
X199542677Y-74670000D01*
X199580000Y-74673676D01*
X199617323Y-74670000D01*
X203252678Y-74670000D01*
X203290000Y-74673676D01*
X203327322Y-74670000D01*
X203327333Y-74670000D01*
X203438986Y-74659003D01*
X203582247Y-74615546D01*
X203714276Y-74544974D01*
X203830001Y-74450001D01*
X203853803Y-74420998D01*
X204611004Y-73663798D01*
X204640001Y-73640001D01*
X204681057Y-73589974D01*
X204734974Y-73524277D01*
X204805546Y-73392247D01*
X204815328Y-73359999D01*
X204849003Y-73248986D01*
X204860000Y-73137333D01*
X204860000Y-73137323D01*
X204863676Y-73100000D01*
X204860000Y-73062678D01*
X204860000Y-72832976D01*
X204943387Y-72788405D01*
X205077962Y-72677962D01*
X205188405Y-72543387D01*
X205270472Y-72389851D01*
X205321008Y-72223255D01*
X205338072Y-72050001D01*
X205338072Y-71149999D01*
X205321008Y-70976745D01*
X205270472Y-70810149D01*
X205188405Y-70656613D01*
X205077962Y-70522038D01*
X204943387Y-70411595D01*
X204789851Y-70329528D01*
X204623255Y-70278992D01*
X204450001Y-70261928D01*
X203799999Y-70261928D01*
X203626745Y-70278992D01*
X203460149Y-70329528D01*
X203306613Y-70411595D01*
X203172038Y-70522038D01*
X203100000Y-70609816D01*
X203084217Y-70590585D01*
X203806003Y-69868799D01*
X203835001Y-69845001D01*
X203858804Y-69815997D01*
X205520000Y-68154801D01*
X205520001Y-74605197D01*
G04 #@! TA.AperFunction,Conductor*
D21*
G36*
X205520001Y-74605197D02*
G01*
X204462081Y-75663118D01*
X204450001Y-75661928D01*
X203799999Y-75661928D01*
X203626745Y-75678992D01*
X203460149Y-75729528D01*
X203306613Y-75811595D01*
X203172038Y-75922038D01*
X203100000Y-76009816D01*
X203027962Y-75922038D01*
X202893387Y-75811595D01*
X202739851Y-75729528D01*
X202573255Y-75678992D01*
X202400001Y-75661928D01*
X201749999Y-75661928D01*
X201576745Y-75678992D01*
X201410149Y-75729528D01*
X201256613Y-75811595D01*
X201122038Y-75922038D01*
X201011595Y-76056613D01*
X200929528Y-76210149D01*
X200920473Y-76240000D01*
X199779527Y-76240000D01*
X199770472Y-76210149D01*
X199688405Y-76056613D01*
X199577962Y-75922038D01*
X199443387Y-75811595D01*
X199289851Y-75729528D01*
X199123255Y-75678992D01*
X198950001Y-75661928D01*
X198361729Y-75661928D01*
X198360000Y-75660199D01*
X198360000Y-73764801D01*
X199016200Y-74421002D01*
X199039999Y-74450001D01*
X199068997Y-74473799D01*
X199155723Y-74544974D01*
X199286453Y-74614851D01*
X199287753Y-74615546D01*
X199431014Y-74659003D01*
X199542667Y-74670000D01*
X199542677Y-74670000D01*
X199580000Y-74673676D01*
X199617323Y-74670000D01*
X203252678Y-74670000D01*
X203290000Y-74673676D01*
X203327322Y-74670000D01*
X203327333Y-74670000D01*
X203438986Y-74659003D01*
X203582247Y-74615546D01*
X203714276Y-74544974D01*
X203830001Y-74450001D01*
X203853803Y-74420998D01*
X204611004Y-73663798D01*
X204640001Y-73640001D01*
X204681057Y-73589974D01*
X204734974Y-73524277D01*
X204805546Y-73392247D01*
X204815328Y-73359999D01*
X204849003Y-73248986D01*
X204860000Y-73137333D01*
X204860000Y-73137323D01*
X204863676Y-73100000D01*
X204860000Y-73062678D01*
X204860000Y-72832976D01*
X204943387Y-72788405D01*
X205077962Y-72677962D01*
X205188405Y-72543387D01*
X205270472Y-72389851D01*
X205321008Y-72223255D01*
X205338072Y-72050001D01*
X205338072Y-71149999D01*
X205321008Y-70976745D01*
X205270472Y-70810149D01*
X205188405Y-70656613D01*
X205077962Y-70522038D01*
X204943387Y-70411595D01*
X204789851Y-70329528D01*
X204623255Y-70278992D01*
X204450001Y-70261928D01*
X203799999Y-70261928D01*
X203626745Y-70278992D01*
X203460149Y-70329528D01*
X203306613Y-70411595D01*
X203172038Y-70522038D01*
X203100000Y-70609816D01*
X203084217Y-70590585D01*
X203806003Y-69868799D01*
X203835001Y-69845001D01*
X203858804Y-69815997D01*
X205520000Y-68154801D01*
X205520001Y-74605197D01*
G37*
G04 #@! TD.AperFunction*
D20*
X202447502Y-69077696D02*
X201563998Y-69961201D01*
X201535000Y-69984999D01*
X201511202Y-70013997D01*
X201511201Y-70013998D01*
X201440026Y-70100724D01*
X201369454Y-70232754D01*
X201342401Y-70321939D01*
X201326543Y-70374216D01*
X201256613Y-70411595D01*
X201122038Y-70522038D01*
X201011595Y-70656613D01*
X200929528Y-70810149D01*
X200878992Y-70976745D01*
X200861928Y-71149999D01*
X200861928Y-72050001D01*
X200878992Y-72223255D01*
X200929528Y-72389851D01*
X201011595Y-72543387D01*
X201122038Y-72677962D01*
X201256613Y-72788405D01*
X201410149Y-72870472D01*
X201576745Y-72921008D01*
X201749999Y-72938072D01*
X202400001Y-72938072D01*
X202573255Y-72921008D01*
X202739851Y-72870472D01*
X202893387Y-72788405D01*
X203027962Y-72677962D01*
X203100000Y-72590184D01*
X203172038Y-72677962D01*
X203306613Y-72788405D01*
X203326281Y-72798918D01*
X202975199Y-73150000D01*
X199894802Y-73150000D01*
X199492720Y-72747919D01*
X199577962Y-72677962D01*
X199688405Y-72543387D01*
X199770472Y-72389851D01*
X199821008Y-72223255D01*
X199838072Y-72050001D01*
X199838072Y-71461729D01*
X202447502Y-68852300D01*
X202447502Y-69077696D01*
G04 #@! TA.AperFunction,Conductor*
D21*
G36*
X202447502Y-69077696D02*
G01*
X201563998Y-69961201D01*
X201535000Y-69984999D01*
X201511202Y-70013997D01*
X201511201Y-70013998D01*
X201440026Y-70100724D01*
X201369454Y-70232754D01*
X201342401Y-70321939D01*
X201326543Y-70374216D01*
X201256613Y-70411595D01*
X201122038Y-70522038D01*
X201011595Y-70656613D01*
X200929528Y-70810149D01*
X200878992Y-70976745D01*
X200861928Y-71149999D01*
X200861928Y-72050001D01*
X200878992Y-72223255D01*
X200929528Y-72389851D01*
X201011595Y-72543387D01*
X201122038Y-72677962D01*
X201256613Y-72788405D01*
X201410149Y-72870472D01*
X201576745Y-72921008D01*
X201749999Y-72938072D01*
X202400001Y-72938072D01*
X202573255Y-72921008D01*
X202739851Y-72870472D01*
X202893387Y-72788405D01*
X203027962Y-72677962D01*
X203100000Y-72590184D01*
X203172038Y-72677962D01*
X203306613Y-72788405D01*
X203326281Y-72798918D01*
X202975199Y-73150000D01*
X199894802Y-73150000D01*
X199492720Y-72747919D01*
X199577962Y-72677962D01*
X199688405Y-72543387D01*
X199770472Y-72389851D01*
X199821008Y-72223255D01*
X199838072Y-72050001D01*
X199838072Y-71461729D01*
X202447502Y-68852300D01*
X202447502Y-69077696D01*
G37*
G04 #@! TD.AperFunction*
D20*
X234734564Y-56758722D02*
X234734564Y-58773624D01*
X234729494Y-58769463D01*
X234619180Y-58710498D01*
X234499482Y-58674188D01*
X234375000Y-58661928D01*
X234085750Y-58665000D01*
X233927000Y-58823750D01*
X233927000Y-59873000D01*
X233947000Y-59873000D01*
X233947000Y-60127000D01*
X233927000Y-60127000D01*
X233927000Y-60147000D01*
X233673000Y-60147000D01*
X233673000Y-60127000D01*
X233653000Y-60127000D01*
X233653000Y-59873000D01*
X233673000Y-59873000D01*
X233673000Y-58823750D01*
X233514250Y-58665000D01*
X233225000Y-58661928D01*
X233100518Y-58674188D01*
X233010000Y-58701646D01*
X233010000Y-58639787D01*
X233013919Y-58599999D01*
X233009524Y-58555380D01*
X232998280Y-58441212D01*
X232951963Y-58288527D01*
X232876749Y-58147811D01*
X232775528Y-58024472D01*
X232744614Y-57999102D01*
X232410900Y-57665388D01*
X232385528Y-57634472D01*
X232262189Y-57533251D01*
X232121473Y-57458037D01*
X231968788Y-57411720D01*
X231849791Y-57400000D01*
X231849788Y-57400000D01*
X231810000Y-57396081D01*
X231770212Y-57400000D01*
X224679787Y-57400000D01*
X224639999Y-57396081D01*
X224600211Y-57400000D01*
X224600209Y-57400000D01*
X224481212Y-57411720D01*
X224328527Y-57458037D01*
X224305027Y-57470598D01*
X224187810Y-57533251D01*
X224150588Y-57563799D01*
X224064472Y-57634472D01*
X224039105Y-57665382D01*
X223637359Y-58067129D01*
X223448102Y-58104774D01*
X223259744Y-58182795D01*
X223090226Y-58296063D01*
X222946063Y-58440226D01*
X222832795Y-58609744D01*
X222754774Y-58798102D01*
X222715000Y-58998061D01*
X222715000Y-59156484D01*
X222713907Y-59155391D01*
X222544389Y-59042123D01*
X222356031Y-58964102D01*
X222156072Y-58924328D01*
X221952194Y-58924328D01*
X221752235Y-58964102D01*
X221563877Y-59042123D01*
X221394359Y-59155391D01*
X221250196Y-59299554D01*
X221136928Y-59469072D01*
X221058907Y-59657430D01*
X221019133Y-59857389D01*
X221019133Y-60061267D01*
X221058907Y-60261226D01*
X221136928Y-60449584D01*
X221170615Y-60500000D01*
X218440700Y-60500000D01*
X218280256Y-60392795D01*
X218091898Y-60314774D01*
X217891939Y-60275000D01*
X217829576Y-60275000D01*
X217870216Y-60176888D01*
X217909990Y-59976929D01*
X217909990Y-59773051D01*
X217870216Y-59573092D01*
X217792195Y-59384734D01*
X217678927Y-59215216D01*
X217534764Y-59071053D01*
X217365246Y-58957785D01*
X217176888Y-58879764D01*
X217108775Y-58866215D01*
X217095226Y-58798102D01*
X217017205Y-58609744D01*
X216903937Y-58440226D01*
X216759774Y-58296063D01*
X216720768Y-58270000D01*
X221719089Y-58270000D01*
X221756411Y-58273676D01*
X221793733Y-58270000D01*
X221793744Y-58270000D01*
X221905397Y-58259003D01*
X222048658Y-58215546D01*
X222180687Y-58144974D01*
X222296412Y-58050001D01*
X222320215Y-58020997D01*
X225781213Y-54560000D01*
X225994033Y-54560000D01*
X226013240Y-54590887D01*
X226108710Y-54715306D01*
X226194214Y-54806598D01*
X226312122Y-54910002D01*
X226413801Y-54982865D01*
X226549619Y-55061279D01*
X226663553Y-55112901D01*
X226812057Y-55163311D01*
X226933872Y-55191714D01*
X227089357Y-55212184D01*
X227214369Y-55216277D01*
X227370862Y-55206021D01*
X227494281Y-55185645D01*
X227645764Y-55145055D01*
X227762834Y-55100993D01*
X227903488Y-55031629D01*
X228009705Y-54965578D01*
X228134124Y-54870108D01*
X228225416Y-54784604D01*
X228328820Y-54666696D01*
X228401683Y-54565017D01*
X228421334Y-54530980D01*
X228444225Y-54499036D01*
X229038337Y-53470004D01*
X234734564Y-56758722D01*
G04 #@! TA.AperFunction,Conductor*
D21*
G36*
X234734564Y-56758722D02*
G01*
X234734564Y-58773624D01*
X234729494Y-58769463D01*
X234619180Y-58710498D01*
X234499482Y-58674188D01*
X234375000Y-58661928D01*
X234085750Y-58665000D01*
X233927000Y-58823750D01*
X233927000Y-59873000D01*
X233947000Y-59873000D01*
X233947000Y-60127000D01*
X233927000Y-60127000D01*
X233927000Y-60147000D01*
X233673000Y-60147000D01*
X233673000Y-60127000D01*
X233653000Y-60127000D01*
X233653000Y-59873000D01*
X233673000Y-59873000D01*
X233673000Y-58823750D01*
X233514250Y-58665000D01*
X233225000Y-58661928D01*
X233100518Y-58674188D01*
X233010000Y-58701646D01*
X233010000Y-58639787D01*
X233013919Y-58599999D01*
X233009524Y-58555380D01*
X232998280Y-58441212D01*
X232951963Y-58288527D01*
X232876749Y-58147811D01*
X232775528Y-58024472D01*
X232744614Y-57999102D01*
X232410900Y-57665388D01*
X232385528Y-57634472D01*
X232262189Y-57533251D01*
X232121473Y-57458037D01*
X231968788Y-57411720D01*
X231849791Y-57400000D01*
X231849788Y-57400000D01*
X231810000Y-57396081D01*
X231770212Y-57400000D01*
X224679787Y-57400000D01*
X224639999Y-57396081D01*
X224600211Y-57400000D01*
X224600209Y-57400000D01*
X224481212Y-57411720D01*
X224328527Y-57458037D01*
X224305027Y-57470598D01*
X224187810Y-57533251D01*
X224150588Y-57563799D01*
X224064472Y-57634472D01*
X224039105Y-57665382D01*
X223637359Y-58067129D01*
X223448102Y-58104774D01*
X223259744Y-58182795D01*
X223090226Y-58296063D01*
X222946063Y-58440226D01*
X222832795Y-58609744D01*
X222754774Y-58798102D01*
X222715000Y-58998061D01*
X222715000Y-59156484D01*
X222713907Y-59155391D01*
X222544389Y-59042123D01*
X222356031Y-58964102D01*
X222156072Y-58924328D01*
X221952194Y-58924328D01*
X221752235Y-58964102D01*
X221563877Y-59042123D01*
X221394359Y-59155391D01*
X221250196Y-59299554D01*
X221136928Y-59469072D01*
X221058907Y-59657430D01*
X221019133Y-59857389D01*
X221019133Y-60061267D01*
X221058907Y-60261226D01*
X221136928Y-60449584D01*
X221170615Y-60500000D01*
X218440700Y-60500000D01*
X218280256Y-60392795D01*
X218091898Y-60314774D01*
X217891939Y-60275000D01*
X217829576Y-60275000D01*
X217870216Y-60176888D01*
X217909990Y-59976929D01*
X217909990Y-59773051D01*
X217870216Y-59573092D01*
X217792195Y-59384734D01*
X217678927Y-59215216D01*
X217534764Y-59071053D01*
X217365246Y-58957785D01*
X217176888Y-58879764D01*
X217108775Y-58866215D01*
X217095226Y-58798102D01*
X217017205Y-58609744D01*
X216903937Y-58440226D01*
X216759774Y-58296063D01*
X216720768Y-58270000D01*
X221719089Y-58270000D01*
X221756411Y-58273676D01*
X221793733Y-58270000D01*
X221793744Y-58270000D01*
X221905397Y-58259003D01*
X222048658Y-58215546D01*
X222180687Y-58144974D01*
X222296412Y-58050001D01*
X222320215Y-58020997D01*
X225781213Y-54560000D01*
X225994033Y-54560000D01*
X226013240Y-54590887D01*
X226108710Y-54715306D01*
X226194214Y-54806598D01*
X226312122Y-54910002D01*
X226413801Y-54982865D01*
X226549619Y-55061279D01*
X226663553Y-55112901D01*
X226812057Y-55163311D01*
X226933872Y-55191714D01*
X227089357Y-55212184D01*
X227214369Y-55216277D01*
X227370862Y-55206021D01*
X227494281Y-55185645D01*
X227645764Y-55145055D01*
X227762834Y-55100993D01*
X227903488Y-55031629D01*
X228009705Y-54965578D01*
X228134124Y-54870108D01*
X228225416Y-54784604D01*
X228328820Y-54666696D01*
X228401683Y-54565017D01*
X228421334Y-54530980D01*
X228444225Y-54499036D01*
X229038337Y-53470004D01*
X234734564Y-56758722D01*
G37*
G04 #@! TD.AperFunction*
D20*
X216314487Y-50600000D02*
X207697322Y-50600000D01*
X207659999Y-50596324D01*
X207622676Y-50600000D01*
X207622667Y-50600000D01*
X207511014Y-50610997D01*
X207367753Y-50654454D01*
X207235723Y-50725026D01*
X207167657Y-50780887D01*
X207119999Y-50819999D01*
X207096201Y-50848997D01*
X206889944Y-51055254D01*
X206817346Y-51043268D01*
X206643347Y-51048965D01*
X206473802Y-51088497D01*
X206315228Y-51160346D01*
X205535803Y-51610347D01*
X205394292Y-51711752D01*
X205275284Y-51838815D01*
X205236254Y-51901581D01*
X205122036Y-51905320D01*
X205000220Y-51933723D01*
X204886285Y-51985346D01*
X203673849Y-52685346D01*
X203572175Y-52758205D01*
X203486669Y-52849499D01*
X203420616Y-52955721D01*
X203376555Y-53072788D01*
X203356179Y-53196201D01*
X203360272Y-53321218D01*
X203388675Y-53443034D01*
X203440298Y-53556969D01*
X203487124Y-53638074D01*
X203100000Y-54025198D01*
X201347846Y-52273045D01*
X201385000Y-52086260D01*
X201385000Y-51963564D01*
X201505327Y-52030865D01*
X201782240Y-52120674D01*
X202071352Y-52154733D01*
X202361554Y-52131735D01*
X202511366Y-52096800D01*
X202649796Y-51876788D01*
X202053219Y-50843485D01*
X202035898Y-50853485D01*
X201908898Y-50633515D01*
X201926219Y-50623515D01*
X201916219Y-50606194D01*
X202136189Y-50479194D01*
X202146189Y-50496515D01*
X202163510Y-50486515D01*
X202290510Y-50706485D01*
X202273189Y-50716485D01*
X202869767Y-51749788D01*
X203129518Y-51739910D01*
X203234679Y-51627636D01*
X203399697Y-51387813D01*
X203514756Y-51120405D01*
X203538344Y-51009728D01*
X203599853Y-51067338D01*
X203706075Y-51133391D01*
X203823142Y-51177452D01*
X203946555Y-51197828D01*
X204071572Y-51193735D01*
X204193388Y-51165332D01*
X204307323Y-51113709D01*
X205779567Y-50263709D01*
X205854517Y-50210000D01*
X206370212Y-50210000D01*
X206410000Y-50213919D01*
X206449788Y-50210000D01*
X206449791Y-50210000D01*
X206568788Y-50198280D01*
X206721473Y-50151963D01*
X206862189Y-50076749D01*
X206985528Y-49975528D01*
X207010900Y-49944612D01*
X208771424Y-48184088D01*
X209269849Y-49047385D01*
X209342708Y-49149059D01*
X209434002Y-49234565D01*
X209540224Y-49300618D01*
X209657291Y-49344679D01*
X209780704Y-49365055D01*
X209905721Y-49360962D01*
X210027537Y-49332559D01*
X210141472Y-49280936D01*
X211353908Y-48580936D01*
X211455582Y-48508077D01*
X211541089Y-48416783D01*
X211607141Y-48310561D01*
X211621627Y-48272072D01*
X211761687Y-48267486D01*
X211931146Y-48227974D01*
X212089640Y-48156161D01*
X212869842Y-47705711D01*
X212891767Y-47690000D01*
X213404488Y-47690000D01*
X216314487Y-50600000D01*
G04 #@! TA.AperFunction,Conductor*
D21*
G36*
X216314487Y-50600000D02*
G01*
X207697322Y-50600000D01*
X207659999Y-50596324D01*
X207622676Y-50600000D01*
X207622667Y-50600000D01*
X207511014Y-50610997D01*
X207367753Y-50654454D01*
X207235723Y-50725026D01*
X207167657Y-50780887D01*
X207119999Y-50819999D01*
X207096201Y-50848997D01*
X206889944Y-51055254D01*
X206817346Y-51043268D01*
X206643347Y-51048965D01*
X206473802Y-51088497D01*
X206315228Y-51160346D01*
X205535803Y-51610347D01*
X205394292Y-51711752D01*
X205275284Y-51838815D01*
X205236254Y-51901581D01*
X205122036Y-51905320D01*
X205000220Y-51933723D01*
X204886285Y-51985346D01*
X203673849Y-52685346D01*
X203572175Y-52758205D01*
X203486669Y-52849499D01*
X203420616Y-52955721D01*
X203376555Y-53072788D01*
X203356179Y-53196201D01*
X203360272Y-53321218D01*
X203388675Y-53443034D01*
X203440298Y-53556969D01*
X203487124Y-53638074D01*
X203100000Y-54025198D01*
X201347846Y-52273045D01*
X201385000Y-52086260D01*
X201385000Y-51963564D01*
X201505327Y-52030865D01*
X201782240Y-52120674D01*
X202071352Y-52154733D01*
X202361554Y-52131735D01*
X202511366Y-52096800D01*
X202649796Y-51876788D01*
X202053219Y-50843485D01*
X202035898Y-50853485D01*
X201908898Y-50633515D01*
X201926219Y-50623515D01*
X201916219Y-50606194D01*
X202136189Y-50479194D01*
X202146189Y-50496515D01*
X202163510Y-50486515D01*
X202290510Y-50706485D01*
X202273189Y-50716485D01*
X202869767Y-51749788D01*
X203129518Y-51739910D01*
X203234679Y-51627636D01*
X203399697Y-51387813D01*
X203514756Y-51120405D01*
X203538344Y-51009728D01*
X203599853Y-51067338D01*
X203706075Y-51133391D01*
X203823142Y-51177452D01*
X203946555Y-51197828D01*
X204071572Y-51193735D01*
X204193388Y-51165332D01*
X204307323Y-51113709D01*
X205779567Y-50263709D01*
X205854517Y-50210000D01*
X206370212Y-50210000D01*
X206410000Y-50213919D01*
X206449788Y-50210000D01*
X206449791Y-50210000D01*
X206568788Y-50198280D01*
X206721473Y-50151963D01*
X206862189Y-50076749D01*
X206985528Y-49975528D01*
X207010900Y-49944612D01*
X208771424Y-48184088D01*
X209269849Y-49047385D01*
X209342708Y-49149059D01*
X209434002Y-49234565D01*
X209540224Y-49300618D01*
X209657291Y-49344679D01*
X209780704Y-49365055D01*
X209905721Y-49360962D01*
X210027537Y-49332559D01*
X210141472Y-49280936D01*
X211353908Y-48580936D01*
X211455582Y-48508077D01*
X211541089Y-48416783D01*
X211607141Y-48310561D01*
X211621627Y-48272072D01*
X211761687Y-48267486D01*
X211931146Y-48227974D01*
X212089640Y-48156161D01*
X212869842Y-47705711D01*
X212891767Y-47690000D01*
X213404488Y-47690000D01*
X216314487Y-50600000D01*
G37*
G04 #@! TD.AperFunction*
D20*
X218060199Y-53245001D02*
X208544259Y-53245001D01*
X208328130Y-52870655D01*
X208226776Y-52729216D01*
X208099777Y-52610268D01*
X207969745Y-52529409D01*
X207964737Y-52376441D01*
X207925205Y-52206896D01*
X207913575Y-52181227D01*
X207974802Y-52120000D01*
X216935199Y-52120000D01*
X218060199Y-53245001D01*
G04 #@! TA.AperFunction,Conductor*
D21*
G36*
X218060199Y-53245001D02*
G01*
X208544259Y-53245001D01*
X208328130Y-52870655D01*
X208226776Y-52729216D01*
X208099777Y-52610268D01*
X207969745Y-52529409D01*
X207964737Y-52376441D01*
X207925205Y-52206896D01*
X207913575Y-52181227D01*
X207974802Y-52120000D01*
X216935199Y-52120000D01*
X218060199Y-53245001D01*
G37*
G04 #@! TD.AperFunction*
M02*
