G04 #@! TF.GenerationSoftware,KiCad,Pcbnew,5.1.9-73d0e3b20d~88~ubuntu20.10.1*
G04 #@! TF.CreationDate,2021-03-27T00:21:14+01:00*
G04 #@! TF.ProjectId,esp8266_01,65737038-3236-4365-9f30-312e6b696361,rev?*
G04 #@! TF.SameCoordinates,Original*
G04 #@! TF.FileFunction,Soldermask,Bot*
G04 #@! TF.FilePolarity,Negative*
%FSLAX46Y46*%
G04 Gerber Fmt 4.6, Leading zero omitted, Abs format (unit mm)*
G04 Created by KiCad (PCBNEW 5.1.9-73d0e3b20d~88~ubuntu20.10.1) date 2021-03-27 00:21:14*
%MOMM*%
%LPD*%
G01*
G04 APERTURE LIST*
%ADD10C,0.100000*%
%ADD11C,1.552000*%
%ADD12C,1.202000*%
%ADD13O,3.602000X2.002000*%
%ADD14O,1.802000X1.802000*%
G04 APERTURE END LIST*
D10*
G36*
X205395868Y-93176684D02*
G01*
X205388571Y-93183519D01*
X205380081Y-93188798D01*
X205370724Y-93192319D01*
X205360860Y-93193948D01*
X205350868Y-93193621D01*
X205341131Y-93191351D01*
X205332024Y-93187225D01*
X203946384Y-92387225D01*
X203938257Y-92381401D01*
X203931422Y-92374104D01*
X203926143Y-92365614D01*
X203922622Y-92356257D01*
X203920993Y-92346393D01*
X203921320Y-92336401D01*
X203923590Y-92326664D01*
X203927716Y-92317557D01*
X204662716Y-91044500D01*
X204668445Y-91036505D01*
X204683178Y-91010987D01*
X204685891Y-91006781D01*
X204731620Y-90942966D01*
X204734731Y-90939046D01*
X204786495Y-90880020D01*
X204789976Y-90876423D01*
X204847276Y-90822755D01*
X204851092Y-90819517D01*
X204913377Y-90771724D01*
X204917493Y-90768877D01*
X204984161Y-90727419D01*
X204988536Y-90724987D01*
X205058948Y-90690264D01*
X205063540Y-90688273D01*
X205137016Y-90660619D01*
X205141782Y-90659088D01*
X205217615Y-90638769D01*
X205222508Y-90637711D01*
X205299967Y-90624923D01*
X205304939Y-90624351D01*
X205383279Y-90619216D01*
X205388284Y-90619134D01*
X205466750Y-90621704D01*
X205471737Y-90622112D01*
X205549574Y-90632359D01*
X205554498Y-90633255D01*
X205630956Y-90651083D01*
X205635769Y-90652458D01*
X205710111Y-90677694D01*
X205714765Y-90679533D01*
X205786275Y-90711934D01*
X205790727Y-90714220D01*
X205858717Y-90753474D01*
X205862923Y-90756187D01*
X205926738Y-90801916D01*
X205930658Y-90805027D01*
X205989684Y-90856791D01*
X205993281Y-90860272D01*
X206046949Y-90917572D01*
X206050187Y-90921388D01*
X206097980Y-90983673D01*
X206100827Y-90987789D01*
X206142285Y-91054457D01*
X206144717Y-91058832D01*
X206179440Y-91129244D01*
X206181431Y-91133836D01*
X206209085Y-91207312D01*
X206210616Y-91212078D01*
X206230935Y-91287911D01*
X206231993Y-91292804D01*
X206244781Y-91370263D01*
X206245353Y-91375235D01*
X206250488Y-91453575D01*
X206250570Y-91458580D01*
X206248000Y-91537046D01*
X206247592Y-91542033D01*
X206237345Y-91619870D01*
X206236449Y-91624794D01*
X206218621Y-91701252D01*
X206217246Y-91706065D01*
X206192010Y-91780407D01*
X206190171Y-91785061D01*
X206157770Y-91856571D01*
X206155484Y-91861023D01*
X206140751Y-91886541D01*
X206136692Y-91895500D01*
X205401692Y-93168557D01*
X205395868Y-93176684D01*
G37*
G36*
X203196164Y-91906684D02*
G01*
X203188867Y-91913519D01*
X203180377Y-91918798D01*
X203171020Y-91922319D01*
X203161156Y-91923948D01*
X203151164Y-91923621D01*
X203141427Y-91921351D01*
X203132320Y-91917225D01*
X201746680Y-91117225D01*
X201738553Y-91111401D01*
X201731718Y-91104104D01*
X201726439Y-91095614D01*
X201722918Y-91086257D01*
X201721289Y-91076393D01*
X201721616Y-91066401D01*
X201723886Y-91056664D01*
X201728012Y-91047557D01*
X202463012Y-89774500D01*
X202468741Y-89766505D01*
X202483474Y-89740987D01*
X202486187Y-89736781D01*
X202531916Y-89672966D01*
X202535027Y-89669046D01*
X202586791Y-89610020D01*
X202590272Y-89606423D01*
X202647572Y-89552755D01*
X202651388Y-89549517D01*
X202713673Y-89501724D01*
X202717789Y-89498877D01*
X202784457Y-89457419D01*
X202788832Y-89454987D01*
X202859244Y-89420264D01*
X202863836Y-89418273D01*
X202937312Y-89390619D01*
X202942078Y-89389088D01*
X203017911Y-89368769D01*
X203022804Y-89367711D01*
X203100263Y-89354923D01*
X203105235Y-89354351D01*
X203183575Y-89349216D01*
X203188580Y-89349134D01*
X203267046Y-89351704D01*
X203272033Y-89352112D01*
X203349870Y-89362359D01*
X203354794Y-89363255D01*
X203431252Y-89381083D01*
X203436065Y-89382458D01*
X203510407Y-89407694D01*
X203515061Y-89409533D01*
X203586571Y-89441934D01*
X203591023Y-89444220D01*
X203659013Y-89483474D01*
X203663219Y-89486187D01*
X203727034Y-89531916D01*
X203730954Y-89535027D01*
X203789980Y-89586791D01*
X203793577Y-89590272D01*
X203847245Y-89647572D01*
X203850483Y-89651388D01*
X203898276Y-89713673D01*
X203901123Y-89717789D01*
X203942581Y-89784457D01*
X203945013Y-89788832D01*
X203979736Y-89859244D01*
X203981727Y-89863836D01*
X204009381Y-89937312D01*
X204010912Y-89942078D01*
X204031231Y-90017911D01*
X204032289Y-90022804D01*
X204045077Y-90100263D01*
X204045649Y-90105235D01*
X204050784Y-90183575D01*
X204050866Y-90188580D01*
X204048296Y-90267046D01*
X204047888Y-90272033D01*
X204037641Y-90349870D01*
X204036745Y-90354794D01*
X204018917Y-90431252D01*
X204017542Y-90436065D01*
X203992306Y-90510407D01*
X203990467Y-90515061D01*
X203958066Y-90586571D01*
X203955780Y-90591023D01*
X203941047Y-90616541D01*
X203936988Y-90625500D01*
X203201988Y-91898557D01*
X203196164Y-91906684D01*
G37*
G36*
X200996459Y-90636684D02*
G01*
X200989162Y-90643519D01*
X200980672Y-90648798D01*
X200971315Y-90652319D01*
X200961451Y-90653948D01*
X200951459Y-90653621D01*
X200941722Y-90651351D01*
X200932615Y-90647225D01*
X199546975Y-89847225D01*
X199538848Y-89841401D01*
X199532013Y-89834104D01*
X199526734Y-89825614D01*
X199523213Y-89816257D01*
X199521584Y-89806393D01*
X199521911Y-89796401D01*
X199524181Y-89786664D01*
X199528307Y-89777557D01*
X200263307Y-88504500D01*
X200269036Y-88496505D01*
X200283769Y-88470987D01*
X200286482Y-88466781D01*
X200332211Y-88402966D01*
X200335322Y-88399046D01*
X200387086Y-88340020D01*
X200390567Y-88336423D01*
X200447867Y-88282755D01*
X200451683Y-88279517D01*
X200513968Y-88231724D01*
X200518084Y-88228877D01*
X200584752Y-88187419D01*
X200589127Y-88184987D01*
X200659539Y-88150264D01*
X200664131Y-88148273D01*
X200737607Y-88120619D01*
X200742373Y-88119088D01*
X200818206Y-88098769D01*
X200823099Y-88097711D01*
X200900558Y-88084923D01*
X200905530Y-88084351D01*
X200983870Y-88079216D01*
X200988875Y-88079134D01*
X201067341Y-88081704D01*
X201072328Y-88082112D01*
X201150165Y-88092359D01*
X201155089Y-88093255D01*
X201231547Y-88111083D01*
X201236360Y-88112458D01*
X201310702Y-88137694D01*
X201315356Y-88139533D01*
X201386866Y-88171934D01*
X201391318Y-88174220D01*
X201459308Y-88213474D01*
X201463514Y-88216187D01*
X201527329Y-88261916D01*
X201531249Y-88265027D01*
X201590275Y-88316791D01*
X201593872Y-88320272D01*
X201647540Y-88377572D01*
X201650778Y-88381388D01*
X201698571Y-88443673D01*
X201701418Y-88447789D01*
X201742876Y-88514457D01*
X201745308Y-88518832D01*
X201780031Y-88589244D01*
X201782022Y-88593836D01*
X201809676Y-88667312D01*
X201811207Y-88672078D01*
X201831526Y-88747911D01*
X201832584Y-88752804D01*
X201845372Y-88830263D01*
X201845944Y-88835235D01*
X201851079Y-88913575D01*
X201851161Y-88918580D01*
X201848591Y-88997046D01*
X201848183Y-89002033D01*
X201837936Y-89079870D01*
X201837040Y-89084794D01*
X201819212Y-89161252D01*
X201817837Y-89166065D01*
X201792601Y-89240407D01*
X201790762Y-89245061D01*
X201758361Y-89316571D01*
X201756075Y-89321023D01*
X201741342Y-89346541D01*
X201737283Y-89355500D01*
X201002283Y-90628557D01*
X200996459Y-90636684D01*
G37*
G36*
X198796755Y-89366684D02*
G01*
X198789458Y-89373519D01*
X198780968Y-89378798D01*
X198771611Y-89382319D01*
X198761747Y-89383948D01*
X198751755Y-89383621D01*
X198742018Y-89381351D01*
X198732911Y-89377225D01*
X197347271Y-88577225D01*
X197339144Y-88571401D01*
X197332309Y-88564104D01*
X197327030Y-88555614D01*
X197323509Y-88546257D01*
X197321880Y-88536393D01*
X197322207Y-88526401D01*
X197324477Y-88516664D01*
X197328603Y-88507557D01*
X198063603Y-87234500D01*
X198069332Y-87226505D01*
X198084065Y-87200987D01*
X198086778Y-87196781D01*
X198132507Y-87132966D01*
X198135618Y-87129046D01*
X198187382Y-87070020D01*
X198190863Y-87066423D01*
X198248163Y-87012755D01*
X198251979Y-87009517D01*
X198314264Y-86961724D01*
X198318380Y-86958877D01*
X198385048Y-86917419D01*
X198389423Y-86914987D01*
X198459835Y-86880264D01*
X198464427Y-86878273D01*
X198537903Y-86850619D01*
X198542669Y-86849088D01*
X198618502Y-86828769D01*
X198623395Y-86827711D01*
X198700854Y-86814923D01*
X198705826Y-86814351D01*
X198784166Y-86809216D01*
X198789171Y-86809134D01*
X198867637Y-86811704D01*
X198872624Y-86812112D01*
X198950461Y-86822359D01*
X198955385Y-86823255D01*
X199031843Y-86841083D01*
X199036656Y-86842458D01*
X199110998Y-86867694D01*
X199115652Y-86869533D01*
X199187162Y-86901934D01*
X199191614Y-86904220D01*
X199259604Y-86943474D01*
X199263810Y-86946187D01*
X199327625Y-86991916D01*
X199331545Y-86995027D01*
X199390571Y-87046791D01*
X199394168Y-87050272D01*
X199447836Y-87107572D01*
X199451074Y-87111388D01*
X199498867Y-87173673D01*
X199501714Y-87177789D01*
X199543172Y-87244457D01*
X199545604Y-87248832D01*
X199580327Y-87319244D01*
X199582318Y-87323836D01*
X199609972Y-87397312D01*
X199611503Y-87402078D01*
X199631822Y-87477911D01*
X199632880Y-87482804D01*
X199645668Y-87560263D01*
X199646240Y-87565235D01*
X199651375Y-87643575D01*
X199651457Y-87648580D01*
X199648887Y-87727046D01*
X199648479Y-87732033D01*
X199638232Y-87809870D01*
X199637336Y-87814794D01*
X199619508Y-87891252D01*
X199618133Y-87896065D01*
X199592897Y-87970407D01*
X199591058Y-87975061D01*
X199558657Y-88046571D01*
X199556371Y-88051023D01*
X199541638Y-88076541D01*
X199537579Y-88085500D01*
X198802579Y-89358557D01*
X198796755Y-89366684D01*
G37*
G36*
X196597050Y-88096684D02*
G01*
X196589753Y-88103519D01*
X196581263Y-88108798D01*
X196571906Y-88112319D01*
X196562042Y-88113948D01*
X196552050Y-88113621D01*
X196542313Y-88111351D01*
X196533206Y-88107225D01*
X195147566Y-87307225D01*
X195139439Y-87301401D01*
X195132604Y-87294104D01*
X195127325Y-87285614D01*
X195123804Y-87276257D01*
X195122175Y-87266393D01*
X195122502Y-87256401D01*
X195124772Y-87246664D01*
X195128898Y-87237557D01*
X195863898Y-85964500D01*
X195869627Y-85956505D01*
X195884360Y-85930987D01*
X195887073Y-85926781D01*
X195932802Y-85862966D01*
X195935913Y-85859046D01*
X195987677Y-85800020D01*
X195991158Y-85796423D01*
X196048458Y-85742755D01*
X196052274Y-85739517D01*
X196114559Y-85691724D01*
X196118675Y-85688877D01*
X196185343Y-85647419D01*
X196189718Y-85644987D01*
X196260130Y-85610264D01*
X196264722Y-85608273D01*
X196338198Y-85580619D01*
X196342964Y-85579088D01*
X196418797Y-85558769D01*
X196423690Y-85557711D01*
X196501149Y-85544923D01*
X196506121Y-85544351D01*
X196584461Y-85539216D01*
X196589466Y-85539134D01*
X196667932Y-85541704D01*
X196672919Y-85542112D01*
X196750756Y-85552359D01*
X196755680Y-85553255D01*
X196832138Y-85571083D01*
X196836951Y-85572458D01*
X196911293Y-85597694D01*
X196915947Y-85599533D01*
X196987457Y-85631934D01*
X196991909Y-85634220D01*
X197059899Y-85673474D01*
X197064105Y-85676187D01*
X197127920Y-85721916D01*
X197131840Y-85725027D01*
X197190866Y-85776791D01*
X197194463Y-85780272D01*
X197248131Y-85837572D01*
X197251369Y-85841388D01*
X197299162Y-85903673D01*
X197302009Y-85907789D01*
X197343467Y-85974457D01*
X197345899Y-85978832D01*
X197380622Y-86049244D01*
X197382613Y-86053836D01*
X197410267Y-86127312D01*
X197411798Y-86132078D01*
X197432117Y-86207911D01*
X197433175Y-86212804D01*
X197445963Y-86290263D01*
X197446535Y-86295235D01*
X197451670Y-86373575D01*
X197451752Y-86378580D01*
X197449182Y-86457046D01*
X197448774Y-86462033D01*
X197438527Y-86539870D01*
X197437631Y-86544794D01*
X197419803Y-86621252D01*
X197418428Y-86626065D01*
X197393192Y-86700407D01*
X197391353Y-86705061D01*
X197358952Y-86776571D01*
X197356666Y-86781023D01*
X197341933Y-86806541D01*
X197337874Y-86815500D01*
X196602874Y-88088557D01*
X196597050Y-88096684D01*
G37*
G36*
X227202654Y-52073316D02*
G01*
X227209951Y-52066481D01*
X227218441Y-52061202D01*
X227227798Y-52057681D01*
X227237662Y-52056052D01*
X227247654Y-52056379D01*
X227257391Y-52058649D01*
X227266498Y-52062775D01*
X228652138Y-52862775D01*
X228660265Y-52868599D01*
X228667100Y-52875896D01*
X228672379Y-52884386D01*
X228675900Y-52893743D01*
X228677529Y-52903607D01*
X228677202Y-52913599D01*
X228674932Y-52923336D01*
X228670806Y-52932443D01*
X227935806Y-54205500D01*
X227930077Y-54213495D01*
X227915344Y-54239013D01*
X227912631Y-54243219D01*
X227866902Y-54307034D01*
X227863791Y-54310954D01*
X227812027Y-54369980D01*
X227808546Y-54373577D01*
X227751246Y-54427245D01*
X227747430Y-54430483D01*
X227685145Y-54478276D01*
X227681029Y-54481123D01*
X227614361Y-54522581D01*
X227609986Y-54525013D01*
X227539574Y-54559736D01*
X227534982Y-54561727D01*
X227461506Y-54589381D01*
X227456740Y-54590912D01*
X227380907Y-54611231D01*
X227376014Y-54612289D01*
X227298555Y-54625077D01*
X227293583Y-54625649D01*
X227215243Y-54630784D01*
X227210238Y-54630866D01*
X227131772Y-54628296D01*
X227126785Y-54627888D01*
X227048948Y-54617641D01*
X227044024Y-54616745D01*
X226967566Y-54598917D01*
X226962753Y-54597542D01*
X226888411Y-54572306D01*
X226883757Y-54570467D01*
X226812247Y-54538066D01*
X226807795Y-54535780D01*
X226739805Y-54496526D01*
X226735599Y-54493813D01*
X226671784Y-54448084D01*
X226667864Y-54444973D01*
X226608838Y-54393209D01*
X226605241Y-54389728D01*
X226551573Y-54332428D01*
X226548335Y-54328612D01*
X226500542Y-54266327D01*
X226497695Y-54262211D01*
X226456237Y-54195543D01*
X226453805Y-54191168D01*
X226419082Y-54120756D01*
X226417091Y-54116164D01*
X226389437Y-54042688D01*
X226387906Y-54037922D01*
X226367587Y-53962089D01*
X226366529Y-53957196D01*
X226353741Y-53879737D01*
X226353169Y-53874765D01*
X226348034Y-53796425D01*
X226347952Y-53791420D01*
X226350522Y-53712954D01*
X226350930Y-53707967D01*
X226361177Y-53630130D01*
X226362073Y-53625206D01*
X226379901Y-53548748D01*
X226381276Y-53543935D01*
X226406512Y-53469593D01*
X226408351Y-53464939D01*
X226440752Y-53393429D01*
X226443038Y-53388977D01*
X226457771Y-53363459D01*
X226461830Y-53354500D01*
X227196830Y-52081443D01*
X227202654Y-52073316D01*
G37*
G36*
X225002950Y-50803316D02*
G01*
X225010247Y-50796481D01*
X225018737Y-50791202D01*
X225028094Y-50787681D01*
X225037958Y-50786052D01*
X225047950Y-50786379D01*
X225057687Y-50788649D01*
X225066794Y-50792775D01*
X226452434Y-51592775D01*
X226460561Y-51598599D01*
X226467396Y-51605896D01*
X226472675Y-51614386D01*
X226476196Y-51623743D01*
X226477825Y-51633607D01*
X226477498Y-51643599D01*
X226475228Y-51653336D01*
X226471102Y-51662443D01*
X225736102Y-52935500D01*
X225730373Y-52943495D01*
X225715640Y-52969013D01*
X225712927Y-52973219D01*
X225667198Y-53037034D01*
X225664087Y-53040954D01*
X225612323Y-53099980D01*
X225608842Y-53103577D01*
X225551542Y-53157245D01*
X225547726Y-53160483D01*
X225485441Y-53208276D01*
X225481325Y-53211123D01*
X225414657Y-53252581D01*
X225410282Y-53255013D01*
X225339870Y-53289736D01*
X225335278Y-53291727D01*
X225261802Y-53319381D01*
X225257036Y-53320912D01*
X225181203Y-53341231D01*
X225176310Y-53342289D01*
X225098851Y-53355077D01*
X225093879Y-53355649D01*
X225015539Y-53360784D01*
X225010534Y-53360866D01*
X224932068Y-53358296D01*
X224927081Y-53357888D01*
X224849244Y-53347641D01*
X224844320Y-53346745D01*
X224767862Y-53328917D01*
X224763049Y-53327542D01*
X224688707Y-53302306D01*
X224684053Y-53300467D01*
X224612543Y-53268066D01*
X224608091Y-53265780D01*
X224540101Y-53226526D01*
X224535895Y-53223813D01*
X224472080Y-53178084D01*
X224468160Y-53174973D01*
X224409134Y-53123209D01*
X224405537Y-53119728D01*
X224351869Y-53062428D01*
X224348631Y-53058612D01*
X224300838Y-52996327D01*
X224297991Y-52992211D01*
X224256533Y-52925543D01*
X224254101Y-52921168D01*
X224219378Y-52850756D01*
X224217387Y-52846164D01*
X224189733Y-52772688D01*
X224188202Y-52767922D01*
X224167883Y-52692089D01*
X224166825Y-52687196D01*
X224154037Y-52609737D01*
X224153465Y-52604765D01*
X224148330Y-52526425D01*
X224148248Y-52521420D01*
X224150818Y-52442954D01*
X224151226Y-52437967D01*
X224161473Y-52360130D01*
X224162369Y-52355206D01*
X224180197Y-52278748D01*
X224181572Y-52273935D01*
X224206808Y-52199593D01*
X224208647Y-52194939D01*
X224241048Y-52123429D01*
X224243334Y-52118977D01*
X224258067Y-52093459D01*
X224262126Y-52084500D01*
X224997126Y-50811443D01*
X225002950Y-50803316D01*
G37*
G36*
X222803245Y-49533316D02*
G01*
X222810542Y-49526481D01*
X222819032Y-49521202D01*
X222828389Y-49517681D01*
X222838253Y-49516052D01*
X222848245Y-49516379D01*
X222857982Y-49518649D01*
X222867089Y-49522775D01*
X224252729Y-50322775D01*
X224260856Y-50328599D01*
X224267691Y-50335896D01*
X224272970Y-50344386D01*
X224276491Y-50353743D01*
X224278120Y-50363607D01*
X224277793Y-50373599D01*
X224275523Y-50383336D01*
X224271397Y-50392443D01*
X223536397Y-51665500D01*
X223530668Y-51673495D01*
X223515935Y-51699013D01*
X223513222Y-51703219D01*
X223467493Y-51767034D01*
X223464382Y-51770954D01*
X223412618Y-51829980D01*
X223409137Y-51833577D01*
X223351837Y-51887245D01*
X223348021Y-51890483D01*
X223285736Y-51938276D01*
X223281620Y-51941123D01*
X223214952Y-51982581D01*
X223210577Y-51985013D01*
X223140165Y-52019736D01*
X223135573Y-52021727D01*
X223062097Y-52049381D01*
X223057331Y-52050912D01*
X222981498Y-52071231D01*
X222976605Y-52072289D01*
X222899146Y-52085077D01*
X222894174Y-52085649D01*
X222815834Y-52090784D01*
X222810829Y-52090866D01*
X222732363Y-52088296D01*
X222727376Y-52087888D01*
X222649539Y-52077641D01*
X222644615Y-52076745D01*
X222568157Y-52058917D01*
X222563344Y-52057542D01*
X222489002Y-52032306D01*
X222484348Y-52030467D01*
X222412838Y-51998066D01*
X222408386Y-51995780D01*
X222340396Y-51956526D01*
X222336190Y-51953813D01*
X222272375Y-51908084D01*
X222268455Y-51904973D01*
X222209429Y-51853209D01*
X222205832Y-51849728D01*
X222152164Y-51792428D01*
X222148926Y-51788612D01*
X222101133Y-51726327D01*
X222098286Y-51722211D01*
X222056828Y-51655543D01*
X222054396Y-51651168D01*
X222019673Y-51580756D01*
X222017682Y-51576164D01*
X221990028Y-51502688D01*
X221988497Y-51497922D01*
X221968178Y-51422089D01*
X221967120Y-51417196D01*
X221954332Y-51339737D01*
X221953760Y-51334765D01*
X221948625Y-51256425D01*
X221948543Y-51251420D01*
X221951113Y-51172954D01*
X221951521Y-51167967D01*
X221961768Y-51090130D01*
X221962664Y-51085206D01*
X221980492Y-51008748D01*
X221981867Y-51003935D01*
X222007103Y-50929593D01*
X222008942Y-50924939D01*
X222041343Y-50853429D01*
X222043629Y-50848977D01*
X222058362Y-50823459D01*
X222062421Y-50814500D01*
X222797421Y-49541443D01*
X222803245Y-49533316D01*
G37*
G36*
X220603541Y-48263316D02*
G01*
X220610838Y-48256481D01*
X220619328Y-48251202D01*
X220628685Y-48247681D01*
X220638549Y-48246052D01*
X220648541Y-48246379D01*
X220658278Y-48248649D01*
X220667385Y-48252775D01*
X222053025Y-49052775D01*
X222061152Y-49058599D01*
X222067987Y-49065896D01*
X222073266Y-49074386D01*
X222076787Y-49083743D01*
X222078416Y-49093607D01*
X222078089Y-49103599D01*
X222075819Y-49113336D01*
X222071693Y-49122443D01*
X221336693Y-50395500D01*
X221330964Y-50403495D01*
X221316231Y-50429013D01*
X221313518Y-50433219D01*
X221267789Y-50497034D01*
X221264678Y-50500954D01*
X221212914Y-50559980D01*
X221209433Y-50563577D01*
X221152133Y-50617245D01*
X221148317Y-50620483D01*
X221086032Y-50668276D01*
X221081916Y-50671123D01*
X221015248Y-50712581D01*
X221010873Y-50715013D01*
X220940461Y-50749736D01*
X220935869Y-50751727D01*
X220862393Y-50779381D01*
X220857627Y-50780912D01*
X220781794Y-50801231D01*
X220776901Y-50802289D01*
X220699442Y-50815077D01*
X220694470Y-50815649D01*
X220616130Y-50820784D01*
X220611125Y-50820866D01*
X220532659Y-50818296D01*
X220527672Y-50817888D01*
X220449835Y-50807641D01*
X220444911Y-50806745D01*
X220368453Y-50788917D01*
X220363640Y-50787542D01*
X220289298Y-50762306D01*
X220284644Y-50760467D01*
X220213134Y-50728066D01*
X220208682Y-50725780D01*
X220140692Y-50686526D01*
X220136486Y-50683813D01*
X220072671Y-50638084D01*
X220068751Y-50634973D01*
X220009725Y-50583209D01*
X220006128Y-50579728D01*
X219952460Y-50522428D01*
X219949222Y-50518612D01*
X219901429Y-50456327D01*
X219898582Y-50452211D01*
X219857124Y-50385543D01*
X219854692Y-50381168D01*
X219819969Y-50310756D01*
X219817978Y-50306164D01*
X219790324Y-50232688D01*
X219788793Y-50227922D01*
X219768474Y-50152089D01*
X219767416Y-50147196D01*
X219754628Y-50069737D01*
X219754056Y-50064765D01*
X219748921Y-49986425D01*
X219748839Y-49981420D01*
X219751409Y-49902954D01*
X219751817Y-49897967D01*
X219762064Y-49820130D01*
X219762960Y-49815206D01*
X219780788Y-49738748D01*
X219782163Y-49733935D01*
X219807399Y-49659593D01*
X219809238Y-49654939D01*
X219841639Y-49583429D01*
X219843925Y-49578977D01*
X219858658Y-49553459D01*
X219862717Y-49544500D01*
X220597717Y-48271443D01*
X220603541Y-48263316D01*
G37*
G36*
X218403836Y-46993316D02*
G01*
X218411133Y-46986481D01*
X218419623Y-46981202D01*
X218428980Y-46977681D01*
X218438844Y-46976052D01*
X218448836Y-46976379D01*
X218458573Y-46978649D01*
X218467680Y-46982775D01*
X219853320Y-47782775D01*
X219861447Y-47788599D01*
X219868282Y-47795896D01*
X219873561Y-47804386D01*
X219877082Y-47813743D01*
X219878711Y-47823607D01*
X219878384Y-47833599D01*
X219876114Y-47843336D01*
X219871988Y-47852443D01*
X219136988Y-49125500D01*
X219131259Y-49133495D01*
X219116526Y-49159013D01*
X219113813Y-49163219D01*
X219068084Y-49227034D01*
X219064973Y-49230954D01*
X219013209Y-49289980D01*
X219009728Y-49293577D01*
X218952428Y-49347245D01*
X218948612Y-49350483D01*
X218886327Y-49398276D01*
X218882211Y-49401123D01*
X218815543Y-49442581D01*
X218811168Y-49445013D01*
X218740756Y-49479736D01*
X218736164Y-49481727D01*
X218662688Y-49509381D01*
X218657922Y-49510912D01*
X218582089Y-49531231D01*
X218577196Y-49532289D01*
X218499737Y-49545077D01*
X218494765Y-49545649D01*
X218416425Y-49550784D01*
X218411420Y-49550866D01*
X218332954Y-49548296D01*
X218327967Y-49547888D01*
X218250130Y-49537641D01*
X218245206Y-49536745D01*
X218168748Y-49518917D01*
X218163935Y-49517542D01*
X218089593Y-49492306D01*
X218084939Y-49490467D01*
X218013429Y-49458066D01*
X218008977Y-49455780D01*
X217940987Y-49416526D01*
X217936781Y-49413813D01*
X217872966Y-49368084D01*
X217869046Y-49364973D01*
X217810020Y-49313209D01*
X217806423Y-49309728D01*
X217752755Y-49252428D01*
X217749517Y-49248612D01*
X217701724Y-49186327D01*
X217698877Y-49182211D01*
X217657419Y-49115543D01*
X217654987Y-49111168D01*
X217620264Y-49040756D01*
X217618273Y-49036164D01*
X217590619Y-48962688D01*
X217589088Y-48957922D01*
X217568769Y-48882089D01*
X217567711Y-48877196D01*
X217554923Y-48799737D01*
X217554351Y-48794765D01*
X217549216Y-48716425D01*
X217549134Y-48711420D01*
X217551704Y-48632954D01*
X217552112Y-48627967D01*
X217562359Y-48550130D01*
X217563255Y-48545206D01*
X217581083Y-48468748D01*
X217582458Y-48463935D01*
X217607694Y-48389593D01*
X217609533Y-48384939D01*
X217641934Y-48313429D01*
X217644220Y-48308977D01*
X217658953Y-48283459D01*
X217663012Y-48274500D01*
X218398012Y-47001443D01*
X218403836Y-46993316D01*
G37*
G36*
X234425020Y-62709950D02*
G01*
X234422118Y-62719517D01*
X234417405Y-62728334D01*
X234411062Y-62736062D01*
X234403334Y-62742405D01*
X234394517Y-62747118D01*
X234384950Y-62750020D01*
X234375000Y-62751000D01*
X233225000Y-62751000D01*
X233215050Y-62750020D01*
X233205483Y-62747118D01*
X233196666Y-62742405D01*
X233188938Y-62736062D01*
X233182595Y-62728334D01*
X233177882Y-62719517D01*
X233174980Y-62709950D01*
X233174000Y-62700000D01*
X233174000Y-62301000D01*
X232826000Y-62301000D01*
X232826000Y-62700000D01*
X232825020Y-62709950D01*
X232822118Y-62719517D01*
X232817405Y-62728334D01*
X232811062Y-62736062D01*
X232803334Y-62742405D01*
X232794517Y-62747118D01*
X232784950Y-62750020D01*
X232775000Y-62751000D01*
X231625000Y-62751000D01*
X231615050Y-62750020D01*
X231605483Y-62747118D01*
X231596666Y-62742405D01*
X231588938Y-62736062D01*
X231582595Y-62728334D01*
X231577882Y-62719517D01*
X231574980Y-62709950D01*
X231574000Y-62700000D01*
X231574000Y-62301000D01*
X231226000Y-62301000D01*
X231226000Y-62700000D01*
X231225020Y-62709950D01*
X231222118Y-62719517D01*
X231217405Y-62728334D01*
X231211062Y-62736062D01*
X231203334Y-62742405D01*
X231194517Y-62747118D01*
X231184950Y-62750020D01*
X231175000Y-62751000D01*
X230025000Y-62751000D01*
X230015050Y-62750020D01*
X230005483Y-62747118D01*
X229996666Y-62742405D01*
X229988938Y-62736062D01*
X229982595Y-62728334D01*
X229977882Y-62719517D01*
X229974980Y-62709950D01*
X229974000Y-62700000D01*
X229974000Y-61300000D01*
X229974980Y-61290050D01*
X229977882Y-61280483D01*
X229982595Y-61271666D01*
X229988938Y-61263938D01*
X229996666Y-61257595D01*
X230005483Y-61252882D01*
X230015050Y-61249980D01*
X230025000Y-61249000D01*
X231175000Y-61249000D01*
X231184950Y-61249980D01*
X231194517Y-61252882D01*
X231203334Y-61257595D01*
X231211062Y-61263938D01*
X231217405Y-61271666D01*
X231222118Y-61280483D01*
X231225020Y-61290050D01*
X231226000Y-61300000D01*
X231226000Y-61699000D01*
X231574000Y-61699000D01*
X231574000Y-61300000D01*
X231574980Y-61290050D01*
X231577882Y-61280483D01*
X231582595Y-61271666D01*
X231588938Y-61263938D01*
X231596666Y-61257595D01*
X231605483Y-61252882D01*
X231615050Y-61249980D01*
X231625000Y-61249000D01*
X232775000Y-61249000D01*
X232784950Y-61249980D01*
X232794517Y-61252882D01*
X232803334Y-61257595D01*
X232811062Y-61263938D01*
X232817405Y-61271666D01*
X232822118Y-61280483D01*
X232825020Y-61290050D01*
X232826000Y-61300000D01*
X232826000Y-61699000D01*
X233174000Y-61699000D01*
X233174000Y-61300000D01*
X233174980Y-61290050D01*
X233177882Y-61280483D01*
X233182595Y-61271666D01*
X233188938Y-61263938D01*
X233196666Y-61257595D01*
X233205483Y-61252882D01*
X233215050Y-61249980D01*
X233225000Y-61249000D01*
X234375000Y-61249000D01*
X234384950Y-61249980D01*
X234394517Y-61252882D01*
X234403334Y-61257595D01*
X234411062Y-61263938D01*
X234417405Y-61271666D01*
X234422118Y-61280483D01*
X234425020Y-61290050D01*
X234426000Y-61300000D01*
X234426000Y-62700000D01*
X234425020Y-62709950D01*
G37*
G36*
G01*
X233174000Y-60479316D02*
X233174000Y-59520684D01*
G75*
G02*
X233445684Y-59249000I271684J0D01*
G01*
X234154316Y-59249000D01*
G75*
G02*
X234426000Y-59520684I0J-271684D01*
G01*
X234426000Y-60479316D01*
G75*
G02*
X234154316Y-60751000I-271684J0D01*
G01*
X233445684Y-60751000D01*
G75*
G02*
X233174000Y-60479316I0J271684D01*
G01*
G37*
G36*
G01*
X232826000Y-59520684D02*
X232826000Y-60479316D01*
G75*
G02*
X232554316Y-60751000I-271684J0D01*
G01*
X231845684Y-60751000D01*
G75*
G02*
X231574000Y-60479316I0J271684D01*
G01*
X231574000Y-59520684D01*
G75*
G02*
X231845684Y-59249000I271684J0D01*
G01*
X232554316Y-59249000D01*
G75*
G02*
X232826000Y-59520684I0J-271684D01*
G01*
G37*
G36*
G01*
X229974000Y-60478828D02*
X229974000Y-59521172D01*
G75*
G02*
X230246172Y-59249000I272172J0D01*
G01*
X230953828Y-59249000D01*
G75*
G02*
X231226000Y-59521172I0J-272172D01*
G01*
X231226000Y-60478828D01*
G75*
G02*
X230953828Y-60751000I-272172J0D01*
G01*
X230246172Y-60751000D01*
G75*
G02*
X229974000Y-60478828I0J272172D01*
G01*
G37*
G36*
X229974980Y-77290050D02*
G01*
X229977882Y-77280483D01*
X229982595Y-77271666D01*
X229988938Y-77263938D01*
X229996666Y-77257595D01*
X230005483Y-77252882D01*
X230015050Y-77249980D01*
X230025000Y-77249000D01*
X231175000Y-77249000D01*
X231184950Y-77249980D01*
X231194517Y-77252882D01*
X231203334Y-77257595D01*
X231211062Y-77263938D01*
X231217405Y-77271666D01*
X231222118Y-77280483D01*
X231225020Y-77290050D01*
X231226000Y-77300000D01*
X231226000Y-77699000D01*
X231574000Y-77699000D01*
X231574000Y-77300000D01*
X231574980Y-77290050D01*
X231577882Y-77280483D01*
X231582595Y-77271666D01*
X231588938Y-77263938D01*
X231596666Y-77257595D01*
X231605483Y-77252882D01*
X231615050Y-77249980D01*
X231625000Y-77249000D01*
X232775000Y-77249000D01*
X232784950Y-77249980D01*
X232794517Y-77252882D01*
X232803334Y-77257595D01*
X232811062Y-77263938D01*
X232817405Y-77271666D01*
X232822118Y-77280483D01*
X232825020Y-77290050D01*
X232826000Y-77300000D01*
X232826000Y-77699000D01*
X233174000Y-77699000D01*
X233174000Y-77300000D01*
X233174980Y-77290050D01*
X233177882Y-77280483D01*
X233182595Y-77271666D01*
X233188938Y-77263938D01*
X233196666Y-77257595D01*
X233205483Y-77252882D01*
X233215050Y-77249980D01*
X233225000Y-77249000D01*
X234375000Y-77249000D01*
X234384950Y-77249980D01*
X234394517Y-77252882D01*
X234403334Y-77257595D01*
X234411062Y-77263938D01*
X234417405Y-77271666D01*
X234422118Y-77280483D01*
X234425020Y-77290050D01*
X234426000Y-77300000D01*
X234426000Y-78700000D01*
X234425020Y-78709950D01*
X234422118Y-78719517D01*
X234417405Y-78728334D01*
X234411062Y-78736062D01*
X234403334Y-78742405D01*
X234394517Y-78747118D01*
X234384950Y-78750020D01*
X234375000Y-78751000D01*
X233225000Y-78751000D01*
X233215050Y-78750020D01*
X233205483Y-78747118D01*
X233196666Y-78742405D01*
X233188938Y-78736062D01*
X233182595Y-78728334D01*
X233177882Y-78719517D01*
X233174980Y-78709950D01*
X233174000Y-78700000D01*
X233174000Y-78301000D01*
X232826000Y-78301000D01*
X232826000Y-78700000D01*
X232825020Y-78709950D01*
X232822118Y-78719517D01*
X232817405Y-78728334D01*
X232811062Y-78736062D01*
X232803334Y-78742405D01*
X232794517Y-78747118D01*
X232784950Y-78750020D01*
X232775000Y-78751000D01*
X231625000Y-78751000D01*
X231615050Y-78750020D01*
X231605483Y-78747118D01*
X231596666Y-78742405D01*
X231588938Y-78736062D01*
X231582595Y-78728334D01*
X231577882Y-78719517D01*
X231574980Y-78709950D01*
X231574000Y-78700000D01*
X231574000Y-78301000D01*
X231226000Y-78301000D01*
X231226000Y-78700000D01*
X231225020Y-78709950D01*
X231222118Y-78719517D01*
X231217405Y-78728334D01*
X231211062Y-78736062D01*
X231203334Y-78742405D01*
X231194517Y-78747118D01*
X231184950Y-78750020D01*
X231175000Y-78751000D01*
X230025000Y-78751000D01*
X230015050Y-78750020D01*
X230005483Y-78747118D01*
X229996666Y-78742405D01*
X229988938Y-78736062D01*
X229982595Y-78728334D01*
X229977882Y-78719517D01*
X229974980Y-78709950D01*
X229974000Y-78700000D01*
X229974000Y-77300000D01*
X229974980Y-77290050D01*
G37*
G36*
G01*
X231226000Y-79520684D02*
X231226000Y-80479316D01*
G75*
G02*
X230954316Y-80751000I-271684J0D01*
G01*
X230245684Y-80751000D01*
G75*
G02*
X229974000Y-80479316I0J271684D01*
G01*
X229974000Y-79520684D01*
G75*
G02*
X230245684Y-79249000I271684J0D01*
G01*
X230954316Y-79249000D01*
G75*
G02*
X231226000Y-79520684I0J-271684D01*
G01*
G37*
G36*
G01*
X231574000Y-80479316D02*
X231574000Y-79520684D01*
G75*
G02*
X231845684Y-79249000I271684J0D01*
G01*
X232554316Y-79249000D01*
G75*
G02*
X232826000Y-79520684I0J-271684D01*
G01*
X232826000Y-80479316D01*
G75*
G02*
X232554316Y-80751000I-271684J0D01*
G01*
X231845684Y-80751000D01*
G75*
G02*
X231574000Y-80479316I0J271684D01*
G01*
G37*
G36*
G01*
X234426000Y-79521172D02*
X234426000Y-80478828D01*
G75*
G02*
X234153828Y-80751000I-272172J0D01*
G01*
X233446172Y-80751000D01*
G75*
G02*
X233174000Y-80478828I0J272172D01*
G01*
X233174000Y-79521172D01*
G75*
G02*
X233446172Y-79249000I272172J0D01*
G01*
X234153828Y-79249000D01*
G75*
G02*
X234426000Y-79521172I0J-272172D01*
G01*
G37*
G36*
X210490050Y-79375020D02*
G01*
X210480483Y-79372118D01*
X210471666Y-79367405D01*
X210463938Y-79361062D01*
X210457595Y-79353334D01*
X210452882Y-79344517D01*
X210449980Y-79334950D01*
X210449000Y-79325000D01*
X210449000Y-78175000D01*
X210449980Y-78165050D01*
X210452882Y-78155483D01*
X210457595Y-78146666D01*
X210463938Y-78138938D01*
X210471666Y-78132595D01*
X210480483Y-78127882D01*
X210490050Y-78124980D01*
X210500000Y-78124000D01*
X210899000Y-78124000D01*
X210899000Y-77776000D01*
X210500000Y-77776000D01*
X210490050Y-77775020D01*
X210480483Y-77772118D01*
X210471666Y-77767405D01*
X210463938Y-77761062D01*
X210457595Y-77753334D01*
X210452882Y-77744517D01*
X210449980Y-77734950D01*
X210449000Y-77725000D01*
X210449000Y-76575000D01*
X210449980Y-76565050D01*
X210452882Y-76555483D01*
X210457595Y-76546666D01*
X210463938Y-76538938D01*
X210471666Y-76532595D01*
X210480483Y-76527882D01*
X210490050Y-76524980D01*
X210500000Y-76524000D01*
X210899000Y-76524000D01*
X210899000Y-76176000D01*
X210500000Y-76176000D01*
X210490050Y-76175020D01*
X210480483Y-76172118D01*
X210471666Y-76167405D01*
X210463938Y-76161062D01*
X210457595Y-76153334D01*
X210452882Y-76144517D01*
X210449980Y-76134950D01*
X210449000Y-76125000D01*
X210449000Y-74975000D01*
X210449980Y-74965050D01*
X210452882Y-74955483D01*
X210457595Y-74946666D01*
X210463938Y-74938938D01*
X210471666Y-74932595D01*
X210480483Y-74927882D01*
X210490050Y-74924980D01*
X210500000Y-74924000D01*
X210899000Y-74924000D01*
X210899000Y-74576000D01*
X210500000Y-74576000D01*
X210490050Y-74575020D01*
X210480483Y-74572118D01*
X210471666Y-74567405D01*
X210463938Y-74561062D01*
X210457595Y-74553334D01*
X210452882Y-74544517D01*
X210449980Y-74534950D01*
X210449000Y-74525000D01*
X210449000Y-73375000D01*
X210449980Y-73365050D01*
X210452882Y-73355483D01*
X210457595Y-73346666D01*
X210463938Y-73338938D01*
X210471666Y-73332595D01*
X210480483Y-73327882D01*
X210490050Y-73324980D01*
X210500000Y-73324000D01*
X211900000Y-73324000D01*
X211909950Y-73324980D01*
X211919517Y-73327882D01*
X211928334Y-73332595D01*
X211936062Y-73338938D01*
X211942405Y-73346666D01*
X211947118Y-73355483D01*
X211950020Y-73365050D01*
X211951000Y-73375000D01*
X211951000Y-74525000D01*
X211950020Y-74534950D01*
X211947118Y-74544517D01*
X211942405Y-74553334D01*
X211936062Y-74561062D01*
X211928334Y-74567405D01*
X211919517Y-74572118D01*
X211909950Y-74575020D01*
X211900000Y-74576000D01*
X211501000Y-74576000D01*
X211501000Y-74924000D01*
X211900000Y-74924000D01*
X211909950Y-74924980D01*
X211919517Y-74927882D01*
X211928334Y-74932595D01*
X211936062Y-74938938D01*
X211942405Y-74946666D01*
X211947118Y-74955483D01*
X211950020Y-74965050D01*
X211951000Y-74975000D01*
X211951000Y-76125000D01*
X211950020Y-76134950D01*
X211947118Y-76144517D01*
X211942405Y-76153334D01*
X211936062Y-76161062D01*
X211928334Y-76167405D01*
X211919517Y-76172118D01*
X211909950Y-76175020D01*
X211900000Y-76176000D01*
X211501000Y-76176000D01*
X211501000Y-76524000D01*
X211900000Y-76524000D01*
X211909950Y-76524980D01*
X211919517Y-76527882D01*
X211928334Y-76532595D01*
X211936062Y-76538938D01*
X211942405Y-76546666D01*
X211947118Y-76555483D01*
X211950020Y-76565050D01*
X211951000Y-76575000D01*
X211951000Y-77725000D01*
X211950020Y-77734950D01*
X211947118Y-77744517D01*
X211942405Y-77753334D01*
X211936062Y-77761062D01*
X211928334Y-77767405D01*
X211919517Y-77772118D01*
X211909950Y-77775020D01*
X211900000Y-77776000D01*
X211501000Y-77776000D01*
X211501000Y-78124000D01*
X211900000Y-78124000D01*
X211909950Y-78124980D01*
X211919517Y-78127882D01*
X211928334Y-78132595D01*
X211936062Y-78138938D01*
X211942405Y-78146666D01*
X211947118Y-78155483D01*
X211950020Y-78165050D01*
X211951000Y-78175000D01*
X211951000Y-79325000D01*
X211950020Y-79334950D01*
X211947118Y-79344517D01*
X211942405Y-79353334D01*
X211936062Y-79361062D01*
X211928334Y-79367405D01*
X211919517Y-79372118D01*
X211909950Y-79375020D01*
X211900000Y-79376000D01*
X210500000Y-79376000D01*
X210490050Y-79375020D01*
G37*
G36*
G01*
X213679316Y-79376000D02*
X212720684Y-79376000D01*
G75*
G02*
X212449000Y-79104316I0J271684D01*
G01*
X212449000Y-78395684D01*
G75*
G02*
X212720684Y-78124000I271684J0D01*
G01*
X213679316Y-78124000D01*
G75*
G02*
X213951000Y-78395684I0J-271684D01*
G01*
X213951000Y-79104316D01*
G75*
G02*
X213679316Y-79376000I-271684J0D01*
G01*
G37*
G36*
G01*
X212720684Y-76524000D02*
X213679316Y-76524000D01*
G75*
G02*
X213951000Y-76795684I0J-271684D01*
G01*
X213951000Y-77504316D01*
G75*
G02*
X213679316Y-77776000I-271684J0D01*
G01*
X212720684Y-77776000D01*
G75*
G02*
X212449000Y-77504316I0J271684D01*
G01*
X212449000Y-76795684D01*
G75*
G02*
X212720684Y-76524000I271684J0D01*
G01*
G37*
G36*
G01*
X213679316Y-76176000D02*
X212720684Y-76176000D01*
G75*
G02*
X212449000Y-75904316I0J271684D01*
G01*
X212449000Y-75195684D01*
G75*
G02*
X212720684Y-74924000I271684J0D01*
G01*
X213679316Y-74924000D01*
G75*
G02*
X213951000Y-75195684I0J-271684D01*
G01*
X213951000Y-75904316D01*
G75*
G02*
X213679316Y-76176000I-271684J0D01*
G01*
G37*
G36*
G01*
X212721172Y-73324000D02*
X213678828Y-73324000D01*
G75*
G02*
X213951000Y-73596172I0J-272172D01*
G01*
X213951000Y-74303828D01*
G75*
G02*
X213678828Y-74576000I-272172J0D01*
G01*
X212721172Y-74576000D01*
G75*
G02*
X212449000Y-74303828I0J272172D01*
G01*
X212449000Y-73596172D01*
G75*
G02*
X212721172Y-73324000I272172J0D01*
G01*
G37*
G36*
X227225020Y-69509950D02*
G01*
X227222118Y-69519517D01*
X227217405Y-69528334D01*
X227211062Y-69536062D01*
X227203334Y-69542405D01*
X227194517Y-69547118D01*
X227184950Y-69550020D01*
X227175000Y-69551000D01*
X226025000Y-69551000D01*
X226015050Y-69550020D01*
X226005483Y-69547118D01*
X225996666Y-69542405D01*
X225988938Y-69536062D01*
X225982595Y-69528334D01*
X225977882Y-69519517D01*
X225974980Y-69509950D01*
X225974000Y-69500000D01*
X225974000Y-69101000D01*
X225626000Y-69101000D01*
X225626000Y-69500000D01*
X225625020Y-69509950D01*
X225622118Y-69519517D01*
X225617405Y-69528334D01*
X225611062Y-69536062D01*
X225603334Y-69542405D01*
X225594517Y-69547118D01*
X225584950Y-69550020D01*
X225575000Y-69551000D01*
X224425000Y-69551000D01*
X224415050Y-69550020D01*
X224405483Y-69547118D01*
X224396666Y-69542405D01*
X224388938Y-69536062D01*
X224382595Y-69528334D01*
X224377882Y-69519517D01*
X224374980Y-69509950D01*
X224374000Y-69500000D01*
X224374000Y-69101000D01*
X224026000Y-69101000D01*
X224026000Y-69500000D01*
X224025020Y-69509950D01*
X224022118Y-69519517D01*
X224017405Y-69528334D01*
X224011062Y-69536062D01*
X224003334Y-69542405D01*
X223994517Y-69547118D01*
X223984950Y-69550020D01*
X223975000Y-69551000D01*
X222825000Y-69551000D01*
X222815050Y-69550020D01*
X222805483Y-69547118D01*
X222796666Y-69542405D01*
X222788938Y-69536062D01*
X222782595Y-69528334D01*
X222777882Y-69519517D01*
X222774980Y-69509950D01*
X222774000Y-69500000D01*
X222774000Y-69101000D01*
X222426000Y-69101000D01*
X222426000Y-69500000D01*
X222425020Y-69509950D01*
X222422118Y-69519517D01*
X222417405Y-69528334D01*
X222411062Y-69536062D01*
X222403334Y-69542405D01*
X222394517Y-69547118D01*
X222384950Y-69550020D01*
X222375000Y-69551000D01*
X221225000Y-69551000D01*
X221215050Y-69550020D01*
X221205483Y-69547118D01*
X221196666Y-69542405D01*
X221188938Y-69536062D01*
X221182595Y-69528334D01*
X221177882Y-69519517D01*
X221174980Y-69509950D01*
X221174000Y-69500000D01*
X221174000Y-68100000D01*
X221174980Y-68090050D01*
X221177882Y-68080483D01*
X221182595Y-68071666D01*
X221188938Y-68063938D01*
X221196666Y-68057595D01*
X221205483Y-68052882D01*
X221215050Y-68049980D01*
X221225000Y-68049000D01*
X222375000Y-68049000D01*
X222384950Y-68049980D01*
X222394517Y-68052882D01*
X222403334Y-68057595D01*
X222411062Y-68063938D01*
X222417405Y-68071666D01*
X222422118Y-68080483D01*
X222425020Y-68090050D01*
X222426000Y-68100000D01*
X222426000Y-68499000D01*
X222774000Y-68499000D01*
X222774000Y-68100000D01*
X222774980Y-68090050D01*
X222777882Y-68080483D01*
X222782595Y-68071666D01*
X222788938Y-68063938D01*
X222796666Y-68057595D01*
X222805483Y-68052882D01*
X222815050Y-68049980D01*
X222825000Y-68049000D01*
X223975000Y-68049000D01*
X223984950Y-68049980D01*
X223994517Y-68052882D01*
X224003334Y-68057595D01*
X224011062Y-68063938D01*
X224017405Y-68071666D01*
X224022118Y-68080483D01*
X224025020Y-68090050D01*
X224026000Y-68100000D01*
X224026000Y-68499000D01*
X224374000Y-68499000D01*
X224374000Y-68100000D01*
X224374980Y-68090050D01*
X224377882Y-68080483D01*
X224382595Y-68071666D01*
X224388938Y-68063938D01*
X224396666Y-68057595D01*
X224405483Y-68052882D01*
X224415050Y-68049980D01*
X224425000Y-68049000D01*
X225575000Y-68049000D01*
X225584950Y-68049980D01*
X225594517Y-68052882D01*
X225603334Y-68057595D01*
X225611062Y-68063938D01*
X225617405Y-68071666D01*
X225622118Y-68080483D01*
X225625020Y-68090050D01*
X225626000Y-68100000D01*
X225626000Y-68499000D01*
X225974000Y-68499000D01*
X225974000Y-68100000D01*
X225974980Y-68090050D01*
X225977882Y-68080483D01*
X225982595Y-68071666D01*
X225988938Y-68063938D01*
X225996666Y-68057595D01*
X226005483Y-68052882D01*
X226015050Y-68049980D01*
X226025000Y-68049000D01*
X227175000Y-68049000D01*
X227184950Y-68049980D01*
X227194517Y-68052882D01*
X227203334Y-68057595D01*
X227211062Y-68063938D01*
X227217405Y-68071666D01*
X227222118Y-68080483D01*
X227225020Y-68090050D01*
X227226000Y-68100000D01*
X227226000Y-69500000D01*
X227225020Y-69509950D01*
G37*
G36*
G01*
X227226000Y-66320684D02*
X227226000Y-67279316D01*
G75*
G02*
X226954316Y-67551000I-271684J0D01*
G01*
X226245684Y-67551000D01*
G75*
G02*
X225974000Y-67279316I0J271684D01*
G01*
X225974000Y-66320684D01*
G75*
G02*
X226245684Y-66049000I271684J0D01*
G01*
X226954316Y-66049000D01*
G75*
G02*
X227226000Y-66320684I0J-271684D01*
G01*
G37*
G36*
G01*
X224374000Y-67279316D02*
X224374000Y-66320684D01*
G75*
G02*
X224645684Y-66049000I271684J0D01*
G01*
X225354316Y-66049000D01*
G75*
G02*
X225626000Y-66320684I0J-271684D01*
G01*
X225626000Y-67279316D01*
G75*
G02*
X225354316Y-67551000I-271684J0D01*
G01*
X224645684Y-67551000D01*
G75*
G02*
X224374000Y-67279316I0J271684D01*
G01*
G37*
G36*
G01*
X224026000Y-66320684D02*
X224026000Y-67279316D01*
G75*
G02*
X223754316Y-67551000I-271684J0D01*
G01*
X223045684Y-67551000D01*
G75*
G02*
X222774000Y-67279316I0J271684D01*
G01*
X222774000Y-66320684D01*
G75*
G02*
X223045684Y-66049000I271684J0D01*
G01*
X223754316Y-66049000D01*
G75*
G02*
X224026000Y-66320684I0J-271684D01*
G01*
G37*
G36*
G01*
X221174000Y-67278828D02*
X221174000Y-66321172D01*
G75*
G02*
X221446172Y-66049000I272172J0D01*
G01*
X222153828Y-66049000D01*
G75*
G02*
X222426000Y-66321172I0J-272172D01*
G01*
X222426000Y-67278828D01*
G75*
G02*
X222153828Y-67551000I-272172J0D01*
G01*
X221446172Y-67551000D01*
G75*
G02*
X221174000Y-67278828I0J272172D01*
G01*
G37*
G36*
X221374980Y-73190050D02*
G01*
X221377882Y-73180483D01*
X221382595Y-73171666D01*
X221388938Y-73163938D01*
X221396666Y-73157595D01*
X221405483Y-73152882D01*
X221415050Y-73149980D01*
X221425000Y-73149000D01*
X222575000Y-73149000D01*
X222584950Y-73149980D01*
X222594517Y-73152882D01*
X222603334Y-73157595D01*
X222611062Y-73163938D01*
X222617405Y-73171666D01*
X222622118Y-73180483D01*
X222625020Y-73190050D01*
X222626000Y-73200000D01*
X222626000Y-73599000D01*
X222974000Y-73599000D01*
X222974000Y-73200000D01*
X222974980Y-73190050D01*
X222977882Y-73180483D01*
X222982595Y-73171666D01*
X222988938Y-73163938D01*
X222996666Y-73157595D01*
X223005483Y-73152882D01*
X223015050Y-73149980D01*
X223025000Y-73149000D01*
X224175000Y-73149000D01*
X224184950Y-73149980D01*
X224194517Y-73152882D01*
X224203334Y-73157595D01*
X224211062Y-73163938D01*
X224217405Y-73171666D01*
X224222118Y-73180483D01*
X224225020Y-73190050D01*
X224226000Y-73200000D01*
X224226000Y-73599000D01*
X224574000Y-73599000D01*
X224574000Y-73200000D01*
X224574980Y-73190050D01*
X224577882Y-73180483D01*
X224582595Y-73171666D01*
X224588938Y-73163938D01*
X224596666Y-73157595D01*
X224605483Y-73152882D01*
X224615050Y-73149980D01*
X224625000Y-73149000D01*
X225775000Y-73149000D01*
X225784950Y-73149980D01*
X225794517Y-73152882D01*
X225803334Y-73157595D01*
X225811062Y-73163938D01*
X225817405Y-73171666D01*
X225822118Y-73180483D01*
X225825020Y-73190050D01*
X225826000Y-73200000D01*
X225826000Y-73599000D01*
X226174000Y-73599000D01*
X226174000Y-73200000D01*
X226174980Y-73190050D01*
X226177882Y-73180483D01*
X226182595Y-73171666D01*
X226188938Y-73163938D01*
X226196666Y-73157595D01*
X226205483Y-73152882D01*
X226215050Y-73149980D01*
X226225000Y-73149000D01*
X227375000Y-73149000D01*
X227384950Y-73149980D01*
X227394517Y-73152882D01*
X227403334Y-73157595D01*
X227411062Y-73163938D01*
X227417405Y-73171666D01*
X227422118Y-73180483D01*
X227425020Y-73190050D01*
X227426000Y-73200000D01*
X227426000Y-74600000D01*
X227425020Y-74609950D01*
X227422118Y-74619517D01*
X227417405Y-74628334D01*
X227411062Y-74636062D01*
X227403334Y-74642405D01*
X227394517Y-74647118D01*
X227384950Y-74650020D01*
X227375000Y-74651000D01*
X226225000Y-74651000D01*
X226215050Y-74650020D01*
X226205483Y-74647118D01*
X226196666Y-74642405D01*
X226188938Y-74636062D01*
X226182595Y-74628334D01*
X226177882Y-74619517D01*
X226174980Y-74609950D01*
X226174000Y-74600000D01*
X226174000Y-74201000D01*
X225826000Y-74201000D01*
X225826000Y-74600000D01*
X225825020Y-74609950D01*
X225822118Y-74619517D01*
X225817405Y-74628334D01*
X225811062Y-74636062D01*
X225803334Y-74642405D01*
X225794517Y-74647118D01*
X225784950Y-74650020D01*
X225775000Y-74651000D01*
X224625000Y-74651000D01*
X224615050Y-74650020D01*
X224605483Y-74647118D01*
X224596666Y-74642405D01*
X224588938Y-74636062D01*
X224582595Y-74628334D01*
X224577882Y-74619517D01*
X224574980Y-74609950D01*
X224574000Y-74600000D01*
X224574000Y-74201000D01*
X224226000Y-74201000D01*
X224226000Y-74600000D01*
X224225020Y-74609950D01*
X224222118Y-74619517D01*
X224217405Y-74628334D01*
X224211062Y-74636062D01*
X224203334Y-74642405D01*
X224194517Y-74647118D01*
X224184950Y-74650020D01*
X224175000Y-74651000D01*
X223025000Y-74651000D01*
X223015050Y-74650020D01*
X223005483Y-74647118D01*
X222996666Y-74642405D01*
X222988938Y-74636062D01*
X222982595Y-74628334D01*
X222977882Y-74619517D01*
X222974980Y-74609950D01*
X222974000Y-74600000D01*
X222974000Y-74201000D01*
X222626000Y-74201000D01*
X222626000Y-74600000D01*
X222625020Y-74609950D01*
X222622118Y-74619517D01*
X222617405Y-74628334D01*
X222611062Y-74636062D01*
X222603334Y-74642405D01*
X222594517Y-74647118D01*
X222584950Y-74650020D01*
X222575000Y-74651000D01*
X221425000Y-74651000D01*
X221415050Y-74650020D01*
X221405483Y-74647118D01*
X221396666Y-74642405D01*
X221388938Y-74636062D01*
X221382595Y-74628334D01*
X221377882Y-74619517D01*
X221374980Y-74609950D01*
X221374000Y-74600000D01*
X221374000Y-73200000D01*
X221374980Y-73190050D01*
G37*
G36*
G01*
X221374000Y-76379316D02*
X221374000Y-75420684D01*
G75*
G02*
X221645684Y-75149000I271684J0D01*
G01*
X222354316Y-75149000D01*
G75*
G02*
X222626000Y-75420684I0J-271684D01*
G01*
X222626000Y-76379316D01*
G75*
G02*
X222354316Y-76651000I-271684J0D01*
G01*
X221645684Y-76651000D01*
G75*
G02*
X221374000Y-76379316I0J271684D01*
G01*
G37*
G36*
G01*
X224226000Y-75420684D02*
X224226000Y-76379316D01*
G75*
G02*
X223954316Y-76651000I-271684J0D01*
G01*
X223245684Y-76651000D01*
G75*
G02*
X222974000Y-76379316I0J271684D01*
G01*
X222974000Y-75420684D01*
G75*
G02*
X223245684Y-75149000I271684J0D01*
G01*
X223954316Y-75149000D01*
G75*
G02*
X224226000Y-75420684I0J-271684D01*
G01*
G37*
G36*
G01*
X224574000Y-76379316D02*
X224574000Y-75420684D01*
G75*
G02*
X224845684Y-75149000I271684J0D01*
G01*
X225554316Y-75149000D01*
G75*
G02*
X225826000Y-75420684I0J-271684D01*
G01*
X225826000Y-76379316D01*
G75*
G02*
X225554316Y-76651000I-271684J0D01*
G01*
X224845684Y-76651000D01*
G75*
G02*
X224574000Y-76379316I0J271684D01*
G01*
G37*
G36*
G01*
X227426000Y-75421172D02*
X227426000Y-76378828D01*
G75*
G02*
X227153828Y-76651000I-272172J0D01*
G01*
X226446172Y-76651000D01*
G75*
G02*
X226174000Y-76378828I0J272172D01*
G01*
X226174000Y-75421172D01*
G75*
G02*
X226446172Y-75149000I272172J0D01*
G01*
X227153828Y-75149000D01*
G75*
G02*
X227426000Y-75421172I0J-272172D01*
G01*
G37*
G36*
X209838829Y-48776643D02*
G01*
X209829093Y-48778913D01*
X209819101Y-48779240D01*
X209809237Y-48777611D01*
X209799879Y-48774090D01*
X209791389Y-48768810D01*
X209784093Y-48761976D01*
X209778269Y-48753849D01*
X209203269Y-47757920D01*
X209199143Y-47748813D01*
X209196872Y-47739077D01*
X209196545Y-47729085D01*
X209198175Y-47719220D01*
X209201696Y-47709863D01*
X209206975Y-47701373D01*
X209213809Y-47694076D01*
X209221936Y-47688253D01*
X209567480Y-47488753D01*
X209393480Y-47187376D01*
X209047936Y-47386876D01*
X209038829Y-47391002D01*
X209029093Y-47393272D01*
X209019101Y-47393599D01*
X209009237Y-47391970D01*
X208999879Y-47388449D01*
X208991389Y-47383170D01*
X208984093Y-47376336D01*
X208978269Y-47368209D01*
X208403269Y-46372279D01*
X208399143Y-46363172D01*
X208396872Y-46353436D01*
X208396545Y-46343444D01*
X208398175Y-46333580D01*
X208401696Y-46324223D01*
X208406975Y-46315733D01*
X208413809Y-46308436D01*
X208421936Y-46302612D01*
X209634372Y-45602612D01*
X209643479Y-45598486D01*
X209653215Y-45596216D01*
X209663207Y-45595889D01*
X209673071Y-45597518D01*
X209682429Y-45601039D01*
X209690919Y-45606318D01*
X209698215Y-45613152D01*
X209704039Y-45621279D01*
X210279039Y-46617209D01*
X210283165Y-46626316D01*
X210285436Y-46636052D01*
X210285763Y-46646044D01*
X210284133Y-46655908D01*
X210280612Y-46665265D01*
X210275333Y-46673755D01*
X210268499Y-46681052D01*
X210260372Y-46686876D01*
X209914828Y-46886376D01*
X210088828Y-47187753D01*
X210434372Y-46988253D01*
X210443479Y-46984126D01*
X210453215Y-46981856D01*
X210463207Y-46981529D01*
X210473071Y-46983158D01*
X210482429Y-46986680D01*
X210490919Y-46991959D01*
X210498215Y-46998793D01*
X210504039Y-47006920D01*
X211079039Y-48002849D01*
X211083165Y-48011956D01*
X211085436Y-48021692D01*
X211085763Y-48031685D01*
X211084133Y-48041549D01*
X211080612Y-48050906D01*
X211075333Y-48059396D01*
X211068499Y-48066693D01*
X211060372Y-48072517D01*
X209847936Y-48772517D01*
X209838829Y-48776643D01*
G37*
G36*
G01*
X212601305Y-47182859D02*
X211771105Y-47662175D01*
G75*
G02*
X211399978Y-47562732I-135842J235285D01*
G01*
X211045662Y-46949038D01*
G75*
G02*
X211145105Y-46577911I235285J135842D01*
G01*
X211975305Y-46098595D01*
G75*
G02*
X212346432Y-46198038I135842J-235285D01*
G01*
X212700748Y-46811732D01*
G75*
G02*
X212601305Y-47182859I-235285J-135842D01*
G01*
G37*
G36*
G01*
X210345528Y-45192026D02*
X211174882Y-44713198D01*
G75*
G02*
X211546676Y-44812820I136086J-235708D01*
G01*
X211900504Y-45425668D01*
G75*
G02*
X211800882Y-45797462I-235708J-136086D01*
G01*
X210971528Y-46276290D01*
G75*
G02*
X210599734Y-46176668I-136086J235708D01*
G01*
X210245906Y-45563820D01*
G75*
G02*
X210345528Y-45192026I235708J136086D01*
G01*
G37*
G36*
X208596778Y-61232010D02*
G01*
X208587042Y-61234280D01*
X208577050Y-61234607D01*
X208567186Y-61232978D01*
X208557828Y-61229457D01*
X208549338Y-61224178D01*
X208542042Y-61217343D01*
X208536218Y-61209216D01*
X207936218Y-60169986D01*
X207932092Y-60160879D01*
X207929821Y-60151143D01*
X207929494Y-60141151D01*
X207931124Y-60131286D01*
X207934645Y-60121929D01*
X207939924Y-60113439D01*
X207946758Y-60106142D01*
X207954885Y-60100319D01*
X208300429Y-59900819D01*
X208151429Y-59642743D01*
X207805885Y-59842243D01*
X207796778Y-59846369D01*
X207787042Y-59848640D01*
X207777050Y-59848967D01*
X207767186Y-59847337D01*
X207757828Y-59843816D01*
X207749338Y-59838537D01*
X207742042Y-59831703D01*
X207736218Y-59823576D01*
X207136218Y-58784345D01*
X207132092Y-58775238D01*
X207129821Y-58765502D01*
X207129494Y-58755510D01*
X207131124Y-58745646D01*
X207134645Y-58736289D01*
X207139924Y-58727798D01*
X207146758Y-58720502D01*
X207154885Y-58714678D01*
X207500429Y-58515178D01*
X207351429Y-58257102D01*
X207005885Y-58456602D01*
X206996778Y-58460729D01*
X206987042Y-58462999D01*
X206977050Y-58463326D01*
X206967186Y-58461697D01*
X206957828Y-58458176D01*
X206949338Y-58452896D01*
X206942042Y-58446062D01*
X206936218Y-58437935D01*
X206336218Y-57398705D01*
X206332092Y-57389598D01*
X206329821Y-57379861D01*
X206329494Y-57369869D01*
X206331124Y-57360005D01*
X206334645Y-57350648D01*
X206339924Y-57342158D01*
X206346758Y-57334861D01*
X206354885Y-57329037D01*
X206700429Y-57129537D01*
X206551429Y-56871462D01*
X206205885Y-57070962D01*
X206196778Y-57075088D01*
X206187042Y-57077358D01*
X206177050Y-57077685D01*
X206167186Y-57076056D01*
X206157828Y-57072535D01*
X206149338Y-57067256D01*
X206142042Y-57060421D01*
X206136218Y-57052295D01*
X205536218Y-56013064D01*
X205532092Y-56003957D01*
X205529821Y-55994221D01*
X205529494Y-55984229D01*
X205531124Y-55974364D01*
X205534645Y-55965007D01*
X205539924Y-55956517D01*
X205546758Y-55949220D01*
X205554885Y-55943397D01*
X205900429Y-55743897D01*
X205751429Y-55485821D01*
X205405885Y-55685321D01*
X205396778Y-55689447D01*
X205387042Y-55691718D01*
X205377050Y-55692045D01*
X205367186Y-55690415D01*
X205357828Y-55686894D01*
X205349338Y-55681615D01*
X205342042Y-55674781D01*
X205336218Y-55666654D01*
X204736218Y-54627423D01*
X204732092Y-54618316D01*
X204729821Y-54608580D01*
X204729494Y-54598588D01*
X204731124Y-54588724D01*
X204734645Y-54579367D01*
X204739924Y-54570877D01*
X204746758Y-54563580D01*
X204754885Y-54557756D01*
X205100429Y-54358256D01*
X204938929Y-54078530D01*
X204593385Y-54278030D01*
X204584278Y-54282156D01*
X204574542Y-54284426D01*
X204564550Y-54284753D01*
X204554686Y-54283124D01*
X204545328Y-54279603D01*
X204536838Y-54274324D01*
X204529542Y-54267490D01*
X204523718Y-54259363D01*
X203948718Y-53263433D01*
X203944592Y-53254326D01*
X203942321Y-53244590D01*
X203941994Y-53234598D01*
X203943624Y-53224734D01*
X203947145Y-53215377D01*
X203952424Y-53206887D01*
X203959258Y-53199590D01*
X203967385Y-53193766D01*
X205179821Y-52493766D01*
X205188928Y-52489640D01*
X205198664Y-52487370D01*
X205208656Y-52487043D01*
X205218520Y-52488672D01*
X205227878Y-52492193D01*
X205236368Y-52497472D01*
X205243664Y-52504306D01*
X205249488Y-52512433D01*
X205824488Y-53508363D01*
X205828614Y-53517470D01*
X205830885Y-53527206D01*
X205831212Y-53537198D01*
X205829582Y-53547062D01*
X205826061Y-53556419D01*
X205820782Y-53564909D01*
X205813948Y-53572206D01*
X205805821Y-53578030D01*
X205460277Y-53777530D01*
X205621777Y-54057256D01*
X205967321Y-53857756D01*
X205976428Y-53853630D01*
X205986164Y-53851360D01*
X205996156Y-53851033D01*
X206006020Y-53852662D01*
X206015378Y-53856183D01*
X206023868Y-53861462D01*
X206031164Y-53868296D01*
X206036988Y-53876423D01*
X206636988Y-54915654D01*
X206641114Y-54924761D01*
X206643385Y-54934497D01*
X206643712Y-54944489D01*
X206642082Y-54954353D01*
X206638561Y-54963711D01*
X206633282Y-54972201D01*
X206626448Y-54979497D01*
X206618321Y-54985321D01*
X206272777Y-55184821D01*
X206421777Y-55442897D01*
X206767321Y-55243397D01*
X206776428Y-55239270D01*
X206786164Y-55237000D01*
X206796156Y-55236673D01*
X206806020Y-55238302D01*
X206815378Y-55241824D01*
X206823868Y-55247103D01*
X206831164Y-55253937D01*
X206836988Y-55262064D01*
X207436988Y-56301295D01*
X207441114Y-56310401D01*
X207443385Y-56320138D01*
X207443712Y-56330130D01*
X207442082Y-56339994D01*
X207438561Y-56349351D01*
X207433282Y-56357841D01*
X207426448Y-56365138D01*
X207418321Y-56370962D01*
X207072777Y-56570462D01*
X207221777Y-56828537D01*
X207567321Y-56629037D01*
X207576428Y-56624911D01*
X207586164Y-56622641D01*
X207596156Y-56622314D01*
X207606020Y-56623943D01*
X207615378Y-56627464D01*
X207623868Y-56632743D01*
X207631164Y-56639578D01*
X207636988Y-56647705D01*
X208236988Y-57686935D01*
X208241114Y-57696042D01*
X208243385Y-57705778D01*
X208243712Y-57715771D01*
X208242082Y-57725635D01*
X208238561Y-57734992D01*
X208233282Y-57743482D01*
X208226448Y-57750779D01*
X208218321Y-57756602D01*
X207872777Y-57956102D01*
X208021777Y-58214178D01*
X208367321Y-58014678D01*
X208376428Y-58010552D01*
X208386164Y-58008281D01*
X208396156Y-58007955D01*
X208406020Y-58009584D01*
X208415378Y-58013105D01*
X208423868Y-58018384D01*
X208431164Y-58025218D01*
X208436988Y-58033345D01*
X209036988Y-59072576D01*
X209041114Y-59081683D01*
X209043385Y-59091419D01*
X209043712Y-59101411D01*
X209042082Y-59111275D01*
X209038561Y-59120633D01*
X209033282Y-59129123D01*
X209026448Y-59136419D01*
X209018321Y-59142243D01*
X208672777Y-59341743D01*
X208821777Y-59599819D01*
X209167321Y-59400319D01*
X209176428Y-59396192D01*
X209186164Y-59393922D01*
X209196156Y-59393595D01*
X209206020Y-59395224D01*
X209215378Y-59398746D01*
X209223868Y-59404025D01*
X209231164Y-59410859D01*
X209236988Y-59418986D01*
X209836988Y-60458216D01*
X209841114Y-60467323D01*
X209843385Y-60477060D01*
X209843712Y-60487052D01*
X209842082Y-60496916D01*
X209838561Y-60506273D01*
X209833282Y-60514763D01*
X209826448Y-60522060D01*
X209818321Y-60527884D01*
X208605885Y-61227884D01*
X208596778Y-61232010D01*
G37*
G36*
G01*
X209803951Y-59061627D02*
X210634151Y-58582311D01*
G75*
G02*
X211005278Y-58681754I135842J-235285D01*
G01*
X211359594Y-59295448D01*
G75*
G02*
X211260151Y-59666575I-235285J-135842D01*
G01*
X210429951Y-60145891D01*
G75*
G02*
X210058824Y-60046448I-135842J235285D01*
G01*
X209704508Y-59432754D01*
G75*
G02*
X209803951Y-59061627I235285J135842D01*
G01*
G37*
G36*
G01*
X209003951Y-57675987D02*
X209834151Y-57196671D01*
G75*
G02*
X210205278Y-57296114I135842J-235285D01*
G01*
X210559594Y-57909808D01*
G75*
G02*
X210460151Y-58280935I-235285J-135842D01*
G01*
X209629951Y-58760251D01*
G75*
G02*
X209258824Y-58660808I-135842J235285D01*
G01*
X208904508Y-58047114D01*
G75*
G02*
X209003951Y-57675987I235285J135842D01*
G01*
G37*
G36*
G01*
X209660151Y-56895294D02*
X208829951Y-57374610D01*
G75*
G02*
X208458824Y-57275167I-135842J235285D01*
G01*
X208104508Y-56661473D01*
G75*
G02*
X208203951Y-56290346I235285J135842D01*
G01*
X209034151Y-55811030D01*
G75*
G02*
X209405278Y-55910473I135842J-235285D01*
G01*
X209759594Y-56524167D01*
G75*
G02*
X209660151Y-56895294I-235285J-135842D01*
G01*
G37*
G36*
G01*
X207403951Y-54904705D02*
X208234151Y-54425389D01*
G75*
G02*
X208605278Y-54524832I135842J-235285D01*
G01*
X208959594Y-55138526D01*
G75*
G02*
X208860151Y-55509653I-235285J-135842D01*
G01*
X208029951Y-55988969D01*
G75*
G02*
X207658824Y-55889526I-135842J235285D01*
G01*
X207304508Y-55275832D01*
G75*
G02*
X207403951Y-54904705I235285J135842D01*
G01*
G37*
G36*
G01*
X208060151Y-54124013D02*
X207229951Y-54603329D01*
G75*
G02*
X206858824Y-54503886I-135842J235285D01*
G01*
X206504508Y-53890192D01*
G75*
G02*
X206603951Y-53519065I235285J135842D01*
G01*
X207434151Y-53039749D01*
G75*
G02*
X207805278Y-53139192I135842J-235285D01*
G01*
X208159594Y-53752886D01*
G75*
G02*
X208060151Y-54124013I-235285J-135842D01*
G01*
G37*
G36*
G01*
X205804374Y-52133180D02*
X206633728Y-51654352D01*
G75*
G02*
X207005522Y-51753974I136086J-235708D01*
G01*
X207359350Y-52366822D01*
G75*
G02*
X207259728Y-52738616I-235708J-136086D01*
G01*
X206430374Y-53217444D01*
G75*
G02*
X206058580Y-53117822I-136086J235708D01*
G01*
X205704752Y-52504974D01*
G75*
G02*
X205804374Y-52133180I235708J136086D01*
G01*
G37*
G36*
X198537932Y-66990856D02*
G01*
X198528196Y-66993126D01*
X198518204Y-66993453D01*
X198508340Y-66991824D01*
X198498982Y-66988303D01*
X198490492Y-66983024D01*
X198483196Y-66976189D01*
X198477372Y-66968062D01*
X197877372Y-65928832D01*
X197873246Y-65919725D01*
X197870975Y-65909989D01*
X197870648Y-65899997D01*
X197872278Y-65890132D01*
X197875799Y-65880775D01*
X197881078Y-65872285D01*
X197887912Y-65864988D01*
X197896039Y-65859165D01*
X198241583Y-65659665D01*
X198092583Y-65401589D01*
X197747039Y-65601089D01*
X197737932Y-65605215D01*
X197728196Y-65607486D01*
X197718204Y-65607813D01*
X197708340Y-65606183D01*
X197698982Y-65602662D01*
X197690492Y-65597383D01*
X197683196Y-65590549D01*
X197677372Y-65582422D01*
X197077372Y-64543191D01*
X197073246Y-64534084D01*
X197070975Y-64524348D01*
X197070648Y-64514356D01*
X197072278Y-64504492D01*
X197075799Y-64495135D01*
X197081078Y-64486644D01*
X197087912Y-64479348D01*
X197096039Y-64473524D01*
X197441583Y-64274024D01*
X197292583Y-64015948D01*
X196947039Y-64215448D01*
X196937932Y-64219575D01*
X196928196Y-64221845D01*
X196918204Y-64222172D01*
X196908340Y-64220543D01*
X196898982Y-64217022D01*
X196890492Y-64211742D01*
X196883196Y-64204908D01*
X196877372Y-64196781D01*
X196277372Y-63157551D01*
X196273246Y-63148444D01*
X196270975Y-63138707D01*
X196270648Y-63128715D01*
X196272278Y-63118851D01*
X196275799Y-63109494D01*
X196281078Y-63101004D01*
X196287912Y-63093707D01*
X196296039Y-63087883D01*
X196641583Y-62888383D01*
X196492583Y-62630308D01*
X196147039Y-62829808D01*
X196137932Y-62833934D01*
X196128196Y-62836204D01*
X196118204Y-62836531D01*
X196108340Y-62834902D01*
X196098982Y-62831381D01*
X196090492Y-62826102D01*
X196083196Y-62819267D01*
X196077372Y-62811141D01*
X195477372Y-61771910D01*
X195473246Y-61762803D01*
X195470975Y-61753067D01*
X195470648Y-61743075D01*
X195472278Y-61733210D01*
X195475799Y-61723853D01*
X195481078Y-61715363D01*
X195487912Y-61708066D01*
X195496039Y-61702243D01*
X195841583Y-61502743D01*
X195692583Y-61244667D01*
X195347039Y-61444167D01*
X195337932Y-61448293D01*
X195328196Y-61450564D01*
X195318204Y-61450891D01*
X195308340Y-61449261D01*
X195298982Y-61445740D01*
X195290492Y-61440461D01*
X195283196Y-61433627D01*
X195277372Y-61425500D01*
X194677372Y-60386269D01*
X194673246Y-60377162D01*
X194670975Y-60367426D01*
X194670648Y-60357434D01*
X194672278Y-60347570D01*
X194675799Y-60338213D01*
X194681078Y-60329723D01*
X194687912Y-60322426D01*
X194696039Y-60316602D01*
X195041583Y-60117102D01*
X194880083Y-59837376D01*
X194534539Y-60036876D01*
X194525432Y-60041002D01*
X194515696Y-60043272D01*
X194505704Y-60043599D01*
X194495840Y-60041970D01*
X194486482Y-60038449D01*
X194477992Y-60033170D01*
X194470696Y-60026336D01*
X194464872Y-60018209D01*
X193889872Y-59022279D01*
X193885746Y-59013172D01*
X193883475Y-59003436D01*
X193883148Y-58993444D01*
X193884778Y-58983580D01*
X193888299Y-58974223D01*
X193893578Y-58965733D01*
X193900412Y-58958436D01*
X193908539Y-58952612D01*
X195120975Y-58252612D01*
X195130082Y-58248486D01*
X195139818Y-58246216D01*
X195149810Y-58245889D01*
X195159674Y-58247518D01*
X195169032Y-58251039D01*
X195177522Y-58256318D01*
X195184818Y-58263152D01*
X195190642Y-58271279D01*
X195765642Y-59267209D01*
X195769768Y-59276316D01*
X195772039Y-59286052D01*
X195772366Y-59296044D01*
X195770736Y-59305908D01*
X195767215Y-59315265D01*
X195761936Y-59323755D01*
X195755102Y-59331052D01*
X195746975Y-59336876D01*
X195401431Y-59536376D01*
X195562931Y-59816102D01*
X195908475Y-59616602D01*
X195917582Y-59612476D01*
X195927318Y-59610206D01*
X195937310Y-59609879D01*
X195947174Y-59611508D01*
X195956532Y-59615029D01*
X195965022Y-59620308D01*
X195972318Y-59627142D01*
X195978142Y-59635269D01*
X196578142Y-60674500D01*
X196582268Y-60683607D01*
X196584539Y-60693343D01*
X196584866Y-60703335D01*
X196583236Y-60713199D01*
X196579715Y-60722557D01*
X196574436Y-60731047D01*
X196567602Y-60738343D01*
X196559475Y-60744167D01*
X196213931Y-60943667D01*
X196362931Y-61201743D01*
X196708475Y-61002243D01*
X196717582Y-60998116D01*
X196727318Y-60995846D01*
X196737310Y-60995519D01*
X196747174Y-60997148D01*
X196756532Y-61000670D01*
X196765022Y-61005949D01*
X196772318Y-61012783D01*
X196778142Y-61020910D01*
X197378142Y-62060141D01*
X197382268Y-62069247D01*
X197384539Y-62078984D01*
X197384866Y-62088976D01*
X197383236Y-62098840D01*
X197379715Y-62108197D01*
X197374436Y-62116687D01*
X197367602Y-62123984D01*
X197359475Y-62129808D01*
X197013931Y-62329308D01*
X197162931Y-62587383D01*
X197508475Y-62387883D01*
X197517582Y-62383757D01*
X197527318Y-62381487D01*
X197537310Y-62381160D01*
X197547174Y-62382789D01*
X197556532Y-62386310D01*
X197565022Y-62391589D01*
X197572318Y-62398424D01*
X197578142Y-62406551D01*
X198178142Y-63445781D01*
X198182268Y-63454888D01*
X198184539Y-63464624D01*
X198184866Y-63474617D01*
X198183236Y-63484481D01*
X198179715Y-63493838D01*
X198174436Y-63502328D01*
X198167602Y-63509625D01*
X198159475Y-63515448D01*
X197813931Y-63714948D01*
X197962931Y-63973024D01*
X198308475Y-63773524D01*
X198317582Y-63769398D01*
X198327318Y-63767127D01*
X198337310Y-63766801D01*
X198347174Y-63768430D01*
X198356532Y-63771951D01*
X198365022Y-63777230D01*
X198372318Y-63784064D01*
X198378142Y-63792191D01*
X198978142Y-64831422D01*
X198982268Y-64840529D01*
X198984539Y-64850265D01*
X198984866Y-64860257D01*
X198983236Y-64870121D01*
X198979715Y-64879479D01*
X198974436Y-64887969D01*
X198967602Y-64895265D01*
X198959475Y-64901089D01*
X198613931Y-65100589D01*
X198762931Y-65358665D01*
X199108475Y-65159165D01*
X199117582Y-65155038D01*
X199127318Y-65152768D01*
X199137310Y-65152441D01*
X199147174Y-65154070D01*
X199156532Y-65157592D01*
X199165022Y-65162871D01*
X199172318Y-65169705D01*
X199178142Y-65177832D01*
X199778142Y-66217062D01*
X199782268Y-66226169D01*
X199784539Y-66235906D01*
X199784866Y-66245898D01*
X199783236Y-66255762D01*
X199779715Y-66265119D01*
X199774436Y-66273609D01*
X199767602Y-66280906D01*
X199759475Y-66286730D01*
X198547039Y-66986730D01*
X198537932Y-66990856D01*
G37*
G36*
G01*
X199745105Y-64820473D02*
X200575305Y-64341157D01*
G75*
G02*
X200946432Y-64440600I135842J-235285D01*
G01*
X201300748Y-65054294D01*
G75*
G02*
X201201305Y-65425421I-235285J-135842D01*
G01*
X200371105Y-65904737D01*
G75*
G02*
X199999978Y-65805294I-135842J235285D01*
G01*
X199645662Y-65191600D01*
G75*
G02*
X199745105Y-64820473I235285J135842D01*
G01*
G37*
G36*
G01*
X198945105Y-63434833D02*
X199775305Y-62955517D01*
G75*
G02*
X200146432Y-63054960I135842J-235285D01*
G01*
X200500748Y-63668654D01*
G75*
G02*
X200401305Y-64039781I-235285J-135842D01*
G01*
X199571105Y-64519097D01*
G75*
G02*
X199199978Y-64419654I-135842J235285D01*
G01*
X198845662Y-63805960D01*
G75*
G02*
X198945105Y-63434833I235285J135842D01*
G01*
G37*
G36*
G01*
X199601305Y-62654140D02*
X198771105Y-63133456D01*
G75*
G02*
X198399978Y-63034013I-135842J235285D01*
G01*
X198045662Y-62420319D01*
G75*
G02*
X198145105Y-62049192I235285J135842D01*
G01*
X198975305Y-61569876D01*
G75*
G02*
X199346432Y-61669319I135842J-235285D01*
G01*
X199700748Y-62283013D01*
G75*
G02*
X199601305Y-62654140I-235285J-135842D01*
G01*
G37*
G36*
G01*
X197345105Y-60663551D02*
X198175305Y-60184235D01*
G75*
G02*
X198546432Y-60283678I135842J-235285D01*
G01*
X198900748Y-60897372D01*
G75*
G02*
X198801305Y-61268499I-235285J-135842D01*
G01*
X197971105Y-61747815D01*
G75*
G02*
X197599978Y-61648372I-135842J235285D01*
G01*
X197245662Y-61034678D01*
G75*
G02*
X197345105Y-60663551I235285J135842D01*
G01*
G37*
G36*
G01*
X198001305Y-59882859D02*
X197171105Y-60362175D01*
G75*
G02*
X196799978Y-60262732I-135842J235285D01*
G01*
X196445662Y-59649038D01*
G75*
G02*
X196545105Y-59277911I235285J135842D01*
G01*
X197375305Y-58798595D01*
G75*
G02*
X197746432Y-58898038I135842J-235285D01*
G01*
X198100748Y-59511732D01*
G75*
G02*
X198001305Y-59882859I-235285J-135842D01*
G01*
G37*
G36*
G01*
X195745528Y-57892026D02*
X196574882Y-57413198D01*
G75*
G02*
X196946676Y-57512820I136086J-235708D01*
G01*
X197300504Y-58125668D01*
G75*
G02*
X197200882Y-58497462I-235708J-136086D01*
G01*
X196371528Y-58976290D01*
G75*
G02*
X195999734Y-58876668I-136086J235708D01*
G01*
X195645906Y-58263820D01*
G75*
G02*
X195745528Y-57892026I235708J136086D01*
G01*
G37*
G36*
G01*
X217948782Y-89901776D02*
X218898783Y-91547224D01*
G75*
G02*
X218880117Y-91616890I-44166J-25500D01*
G01*
X217840884Y-92216891D01*
G75*
G02*
X217771218Y-92198224I-25500J44166D01*
G01*
X216821217Y-90552775D01*
G75*
G02*
X216839884Y-90483110I44166J25499D01*
G01*
X217879117Y-89883109D01*
G75*
G02*
X217948782Y-89901776I25499J-44166D01*
G01*
G37*
G36*
G01*
X212925834Y-92801776D02*
X213875835Y-94447224D01*
G75*
G02*
X213857169Y-94516890I-44166J-25500D01*
G01*
X212817936Y-95116891D01*
G75*
G02*
X212748270Y-95098224I-25500J44166D01*
G01*
X211798269Y-93452775D01*
G75*
G02*
X211816936Y-93383110I44166J25499D01*
G01*
X212856169Y-92783109D01*
G75*
G02*
X212925834Y-92801776I25499J-44166D01*
G01*
G37*
G36*
G01*
X212706220Y-93621391D02*
X213056220Y-94227609D01*
G75*
G02*
X212817937Y-95116892I-563783J-325500D01*
G01*
X212817937Y-95116892D01*
G75*
G02*
X211928654Y-94878609I-325500J563783D01*
G01*
X211578654Y-94272391D01*
G75*
G02*
X211816937Y-93383108I563783J325500D01*
G01*
X211816937Y-93383108D01*
G75*
G02*
X212706220Y-93621391I325500J-563783D01*
G01*
G37*
G36*
G01*
X217990832Y-91378609D02*
X217640832Y-90772391D01*
G75*
G02*
X217879115Y-89883108I563783J325500D01*
G01*
X217879115Y-89883108D01*
G75*
G02*
X218768398Y-90121391I325500J-563783D01*
G01*
X219118398Y-90727609D01*
G75*
G02*
X218880115Y-91616892I-563783J-325500D01*
G01*
X218880115Y-91616892D01*
G75*
G02*
X217990832Y-91378609I-325500J563783D01*
G01*
G37*
G36*
G01*
X216433237Y-90776776D02*
X217383237Y-92422224D01*
G75*
G02*
X217364570Y-92491891I-44167J-25500D01*
G01*
X216065532Y-93241891D01*
G75*
G02*
X215995865Y-93223224I-25500J44167D01*
G01*
X215045865Y-91577776D01*
G75*
G02*
X215064532Y-91508109I44167J25500D01*
G01*
X216363570Y-90758109D01*
G75*
G02*
X216433237Y-90776776I25500J-44167D01*
G01*
G37*
D11*
X211833462Y-91411732D03*
G36*
G01*
X213878398Y-89451665D02*
X214553398Y-90620799D01*
G75*
G02*
X214534731Y-90690466I-44167J-25500D01*
G01*
X214188321Y-90890466D01*
G75*
G02*
X214118654Y-90871799I-25500J44167D01*
G01*
X213443654Y-89702665D01*
G75*
G02*
X213462321Y-89632998I44167J25500D01*
G01*
X213808731Y-89432998D01*
G75*
G02*
X213878398Y-89451665I25500J-44167D01*
G01*
G37*
G36*
G01*
X213315481Y-89776665D02*
X213990481Y-90945799D01*
G75*
G02*
X213971814Y-91015466I-44167J-25500D01*
G01*
X213625404Y-91215466D01*
G75*
G02*
X213555737Y-91196799I-25500J44167D01*
G01*
X212880737Y-90027665D01*
G75*
G02*
X212899404Y-89957998I44167J25500D01*
G01*
X213245814Y-89757998D01*
G75*
G02*
X213315481Y-89776665I25500J-44167D01*
G01*
G37*
G36*
G01*
X212752565Y-90101665D02*
X213427565Y-91270799D01*
G75*
G02*
X213408898Y-91340466I-44167J-25500D01*
G01*
X213062488Y-91540466D01*
G75*
G02*
X212992821Y-91521799I-25500J44167D01*
G01*
X212317821Y-90352665D01*
G75*
G02*
X212336488Y-90282998I44167J25500D01*
G01*
X212682898Y-90082998D01*
G75*
G02*
X212752565Y-90101665I25500J-44167D01*
G01*
G37*
G36*
G01*
X215004231Y-88801665D02*
X215679231Y-89970799D01*
G75*
G02*
X215660564Y-90040466I-44167J-25500D01*
G01*
X215314154Y-90240466D01*
G75*
G02*
X215244487Y-90221799I-25500J44167D01*
G01*
X214569487Y-89052665D01*
G75*
G02*
X214588154Y-88982998I44167J25500D01*
G01*
X214934564Y-88782998D01*
G75*
G02*
X215004231Y-88801665I25500J-44167D01*
G01*
G37*
G36*
G01*
X214441315Y-89126665D02*
X215116315Y-90295799D01*
G75*
G02*
X215097648Y-90365466I-44167J-25500D01*
G01*
X214751238Y-90565466D01*
G75*
G02*
X214681571Y-90546799I-25500J44167D01*
G01*
X214006571Y-89377665D01*
G75*
G02*
X214025238Y-89307998I44167J25500D01*
G01*
X214371648Y-89107998D01*
G75*
G02*
X214441315Y-89126665I25500J-44167D01*
G01*
G37*
X216163590Y-88911732D03*
G36*
G01*
X214701187Y-91776776D02*
X215651187Y-93422224D01*
G75*
G02*
X215632520Y-93491891I-44167J-25500D01*
G01*
X214333482Y-94241891D01*
G75*
G02*
X214263815Y-94223224I-25500J44167D01*
G01*
X213313815Y-92577776D01*
G75*
G02*
X213332482Y-92508109I44167J25500D01*
G01*
X214631520Y-91758109D01*
G75*
G02*
X214701187Y-91776776I25500J-44167D01*
G01*
G37*
G36*
G01*
X227356709Y-83752067D02*
X227356709Y-83752067D01*
G75*
G02*
X226107342Y-83417300I-457300J792067D01*
G01*
X226107342Y-83417300D01*
G75*
G02*
X226442109Y-82167933I792067J457300D01*
G01*
X226442109Y-82167933D01*
G75*
G02*
X227691476Y-82502700I457300J-792067D01*
G01*
X227691476Y-82502700D01*
G75*
G02*
X227356709Y-83752067I-792067J-457300D01*
G01*
G37*
G36*
G01*
X228626709Y-85951772D02*
X228626709Y-85951772D01*
G75*
G02*
X227377342Y-85617005I-457300J792067D01*
G01*
X227377342Y-85617005D01*
G75*
G02*
X227712109Y-84367638I792067J457300D01*
G01*
X227712109Y-84367638D01*
G75*
G02*
X228961476Y-84702405I457300J-792067D01*
G01*
X228961476Y-84702405D01*
G75*
G02*
X228626709Y-85951772I-792067J-457300D01*
G01*
G37*
G36*
G01*
X225157004Y-85022067D02*
X225157004Y-85022067D01*
G75*
G02*
X223907637Y-84687300I-457300J792067D01*
G01*
X223907637Y-84687300D01*
G75*
G02*
X224242404Y-83437933I792067J457300D01*
G01*
X224242404Y-83437933D01*
G75*
G02*
X225491771Y-83772700I457300J-792067D01*
G01*
X225491771Y-83772700D01*
G75*
G02*
X225157004Y-85022067I-792067J-457300D01*
G01*
G37*
G36*
G01*
X226427004Y-87221772D02*
X226427004Y-87221772D01*
G75*
G02*
X225177637Y-86887005I-457300J792067D01*
G01*
X225177637Y-86887005D01*
G75*
G02*
X225512404Y-85637638I792067J457300D01*
G01*
X225512404Y-85637638D01*
G75*
G02*
X226761771Y-85972405I457300J-792067D01*
G01*
X226761771Y-85972405D01*
G75*
G02*
X226427004Y-87221772I-792067J-457300D01*
G01*
G37*
G36*
G01*
X222957300Y-86292067D02*
X222957300Y-86292067D01*
G75*
G02*
X221707933Y-85957300I-457300J792067D01*
G01*
X221707933Y-85957300D01*
G75*
G02*
X222042700Y-84707933I792067J457300D01*
G01*
X222042700Y-84707933D01*
G75*
G02*
X223292067Y-85042700I457300J-792067D01*
G01*
X223292067Y-85042700D01*
G75*
G02*
X222957300Y-86292067I-792067J-457300D01*
G01*
G37*
G36*
G01*
X224227300Y-88491772D02*
X224227300Y-88491772D01*
G75*
G02*
X222977933Y-88157005I-457300J792067D01*
G01*
X222977933Y-88157005D01*
G75*
G02*
X223312700Y-86907638I792067J457300D01*
G01*
X223312700Y-86907638D01*
G75*
G02*
X224562067Y-87242405I457300J-792067D01*
G01*
X224562067Y-87242405D01*
G75*
G02*
X224227300Y-88491772I-792067J-457300D01*
G01*
G37*
G36*
G01*
X220757595Y-87562067D02*
X220757595Y-87562067D01*
G75*
G02*
X219508228Y-87227300I-457300J792067D01*
G01*
X219508228Y-87227300D01*
G75*
G02*
X219842995Y-85977933I792067J457300D01*
G01*
X219842995Y-85977933D01*
G75*
G02*
X221092362Y-86312700I457300J-792067D01*
G01*
X221092362Y-86312700D01*
G75*
G02*
X220757595Y-87562067I-792067J-457300D01*
G01*
G37*
G36*
G01*
X222775495Y-89329972D02*
X221279695Y-90193572D01*
G75*
G02*
X221210028Y-90174905I-25500J44167D01*
G01*
X220346428Y-88679105D01*
G75*
G02*
X220365095Y-88609438I44167J25500D01*
G01*
X221860895Y-87745838D01*
G75*
G02*
X221930562Y-87764505I25500J-44167D01*
G01*
X222794162Y-89260305D01*
G75*
G02*
X222775495Y-89329972I-44167J-25500D01*
G01*
G37*
G36*
G01*
X210051000Y-71100000D02*
X210051000Y-72100000D01*
G75*
G02*
X210000000Y-72151000I-51000J0D01*
G01*
X208300000Y-72151000D01*
G75*
G02*
X208249000Y-72100000I0J51000D01*
G01*
X208249000Y-71100000D01*
G75*
G02*
X208300000Y-71049000I51000J0D01*
G01*
X210000000Y-71049000D01*
G75*
G02*
X210051000Y-71100000I0J-51000D01*
G01*
G37*
G36*
G01*
X210051000Y-67900000D02*
X210051000Y-68900000D01*
G75*
G02*
X210000000Y-68951000I-51000J0D01*
G01*
X208300000Y-68951000D01*
G75*
G02*
X208249000Y-68900000I0J51000D01*
G01*
X208249000Y-67900000D01*
G75*
G02*
X208300000Y-67849000I51000J0D01*
G01*
X210000000Y-67849000D01*
G75*
G02*
X210051000Y-67900000I0J-51000D01*
G01*
G37*
G36*
G01*
X215351000Y-71100000D02*
X215351000Y-72100000D01*
G75*
G02*
X215300000Y-72151000I-51000J0D01*
G01*
X213600000Y-72151000D01*
G75*
G02*
X213549000Y-72100000I0J51000D01*
G01*
X213549000Y-71100000D01*
G75*
G02*
X213600000Y-71049000I51000J0D01*
G01*
X215300000Y-71049000D01*
G75*
G02*
X215351000Y-71100000I0J-51000D01*
G01*
G37*
G36*
G01*
X215351000Y-67900000D02*
X215351000Y-68900000D01*
G75*
G02*
X215300000Y-68951000I-51000J0D01*
G01*
X213600000Y-68951000D01*
G75*
G02*
X213549000Y-68900000I0J51000D01*
G01*
X213549000Y-67900000D01*
G75*
G02*
X213600000Y-67849000I51000J0D01*
G01*
X215300000Y-67849000D01*
G75*
G02*
X215351000Y-67900000I0J-51000D01*
G01*
G37*
G36*
G01*
X197999000Y-77478828D02*
X197999000Y-76521172D01*
G75*
G02*
X198271172Y-76249000I272172J0D01*
G01*
X198978828Y-76249000D01*
G75*
G02*
X199251000Y-76521172I0J-272172D01*
G01*
X199251000Y-77478828D01*
G75*
G02*
X198978828Y-77751000I-272172J0D01*
G01*
X198271172Y-77751000D01*
G75*
G02*
X197999000Y-77478828I0J272172D01*
G01*
G37*
G36*
G01*
X195949000Y-77478828D02*
X195949000Y-76521172D01*
G75*
G02*
X196221172Y-76249000I272172J0D01*
G01*
X196928828Y-76249000D01*
G75*
G02*
X197201000Y-76521172I0J-272172D01*
G01*
X197201000Y-77478828D01*
G75*
G02*
X196928828Y-77751000I-272172J0D01*
G01*
X196221172Y-77751000D01*
G75*
G02*
X195949000Y-77478828I0J272172D01*
G01*
G37*
G36*
G01*
X197999000Y-72078828D02*
X197999000Y-71121172D01*
G75*
G02*
X198271172Y-70849000I272172J0D01*
G01*
X198978828Y-70849000D01*
G75*
G02*
X199251000Y-71121172I0J-272172D01*
G01*
X199251000Y-72078828D01*
G75*
G02*
X198978828Y-72351000I-272172J0D01*
G01*
X198271172Y-72351000D01*
G75*
G02*
X197999000Y-72078828I0J272172D01*
G01*
G37*
G36*
G01*
X195949000Y-72078828D02*
X195949000Y-71121172D01*
G75*
G02*
X196221172Y-70849000I272172J0D01*
G01*
X196928828Y-70849000D01*
G75*
G02*
X197201000Y-71121172I0J-272172D01*
G01*
X197201000Y-72078828D01*
G75*
G02*
X196928828Y-72351000I-272172J0D01*
G01*
X196221172Y-72351000D01*
G75*
G02*
X195949000Y-72078828I0J272172D01*
G01*
G37*
G36*
G01*
X203499000Y-77478828D02*
X203499000Y-76521172D01*
G75*
G02*
X203771172Y-76249000I272172J0D01*
G01*
X204478828Y-76249000D01*
G75*
G02*
X204751000Y-76521172I0J-272172D01*
G01*
X204751000Y-77478828D01*
G75*
G02*
X204478828Y-77751000I-272172J0D01*
G01*
X203771172Y-77751000D01*
G75*
G02*
X203499000Y-77478828I0J272172D01*
G01*
G37*
G36*
G01*
X201449000Y-77478828D02*
X201449000Y-76521172D01*
G75*
G02*
X201721172Y-76249000I272172J0D01*
G01*
X202428828Y-76249000D01*
G75*
G02*
X202701000Y-76521172I0J-272172D01*
G01*
X202701000Y-77478828D01*
G75*
G02*
X202428828Y-77751000I-272172J0D01*
G01*
X201721172Y-77751000D01*
G75*
G02*
X201449000Y-77478828I0J272172D01*
G01*
G37*
G36*
G01*
X203499000Y-72078828D02*
X203499000Y-71121172D01*
G75*
G02*
X203771172Y-70849000I272172J0D01*
G01*
X204478828Y-70849000D01*
G75*
G02*
X204751000Y-71121172I0J-272172D01*
G01*
X204751000Y-72078828D01*
G75*
G02*
X204478828Y-72351000I-272172J0D01*
G01*
X203771172Y-72351000D01*
G75*
G02*
X203499000Y-72078828I0J272172D01*
G01*
G37*
G36*
G01*
X201449000Y-72078828D02*
X201449000Y-71121172D01*
G75*
G02*
X201721172Y-70849000I272172J0D01*
G01*
X202428828Y-70849000D01*
G75*
G02*
X202701000Y-71121172I0J-272172D01*
G01*
X202701000Y-72078828D01*
G75*
G02*
X202428828Y-72351000I-272172J0D01*
G01*
X201721172Y-72351000D01*
G75*
G02*
X201449000Y-72078828I0J272172D01*
G01*
G37*
D12*
X191050000Y-67550000D03*
X191050000Y-72150000D03*
D13*
X191050000Y-64150000D03*
X191050000Y-75550000D03*
D14*
X233500000Y-66220000D03*
X233500000Y-68760000D03*
X233500000Y-71300000D03*
G36*
G01*
X232599000Y-74690000D02*
X232599000Y-72990000D01*
G75*
G02*
X232650000Y-72939000I51000J0D01*
G01*
X234350000Y-72939000D01*
G75*
G02*
X234401000Y-72990000I0J-51000D01*
G01*
X234401000Y-74690000D01*
G75*
G02*
X234350000Y-74741000I-51000J0D01*
G01*
X232650000Y-74741000D01*
G75*
G02*
X232599000Y-74690000I0J51000D01*
G01*
G37*
G36*
G01*
X198150795Y-53990289D02*
X198150795Y-53990289D01*
G75*
G02*
X196920006Y-53660500I-450500J780289D01*
G01*
X196920006Y-53660500D01*
G75*
G02*
X197249795Y-52429711I780289J450500D01*
G01*
X197249795Y-52429711D01*
G75*
G02*
X198480584Y-52759500I450500J-780289D01*
G01*
X198480584Y-52759500D01*
G75*
G02*
X198150795Y-53990289I-780289J-450500D01*
G01*
G37*
G36*
G01*
X200350500Y-52720289D02*
X200350500Y-52720289D01*
G75*
G02*
X199119711Y-52390500I-450500J780289D01*
G01*
X199119711Y-52390500D01*
G75*
G02*
X199449500Y-51159711I780289J450500D01*
G01*
X199449500Y-51159711D01*
G75*
G02*
X200680289Y-51489500I450500J-780289D01*
G01*
X200680289Y-51489500D01*
G75*
G02*
X200350500Y-52720289I-780289J-450500D01*
G01*
G37*
G36*
G01*
X202550204Y-51450289D02*
X202550204Y-51450289D01*
G75*
G02*
X201319415Y-51120500I-450500J780289D01*
G01*
X201319415Y-51120500D01*
G75*
G02*
X201649204Y-49889711I780289J450500D01*
G01*
X201649204Y-49889711D01*
G75*
G02*
X202879993Y-50219500I450500J-780289D01*
G01*
X202879993Y-50219500D01*
G75*
G02*
X202550204Y-51450289I-780289J-450500D01*
G01*
G37*
G36*
G01*
X205486031Y-49755289D02*
X204013787Y-50605289D01*
G75*
G02*
X203944120Y-50586622I-25500J44167D01*
G01*
X203094120Y-49114378D01*
G75*
G02*
X203112787Y-49044711I44167J25500D01*
G01*
X204585031Y-48194711D01*
G75*
G02*
X204654698Y-48213378I25500J-44167D01*
G01*
X205504698Y-49685622D01*
G75*
G02*
X205486031Y-49755289I-44167J-25500D01*
G01*
G37*
D10*
G36*
X214323427Y-89136993D02*
G01*
X214322427Y-89138725D01*
X213983803Y-89334230D01*
X214708803Y-90589966D01*
X214708071Y-90592698D01*
X214599818Y-90655198D01*
X214393660Y-90774223D01*
X214318179Y-90817802D01*
X214036901Y-90980198D01*
X213019321Y-91567699D01*
X213017321Y-91567699D01*
X213016589Y-91566967D01*
X213015485Y-91565054D01*
X213003073Y-91543556D01*
X212881880Y-91333644D01*
X212865995Y-91306130D01*
X212834681Y-91251893D01*
X212820577Y-91232211D01*
X212802980Y-91215730D01*
X212782511Y-91203001D01*
X212759939Y-91194505D01*
X212736155Y-91190579D01*
X212712057Y-91191368D01*
X212688575Y-91196843D01*
X212666616Y-91206793D01*
X212647016Y-91220838D01*
X212630535Y-91238435D01*
X212617806Y-91258904D01*
X212609310Y-91281476D01*
X212605390Y-91305226D01*
X212607119Y-91331611D01*
X212607123Y-91331742D01*
X212607123Y-91332644D01*
X212606123Y-91334376D01*
X212604123Y-91334376D01*
X212603161Y-91333034D01*
X212574124Y-91187053D01*
X212516060Y-91046875D01*
X212431764Y-90920717D01*
X212324477Y-90813430D01*
X212303721Y-90799561D01*
X212302836Y-90797767D01*
X212303947Y-90796104D01*
X212305775Y-90796134D01*
X212321797Y-90804698D01*
X212344872Y-90811698D01*
X212368863Y-90814061D01*
X212392854Y-90811698D01*
X212415929Y-90804698D01*
X212437193Y-90793333D01*
X212455830Y-90778037D01*
X212471125Y-90759401D01*
X212482490Y-90738137D01*
X212489490Y-90715062D01*
X212491853Y-90691071D01*
X212489490Y-90667080D01*
X212482481Y-90643975D01*
X212475347Y-90629509D01*
X212466617Y-90614388D01*
X212462788Y-90607756D01*
X212424673Y-90541739D01*
X212290588Y-90309498D01*
X212290659Y-90309230D01*
X212295053Y-90309230D01*
X212428137Y-90539739D01*
X212466252Y-90605756D01*
X212470081Y-90612388D01*
X212869459Y-91304130D01*
X212885344Y-91331644D01*
X213006537Y-91541556D01*
X213018949Y-91563054D01*
X213019053Y-91563234D01*
X213450333Y-91314234D01*
X212726333Y-90060230D01*
X212712736Y-90068080D01*
X212448209Y-90220805D01*
X212366988Y-90267698D01*
X212295053Y-90309230D01*
X212290659Y-90309230D01*
X212291320Y-90306766D01*
X212364988Y-90264234D01*
X212446209Y-90217341D01*
X212710736Y-90064616D01*
X212834318Y-89993266D01*
X212849969Y-89984230D01*
X212857969Y-89984230D01*
X213581969Y-91238234D01*
X214013249Y-90989234D01*
X213289249Y-89735230D01*
X213268724Y-89747080D01*
X213246656Y-89759821D01*
X213244023Y-89761341D01*
X213235961Y-89765996D01*
X213222156Y-89773966D01*
X213222153Y-89773968D01*
X213222139Y-89773976D01*
X213209027Y-89781546D01*
X213125040Y-89830036D01*
X213121341Y-89832172D01*
X213086963Y-89852020D01*
X213086954Y-89852025D01*
X213074283Y-89859341D01*
X213066748Y-89863691D01*
X212857969Y-89984230D01*
X212849969Y-89984230D01*
X212854237Y-89981766D01*
X213064748Y-89860227D01*
X213072283Y-89855877D01*
X213084954Y-89848561D01*
X213084963Y-89848556D01*
X213119341Y-89828708D01*
X213123040Y-89826572D01*
X213207027Y-89778082D01*
X213220139Y-89770512D01*
X213220142Y-89770510D01*
X213220156Y-89770502D01*
X213233961Y-89762532D01*
X213242023Y-89757877D01*
X213244656Y-89756357D01*
X213266724Y-89743616D01*
X213397234Y-89668266D01*
X213412884Y-89659230D01*
X213420886Y-89659230D01*
X214144886Y-90913234D01*
X214316179Y-90814338D01*
X214391660Y-90770759D01*
X214576166Y-90664234D01*
X213852166Y-89410230D01*
X213830452Y-89422767D01*
X213830440Y-89422774D01*
X213830432Y-89422778D01*
X213680873Y-89509126D01*
X213420886Y-89659230D01*
X213412884Y-89659230D01*
X213678873Y-89505662D01*
X213828424Y-89419318D01*
X213828436Y-89419311D01*
X213828444Y-89419307D01*
X214320427Y-89135261D01*
X214322427Y-89135261D01*
X214323427Y-89136993D01*
G37*
G36*
X214545719Y-89007498D02*
G01*
X215270719Y-90263234D01*
X215350208Y-90217341D01*
X215352208Y-90217341D01*
X215353208Y-90219073D01*
X215352208Y-90220805D01*
X215162734Y-90330198D01*
X215142815Y-90341698D01*
X215140083Y-90340966D01*
X214415083Y-89085230D01*
X214410309Y-89087986D01*
X214408309Y-89087986D01*
X214407309Y-89086254D01*
X214408309Y-89084522D01*
X214523068Y-89018266D01*
X214542987Y-89006766D01*
X214545719Y-89007498D01*
G37*
G36*
X221906794Y-87719337D02*
G01*
X221989639Y-87862830D01*
X221989648Y-87862845D01*
X221989665Y-87862874D01*
X222068684Y-87999739D01*
X222120687Y-88089811D01*
X222202486Y-88231491D01*
X222358228Y-88501244D01*
X222821395Y-89303472D01*
X222820663Y-89306204D01*
X221236528Y-90220805D01*
X221234528Y-90220805D01*
X221233796Y-90220073D01*
X221140511Y-90058498D01*
X221115955Y-90015966D01*
X221097787Y-89984498D01*
X221025105Y-89858609D01*
X221020881Y-89851293D01*
X221009419Y-89831440D01*
X220980190Y-89780814D01*
X220980186Y-89780807D01*
X220967647Y-89759089D01*
X220960291Y-89746348D01*
X220952872Y-89733498D01*
X220922694Y-89681228D01*
X220867459Y-89585558D01*
X220824295Y-89510796D01*
X220778346Y-89431210D01*
X220746228Y-89375580D01*
X220745981Y-89375152D01*
X220738282Y-89361817D01*
X220733909Y-89354243D01*
X220723369Y-89335987D01*
X220697961Y-89291979D01*
X220686284Y-89271754D01*
X220600555Y-89123267D01*
X220541510Y-89020998D01*
X220319195Y-88635938D01*
X220319195Y-88635670D01*
X220323660Y-88635670D01*
X220544974Y-89018998D01*
X220604019Y-89121267D01*
X220689748Y-89269754D01*
X220701425Y-89289979D01*
X220726833Y-89333987D01*
X220737373Y-89352243D01*
X220741746Y-89359817D01*
X220749445Y-89373152D01*
X220749692Y-89373580D01*
X220781810Y-89429210D01*
X220827759Y-89508796D01*
X220870923Y-89583558D01*
X220926158Y-89679228D01*
X220956336Y-89731498D01*
X220963755Y-89744348D01*
X220971111Y-89757089D01*
X220983650Y-89778807D01*
X220983654Y-89778814D01*
X221012883Y-89829440D01*
X221024345Y-89849293D01*
X221028569Y-89856609D01*
X221101251Y-89982498D01*
X221119419Y-90013966D01*
X221143975Y-90056498D01*
X221236260Y-90216340D01*
X222816930Y-89303740D01*
X222354764Y-88503244D01*
X222199022Y-88233491D01*
X222117223Y-88091811D01*
X222065220Y-88001739D01*
X221986201Y-87864874D01*
X221986192Y-87864859D01*
X221904330Y-87723070D01*
X220323660Y-88635670D01*
X220319195Y-88635670D01*
X220319195Y-88633938D01*
X220319927Y-88633206D01*
X221904062Y-87718605D01*
X221906062Y-87718605D01*
X221906794Y-87719337D01*
G37*
G36*
X215393891Y-88990430D02*
G01*
X215422928Y-89136411D01*
X215480992Y-89276589D01*
X215565288Y-89402747D01*
X215672575Y-89510034D01*
X215693331Y-89523903D01*
X215694216Y-89525697D01*
X215693105Y-89527360D01*
X215691277Y-89527330D01*
X215675255Y-89518766D01*
X215652180Y-89511766D01*
X215628189Y-89509403D01*
X215604198Y-89511766D01*
X215581123Y-89518766D01*
X215559859Y-89530131D01*
X215541222Y-89545427D01*
X215525927Y-89564063D01*
X215514562Y-89585327D01*
X215507562Y-89608402D01*
X215505199Y-89632393D01*
X215507562Y-89656384D01*
X215514571Y-89679489D01*
X215521705Y-89693955D01*
X215566322Y-89771234D01*
X215706464Y-90013966D01*
X215706464Y-90015966D01*
X215705732Y-90016698D01*
X215632064Y-90059230D01*
X215630064Y-90059230D01*
X215629064Y-90057498D01*
X215630064Y-90055766D01*
X215701999Y-90014234D01*
X215562858Y-89773234D01*
X215128554Y-89020998D01*
X215128554Y-89018998D01*
X215130286Y-89017998D01*
X215132018Y-89018998D01*
X215162371Y-89071571D01*
X215176475Y-89091253D01*
X215194072Y-89107734D01*
X215214541Y-89120463D01*
X215237113Y-89128959D01*
X215260897Y-89132885D01*
X215284995Y-89132096D01*
X215308477Y-89126621D01*
X215330436Y-89116671D01*
X215350036Y-89102626D01*
X215366517Y-89085029D01*
X215379246Y-89064560D01*
X215387742Y-89041988D01*
X215391662Y-89018238D01*
X215389933Y-88991853D01*
X215389929Y-88991722D01*
X215389929Y-88990820D01*
X215390929Y-88989088D01*
X215392929Y-88989088D01*
X215393891Y-88990430D01*
G37*
G36*
X200781071Y-65669198D02*
G01*
X200780071Y-65670930D01*
X200316156Y-65938772D01*
X200315981Y-65938862D01*
X200274586Y-65957617D01*
X200274215Y-65957743D01*
X200235967Y-65966662D01*
X200235578Y-65966713D01*
X200196329Y-65967997D01*
X200195938Y-65967971D01*
X200157194Y-65961575D01*
X200156815Y-65961474D01*
X200120059Y-65947639D01*
X200119708Y-65947465D01*
X200086359Y-65926728D01*
X200086048Y-65926490D01*
X200057385Y-65899644D01*
X200057126Y-65899349D01*
X200030653Y-65862406D01*
X200030547Y-65862241D01*
X199998246Y-65806294D01*
X199998246Y-65804294D01*
X199999978Y-65803294D01*
X200001604Y-65804129D01*
X200032512Y-65847262D01*
X200071097Y-65883400D01*
X200115985Y-65911314D01*
X200165469Y-65929939D01*
X200217624Y-65938549D01*
X200270462Y-65936819D01*
X200321948Y-65924815D01*
X200370191Y-65902955D01*
X200778071Y-65667466D01*
X200780071Y-65667466D01*
X200781071Y-65669198D01*
G37*
G36*
X199889333Y-64336523D02*
G01*
X199888333Y-64338255D01*
X199516156Y-64553132D01*
X199515981Y-64553222D01*
X199474586Y-64571977D01*
X199474215Y-64572103D01*
X199435967Y-64581022D01*
X199435578Y-64581073D01*
X199396329Y-64582357D01*
X199395938Y-64582331D01*
X199357194Y-64575935D01*
X199356815Y-64575834D01*
X199320059Y-64561999D01*
X199319708Y-64561825D01*
X199286359Y-64541088D01*
X199286048Y-64540850D01*
X199257385Y-64514004D01*
X199257126Y-64513709D01*
X199230653Y-64476766D01*
X199230547Y-64476601D01*
X199198246Y-64420654D01*
X199198246Y-64418654D01*
X199199978Y-64417654D01*
X199201604Y-64418489D01*
X199232512Y-64461622D01*
X199271097Y-64497760D01*
X199315985Y-64525674D01*
X199365469Y-64544299D01*
X199417624Y-64552909D01*
X199470462Y-64551179D01*
X199521948Y-64539175D01*
X199570191Y-64517315D01*
X199886333Y-64334791D01*
X199888333Y-64334791D01*
X199889333Y-64336523D01*
G37*
G36*
X200750472Y-64277923D02*
G01*
X200789216Y-64284319D01*
X200789595Y-64284420D01*
X200826351Y-64298255D01*
X200826702Y-64298429D01*
X200860051Y-64319166D01*
X200860362Y-64319404D01*
X200889025Y-64346250D01*
X200889284Y-64346545D01*
X200915757Y-64383488D01*
X200915863Y-64383653D01*
X200948164Y-64439600D01*
X200948164Y-64441600D01*
X200946432Y-64442600D01*
X200944806Y-64441765D01*
X200913898Y-64398632D01*
X200875313Y-64362494D01*
X200830425Y-64334580D01*
X200780941Y-64315955D01*
X200728786Y-64307345D01*
X200675948Y-64309075D01*
X200624462Y-64321079D01*
X200576219Y-64342939D01*
X200253587Y-64529210D01*
X200251587Y-64529210D01*
X200250587Y-64527478D01*
X200251587Y-64525746D01*
X200630254Y-64307122D01*
X200630429Y-64307032D01*
X200671824Y-64288277D01*
X200672195Y-64288151D01*
X200710443Y-64279232D01*
X200710832Y-64279181D01*
X200750081Y-64277897D01*
X200750472Y-64277923D01*
G37*
G36*
X199081305Y-62955517D02*
G01*
X199080305Y-62957249D01*
X198716156Y-63167491D01*
X198715981Y-63167581D01*
X198674586Y-63186336D01*
X198674215Y-63186462D01*
X198635967Y-63195381D01*
X198635578Y-63195432D01*
X198596329Y-63196716D01*
X198595938Y-63196690D01*
X198557194Y-63190294D01*
X198556815Y-63190193D01*
X198520059Y-63176358D01*
X198519708Y-63176184D01*
X198486359Y-63155447D01*
X198486048Y-63155209D01*
X198457385Y-63128363D01*
X198457126Y-63128068D01*
X198430653Y-63091125D01*
X198430547Y-63090960D01*
X198398246Y-63035013D01*
X198398246Y-63033013D01*
X198399978Y-63032013D01*
X198401604Y-63032848D01*
X198432512Y-63075981D01*
X198471097Y-63112119D01*
X198515985Y-63140033D01*
X198565469Y-63158658D01*
X198617624Y-63167268D01*
X198670462Y-63165538D01*
X198721948Y-63153534D01*
X198770191Y-63131674D01*
X199078305Y-62953785D01*
X199080305Y-62953785D01*
X199081305Y-62955517D01*
G37*
G36*
X199950472Y-62892283D02*
G01*
X199989216Y-62898679D01*
X199989595Y-62898780D01*
X200026351Y-62912615D01*
X200026702Y-62912789D01*
X200060051Y-62933526D01*
X200060362Y-62933764D01*
X200089025Y-62960610D01*
X200089284Y-62960905D01*
X200115757Y-62997848D01*
X200115863Y-62998013D01*
X200148164Y-63053960D01*
X200148164Y-63055960D01*
X200146432Y-63056960D01*
X200144806Y-63056125D01*
X200113898Y-63012992D01*
X200075313Y-62976854D01*
X200030425Y-62948940D01*
X199980941Y-62930315D01*
X199928786Y-62921705D01*
X199875948Y-62923435D01*
X199824462Y-62935439D01*
X199776219Y-62957299D01*
X199468105Y-63135188D01*
X199466105Y-63135188D01*
X199465105Y-63133456D01*
X199466105Y-63131724D01*
X199830254Y-62921482D01*
X199830429Y-62921392D01*
X199871824Y-62902637D01*
X199872195Y-62902511D01*
X199910443Y-62893592D01*
X199910832Y-62893541D01*
X199950081Y-62892257D01*
X199950472Y-62892283D01*
G37*
G36*
X198281305Y-61569876D02*
G01*
X198280305Y-61571608D01*
X197916156Y-61781850D01*
X197915981Y-61781940D01*
X197874586Y-61800695D01*
X197874215Y-61800821D01*
X197835967Y-61809740D01*
X197835578Y-61809791D01*
X197796329Y-61811075D01*
X197795938Y-61811049D01*
X197757194Y-61804653D01*
X197756815Y-61804552D01*
X197720059Y-61790717D01*
X197719708Y-61790543D01*
X197686359Y-61769806D01*
X197686048Y-61769568D01*
X197657385Y-61742722D01*
X197657126Y-61742427D01*
X197630653Y-61705484D01*
X197630547Y-61705319D01*
X197598246Y-61649372D01*
X197598246Y-61647372D01*
X197599978Y-61646372D01*
X197601604Y-61647207D01*
X197632512Y-61690340D01*
X197671097Y-61726478D01*
X197715985Y-61754392D01*
X197765469Y-61773017D01*
X197817624Y-61781627D01*
X197870462Y-61779897D01*
X197921948Y-61767893D01*
X197970191Y-61746033D01*
X198278305Y-61568144D01*
X198280305Y-61568144D01*
X198281305Y-61569876D01*
G37*
G36*
X199150472Y-61506642D02*
G01*
X199189216Y-61513038D01*
X199189595Y-61513139D01*
X199226351Y-61526974D01*
X199226702Y-61527148D01*
X199260051Y-61547885D01*
X199260362Y-61548123D01*
X199289025Y-61574969D01*
X199289284Y-61575264D01*
X199315757Y-61612207D01*
X199315863Y-61612372D01*
X199348164Y-61668319D01*
X199348164Y-61670319D01*
X199346432Y-61671319D01*
X199344806Y-61670484D01*
X199313898Y-61627351D01*
X199275313Y-61591213D01*
X199230425Y-61563299D01*
X199180941Y-61544674D01*
X199128786Y-61536064D01*
X199075948Y-61537794D01*
X199024462Y-61549798D01*
X198976219Y-61571658D01*
X198668105Y-61749547D01*
X198666105Y-61749547D01*
X198665105Y-61747815D01*
X198666105Y-61746083D01*
X199030254Y-61535841D01*
X199030429Y-61535751D01*
X199071824Y-61516996D01*
X199072195Y-61516870D01*
X199110443Y-61507951D01*
X199110832Y-61507900D01*
X199150081Y-61506616D01*
X199150472Y-61506642D01*
G37*
G36*
X197489333Y-60179601D02*
G01*
X197488333Y-60181333D01*
X197116156Y-60396210D01*
X197115981Y-60396300D01*
X197074586Y-60415055D01*
X197074215Y-60415181D01*
X197035967Y-60424100D01*
X197035578Y-60424151D01*
X196996329Y-60425435D01*
X196995938Y-60425409D01*
X196957194Y-60419013D01*
X196956815Y-60418912D01*
X196920059Y-60405077D01*
X196919708Y-60404903D01*
X196886359Y-60384166D01*
X196886048Y-60383928D01*
X196857385Y-60357082D01*
X196857126Y-60356787D01*
X196830653Y-60319844D01*
X196830547Y-60319679D01*
X196798246Y-60263732D01*
X196798246Y-60261732D01*
X196799978Y-60260732D01*
X196801604Y-60261567D01*
X196832512Y-60304700D01*
X196871097Y-60340838D01*
X196915985Y-60368752D01*
X196965469Y-60387377D01*
X197017624Y-60395987D01*
X197070462Y-60394257D01*
X197121948Y-60382253D01*
X197170191Y-60360393D01*
X197486333Y-60177869D01*
X197488333Y-60177869D01*
X197489333Y-60179601D01*
G37*
G36*
X198350472Y-60121001D02*
G01*
X198389216Y-60127397D01*
X198389595Y-60127498D01*
X198426351Y-60141333D01*
X198426702Y-60141507D01*
X198460051Y-60162244D01*
X198460362Y-60162482D01*
X198489025Y-60189328D01*
X198489284Y-60189623D01*
X198515757Y-60226566D01*
X198515863Y-60226731D01*
X198548164Y-60282678D01*
X198548164Y-60284678D01*
X198546432Y-60285678D01*
X198544806Y-60284843D01*
X198513898Y-60241710D01*
X198475313Y-60205572D01*
X198430425Y-60177658D01*
X198380941Y-60159033D01*
X198328786Y-60150423D01*
X198275948Y-60152153D01*
X198224462Y-60164157D01*
X198176219Y-60186017D01*
X197853587Y-60372288D01*
X197851587Y-60372288D01*
X197850587Y-60370556D01*
X197851587Y-60368824D01*
X198230254Y-60150200D01*
X198230429Y-60150110D01*
X198271824Y-60131355D01*
X198272195Y-60131229D01*
X198310443Y-60122310D01*
X198310832Y-60122259D01*
X198350081Y-60120975D01*
X198350472Y-60121001D01*
G37*
G36*
X210839917Y-59910352D02*
G01*
X210838917Y-59912084D01*
X210375002Y-60179926D01*
X210374827Y-60180016D01*
X210333432Y-60198771D01*
X210333061Y-60198897D01*
X210294813Y-60207816D01*
X210294424Y-60207867D01*
X210255175Y-60209151D01*
X210254784Y-60209125D01*
X210216040Y-60202729D01*
X210215661Y-60202628D01*
X210178905Y-60188793D01*
X210178554Y-60188619D01*
X210145205Y-60167882D01*
X210144894Y-60167644D01*
X210116231Y-60140798D01*
X210115972Y-60140503D01*
X210089499Y-60103560D01*
X210089393Y-60103395D01*
X210057092Y-60047448D01*
X210057092Y-60045448D01*
X210058824Y-60044448D01*
X210060450Y-60045283D01*
X210091358Y-60088416D01*
X210129943Y-60124554D01*
X210174831Y-60152468D01*
X210224315Y-60171093D01*
X210276470Y-60179703D01*
X210329308Y-60177973D01*
X210380794Y-60165969D01*
X210429037Y-60144109D01*
X210836917Y-59908620D01*
X210838917Y-59908620D01*
X210839917Y-59910352D01*
G37*
G36*
X197550472Y-58735361D02*
G01*
X197589216Y-58741757D01*
X197589595Y-58741858D01*
X197626351Y-58755693D01*
X197626702Y-58755867D01*
X197660051Y-58776604D01*
X197660362Y-58776842D01*
X197689025Y-58803688D01*
X197689284Y-58803983D01*
X197715757Y-58840926D01*
X197715863Y-58841091D01*
X197748164Y-58897038D01*
X197748164Y-58899038D01*
X197746432Y-58900038D01*
X197744806Y-58899203D01*
X197713898Y-58856070D01*
X197675313Y-58819932D01*
X197630425Y-58792018D01*
X197580941Y-58773393D01*
X197528786Y-58764783D01*
X197475948Y-58766513D01*
X197424462Y-58778517D01*
X197376219Y-58800377D01*
X197080167Y-58971302D01*
X197078167Y-58971302D01*
X197077167Y-58969570D01*
X197078167Y-58967838D01*
X197430254Y-58764560D01*
X197430429Y-58764470D01*
X197471824Y-58745715D01*
X197472195Y-58745589D01*
X197510443Y-58736670D01*
X197510832Y-58736619D01*
X197550081Y-58735335D01*
X197550472Y-58735361D01*
G37*
G36*
X209948179Y-58577677D02*
G01*
X209947179Y-58579409D01*
X209575002Y-58794286D01*
X209574827Y-58794376D01*
X209533432Y-58813131D01*
X209533061Y-58813257D01*
X209494813Y-58822176D01*
X209494424Y-58822227D01*
X209455175Y-58823511D01*
X209454784Y-58823485D01*
X209416040Y-58817089D01*
X209415661Y-58816988D01*
X209378905Y-58803153D01*
X209378554Y-58802979D01*
X209345205Y-58782242D01*
X209344894Y-58782004D01*
X209316231Y-58755158D01*
X209315972Y-58754863D01*
X209289499Y-58717920D01*
X209289393Y-58717755D01*
X209257092Y-58661808D01*
X209257092Y-58659808D01*
X209258824Y-58658808D01*
X209260450Y-58659643D01*
X209291358Y-58702776D01*
X209329943Y-58738914D01*
X209374831Y-58766828D01*
X209424315Y-58785453D01*
X209476470Y-58794063D01*
X209529308Y-58792333D01*
X209580794Y-58780329D01*
X209629037Y-58758469D01*
X209945179Y-58575945D01*
X209947179Y-58575945D01*
X209948179Y-58577677D01*
G37*
G36*
X210809318Y-58519077D02*
G01*
X210848062Y-58525473D01*
X210848441Y-58525574D01*
X210885197Y-58539409D01*
X210885548Y-58539583D01*
X210918897Y-58560320D01*
X210919208Y-58560558D01*
X210947871Y-58587404D01*
X210948130Y-58587699D01*
X210974603Y-58624642D01*
X210974709Y-58624807D01*
X211007010Y-58680754D01*
X211007010Y-58682754D01*
X211005278Y-58683754D01*
X211003652Y-58682919D01*
X210972744Y-58639786D01*
X210934159Y-58603648D01*
X210889271Y-58575734D01*
X210839787Y-58557109D01*
X210787632Y-58548499D01*
X210734794Y-58550229D01*
X210683308Y-58562233D01*
X210635065Y-58584093D01*
X210316486Y-58768024D01*
X210314486Y-58768024D01*
X210313486Y-58766292D01*
X210314486Y-58764560D01*
X210689100Y-58548276D01*
X210689275Y-58548186D01*
X210730670Y-58529431D01*
X210731041Y-58529305D01*
X210769289Y-58520386D01*
X210769678Y-58520335D01*
X210808927Y-58519051D01*
X210809318Y-58519077D01*
G37*
G36*
X209140151Y-57196671D02*
G01*
X209139151Y-57198403D01*
X208775002Y-57408645D01*
X208774827Y-57408735D01*
X208733432Y-57427490D01*
X208733061Y-57427616D01*
X208694813Y-57436535D01*
X208694424Y-57436586D01*
X208655175Y-57437870D01*
X208654784Y-57437844D01*
X208616040Y-57431448D01*
X208615661Y-57431347D01*
X208578905Y-57417512D01*
X208578554Y-57417338D01*
X208545205Y-57396601D01*
X208544894Y-57396363D01*
X208516231Y-57369517D01*
X208515972Y-57369222D01*
X208489499Y-57332279D01*
X208489393Y-57332114D01*
X208457092Y-57276167D01*
X208457092Y-57274167D01*
X208458824Y-57273167D01*
X208460450Y-57274002D01*
X208491358Y-57317135D01*
X208529943Y-57353273D01*
X208574831Y-57381187D01*
X208624315Y-57399812D01*
X208676470Y-57408422D01*
X208729308Y-57406692D01*
X208780794Y-57394688D01*
X208829037Y-57372828D01*
X209137151Y-57194939D01*
X209139151Y-57194939D01*
X209140151Y-57196671D01*
G37*
G36*
X210009318Y-57133437D02*
G01*
X210048062Y-57139833D01*
X210048441Y-57139934D01*
X210085197Y-57153769D01*
X210085548Y-57153943D01*
X210118897Y-57174680D01*
X210119208Y-57174918D01*
X210147871Y-57201764D01*
X210148130Y-57202059D01*
X210174603Y-57239002D01*
X210174709Y-57239167D01*
X210207010Y-57295114D01*
X210207010Y-57297114D01*
X210205278Y-57298114D01*
X210203652Y-57297279D01*
X210172744Y-57254146D01*
X210134159Y-57218008D01*
X210089271Y-57190094D01*
X210039787Y-57171469D01*
X209987632Y-57162859D01*
X209934794Y-57164589D01*
X209883308Y-57176593D01*
X209835065Y-57198453D01*
X209526951Y-57376342D01*
X209524951Y-57376342D01*
X209523951Y-57374610D01*
X209524951Y-57372878D01*
X209889100Y-57162636D01*
X209889275Y-57162546D01*
X209930670Y-57143791D01*
X209931041Y-57143665D01*
X209969289Y-57134746D01*
X209969678Y-57134695D01*
X210008927Y-57133411D01*
X210009318Y-57133437D01*
G37*
G36*
X208340151Y-55811030D02*
G01*
X208339151Y-55812762D01*
X207975002Y-56023004D01*
X207974827Y-56023094D01*
X207933432Y-56041849D01*
X207933061Y-56041975D01*
X207894813Y-56050894D01*
X207894424Y-56050945D01*
X207855175Y-56052229D01*
X207854784Y-56052203D01*
X207816040Y-56045807D01*
X207815661Y-56045706D01*
X207778905Y-56031871D01*
X207778554Y-56031697D01*
X207745205Y-56010960D01*
X207744894Y-56010722D01*
X207716231Y-55983876D01*
X207715972Y-55983581D01*
X207689499Y-55946638D01*
X207689393Y-55946473D01*
X207657092Y-55890526D01*
X207657092Y-55888526D01*
X207658824Y-55887526D01*
X207660450Y-55888361D01*
X207691358Y-55931494D01*
X207729943Y-55967632D01*
X207774831Y-55995546D01*
X207824315Y-56014171D01*
X207876470Y-56022781D01*
X207929308Y-56021051D01*
X207980794Y-56009047D01*
X208029037Y-55987187D01*
X208337151Y-55809298D01*
X208339151Y-55809298D01*
X208340151Y-55811030D01*
G37*
G36*
X209209318Y-55747796D02*
G01*
X209248062Y-55754192D01*
X209248441Y-55754293D01*
X209285197Y-55768128D01*
X209285548Y-55768302D01*
X209318897Y-55789039D01*
X209319208Y-55789277D01*
X209347871Y-55816123D01*
X209348130Y-55816418D01*
X209374603Y-55853361D01*
X209374709Y-55853526D01*
X209407010Y-55909473D01*
X209407010Y-55911473D01*
X209405278Y-55912473D01*
X209403652Y-55911638D01*
X209372744Y-55868505D01*
X209334159Y-55832367D01*
X209289271Y-55804453D01*
X209239787Y-55785828D01*
X209187632Y-55777218D01*
X209134794Y-55778948D01*
X209083308Y-55790952D01*
X209035065Y-55812812D01*
X208726951Y-55990701D01*
X208724951Y-55990701D01*
X208723951Y-55988969D01*
X208724951Y-55987237D01*
X209089100Y-55776995D01*
X209089275Y-55776905D01*
X209130670Y-55758150D01*
X209131041Y-55758024D01*
X209169289Y-55749105D01*
X209169678Y-55749054D01*
X209208927Y-55747770D01*
X209209318Y-55747796D01*
G37*
G36*
X207548179Y-54420755D02*
G01*
X207547179Y-54422487D01*
X207175002Y-54637364D01*
X207174827Y-54637454D01*
X207133432Y-54656209D01*
X207133061Y-54656335D01*
X207094813Y-54665254D01*
X207094424Y-54665305D01*
X207055175Y-54666589D01*
X207054784Y-54666563D01*
X207016040Y-54660167D01*
X207015661Y-54660066D01*
X206978905Y-54646231D01*
X206978554Y-54646057D01*
X206945205Y-54625320D01*
X206944894Y-54625082D01*
X206916231Y-54598236D01*
X206915972Y-54597941D01*
X206889499Y-54560998D01*
X206889393Y-54560833D01*
X206857092Y-54504886D01*
X206857092Y-54502886D01*
X206858824Y-54501886D01*
X206860450Y-54502721D01*
X206891358Y-54545854D01*
X206929943Y-54581992D01*
X206974831Y-54609906D01*
X207024315Y-54628531D01*
X207076470Y-54637141D01*
X207129308Y-54635411D01*
X207180794Y-54623407D01*
X207229037Y-54601547D01*
X207545179Y-54419023D01*
X207547179Y-54419023D01*
X207548179Y-54420755D01*
G37*
G36*
X208409318Y-54362155D02*
G01*
X208448062Y-54368551D01*
X208448441Y-54368652D01*
X208485197Y-54382487D01*
X208485548Y-54382661D01*
X208518897Y-54403398D01*
X208519208Y-54403636D01*
X208547871Y-54430482D01*
X208548130Y-54430777D01*
X208574603Y-54467720D01*
X208574709Y-54467885D01*
X208607010Y-54523832D01*
X208607010Y-54525832D01*
X208605278Y-54526832D01*
X208603652Y-54525997D01*
X208572744Y-54482864D01*
X208534159Y-54446726D01*
X208489271Y-54418812D01*
X208439787Y-54400187D01*
X208387632Y-54391577D01*
X208334794Y-54393307D01*
X208283308Y-54405311D01*
X208235065Y-54427171D01*
X207912433Y-54613442D01*
X207910433Y-54613442D01*
X207909433Y-54611710D01*
X207910433Y-54609978D01*
X208289100Y-54391354D01*
X208289275Y-54391264D01*
X208330670Y-54372509D01*
X208331041Y-54372383D01*
X208369289Y-54363464D01*
X208369678Y-54363413D01*
X208408927Y-54362129D01*
X208409318Y-54362155D01*
G37*
G36*
X205802499Y-53581102D02*
G01*
X205801779Y-53582638D01*
X205801773Y-53582643D01*
X205801493Y-53582839D01*
X205569618Y-53716712D01*
X205549935Y-53730816D01*
X205533454Y-53748413D01*
X205520725Y-53768882D01*
X205512229Y-53791454D01*
X205508303Y-53815238D01*
X205509092Y-53839336D01*
X205514567Y-53862818D01*
X205524558Y-53884868D01*
X205560957Y-53947915D01*
X205575061Y-53967597D01*
X205592659Y-53984079D01*
X205613127Y-53996808D01*
X205635699Y-54005304D01*
X205659483Y-54009230D01*
X205683581Y-54008441D01*
X205707063Y-54002967D01*
X205729114Y-53992974D01*
X205960999Y-53859096D01*
X205961256Y-53858971D01*
X205961261Y-53858969D01*
X205963241Y-53859254D01*
X205963984Y-53861111D01*
X205963004Y-53862558D01*
X205622776Y-54058988D01*
X205620044Y-54058256D01*
X205557544Y-53950003D01*
X205458544Y-53778530D01*
X205459276Y-53775798D01*
X205799499Y-53579370D01*
X205801499Y-53579370D01*
X205802499Y-53581102D01*
G37*
G36*
X207609318Y-52976515D02*
G01*
X207648062Y-52982911D01*
X207648441Y-52983012D01*
X207685197Y-52996847D01*
X207685548Y-52997021D01*
X207718897Y-53017758D01*
X207719208Y-53017996D01*
X207747871Y-53044842D01*
X207748130Y-53045137D01*
X207774603Y-53082080D01*
X207774709Y-53082245D01*
X207807010Y-53138192D01*
X207807010Y-53140192D01*
X207805278Y-53141192D01*
X207803652Y-53140357D01*
X207772744Y-53097224D01*
X207734159Y-53061086D01*
X207689271Y-53033172D01*
X207639787Y-53014547D01*
X207587632Y-53005937D01*
X207534794Y-53007667D01*
X207483308Y-53019671D01*
X207435065Y-53041531D01*
X207139013Y-53212456D01*
X207137013Y-53212456D01*
X207136013Y-53210724D01*
X207137013Y-53208992D01*
X207489100Y-53005714D01*
X207489275Y-53005624D01*
X207530670Y-52986869D01*
X207531041Y-52986743D01*
X207569289Y-52977824D01*
X207569678Y-52977773D01*
X207608927Y-52976489D01*
X207609318Y-52976515D01*
G37*
G36*
X207339758Y-52328887D02*
G01*
X207393338Y-52421690D01*
X207393428Y-52421865D01*
X207412229Y-52463359D01*
X207412355Y-52463730D01*
X207421300Y-52502091D01*
X207421351Y-52502480D01*
X207422639Y-52541844D01*
X207422613Y-52542235D01*
X207416198Y-52581091D01*
X207416097Y-52581469D01*
X207402221Y-52618338D01*
X207402047Y-52618690D01*
X207381250Y-52652134D01*
X207381012Y-52652445D01*
X207354089Y-52681190D01*
X207353794Y-52681449D01*
X207316758Y-52707989D01*
X207316593Y-52708095D01*
X207050984Y-52861444D01*
X207048984Y-52861444D01*
X207047984Y-52859712D01*
X207048984Y-52857980D01*
X207258640Y-52736935D01*
X207301773Y-52706026D01*
X207337978Y-52667371D01*
X207365943Y-52622400D01*
X207384599Y-52572830D01*
X207393226Y-52520579D01*
X207391493Y-52467645D01*
X207379467Y-52416066D01*
X207357568Y-52367736D01*
X207336294Y-52330887D01*
X207336294Y-52328887D01*
X207338026Y-52327887D01*
X207339758Y-52328887D01*
G37*
G36*
X206809142Y-51591090D02*
G01*
X206847998Y-51597505D01*
X206848376Y-51597606D01*
X206885245Y-51611482D01*
X206885597Y-51611656D01*
X206919041Y-51632453D01*
X206919352Y-51632691D01*
X206948095Y-51659612D01*
X206948354Y-51659907D01*
X206974896Y-51696945D01*
X206975002Y-51697110D01*
X207187315Y-52064848D01*
X207187315Y-52066848D01*
X207185583Y-52067848D01*
X207183851Y-52066848D01*
X207003841Y-51755062D01*
X206972932Y-51711928D01*
X206934277Y-51675724D01*
X206889306Y-51647759D01*
X206839736Y-51629103D01*
X206787485Y-51620476D01*
X206734551Y-51622209D01*
X206682972Y-51634235D01*
X206634558Y-51656172D01*
X206632568Y-51655976D01*
X206631743Y-51654154D01*
X206632733Y-51652618D01*
X206688593Y-51620367D01*
X206688768Y-51620277D01*
X206730267Y-51601474D01*
X206730638Y-51601348D01*
X206768998Y-51592403D01*
X206769387Y-51592352D01*
X206808751Y-51591064D01*
X206809142Y-51591090D01*
G37*
G36*
X204630930Y-48168210D02*
G01*
X204680950Y-48254848D01*
X204688649Y-48268183D01*
X204693018Y-48275750D01*
X204693022Y-48275757D01*
X204703562Y-48294013D01*
X204740647Y-48358246D01*
X204977475Y-48768444D01*
X205139285Y-49048707D01*
X205151123Y-49069211D01*
X205179976Y-49119186D01*
X205179980Y-49119193D01*
X205192519Y-49140911D01*
X205381820Y-49468790D01*
X205413938Y-49524420D01*
X205531931Y-49728789D01*
X205531931Y-49730789D01*
X205531199Y-49731521D01*
X203970620Y-50632522D01*
X203968620Y-50632522D01*
X203967888Y-50631790D01*
X203848871Y-50425646D01*
X203840641Y-50411391D01*
X203833346Y-50398756D01*
X203468683Y-49767141D01*
X203447695Y-49730789D01*
X203066887Y-49071211D01*
X203066958Y-49070943D01*
X203071352Y-49070943D01*
X203451159Y-49728789D01*
X203472147Y-49765141D01*
X203836810Y-50396756D01*
X203844105Y-50409391D01*
X203852335Y-50423646D01*
X203970352Y-50628057D01*
X205527466Y-49729057D01*
X205410474Y-49526420D01*
X205378356Y-49470790D01*
X205189055Y-49142911D01*
X205176516Y-49121193D01*
X205176512Y-49121186D01*
X205147659Y-49071211D01*
X205135821Y-49050707D01*
X204974011Y-48770444D01*
X204737183Y-48360246D01*
X204700098Y-48296013D01*
X204689558Y-48277757D01*
X204689554Y-48277750D01*
X204685185Y-48270183D01*
X204677486Y-48256848D01*
X204628466Y-48171943D01*
X203071352Y-49070943D01*
X203066958Y-49070943D01*
X203067619Y-49068479D01*
X204628198Y-48167478D01*
X204630198Y-48167478D01*
X204630930Y-48168210D01*
G37*
G36*
X212180988Y-47426684D02*
G01*
X212179988Y-47428416D01*
X211716156Y-47696210D01*
X211715981Y-47696300D01*
X211674586Y-47715055D01*
X211674215Y-47715181D01*
X211635967Y-47724100D01*
X211635578Y-47724151D01*
X211596329Y-47725435D01*
X211595938Y-47725409D01*
X211557194Y-47719013D01*
X211556815Y-47718912D01*
X211520059Y-47705077D01*
X211519708Y-47704903D01*
X211486359Y-47684166D01*
X211486048Y-47683928D01*
X211457385Y-47657082D01*
X211457126Y-47656787D01*
X211430653Y-47619844D01*
X211430547Y-47619679D01*
X211398246Y-47563732D01*
X211398246Y-47561732D01*
X211399978Y-47560732D01*
X211401604Y-47561567D01*
X211432512Y-47604700D01*
X211471097Y-47640838D01*
X211515985Y-47668752D01*
X211565469Y-47687377D01*
X211617624Y-47695987D01*
X211670462Y-47694257D01*
X211721948Y-47682253D01*
X211770191Y-47660393D01*
X212177988Y-47424952D01*
X212179988Y-47424952D01*
X212180988Y-47426684D01*
G37*
G36*
X209395213Y-47186376D02*
G01*
X209569213Y-47487753D01*
X209568481Y-47490485D01*
X209228258Y-47686913D01*
X209226258Y-47686913D01*
X209225258Y-47685181D01*
X209225978Y-47683645D01*
X209225984Y-47683640D01*
X209226264Y-47683444D01*
X209458139Y-47549571D01*
X209477822Y-47535467D01*
X209494303Y-47517870D01*
X209507032Y-47497401D01*
X209515528Y-47474829D01*
X209519454Y-47451045D01*
X209518665Y-47426947D01*
X209513190Y-47403465D01*
X209503198Y-47381414D01*
X209454298Y-47296716D01*
X209440194Y-47277034D01*
X209422596Y-47260553D01*
X209402128Y-47247824D01*
X209379556Y-47239328D01*
X209355772Y-47235402D01*
X209331674Y-47236191D01*
X209308192Y-47241666D01*
X209286055Y-47251697D01*
X209284065Y-47251501D01*
X209283240Y-47249679D01*
X209284230Y-47248143D01*
X209392481Y-47185644D01*
X209394481Y-47185644D01*
X209395213Y-47186376D01*
G37*
G36*
X210257050Y-46689948D02*
G01*
X210256330Y-46691484D01*
X210256324Y-46691489D01*
X210256044Y-46691685D01*
X210024169Y-46825558D01*
X210004486Y-46839662D01*
X209988005Y-46857259D01*
X209975276Y-46877728D01*
X209966780Y-46900300D01*
X209962854Y-46924084D01*
X209963643Y-46948182D01*
X209969118Y-46971664D01*
X209979110Y-46993715D01*
X210028010Y-47078413D01*
X210042114Y-47098095D01*
X210059712Y-47114576D01*
X210080180Y-47127305D01*
X210102752Y-47135801D01*
X210126536Y-47139727D01*
X210150634Y-47138938D01*
X210174116Y-47133463D01*
X210196253Y-47123432D01*
X210198243Y-47123628D01*
X210199068Y-47125450D01*
X210198078Y-47126986D01*
X210089827Y-47189485D01*
X210087827Y-47189485D01*
X210087095Y-47188753D01*
X209913095Y-46887376D01*
X209913827Y-46884644D01*
X210254050Y-46688216D01*
X210256050Y-46688216D01*
X210257050Y-46689948D01*
G37*
G36*
X212150472Y-46035361D02*
G01*
X212189216Y-46041757D01*
X212189595Y-46041858D01*
X212226351Y-46055693D01*
X212226702Y-46055867D01*
X212260051Y-46076604D01*
X212260362Y-46076842D01*
X212289025Y-46103688D01*
X212289284Y-46103983D01*
X212315757Y-46140926D01*
X212315863Y-46141091D01*
X212348164Y-46197038D01*
X212348164Y-46199038D01*
X212346432Y-46200038D01*
X212344806Y-46199203D01*
X212313898Y-46156070D01*
X212275313Y-46119932D01*
X212230425Y-46092018D01*
X212180941Y-46073393D01*
X212128786Y-46064783D01*
X212075948Y-46066513D01*
X212024462Y-46078517D01*
X211976219Y-46100377D01*
X211680167Y-46271302D01*
X211678167Y-46271302D01*
X211677167Y-46269570D01*
X211678167Y-46267838D01*
X212030254Y-46064560D01*
X212030429Y-46064470D01*
X212071824Y-46045715D01*
X212072195Y-46045589D01*
X212110443Y-46036670D01*
X212110832Y-46036619D01*
X212150081Y-46035335D01*
X212150472Y-46035361D01*
G37*
G36*
X211880912Y-45387733D02*
G01*
X211934492Y-45480536D01*
X211934582Y-45480711D01*
X211953383Y-45522205D01*
X211953509Y-45522576D01*
X211962454Y-45560937D01*
X211962505Y-45561326D01*
X211963793Y-45600690D01*
X211963767Y-45601081D01*
X211957352Y-45639937D01*
X211957251Y-45640315D01*
X211943375Y-45677184D01*
X211943201Y-45677536D01*
X211922404Y-45710980D01*
X211922166Y-45711291D01*
X211895243Y-45740036D01*
X211894948Y-45740295D01*
X211857912Y-45766835D01*
X211857747Y-45766941D01*
X211387205Y-46038608D01*
X211385205Y-46038608D01*
X211384205Y-46036876D01*
X211385205Y-46035144D01*
X211799794Y-45795781D01*
X211842927Y-45764872D01*
X211879132Y-45726217D01*
X211907097Y-45681246D01*
X211925753Y-45631676D01*
X211934380Y-45579425D01*
X211932647Y-45526491D01*
X211920621Y-45474912D01*
X211898722Y-45426582D01*
X211877448Y-45389733D01*
X211877448Y-45387733D01*
X211879180Y-45386733D01*
X211880912Y-45387733D01*
G37*
G36*
X211004332Y-44812820D02*
G01*
X211003332Y-44814552D01*
X210346616Y-45193707D01*
X210303483Y-45224616D01*
X210267278Y-45263271D01*
X210239313Y-45308242D01*
X210220657Y-45357812D01*
X210212030Y-45410063D01*
X210213763Y-45462997D01*
X210225789Y-45514576D01*
X210247688Y-45562906D01*
X210268962Y-45599755D01*
X210268962Y-45601755D01*
X210267230Y-45602755D01*
X210265498Y-45601755D01*
X210211918Y-45508952D01*
X210211828Y-45508777D01*
X210193027Y-45467283D01*
X210192901Y-45466912D01*
X210183956Y-45428551D01*
X210183905Y-45428162D01*
X210182617Y-45388798D01*
X210182643Y-45388407D01*
X210189058Y-45349551D01*
X210189159Y-45349173D01*
X210203035Y-45312304D01*
X210203209Y-45311952D01*
X210224006Y-45278508D01*
X210224244Y-45278197D01*
X210251167Y-45249452D01*
X210251462Y-45249193D01*
X210288498Y-45222653D01*
X210288663Y-45222547D01*
X211001332Y-44811088D01*
X211003332Y-44811088D01*
X211004332Y-44812820D01*
G37*
G36*
X211350296Y-44649936D02*
G01*
X211389152Y-44656351D01*
X211389530Y-44656452D01*
X211426399Y-44670328D01*
X211426751Y-44670502D01*
X211460195Y-44691299D01*
X211460506Y-44691537D01*
X211489249Y-44718458D01*
X211489508Y-44718753D01*
X211516050Y-44755791D01*
X211516156Y-44755956D01*
X211785286Y-45222104D01*
X211785286Y-45224104D01*
X211783554Y-45225104D01*
X211781822Y-45224104D01*
X211544995Y-44813908D01*
X211514086Y-44770774D01*
X211475431Y-44734570D01*
X211430460Y-44706605D01*
X211380890Y-44687949D01*
X211328639Y-44679322D01*
X211275705Y-44681055D01*
X211224126Y-44693081D01*
X211175712Y-44715018D01*
X211173722Y-44714822D01*
X211172897Y-44713000D01*
X211173887Y-44711464D01*
X211229747Y-44679213D01*
X211229922Y-44679123D01*
X211271421Y-44660320D01*
X211271792Y-44660194D01*
X211310152Y-44651249D01*
X211310541Y-44651198D01*
X211349905Y-44649910D01*
X211350296Y-44649936D01*
G37*
M02*
