G04 #@! TF.GenerationSoftware,KiCad,Pcbnew,5.1.9-73d0e3b20d~88~ubuntu20.10.1*
G04 #@! TF.CreationDate,2021-03-27T00:21:14+01:00*
G04 #@! TF.ProjectId,esp8266_01,65737038-3236-4365-9f30-312e6b696361,rev?*
G04 #@! TF.SameCoordinates,Original*
G04 #@! TF.FileFunction,Copper,L1,Top*
G04 #@! TF.FilePolarity,Positive*
%FSLAX46Y46*%
G04 Gerber Fmt 4.6, Leading zero omitted, Abs format (unit mm)*
G04 Created by KiCad (PCBNEW 5.1.9-73d0e3b20d~88~ubuntu20.10.1) date 2021-03-27 00:21:14*
%MOMM*%
%LPD*%
G01*
G04 APERTURE LIST*
G04 #@! TA.AperFunction,ComponentPad*
%ADD10C,0.100000*%
G04 #@! TD*
G04 #@! TA.AperFunction,ComponentPad*
%ADD11C,1.450000*%
G04 #@! TD*
G04 #@! TA.AperFunction,SMDPad,CuDef*
%ADD12R,1.700000X1.000000*%
G04 #@! TD*
G04 #@! TA.AperFunction,SMDPad,CuDef*
%ADD13R,1.500000X2.000000*%
G04 #@! TD*
G04 #@! TA.AperFunction,SMDPad,CuDef*
%ADD14R,3.800000X2.000000*%
G04 #@! TD*
G04 #@! TA.AperFunction,ComponentPad*
%ADD15O,3.500000X1.900000*%
G04 #@! TD*
G04 #@! TA.AperFunction,SMDPad,CuDef*
%ADD16R,2.500000X1.100000*%
G04 #@! TD*
G04 #@! TA.AperFunction,ComponentPad*
%ADD17O,1.700000X1.700000*%
G04 #@! TD*
G04 #@! TA.AperFunction,ComponentPad*
%ADD18R,1.700000X1.700000*%
G04 #@! TD*
G04 #@! TA.AperFunction,ViaPad*
%ADD19C,0.800000*%
G04 #@! TD*
G04 #@! TA.AperFunction,Conductor*
%ADD20C,0.250000*%
G04 #@! TD*
G04 #@! TA.AperFunction,Conductor*
%ADD21C,0.350000*%
G04 #@! TD*
G04 #@! TA.AperFunction,Conductor*
%ADD22C,0.254000*%
G04 #@! TD*
G04 #@! TA.AperFunction,Conductor*
%ADD23C,0.100000*%
G04 #@! TD*
G04 APERTURE END LIST*
G04 #@! TA.AperFunction,ComponentPad*
D10*
G36*
X203971884Y-92343057D02*
G01*
X204706884Y-91070000D01*
X204707719Y-91070482D01*
X204727346Y-91036487D01*
X204773075Y-90972672D01*
X204824839Y-90913646D01*
X204882139Y-90859978D01*
X204944424Y-90812186D01*
X205011093Y-90770728D01*
X205081505Y-90736005D01*
X205154981Y-90708350D01*
X205230815Y-90688030D01*
X205308275Y-90675242D01*
X205386615Y-90670107D01*
X205465081Y-90672676D01*
X205542917Y-90682923D01*
X205619375Y-90700751D01*
X205693717Y-90725987D01*
X205765227Y-90758388D01*
X205833217Y-90797642D01*
X205897032Y-90843371D01*
X205956058Y-90895135D01*
X206009726Y-90952435D01*
X206057518Y-91014720D01*
X206098976Y-91081389D01*
X206133699Y-91151801D01*
X206161354Y-91225277D01*
X206181674Y-91301111D01*
X206194462Y-91378571D01*
X206199597Y-91456911D01*
X206197028Y-91535377D01*
X206186781Y-91613213D01*
X206168953Y-91689671D01*
X206143717Y-91764013D01*
X206111316Y-91835523D01*
X206091689Y-91869518D01*
X206092524Y-91870000D01*
X205357524Y-93143057D01*
X203971884Y-92343057D01*
G37*
G04 #@! TD.AperFunction*
G04 #@! TA.AperFunction,ComponentPad*
G36*
X201772180Y-91073057D02*
G01*
X202507180Y-89800000D01*
X202508015Y-89800482D01*
X202527642Y-89766487D01*
X202573371Y-89702672D01*
X202625135Y-89643646D01*
X202682435Y-89589978D01*
X202744720Y-89542186D01*
X202811389Y-89500728D01*
X202881801Y-89466005D01*
X202955277Y-89438350D01*
X203031111Y-89418030D01*
X203108571Y-89405242D01*
X203186911Y-89400107D01*
X203265377Y-89402676D01*
X203343213Y-89412923D01*
X203419671Y-89430751D01*
X203494013Y-89455987D01*
X203565523Y-89488388D01*
X203633513Y-89527642D01*
X203697328Y-89573371D01*
X203756354Y-89625135D01*
X203810022Y-89682435D01*
X203857814Y-89744720D01*
X203899272Y-89811389D01*
X203933995Y-89881801D01*
X203961650Y-89955277D01*
X203981970Y-90031111D01*
X203994758Y-90108571D01*
X203999893Y-90186911D01*
X203997324Y-90265377D01*
X203987077Y-90343213D01*
X203969249Y-90419671D01*
X203944013Y-90494013D01*
X203911612Y-90565523D01*
X203891985Y-90599518D01*
X203892820Y-90600000D01*
X203157820Y-91873057D01*
X201772180Y-91073057D01*
G37*
G04 #@! TD.AperFunction*
G04 #@! TA.AperFunction,ComponentPad*
G36*
X199572475Y-89803057D02*
G01*
X200307475Y-88530000D01*
X200308310Y-88530482D01*
X200327937Y-88496487D01*
X200373666Y-88432672D01*
X200425430Y-88373646D01*
X200482730Y-88319978D01*
X200545015Y-88272186D01*
X200611684Y-88230728D01*
X200682096Y-88196005D01*
X200755572Y-88168350D01*
X200831406Y-88148030D01*
X200908866Y-88135242D01*
X200987206Y-88130107D01*
X201065672Y-88132676D01*
X201143508Y-88142923D01*
X201219966Y-88160751D01*
X201294308Y-88185987D01*
X201365818Y-88218388D01*
X201433808Y-88257642D01*
X201497623Y-88303371D01*
X201556649Y-88355135D01*
X201610317Y-88412435D01*
X201658109Y-88474720D01*
X201699567Y-88541389D01*
X201734290Y-88611801D01*
X201761945Y-88685277D01*
X201782265Y-88761111D01*
X201795053Y-88838571D01*
X201800188Y-88916911D01*
X201797619Y-88995377D01*
X201787372Y-89073213D01*
X201769544Y-89149671D01*
X201744308Y-89224013D01*
X201711907Y-89295523D01*
X201692280Y-89329518D01*
X201693115Y-89330000D01*
X200958115Y-90603057D01*
X199572475Y-89803057D01*
G37*
G04 #@! TD.AperFunction*
G04 #@! TA.AperFunction,ComponentPad*
G36*
X197372771Y-88533057D02*
G01*
X198107771Y-87260000D01*
X198108606Y-87260482D01*
X198128233Y-87226487D01*
X198173962Y-87162672D01*
X198225726Y-87103646D01*
X198283026Y-87049978D01*
X198345311Y-87002186D01*
X198411980Y-86960728D01*
X198482392Y-86926005D01*
X198555868Y-86898350D01*
X198631702Y-86878030D01*
X198709162Y-86865242D01*
X198787502Y-86860107D01*
X198865968Y-86862676D01*
X198943804Y-86872923D01*
X199020262Y-86890751D01*
X199094604Y-86915987D01*
X199166114Y-86948388D01*
X199234104Y-86987642D01*
X199297919Y-87033371D01*
X199356945Y-87085135D01*
X199410613Y-87142435D01*
X199458405Y-87204720D01*
X199499863Y-87271389D01*
X199534586Y-87341801D01*
X199562241Y-87415277D01*
X199582561Y-87491111D01*
X199595349Y-87568571D01*
X199600484Y-87646911D01*
X199597915Y-87725377D01*
X199587668Y-87803213D01*
X199569840Y-87879671D01*
X199544604Y-87954013D01*
X199512203Y-88025523D01*
X199492576Y-88059518D01*
X199493411Y-88060000D01*
X198758411Y-89333057D01*
X197372771Y-88533057D01*
G37*
G04 #@! TD.AperFunction*
G04 #@! TA.AperFunction,ComponentPad*
G36*
X195173066Y-87263057D02*
G01*
X195908066Y-85990000D01*
X195908901Y-85990482D01*
X195928528Y-85956487D01*
X195974257Y-85892672D01*
X196026021Y-85833646D01*
X196083321Y-85779978D01*
X196145606Y-85732186D01*
X196212275Y-85690728D01*
X196282687Y-85656005D01*
X196356163Y-85628350D01*
X196431997Y-85608030D01*
X196509457Y-85595242D01*
X196587797Y-85590107D01*
X196666263Y-85592676D01*
X196744099Y-85602923D01*
X196820557Y-85620751D01*
X196894899Y-85645987D01*
X196966409Y-85678388D01*
X197034399Y-85717642D01*
X197098214Y-85763371D01*
X197157240Y-85815135D01*
X197210908Y-85872435D01*
X197258700Y-85934720D01*
X197300158Y-86001389D01*
X197334881Y-86071801D01*
X197362536Y-86145277D01*
X197382856Y-86221111D01*
X197395644Y-86298571D01*
X197400779Y-86376911D01*
X197398210Y-86455377D01*
X197387963Y-86533213D01*
X197370135Y-86609671D01*
X197344899Y-86684013D01*
X197312498Y-86755523D01*
X197292871Y-86789518D01*
X197293706Y-86790000D01*
X196558706Y-88063057D01*
X195173066Y-87263057D01*
G37*
G04 #@! TD.AperFunction*
G04 #@! TA.AperFunction,ComponentPad*
G36*
X228626638Y-52906943D02*
G01*
X227891638Y-54180000D01*
X227890803Y-54179518D01*
X227871176Y-54213513D01*
X227825447Y-54277328D01*
X227773683Y-54336354D01*
X227716383Y-54390022D01*
X227654098Y-54437814D01*
X227587429Y-54479272D01*
X227517017Y-54513995D01*
X227443541Y-54541650D01*
X227367707Y-54561970D01*
X227290247Y-54574758D01*
X227211907Y-54579893D01*
X227133441Y-54577324D01*
X227055605Y-54567077D01*
X226979147Y-54549249D01*
X226904805Y-54524013D01*
X226833295Y-54491612D01*
X226765305Y-54452358D01*
X226701490Y-54406629D01*
X226642464Y-54354865D01*
X226588796Y-54297565D01*
X226541004Y-54235280D01*
X226499546Y-54168611D01*
X226464823Y-54098199D01*
X226437168Y-54024723D01*
X226416848Y-53948889D01*
X226404060Y-53871429D01*
X226398925Y-53793089D01*
X226401494Y-53714623D01*
X226411741Y-53636787D01*
X226429569Y-53560329D01*
X226454805Y-53485987D01*
X226487206Y-53414477D01*
X226506833Y-53380482D01*
X226505998Y-53380000D01*
X227240998Y-52106943D01*
X228626638Y-52906943D01*
G37*
G04 #@! TD.AperFunction*
G04 #@! TA.AperFunction,ComponentPad*
G36*
X226426934Y-51636943D02*
G01*
X225691934Y-52910000D01*
X225691099Y-52909518D01*
X225671472Y-52943513D01*
X225625743Y-53007328D01*
X225573979Y-53066354D01*
X225516679Y-53120022D01*
X225454394Y-53167814D01*
X225387725Y-53209272D01*
X225317313Y-53243995D01*
X225243837Y-53271650D01*
X225168003Y-53291970D01*
X225090543Y-53304758D01*
X225012203Y-53309893D01*
X224933737Y-53307324D01*
X224855901Y-53297077D01*
X224779443Y-53279249D01*
X224705101Y-53254013D01*
X224633591Y-53221612D01*
X224565601Y-53182358D01*
X224501786Y-53136629D01*
X224442760Y-53084865D01*
X224389092Y-53027565D01*
X224341300Y-52965280D01*
X224299842Y-52898611D01*
X224265119Y-52828199D01*
X224237464Y-52754723D01*
X224217144Y-52678889D01*
X224204356Y-52601429D01*
X224199221Y-52523089D01*
X224201790Y-52444623D01*
X224212037Y-52366787D01*
X224229865Y-52290329D01*
X224255101Y-52215987D01*
X224287502Y-52144477D01*
X224307129Y-52110482D01*
X224306294Y-52110000D01*
X225041294Y-50836943D01*
X226426934Y-51636943D01*
G37*
G04 #@! TD.AperFunction*
G04 #@! TA.AperFunction,ComponentPad*
G36*
X224227229Y-50366943D02*
G01*
X223492229Y-51640000D01*
X223491394Y-51639518D01*
X223471767Y-51673513D01*
X223426038Y-51737328D01*
X223374274Y-51796354D01*
X223316974Y-51850022D01*
X223254689Y-51897814D01*
X223188020Y-51939272D01*
X223117608Y-51973995D01*
X223044132Y-52001650D01*
X222968298Y-52021970D01*
X222890838Y-52034758D01*
X222812498Y-52039893D01*
X222734032Y-52037324D01*
X222656196Y-52027077D01*
X222579738Y-52009249D01*
X222505396Y-51984013D01*
X222433886Y-51951612D01*
X222365896Y-51912358D01*
X222302081Y-51866629D01*
X222243055Y-51814865D01*
X222189387Y-51757565D01*
X222141595Y-51695280D01*
X222100137Y-51628611D01*
X222065414Y-51558199D01*
X222037759Y-51484723D01*
X222017439Y-51408889D01*
X222004651Y-51331429D01*
X221999516Y-51253089D01*
X222002085Y-51174623D01*
X222012332Y-51096787D01*
X222030160Y-51020329D01*
X222055396Y-50945987D01*
X222087797Y-50874477D01*
X222107424Y-50840482D01*
X222106589Y-50840000D01*
X222841589Y-49566943D01*
X224227229Y-50366943D01*
G37*
G04 #@! TD.AperFunction*
G04 #@! TA.AperFunction,ComponentPad*
G36*
X222027525Y-49096943D02*
G01*
X221292525Y-50370000D01*
X221291690Y-50369518D01*
X221272063Y-50403513D01*
X221226334Y-50467328D01*
X221174570Y-50526354D01*
X221117270Y-50580022D01*
X221054985Y-50627814D01*
X220988316Y-50669272D01*
X220917904Y-50703995D01*
X220844428Y-50731650D01*
X220768594Y-50751970D01*
X220691134Y-50764758D01*
X220612794Y-50769893D01*
X220534328Y-50767324D01*
X220456492Y-50757077D01*
X220380034Y-50739249D01*
X220305692Y-50714013D01*
X220234182Y-50681612D01*
X220166192Y-50642358D01*
X220102377Y-50596629D01*
X220043351Y-50544865D01*
X219989683Y-50487565D01*
X219941891Y-50425280D01*
X219900433Y-50358611D01*
X219865710Y-50288199D01*
X219838055Y-50214723D01*
X219817735Y-50138889D01*
X219804947Y-50061429D01*
X219799812Y-49983089D01*
X219802381Y-49904623D01*
X219812628Y-49826787D01*
X219830456Y-49750329D01*
X219855692Y-49675987D01*
X219888093Y-49604477D01*
X219907720Y-49570482D01*
X219906885Y-49570000D01*
X220641885Y-48296943D01*
X222027525Y-49096943D01*
G37*
G04 #@! TD.AperFunction*
G04 #@! TA.AperFunction,ComponentPad*
G36*
X219827820Y-47826943D02*
G01*
X219092820Y-49100000D01*
X219091985Y-49099518D01*
X219072358Y-49133513D01*
X219026629Y-49197328D01*
X218974865Y-49256354D01*
X218917565Y-49310022D01*
X218855280Y-49357814D01*
X218788611Y-49399272D01*
X218718199Y-49433995D01*
X218644723Y-49461650D01*
X218568889Y-49481970D01*
X218491429Y-49494758D01*
X218413089Y-49499893D01*
X218334623Y-49497324D01*
X218256787Y-49487077D01*
X218180329Y-49469249D01*
X218105987Y-49444013D01*
X218034477Y-49411612D01*
X217966487Y-49372358D01*
X217902672Y-49326629D01*
X217843646Y-49274865D01*
X217789978Y-49217565D01*
X217742186Y-49155280D01*
X217700728Y-49088611D01*
X217666005Y-49018199D01*
X217638350Y-48944723D01*
X217618030Y-48868889D01*
X217605242Y-48791429D01*
X217600107Y-48713089D01*
X217602676Y-48634623D01*
X217612923Y-48556787D01*
X217630751Y-48480329D01*
X217655987Y-48405987D01*
X217688388Y-48334477D01*
X217708015Y-48300482D01*
X217707180Y-48300000D01*
X218442180Y-47026943D01*
X219827820Y-47826943D01*
G37*
G04 #@! TD.AperFunction*
G04 #@! TA.AperFunction,SMDPad,CuDef*
G36*
G01*
X189400000Y-61500000D02*
X189400000Y-61500000D01*
G75*
G02*
X190400000Y-60500000I1000000J0D01*
G01*
X192400000Y-60500000D01*
G75*
G02*
X193400000Y-61500000I0J-1000000D01*
G01*
X193400000Y-61500000D01*
G75*
G02*
X192400000Y-62500000I-1000000J0D01*
G01*
X190400000Y-62500000D01*
G75*
G02*
X189400000Y-61500000I0J1000000D01*
G01*
G37*
G04 #@! TD.AperFunction*
G04 #@! TA.AperFunction,SMDPad,CuDef*
G36*
G01*
X189400000Y-78500000D02*
X189400000Y-78500000D01*
G75*
G02*
X190400000Y-77500000I1000000J0D01*
G01*
X192400000Y-77500000D01*
G75*
G02*
X193400000Y-78500000I0J-1000000D01*
G01*
X193400000Y-78500000D01*
G75*
G02*
X192400000Y-79500000I-1000000J0D01*
G01*
X190400000Y-79500000D01*
G75*
G02*
X189400000Y-78500000I0J1000000D01*
G01*
G37*
G04 #@! TD.AperFunction*
G04 #@! TA.AperFunction,ComponentPad*
G36*
G01*
X212662052Y-93646891D02*
X213012052Y-94253109D01*
G75*
G02*
X212792437Y-95072724I-519615J-300000D01*
G01*
X212792437Y-95072724D01*
G75*
G02*
X211972822Y-94853109I-300000J519615D01*
G01*
X211622822Y-94246891D01*
G75*
G02*
X211842437Y-93427276I519615J300000D01*
G01*
X211842437Y-93427276D01*
G75*
G02*
X212662052Y-93646891I300000J-519615D01*
G01*
G37*
G04 #@! TD.AperFunction*
G04 #@! TA.AperFunction,ComponentPad*
G36*
G01*
X218035000Y-91353109D02*
X217685000Y-90746891D01*
G75*
G02*
X217904615Y-89927276I519615J300000D01*
G01*
X217904615Y-89927276D01*
G75*
G02*
X218724230Y-90146891I300000J-519615D01*
G01*
X219074230Y-90753109D01*
G75*
G02*
X218854615Y-91572724I-519615J-300000D01*
G01*
X218854615Y-91572724D01*
G75*
G02*
X218035000Y-91353109I-300000J519615D01*
G01*
G37*
G04 #@! TD.AperFunction*
D11*
X211833462Y-91411732D03*
X216163590Y-88911732D03*
G04 #@! TA.AperFunction,ComponentPad*
G36*
G01*
X227331209Y-83707900D02*
X227331209Y-83707900D01*
G75*
G02*
X226151509Y-83391800I-431800J747900D01*
G01*
X226151509Y-83391800D01*
G75*
G02*
X226467609Y-82212100I747900J431800D01*
G01*
X226467609Y-82212100D01*
G75*
G02*
X227647309Y-82528200I431800J-747900D01*
G01*
X227647309Y-82528200D01*
G75*
G02*
X227331209Y-83707900I-747900J-431800D01*
G01*
G37*
G04 #@! TD.AperFunction*
G04 #@! TA.AperFunction,ComponentPad*
G36*
G01*
X228601209Y-85907605D02*
X228601209Y-85907605D01*
G75*
G02*
X227421509Y-85591505I-431800J747900D01*
G01*
X227421509Y-85591505D01*
G75*
G02*
X227737609Y-84411805I747900J431800D01*
G01*
X227737609Y-84411805D01*
G75*
G02*
X228917309Y-84727905I431800J-747900D01*
G01*
X228917309Y-84727905D01*
G75*
G02*
X228601209Y-85907605I-747900J-431800D01*
G01*
G37*
G04 #@! TD.AperFunction*
G04 #@! TA.AperFunction,ComponentPad*
G36*
G01*
X225131504Y-84977900D02*
X225131504Y-84977900D01*
G75*
G02*
X223951804Y-84661800I-431800J747900D01*
G01*
X223951804Y-84661800D01*
G75*
G02*
X224267904Y-83482100I747900J431800D01*
G01*
X224267904Y-83482100D01*
G75*
G02*
X225447604Y-83798200I431800J-747900D01*
G01*
X225447604Y-83798200D01*
G75*
G02*
X225131504Y-84977900I-747900J-431800D01*
G01*
G37*
G04 #@! TD.AperFunction*
G04 #@! TA.AperFunction,ComponentPad*
G36*
G01*
X226401504Y-87177605D02*
X226401504Y-87177605D01*
G75*
G02*
X225221804Y-86861505I-431800J747900D01*
G01*
X225221804Y-86861505D01*
G75*
G02*
X225537904Y-85681805I747900J431800D01*
G01*
X225537904Y-85681805D01*
G75*
G02*
X226717604Y-85997905I431800J-747900D01*
G01*
X226717604Y-85997905D01*
G75*
G02*
X226401504Y-87177605I-747900J-431800D01*
G01*
G37*
G04 #@! TD.AperFunction*
G04 #@! TA.AperFunction,ComponentPad*
G36*
G01*
X222931800Y-86247900D02*
X222931800Y-86247900D01*
G75*
G02*
X221752100Y-85931800I-431800J747900D01*
G01*
X221752100Y-85931800D01*
G75*
G02*
X222068200Y-84752100I747900J431800D01*
G01*
X222068200Y-84752100D01*
G75*
G02*
X223247900Y-85068200I431800J-747900D01*
G01*
X223247900Y-85068200D01*
G75*
G02*
X222931800Y-86247900I-747900J-431800D01*
G01*
G37*
G04 #@! TD.AperFunction*
G04 #@! TA.AperFunction,ComponentPad*
G36*
G01*
X224201800Y-88447605D02*
X224201800Y-88447605D01*
G75*
G02*
X223022100Y-88131505I-431800J747900D01*
G01*
X223022100Y-88131505D01*
G75*
G02*
X223338200Y-86951805I747900J431800D01*
G01*
X223338200Y-86951805D01*
G75*
G02*
X224517900Y-87267905I431800J-747900D01*
G01*
X224517900Y-87267905D01*
G75*
G02*
X224201800Y-88447605I-747900J-431800D01*
G01*
G37*
G04 #@! TD.AperFunction*
G04 #@! TA.AperFunction,ComponentPad*
G36*
G01*
X220732095Y-87517900D02*
X220732095Y-87517900D01*
G75*
G02*
X219552395Y-87201800I-431800J747900D01*
G01*
X219552395Y-87201800D01*
G75*
G02*
X219868495Y-86022100I747900J431800D01*
G01*
X219868495Y-86022100D01*
G75*
G02*
X221048195Y-86338200I431800J-747900D01*
G01*
X221048195Y-86338200D01*
G75*
G02*
X220732095Y-87517900I-747900J-431800D01*
G01*
G37*
G04 #@! TD.AperFunction*
G04 #@! TA.AperFunction,ComponentPad*
D10*
G36*
X222749995Y-89285805D02*
G01*
X221254195Y-90149405D01*
X220390595Y-88653605D01*
X221886395Y-87790005D01*
X222749995Y-89285805D01*
G37*
G04 #@! TD.AperFunction*
D12*
X214450000Y-49800000D03*
X214450000Y-46600000D03*
X209150000Y-49800000D03*
X209150000Y-46600000D03*
X214450000Y-93200000D03*
X214450000Y-90000000D03*
X209150000Y-93200000D03*
X209150000Y-90000000D03*
X211750000Y-64900000D03*
X205450000Y-64900000D03*
X211750000Y-61100000D03*
X205450000Y-61100000D03*
D13*
X200120000Y-74290000D03*
X204720000Y-74290000D03*
X202420000Y-74290000D03*
D14*
X202420000Y-67990000D03*
G04 #@! TA.AperFunction,SMDPad,CuDef*
G36*
G01*
X216050000Y-63550001D02*
X216050000Y-62649999D01*
G75*
G02*
X216299999Y-62400000I249999J0D01*
G01*
X216950001Y-62400000D01*
G75*
G02*
X217200000Y-62649999I0J-249999D01*
G01*
X217200000Y-63550001D01*
G75*
G02*
X216950001Y-63800000I-249999J0D01*
G01*
X216299999Y-63800000D01*
G75*
G02*
X216050000Y-63550001I0J249999D01*
G01*
G37*
G04 #@! TD.AperFunction*
G04 #@! TA.AperFunction,SMDPad,CuDef*
G36*
G01*
X214000000Y-63550001D02*
X214000000Y-62649999D01*
G75*
G02*
X214249999Y-62400000I249999J0D01*
G01*
X214900001Y-62400000D01*
G75*
G02*
X215150000Y-62649999I0J-249999D01*
G01*
X215150000Y-63550001D01*
G75*
G02*
X214900001Y-63800000I-249999J0D01*
G01*
X214249999Y-63800000D01*
G75*
G02*
X214000000Y-63550001I0J249999D01*
G01*
G37*
G04 #@! TD.AperFunction*
D15*
X191050000Y-64150000D03*
X191050000Y-75550000D03*
D16*
X193800000Y-66350000D03*
X193800000Y-73350000D03*
X193800000Y-68850000D03*
X193800000Y-70850000D03*
D17*
X233500000Y-66220000D03*
X233500000Y-68760000D03*
X233500000Y-71300000D03*
D18*
X233500000Y-73840000D03*
G04 #@! TA.AperFunction,ComponentPad*
G36*
G01*
X198125295Y-53946122D02*
X198125295Y-53946122D01*
G75*
G02*
X196964173Y-53635000I-425000J736122D01*
G01*
X196964173Y-53635000D01*
G75*
G02*
X197275295Y-52473878I736122J425000D01*
G01*
X197275295Y-52473878D01*
G75*
G02*
X198436417Y-52785000I425000J-736122D01*
G01*
X198436417Y-52785000D01*
G75*
G02*
X198125295Y-53946122I-736122J-425000D01*
G01*
G37*
G04 #@! TD.AperFunction*
G04 #@! TA.AperFunction,ComponentPad*
G36*
G01*
X200325000Y-52676122D02*
X200325000Y-52676122D01*
G75*
G02*
X199163878Y-52365000I-425000J736122D01*
G01*
X199163878Y-52365000D01*
G75*
G02*
X199475000Y-51203878I736122J425000D01*
G01*
X199475000Y-51203878D01*
G75*
G02*
X200636122Y-51515000I425000J-736122D01*
G01*
X200636122Y-51515000D01*
G75*
G02*
X200325000Y-52676122I-736122J-425000D01*
G01*
G37*
G04 #@! TD.AperFunction*
G04 #@! TA.AperFunction,ComponentPad*
G36*
G01*
X202524704Y-51406122D02*
X202524704Y-51406122D01*
G75*
G02*
X201363582Y-51095000I-425000J736122D01*
G01*
X201363582Y-51095000D01*
G75*
G02*
X201674704Y-49933878I736122J425000D01*
G01*
X201674704Y-49933878D01*
G75*
G02*
X202835826Y-50245000I425000J-736122D01*
G01*
X202835826Y-50245000D01*
G75*
G02*
X202524704Y-51406122I-736122J-425000D01*
G01*
G37*
G04 #@! TD.AperFunction*
G04 #@! TA.AperFunction,ComponentPad*
D10*
G36*
X205460531Y-49711122D02*
G01*
X203988287Y-50561122D01*
X203138287Y-49088878D01*
X204610531Y-48238878D01*
X205460531Y-49711122D01*
G37*
G04 #@! TD.AperFunction*
G04 #@! TA.AperFunction,SMDPad,CuDef*
G36*
G01*
X198990000Y-78339999D02*
X198990000Y-79240001D01*
G75*
G02*
X198740001Y-79490000I-249999J0D01*
G01*
X198089999Y-79490000D01*
G75*
G02*
X197840000Y-79240001I0J249999D01*
G01*
X197840000Y-78339999D01*
G75*
G02*
X198089999Y-78090000I249999J0D01*
G01*
X198740001Y-78090000D01*
G75*
G02*
X198990000Y-78339999I0J-249999D01*
G01*
G37*
G04 #@! TD.AperFunction*
G04 #@! TA.AperFunction,SMDPad,CuDef*
G36*
G01*
X201040000Y-78339999D02*
X201040000Y-79240001D01*
G75*
G02*
X200790001Y-79490000I-249999J0D01*
G01*
X200139999Y-79490000D01*
G75*
G02*
X199890000Y-79240001I0J249999D01*
G01*
X199890000Y-78339999D01*
G75*
G02*
X200139999Y-78090000I249999J0D01*
G01*
X200790001Y-78090000D01*
G75*
G02*
X201040000Y-78339999I0J-249999D01*
G01*
G37*
G04 #@! TD.AperFunction*
G04 #@! TA.AperFunction,SMDPad,CuDef*
G36*
G01*
X204690000Y-78339999D02*
X204690000Y-79240001D01*
G75*
G02*
X204440001Y-79490000I-249999J0D01*
G01*
X203789999Y-79490000D01*
G75*
G02*
X203540000Y-79240001I0J249999D01*
G01*
X203540000Y-78339999D01*
G75*
G02*
X203789999Y-78090000I249999J0D01*
G01*
X204440001Y-78090000D01*
G75*
G02*
X204690000Y-78339999I0J-249999D01*
G01*
G37*
G04 #@! TD.AperFunction*
G04 #@! TA.AperFunction,SMDPad,CuDef*
G36*
G01*
X206740000Y-78339999D02*
X206740000Y-79240001D01*
G75*
G02*
X206490001Y-79490000I-249999J0D01*
G01*
X205839999Y-79490000D01*
G75*
G02*
X205590000Y-79240001I0J249999D01*
G01*
X205590000Y-78339999D01*
G75*
G02*
X205839999Y-78090000I249999J0D01*
G01*
X206490001Y-78090000D01*
G75*
G02*
X206740000Y-78339999I0J-249999D01*
G01*
G37*
G04 #@! TD.AperFunction*
D19*
X217760000Y-76210000D03*
X211510010Y-89119990D03*
X217597660Y-74392340D03*
X209200000Y-91970000D03*
X216100000Y-59100000D03*
X207140000Y-71590000D03*
X205550000Y-70000000D03*
X200560000Y-72690000D03*
X202890000Y-80230000D03*
X228860000Y-80000000D03*
X221932501Y-58378532D03*
X206450000Y-84960000D03*
X213750000Y-52710000D03*
X208890000Y-87470000D03*
X212780000Y-87320000D03*
X226460000Y-79240000D03*
X216930000Y-52740000D03*
X217690000Y-59190000D03*
X219920000Y-59680000D03*
X224250000Y-56870000D03*
X228020000Y-55640000D03*
X212700000Y-89400000D03*
X217040000Y-70220000D03*
X233790000Y-80020000D03*
X209620000Y-77590000D03*
X211010000Y-80480000D03*
X223680000Y-71700000D03*
X218688015Y-50731985D03*
X222054133Y-59959328D03*
X211040000Y-45500000D03*
X210785010Y-82904990D03*
X217790000Y-61310000D03*
X200465000Y-78790000D03*
X197040000Y-79950000D03*
X223750000Y-59100000D03*
X231710000Y-81525000D03*
X209335000Y-80695000D03*
X223750000Y-61700000D03*
X200020000Y-85020000D03*
X221375010Y-52320000D03*
X208940000Y-56610000D03*
X198880000Y-62330000D03*
X216760000Y-81040000D03*
X223130000Y-78970000D03*
X227950000Y-70190000D03*
X222125000Y-55419744D03*
X226640000Y-66700000D03*
X208110000Y-55230000D03*
X198100000Y-60960000D03*
X223610000Y-75900000D03*
X229280000Y-68370000D03*
X222960000Y-54280000D03*
X218810000Y-80420000D03*
X217287660Y-78897660D03*
X207340000Y-53870000D03*
X197290000Y-59580000D03*
X225170000Y-75920000D03*
X231250000Y-67600000D03*
X231290000Y-72530000D03*
X229120000Y-77000000D03*
X222760000Y-53290000D03*
X219450000Y-82430000D03*
X206550000Y-52470000D03*
X196470000Y-58200000D03*
X216710000Y-68530000D03*
X212820000Y-72410000D03*
X219260000Y-66800000D03*
X219170000Y-53280000D03*
X219520000Y-78920000D03*
X218790000Y-72890000D03*
X220100000Y-63320000D03*
X205800000Y-63825000D03*
X207700000Y-63825000D03*
X200490000Y-65130000D03*
X210490000Y-59390000D03*
X215800122Y-66291721D03*
X208380000Y-74770000D03*
X216715010Y-56274990D03*
X216874990Y-59874990D03*
X204100002Y-63800000D03*
X209730000Y-57990000D03*
X199660000Y-63730000D03*
X216050000Y-67260000D03*
X209410000Y-76280000D03*
X219004573Y-62594132D03*
X218350000Y-56274990D03*
X204228611Y-62300000D03*
X207300000Y-60999994D03*
D20*
X217770000Y-77390000D02*
X214480000Y-80680000D01*
X214480000Y-80680000D02*
X214480000Y-90010000D01*
X217770000Y-76220000D02*
X217770000Y-77390000D01*
X217760000Y-76210000D02*
X217770000Y-76220000D01*
X217597660Y-74958025D02*
X217597660Y-74392340D01*
X211510010Y-81045675D02*
X217597660Y-74958025D01*
X209150000Y-92020000D02*
X209200000Y-91970000D01*
X209150000Y-93210000D02*
X209150000Y-92020000D01*
X211510010Y-89119990D02*
X211510010Y-81045675D01*
X215700001Y-58700001D02*
X216100000Y-59100000D01*
X215700001Y-47850001D02*
X215700001Y-58700001D01*
X214450000Y-46600000D02*
X215700001Y-47850001D01*
D21*
X193400000Y-61500000D02*
X194750000Y-62850000D01*
X191400000Y-61500000D02*
X193400000Y-61500000D01*
X194750000Y-62850000D02*
X194750000Y-66000000D01*
X194750000Y-66000000D02*
X195250000Y-66500000D01*
X200120000Y-74290000D02*
X200120000Y-75610000D01*
X200120000Y-75610000D02*
X198400000Y-77330000D01*
X198400000Y-77330000D02*
X198400000Y-78670000D01*
X198400000Y-78670000D02*
X198400000Y-78780000D01*
X198415000Y-78790000D02*
X198415000Y-79635000D01*
X198415000Y-79635000D02*
X199010000Y-80230000D01*
X199010000Y-80230000D02*
X202890000Y-80230000D01*
X205550000Y-67544998D02*
X205550000Y-69300000D01*
X204605002Y-66600000D02*
X205550000Y-67544998D01*
X195050000Y-66600000D02*
X204605002Y-66600000D01*
X205550000Y-70000000D02*
X205550000Y-70000000D01*
X205550000Y-69300000D02*
X205550000Y-70000000D01*
X205550000Y-70000000D02*
X207140000Y-71590000D01*
X200560000Y-72690000D02*
X200110000Y-73140000D01*
X200110000Y-73140000D02*
X200110000Y-74230000D01*
X202890000Y-80230000D02*
X202890000Y-80230000D01*
X202890000Y-80230000D02*
X204150000Y-78970000D01*
X214650000Y-50040000D02*
X214480000Y-49870000D01*
X220300295Y-85548686D02*
X225838981Y-80010000D01*
X220300295Y-86770000D02*
X220300295Y-85548686D01*
X228850000Y-80010000D02*
X228860000Y-80000000D01*
X225838981Y-80010000D02*
X228850000Y-80010000D01*
X197112294Y-51984999D02*
X191410000Y-57687293D01*
X198041999Y-51984999D02*
X197112294Y-51984999D01*
X199356998Y-50670000D02*
X198041999Y-51984999D01*
X202099704Y-50670000D02*
X199356998Y-50670000D01*
X191410000Y-57687293D02*
X191410000Y-61630000D01*
X202789704Y-51360000D02*
X212820000Y-51360000D01*
X212820000Y-51360000D02*
X214310000Y-49870000D01*
X202099704Y-50670000D02*
X202789704Y-51360000D01*
X214450000Y-92350000D02*
X220040000Y-86760000D01*
X214450000Y-93200000D02*
X214450000Y-92350000D01*
X220040000Y-86760000D02*
X220310000Y-86760000D01*
X195050000Y-66600000D02*
X194850000Y-66600000D01*
X206450000Y-90100000D02*
X206450000Y-84960000D01*
X207575001Y-91194999D02*
X207560000Y-91210000D01*
X209572001Y-91194999D02*
X207575001Y-91194999D01*
X211027002Y-92650000D02*
X209572001Y-91194999D01*
X213900000Y-92650000D02*
X211027002Y-92650000D01*
X207560000Y-91210000D02*
X206450000Y-90100000D01*
X214440000Y-93190000D02*
X213900000Y-92650000D01*
X222829134Y-59275165D02*
X221932501Y-58378532D01*
X222829134Y-65870866D02*
X222829134Y-59275165D01*
X202050000Y-86650000D02*
X222829134Y-65870866D01*
X199750000Y-86650000D02*
X202050000Y-86650000D01*
X198800000Y-87600000D02*
X199750000Y-86650000D01*
X220600000Y-57046031D02*
X221932501Y-58378532D01*
X220600000Y-49900000D02*
X220600000Y-57046031D01*
X208200000Y-61300000D02*
X206800000Y-62700000D01*
X206800000Y-65600000D02*
X206800000Y-62700000D01*
X205800000Y-66600000D02*
X206800000Y-65600000D01*
X204605002Y-66600000D02*
X205800000Y-66600000D01*
X205450000Y-61350000D02*
X206800000Y-62700000D01*
X205450000Y-61100000D02*
X205450000Y-61350000D01*
X208200000Y-61300000D02*
X211500000Y-61300000D01*
X211500000Y-61300000D02*
X211700000Y-61100000D01*
X193800000Y-66550000D02*
X193800000Y-66350000D01*
X193400000Y-78500000D02*
X195000000Y-76900000D01*
X191400000Y-78500000D02*
X193400000Y-78500000D01*
X195000000Y-76900000D02*
X195000000Y-73500000D01*
X195050000Y-73550000D02*
X195000000Y-73500000D01*
X195050000Y-73600000D02*
X195050000Y-73550000D01*
X204720000Y-74290000D02*
X204720000Y-75810000D01*
X204720000Y-75810000D02*
X206170000Y-77260000D01*
X206170000Y-77260000D02*
X206170000Y-78770000D01*
X204730000Y-71750000D02*
X204730000Y-74340000D01*
X203290000Y-70310000D02*
X204730000Y-71750000D01*
X198750000Y-70310000D02*
X203290000Y-70310000D01*
X195460000Y-73600000D02*
X198750000Y-70310000D01*
X195050000Y-73600000D02*
X195460000Y-73600000D01*
X207940000Y-76120000D02*
X207940000Y-79270000D01*
X206110000Y-74290000D02*
X207940000Y-76120000D01*
X204720000Y-74290000D02*
X206110000Y-74290000D01*
X217040000Y-70220000D02*
X209670000Y-77590000D01*
X209670000Y-77590000D02*
X209620000Y-77590000D01*
X228840000Y-71700000D02*
X223680000Y-71700000D01*
X233790000Y-80020000D02*
X233790000Y-76650000D01*
X233790000Y-76650000D02*
X228840000Y-71700000D01*
X218600000Y-50643970D02*
X218688015Y-50731985D01*
X217040000Y-70220000D02*
X222054133Y-65205867D01*
X222054133Y-59767033D02*
X222054133Y-59959328D01*
X220024987Y-52068957D02*
X220024987Y-57737887D01*
X222054133Y-65205867D02*
X222054133Y-59959328D01*
X220024987Y-57737887D02*
X222054133Y-59767033D01*
X218688015Y-50731985D02*
X220024987Y-52068957D01*
X209940000Y-46600000D02*
X211040000Y-45500000D01*
X209150000Y-46600000D02*
X209940000Y-46600000D01*
X211010000Y-81045685D02*
X211010000Y-80480000D01*
X210785010Y-81270675D02*
X211010000Y-81045685D01*
X209130000Y-90020000D02*
X210785010Y-88364990D01*
X210785010Y-82904990D02*
X210785010Y-81270675D01*
X210785010Y-88364990D02*
X210785010Y-82904990D01*
X201160000Y-86050000D02*
X209620000Y-77590000D01*
X197010886Y-86050000D02*
X201160000Y-86050000D01*
X196200886Y-86860000D02*
X197010886Y-86050000D01*
X218688015Y-50731985D02*
X218688015Y-48988015D01*
X218688015Y-48988015D02*
X218400000Y-48700000D01*
X194800000Y-73350000D02*
X195050000Y-73600000D01*
X193800000Y-73350000D02*
X194800000Y-73350000D01*
X200465000Y-78790000D02*
X200465000Y-78790000D01*
X201440000Y-78790000D02*
X202360000Y-77870000D01*
X202360000Y-77870000D02*
X202360000Y-74250000D01*
X200465000Y-78790000D02*
X201440000Y-78790000D01*
X231710000Y-81525000D02*
X228230000Y-85005000D01*
X223750000Y-59100000D02*
X223750000Y-61700000D01*
X197040000Y-79950000D02*
X197040000Y-82040000D01*
X197040000Y-82040000D02*
X200020000Y-85020000D01*
X223750000Y-66250295D02*
X223750000Y-61700000D01*
X201100295Y-88900000D02*
X223750000Y-66250295D01*
X201000000Y-88900000D02*
X201100295Y-88900000D01*
X223750000Y-59100000D02*
X221350000Y-56700000D01*
X221350000Y-52345010D02*
X221375010Y-52320000D01*
X221350000Y-56700000D02*
X221350000Y-52345010D01*
X221375010Y-51924990D02*
X221375010Y-52320000D01*
X222300000Y-51000000D02*
X221375010Y-51924990D01*
X222700000Y-51000000D02*
X222300000Y-51000000D01*
X216365000Y-61310000D02*
X217790000Y-61310000D01*
X214575000Y-63100000D02*
X216365000Y-61310000D01*
D20*
X220660001Y-81439999D02*
X223130000Y-78970000D01*
X217159999Y-81439999D02*
X220660001Y-81439999D01*
X216760000Y-81040000D02*
X217159999Y-81439999D01*
X227300000Y-70840000D02*
X227950000Y-70190000D01*
X232610000Y-79380000D02*
X232610000Y-76570000D01*
X229030000Y-82960000D02*
X232610000Y-79380000D01*
X232610000Y-76570000D02*
X228520000Y-72480000D01*
X226970000Y-82960000D02*
X229030000Y-82960000D01*
X223386998Y-72480000D02*
X228520000Y-72480000D01*
X222954999Y-72048001D02*
X223386998Y-72480000D01*
X222954999Y-71351999D02*
X222954999Y-72048001D01*
X223466998Y-70840000D02*
X222954999Y-71351999D01*
X227300000Y-70840000D02*
X223466998Y-70840000D01*
X222125000Y-55419744D02*
X224559744Y-55419744D01*
X224890000Y-55750000D02*
X224900000Y-55750000D01*
X224559744Y-55419744D02*
X224890000Y-55750000D01*
X226640000Y-57490000D02*
X226640000Y-66700000D01*
X224900000Y-55750000D02*
X226640000Y-57490000D01*
X207890000Y-56610000D02*
X208940000Y-56610000D01*
X202170000Y-62330000D02*
X207890000Y-56610000D01*
X198880000Y-62330000D02*
X202170000Y-62330000D01*
X202380000Y-60960000D02*
X208110000Y-55230000D01*
X198100000Y-60960000D02*
X202380000Y-60960000D01*
X223610000Y-73720000D02*
X223610000Y-75900000D01*
X222124402Y-72234402D02*
X223610000Y-73720000D01*
X222124402Y-71205598D02*
X222124402Y-72234402D01*
X223910000Y-69420000D02*
X222124402Y-71205598D01*
X228230000Y-69420000D02*
X223910000Y-69420000D01*
X229280000Y-68370000D02*
X228230000Y-69420000D01*
X222960000Y-54280000D02*
X224190000Y-54280000D01*
X225330000Y-55420000D02*
X225330000Y-55450000D01*
X224190000Y-54280000D02*
X225330000Y-55420000D01*
X229280000Y-59400000D02*
X229280000Y-68370000D01*
X225330000Y-55450000D02*
X229280000Y-59400000D01*
X220400000Y-80420000D02*
X223610000Y-77210000D01*
X223610000Y-77210000D02*
X223610000Y-75900000D01*
X218810000Y-80420000D02*
X220400000Y-80420000D01*
X218810000Y-80420000D02*
X217287660Y-78897660D01*
X201630000Y-59580000D02*
X207340000Y-53870000D01*
X197290000Y-59580000D02*
X201630000Y-59580000D01*
X225170000Y-78003002D02*
X225170000Y-75920000D01*
X231250000Y-72490000D02*
X231290000Y-72530000D01*
X231250000Y-67600000D02*
X231250000Y-72490000D01*
X229120000Y-77000000D02*
X228360000Y-77760000D01*
X225413002Y-77760000D02*
X225001501Y-78171501D01*
X228360000Y-77760000D02*
X225413002Y-77760000D01*
X225001501Y-78171501D02*
X225170000Y-78003002D01*
X222760000Y-53290000D02*
X224160000Y-53290000D01*
X231250000Y-60380000D02*
X231250000Y-67600000D01*
X224160000Y-53290000D02*
X231250000Y-60380000D01*
X225001501Y-78171501D02*
X220743002Y-82430000D01*
X220743002Y-82430000D02*
X219450000Y-82430000D01*
X200820000Y-58200000D02*
X206550000Y-52470000D01*
X196470000Y-58200000D02*
X200820000Y-58200000D01*
X212830000Y-72410000D02*
X212820000Y-72410000D01*
X216710000Y-68530000D02*
X212830000Y-72410000D01*
X219215001Y-53325001D02*
X219215001Y-57635023D01*
X221329123Y-59749145D02*
X221329123Y-64730877D01*
X219215001Y-57635023D02*
X221329123Y-59749145D01*
X219170000Y-53280000D02*
X219215001Y-53325001D01*
X221329123Y-64730877D02*
X219260000Y-66800000D01*
X218790000Y-78190000D02*
X218790000Y-72890000D01*
X219520000Y-78920000D02*
X218790000Y-78190000D01*
X205450000Y-64175000D02*
X205800000Y-63825000D01*
X205450000Y-64900000D02*
X205450000Y-64175000D01*
X207700000Y-63825000D02*
X210625000Y-63825000D01*
X210625000Y-63825000D02*
X211700000Y-64900000D01*
X214725002Y-65175002D02*
X211775002Y-65175002D01*
X211775002Y-65175002D02*
X211600000Y-65000000D01*
X216625000Y-63275004D02*
X214725002Y-65175002D01*
X216625000Y-63100000D02*
X216625000Y-63275004D01*
X218657439Y-63320000D02*
X220100000Y-63320000D01*
X218437439Y-63100000D02*
X218657439Y-63320000D01*
X216625000Y-63100000D02*
X218437439Y-63100000D01*
X215778279Y-66291721D02*
X211150000Y-70920000D01*
X215800122Y-66291721D02*
X215778279Y-66291721D01*
X211150000Y-70920000D02*
X208390000Y-73680000D01*
X208380000Y-73690000D02*
X208380000Y-74770000D01*
X208390000Y-73680000D02*
X208380000Y-73690000D01*
X216715010Y-56840675D02*
X216874990Y-57000655D01*
X216715010Y-56274990D02*
X216715010Y-56840675D01*
X216874990Y-57000655D02*
X216874990Y-59874990D01*
X202770002Y-65130000D02*
X204100002Y-63800000D01*
X200490000Y-65130000D02*
X202770002Y-65130000D01*
X216050000Y-67260000D02*
X209410000Y-73900000D01*
X209410000Y-73900000D02*
X209410000Y-76280000D01*
X219004573Y-62594132D02*
X218749999Y-62339558D01*
X218749999Y-56674989D02*
X218350000Y-56274990D01*
X218749999Y-62339558D02*
X218749999Y-56674989D01*
X200390000Y-63000000D02*
X203528611Y-63000000D01*
X203528611Y-63000000D02*
X204228611Y-62300000D01*
X199660000Y-63730000D02*
X200390000Y-63000000D01*
X204228611Y-62300000D02*
X204228611Y-62300000D01*
X207300000Y-60420000D02*
X207300000Y-60999994D01*
X209730000Y-57990000D02*
X207300000Y-60420000D01*
D22*
X231850001Y-76884804D02*
X231850000Y-79065198D01*
X228715199Y-82200000D01*
X228193944Y-82200000D01*
X228063448Y-82004698D01*
X227854711Y-81795961D01*
X227609262Y-81631958D01*
X227336534Y-81518990D01*
X227047008Y-81461400D01*
X226751810Y-81461400D01*
X226462284Y-81518990D01*
X226189556Y-81631958D01*
X225944107Y-81795961D01*
X225735370Y-82004698D01*
X225571367Y-82250147D01*
X225458399Y-82522875D01*
X225400809Y-82812401D01*
X225400809Y-82898334D01*
X225136829Y-82788990D01*
X224847303Y-82731400D01*
X224552105Y-82731400D01*
X224262579Y-82788990D01*
X223989851Y-82901958D01*
X223744402Y-83065961D01*
X223535665Y-83274698D01*
X223371662Y-83520147D01*
X223258694Y-83792875D01*
X223201104Y-84082401D01*
X223201104Y-84168334D01*
X222937125Y-84058990D01*
X222647599Y-84001400D01*
X222352401Y-84001400D01*
X222062875Y-84058990D01*
X221790147Y-84171958D01*
X221544698Y-84335961D01*
X221335961Y-84544698D01*
X221171958Y-84790147D01*
X221058990Y-85062875D01*
X221001400Y-85352401D01*
X221001400Y-85453292D01*
X220901185Y-85397138D01*
X220621807Y-85306290D01*
X220330074Y-85271691D01*
X220037196Y-85294671D01*
X219883742Y-85330456D01*
X219743372Y-85551381D01*
X220346780Y-86596515D01*
X220364101Y-86586515D01*
X220491101Y-86806485D01*
X220473780Y-86816485D01*
X220483780Y-86833806D01*
X220263810Y-86960806D01*
X220253810Y-86943485D01*
X219208115Y-87547217D01*
X219219774Y-87808408D01*
X219443119Y-87999255D01*
X219699405Y-88142862D01*
X219929006Y-88217523D01*
X219884379Y-88265171D01*
X219818326Y-88371393D01*
X219774265Y-88488460D01*
X219753889Y-88611873D01*
X219757982Y-88736890D01*
X219786385Y-88858706D01*
X219838008Y-88972641D01*
X220701608Y-90468441D01*
X220774467Y-90570115D01*
X220865761Y-90655621D01*
X220971983Y-90721674D01*
X221089050Y-90765735D01*
X221212463Y-90786111D01*
X221337480Y-90782018D01*
X221459296Y-90753615D01*
X221573231Y-90701992D01*
X223069031Y-89838392D01*
X223170705Y-89765533D01*
X223256211Y-89674239D01*
X223322264Y-89568017D01*
X223366325Y-89450950D01*
X223386701Y-89327537D01*
X223382608Y-89202520D01*
X223369915Y-89148083D01*
X223622401Y-89198305D01*
X223917599Y-89198305D01*
X224207125Y-89140715D01*
X224479853Y-89027747D01*
X224725302Y-88863744D01*
X224934039Y-88655007D01*
X225098042Y-88409558D01*
X225211010Y-88136830D01*
X225268600Y-87847304D01*
X225268600Y-87761371D01*
X225532579Y-87870715D01*
X225822105Y-87928305D01*
X226117303Y-87928305D01*
X226406829Y-87870715D01*
X226679557Y-87757747D01*
X226925006Y-87593744D01*
X227133743Y-87385007D01*
X227297746Y-87139558D01*
X227410714Y-86866830D01*
X227468304Y-86577304D01*
X227468304Y-86491371D01*
X227732284Y-86600715D01*
X228021810Y-86658305D01*
X228317008Y-86658305D01*
X228606534Y-86600715D01*
X228879262Y-86487747D01*
X229124711Y-86323744D01*
X229333448Y-86115007D01*
X229497451Y-85869558D01*
X229610419Y-85596830D01*
X229668009Y-85307304D01*
X229668009Y-85012106D01*
X229618302Y-84762210D01*
X231822642Y-82557871D01*
X232011898Y-82520226D01*
X232200256Y-82442205D01*
X232369774Y-82328937D01*
X232513937Y-82184774D01*
X232627205Y-82015256D01*
X232705226Y-81826898D01*
X232745000Y-81626939D01*
X232745000Y-81423061D01*
X232705226Y-81223102D01*
X232627205Y-81034744D01*
X232513937Y-80865226D01*
X232369774Y-80721063D01*
X232354167Y-80710635D01*
X232786168Y-80278634D01*
X232794774Y-80321898D01*
X232872795Y-80510256D01*
X232986063Y-80679774D01*
X233130226Y-80823937D01*
X233299744Y-80937205D01*
X233488102Y-81015226D01*
X233688061Y-81055000D01*
X233891939Y-81055000D01*
X234091898Y-81015226D01*
X234280256Y-80937205D01*
X234449774Y-80823937D01*
X234593937Y-80679774D01*
X234707205Y-80510256D01*
X234734565Y-80444204D01*
X234734565Y-83241277D01*
X211800001Y-96482554D01*
X206074685Y-93177042D01*
X206645111Y-92189036D01*
X206661329Y-92153241D01*
X206680983Y-92119199D01*
X206732605Y-92005265D01*
X206783015Y-91856761D01*
X206811418Y-91734946D01*
X206831888Y-91579461D01*
X206835981Y-91454449D01*
X206825725Y-91297956D01*
X206805349Y-91174537D01*
X206764759Y-91023054D01*
X206720697Y-90905984D01*
X206651333Y-90765330D01*
X206585282Y-90659113D01*
X206489812Y-90534694D01*
X206404308Y-90443402D01*
X206286400Y-90339998D01*
X206184721Y-90267135D01*
X206048903Y-90188721D01*
X205934969Y-90137099D01*
X205786465Y-90086689D01*
X205664650Y-90058286D01*
X205509165Y-90037816D01*
X205384153Y-90033723D01*
X205227660Y-90043979D01*
X205104241Y-90064355D01*
X204952758Y-90104945D01*
X204835688Y-90149007D01*
X204695034Y-90218371D01*
X204633922Y-90256373D01*
X204636277Y-90184449D01*
X204626021Y-90027956D01*
X204605645Y-89904537D01*
X204565055Y-89753054D01*
X204520993Y-89635984D01*
X204451629Y-89495330D01*
X204385578Y-89389113D01*
X204290108Y-89264694D01*
X204204604Y-89173402D01*
X204086696Y-89069998D01*
X203985017Y-88997135D01*
X203849199Y-88918721D01*
X203735265Y-88867099D01*
X203586761Y-88816689D01*
X203464946Y-88788286D01*
X203309461Y-88767816D01*
X203184449Y-88763723D01*
X203027956Y-88773979D01*
X202904537Y-88794355D01*
X202753054Y-88834945D01*
X202635984Y-88879007D01*
X202495330Y-88948371D01*
X202434217Y-88986374D01*
X202436572Y-88914449D01*
X202426316Y-88757956D01*
X202420865Y-88724942D01*
X209415807Y-81730000D01*
X209436939Y-81730000D01*
X209636898Y-81690226D01*
X209825256Y-81612205D01*
X209975011Y-81512142D01*
X209975010Y-82254289D01*
X209867805Y-82414734D01*
X209789784Y-82603092D01*
X209750010Y-82803051D01*
X209750010Y-83006929D01*
X209789784Y-83206888D01*
X209867805Y-83395246D01*
X209975011Y-83555691D01*
X209975010Y-88029477D01*
X209142560Y-88861928D01*
X208300000Y-88861928D01*
X208175518Y-88874188D01*
X208055820Y-88910498D01*
X207945506Y-88969463D01*
X207848815Y-89048815D01*
X207769463Y-89145506D01*
X207710498Y-89255820D01*
X207674188Y-89375518D01*
X207661928Y-89500000D01*
X207661928Y-90500000D01*
X207674188Y-90624482D01*
X207710498Y-90744180D01*
X207769463Y-90854494D01*
X207848815Y-90951185D01*
X207945506Y-91030537D01*
X208055820Y-91089502D01*
X208175518Y-91125812D01*
X208300000Y-91138072D01*
X208582118Y-91138072D01*
X208540226Y-91166063D01*
X208396063Y-91310226D01*
X208282795Y-91479744D01*
X208204774Y-91668102D01*
X208165000Y-91868061D01*
X208165000Y-92071939D01*
X208166020Y-92077069D01*
X208055820Y-92110498D01*
X207945506Y-92169463D01*
X207848815Y-92248815D01*
X207769463Y-92345506D01*
X207710498Y-92455820D01*
X207674188Y-92575518D01*
X207661928Y-92700000D01*
X207661928Y-93700000D01*
X207674188Y-93824482D01*
X207710498Y-93944180D01*
X207769463Y-94054494D01*
X207848815Y-94151185D01*
X207945506Y-94230537D01*
X208055820Y-94289502D01*
X208175518Y-94325812D01*
X208300000Y-94338072D01*
X210000000Y-94338072D01*
X210124482Y-94325812D01*
X210244180Y-94289502D01*
X210354494Y-94230537D01*
X210451185Y-94151185D01*
X210530537Y-94054494D01*
X210589502Y-93944180D01*
X210625812Y-93824482D01*
X210638072Y-93700000D01*
X210638072Y-92700000D01*
X210625812Y-92575518D01*
X210589502Y-92455820D01*
X210530537Y-92345506D01*
X210451185Y-92248815D01*
X210354494Y-92169463D01*
X210244180Y-92110498D01*
X210228289Y-92105678D01*
X210235000Y-92071939D01*
X210235000Y-91868061D01*
X210195226Y-91668102D01*
X210117205Y-91479744D01*
X210003937Y-91310226D01*
X209859774Y-91166063D01*
X209817882Y-91138072D01*
X210000000Y-91138072D01*
X210124482Y-91125812D01*
X210244180Y-91089502D01*
X210354494Y-91030537D01*
X210451185Y-90951185D01*
X210530537Y-90854494D01*
X210589502Y-90744180D01*
X210625812Y-90624482D01*
X210638072Y-90500000D01*
X210638072Y-89677993D01*
X210706073Y-89779764D01*
X210850236Y-89923927D01*
X211019754Y-90037195D01*
X211208112Y-90115216D01*
X211344286Y-90142302D01*
X211189261Y-90206516D01*
X210966513Y-90355351D01*
X210777081Y-90544783D01*
X210628246Y-90767531D01*
X210525726Y-91015035D01*
X210473462Y-91277784D01*
X210473462Y-91545680D01*
X210525726Y-91808429D01*
X210628246Y-92055933D01*
X210777081Y-92278681D01*
X210966513Y-92468113D01*
X211189261Y-92616948D01*
X211436765Y-92719468D01*
X211699514Y-92771732D01*
X211743723Y-92771732D01*
X211743539Y-92771775D01*
X211521950Y-92872176D01*
X211324206Y-93013877D01*
X211157906Y-93191434D01*
X211029441Y-93398022D01*
X210943748Y-93625703D01*
X210904119Y-93865727D01*
X210912079Y-94108869D01*
X210967321Y-94345789D01*
X211042564Y-94511853D01*
X211453228Y-95223146D01*
X211559423Y-95371340D01*
X211736980Y-95537640D01*
X211943568Y-95666105D01*
X212171248Y-95751798D01*
X212411272Y-95791426D01*
X212654415Y-95783467D01*
X212891335Y-95728225D01*
X213112924Y-95627824D01*
X213310668Y-95486123D01*
X213476968Y-95308566D01*
X213605433Y-95101978D01*
X213691126Y-94874297D01*
X213730754Y-94634272D01*
X213722795Y-94391129D01*
X213710284Y-94337472D01*
X214164250Y-94335000D01*
X214323000Y-94176250D01*
X214323000Y-93327000D01*
X214577000Y-93327000D01*
X214577000Y-94176250D01*
X214735750Y-94335000D01*
X215300000Y-94338072D01*
X215424482Y-94325812D01*
X215544180Y-94289502D01*
X215654494Y-94230537D01*
X215751185Y-94151185D01*
X215830537Y-94054494D01*
X215889502Y-93944180D01*
X215925812Y-93824482D01*
X215938072Y-93700000D01*
X215935000Y-93485750D01*
X215776250Y-93327000D01*
X214577000Y-93327000D01*
X214323000Y-93327000D01*
X214303000Y-93327000D01*
X214303000Y-93073000D01*
X214323000Y-93073000D01*
X214323000Y-92223750D01*
X214577000Y-92223750D01*
X214577000Y-93073000D01*
X215776250Y-93073000D01*
X215935000Y-92914250D01*
X215938072Y-92700000D01*
X215925812Y-92575518D01*
X215889502Y-92455820D01*
X215830537Y-92345506D01*
X215751185Y-92248815D01*
X215654494Y-92169463D01*
X215544180Y-92110498D01*
X215424482Y-92074188D01*
X215300000Y-92061928D01*
X214735750Y-92065000D01*
X214577000Y-92223750D01*
X214323000Y-92223750D01*
X214164250Y-92065000D01*
X213600000Y-92061928D01*
X213475518Y-92074188D01*
X213355820Y-92110498D01*
X213245506Y-92169463D01*
X213148815Y-92248815D01*
X213069463Y-92345506D01*
X213010498Y-92455820D01*
X212974188Y-92575518D01*
X212961928Y-92700000D01*
X212965000Y-92914250D01*
X213123748Y-93072998D01*
X213016021Y-93072998D01*
X212897894Y-92962360D01*
X212691306Y-92833895D01*
X212463625Y-92748202D01*
X212247097Y-92712452D01*
X212477663Y-92616948D01*
X212700411Y-92468113D01*
X212889843Y-92278681D01*
X213038678Y-92055933D01*
X213141198Y-91808429D01*
X213193462Y-91545680D01*
X213193462Y-91277784D01*
X213141198Y-91015035D01*
X213080036Y-90867377D01*
X213148815Y-90951185D01*
X213245506Y-91030537D01*
X213355820Y-91089502D01*
X213475518Y-91125812D01*
X213600000Y-91138072D01*
X215300000Y-91138072D01*
X215424482Y-91125812D01*
X215544180Y-91089502D01*
X215654494Y-91030537D01*
X215751185Y-90951185D01*
X215830537Y-90854494D01*
X215889502Y-90744180D01*
X215925812Y-90624482D01*
X215938072Y-90500000D01*
X215938072Y-90253518D01*
X216029642Y-90271732D01*
X216297538Y-90271732D01*
X216560287Y-90219468D01*
X216807791Y-90116948D01*
X217030539Y-89968113D01*
X217086181Y-89912471D01*
X217005926Y-90125703D01*
X216966297Y-90365727D01*
X216974257Y-90608869D01*
X217029499Y-90845789D01*
X217104742Y-91011853D01*
X217515406Y-91723146D01*
X217621601Y-91871340D01*
X217799158Y-92037640D01*
X218005746Y-92166105D01*
X218233426Y-92251798D01*
X218473450Y-92291426D01*
X218716593Y-92283467D01*
X218953513Y-92228225D01*
X219175102Y-92127824D01*
X219372846Y-91986123D01*
X219539146Y-91808566D01*
X219667611Y-91601978D01*
X219753304Y-91374297D01*
X219792932Y-91134272D01*
X219784973Y-90891129D01*
X219729731Y-90654210D01*
X219654488Y-90488146D01*
X219243823Y-89776854D01*
X219137629Y-89628660D01*
X218960072Y-89462360D01*
X218753484Y-89333895D01*
X218525803Y-89248202D01*
X218285779Y-89208573D01*
X218042637Y-89216533D01*
X217805717Y-89271775D01*
X217584128Y-89372176D01*
X217386384Y-89513877D01*
X217386101Y-89514179D01*
X217471326Y-89308429D01*
X217523590Y-89045680D01*
X217523590Y-88777784D01*
X217471326Y-88515035D01*
X217368806Y-88267531D01*
X217219971Y-88044783D01*
X217030539Y-87855351D01*
X216807791Y-87706516D01*
X216560287Y-87603996D01*
X216297538Y-87551732D01*
X216029642Y-87551732D01*
X215766893Y-87603996D01*
X215519389Y-87706516D01*
X215296641Y-87855351D01*
X215240000Y-87911992D01*
X215240000Y-86897709D01*
X218807141Y-86897709D01*
X218860747Y-87186555D01*
X219081115Y-87327247D01*
X220126810Y-86723515D01*
X219523401Y-85678381D01*
X219261890Y-85689482D01*
X219154172Y-85804485D01*
X218987832Y-86046635D01*
X218871929Y-86316583D01*
X218810917Y-86603955D01*
X218807141Y-86897709D01*
X215240000Y-86897709D01*
X215240000Y-80994801D01*
X216580545Y-79654256D01*
X216627886Y-79701597D01*
X216797404Y-79814865D01*
X216985762Y-79892886D01*
X217185721Y-79932660D01*
X217247859Y-79932660D01*
X217775000Y-80459802D01*
X217775000Y-80521939D01*
X217806440Y-80679999D01*
X217731159Y-80679999D01*
X217677205Y-80549744D01*
X217563937Y-80380226D01*
X217419774Y-80236063D01*
X217250256Y-80122795D01*
X217061898Y-80044774D01*
X216861939Y-80005000D01*
X216658061Y-80005000D01*
X216458102Y-80044774D01*
X216269744Y-80122795D01*
X216100226Y-80236063D01*
X215956063Y-80380226D01*
X215842795Y-80549744D01*
X215764774Y-80738102D01*
X215725000Y-80938061D01*
X215725000Y-81141939D01*
X215764774Y-81341898D01*
X215842795Y-81530256D01*
X215956063Y-81699774D01*
X216100226Y-81843937D01*
X216269744Y-81957205D01*
X216458102Y-82035226D01*
X216658061Y-82075000D01*
X216735774Y-82075000D01*
X216867752Y-82145545D01*
X217011013Y-82189002D01*
X217122666Y-82199999D01*
X217122676Y-82199999D01*
X217159998Y-82203675D01*
X217197321Y-82199999D01*
X218440473Y-82199999D01*
X218415000Y-82328061D01*
X218415000Y-82531939D01*
X218454774Y-82731898D01*
X218532795Y-82920256D01*
X218646063Y-83089774D01*
X218790226Y-83233937D01*
X218959744Y-83347205D01*
X219148102Y-83425226D01*
X219348061Y-83465000D01*
X219551939Y-83465000D01*
X219751898Y-83425226D01*
X219940256Y-83347205D01*
X220109774Y-83233937D01*
X220153711Y-83190000D01*
X220705680Y-83190000D01*
X220743002Y-83193676D01*
X220780324Y-83190000D01*
X220780335Y-83190000D01*
X220891988Y-83179003D01*
X221035249Y-83135546D01*
X221167278Y-83064974D01*
X221283003Y-82970001D01*
X221306806Y-82940997D01*
X225565300Y-78682504D01*
X225565305Y-78682498D01*
X225680998Y-78566805D01*
X225710001Y-78543003D01*
X225728879Y-78520000D01*
X228322678Y-78520000D01*
X228360000Y-78523676D01*
X228397322Y-78520000D01*
X228397333Y-78520000D01*
X228508986Y-78509003D01*
X228652247Y-78465546D01*
X228784276Y-78394974D01*
X228900001Y-78300001D01*
X228923803Y-78270998D01*
X229159801Y-78035000D01*
X229221939Y-78035000D01*
X229421898Y-77995226D01*
X229610256Y-77917205D01*
X229779774Y-77803937D01*
X229923937Y-77659774D01*
X230037205Y-77490256D01*
X230115226Y-77301898D01*
X230155000Y-77101939D01*
X230155000Y-76898061D01*
X230115226Y-76698102D01*
X230037205Y-76509744D01*
X229923937Y-76340226D01*
X229779774Y-76196063D01*
X229610256Y-76082795D01*
X229421898Y-76004774D01*
X229221939Y-75965000D01*
X229018061Y-75965000D01*
X228818102Y-76004774D01*
X228629744Y-76082795D01*
X228460226Y-76196063D01*
X228316063Y-76340226D01*
X228202795Y-76509744D01*
X228124774Y-76698102D01*
X228085000Y-76898061D01*
X228085000Y-76960199D01*
X228045199Y-77000000D01*
X225930000Y-77000000D01*
X225930000Y-76623711D01*
X225973937Y-76579774D01*
X226087205Y-76410256D01*
X226165226Y-76221898D01*
X226205000Y-76021939D01*
X226205000Y-75818061D01*
X226165226Y-75618102D01*
X226087205Y-75429744D01*
X225973937Y-75260226D01*
X225829774Y-75116063D01*
X225660256Y-75002795D01*
X225471898Y-74924774D01*
X225271939Y-74885000D01*
X225068061Y-74885000D01*
X224868102Y-74924774D01*
X224679744Y-75002795D01*
X224510226Y-75116063D01*
X224400000Y-75226289D01*
X224370000Y-75196289D01*
X224370000Y-73757323D01*
X224373676Y-73720000D01*
X224370000Y-73682677D01*
X224370000Y-73682667D01*
X224359003Y-73571014D01*
X224315546Y-73427753D01*
X224244974Y-73295724D01*
X224199243Y-73240000D01*
X228205199Y-73240000D01*
X231850001Y-76884804D01*
G04 #@! TA.AperFunction,Conductor*
D23*
G36*
X231850001Y-76884804D02*
G01*
X231850000Y-79065198D01*
X228715199Y-82200000D01*
X228193944Y-82200000D01*
X228063448Y-82004698D01*
X227854711Y-81795961D01*
X227609262Y-81631958D01*
X227336534Y-81518990D01*
X227047008Y-81461400D01*
X226751810Y-81461400D01*
X226462284Y-81518990D01*
X226189556Y-81631958D01*
X225944107Y-81795961D01*
X225735370Y-82004698D01*
X225571367Y-82250147D01*
X225458399Y-82522875D01*
X225400809Y-82812401D01*
X225400809Y-82898334D01*
X225136829Y-82788990D01*
X224847303Y-82731400D01*
X224552105Y-82731400D01*
X224262579Y-82788990D01*
X223989851Y-82901958D01*
X223744402Y-83065961D01*
X223535665Y-83274698D01*
X223371662Y-83520147D01*
X223258694Y-83792875D01*
X223201104Y-84082401D01*
X223201104Y-84168334D01*
X222937125Y-84058990D01*
X222647599Y-84001400D01*
X222352401Y-84001400D01*
X222062875Y-84058990D01*
X221790147Y-84171958D01*
X221544698Y-84335961D01*
X221335961Y-84544698D01*
X221171958Y-84790147D01*
X221058990Y-85062875D01*
X221001400Y-85352401D01*
X221001400Y-85453292D01*
X220901185Y-85397138D01*
X220621807Y-85306290D01*
X220330074Y-85271691D01*
X220037196Y-85294671D01*
X219883742Y-85330456D01*
X219743372Y-85551381D01*
X220346780Y-86596515D01*
X220364101Y-86586515D01*
X220491101Y-86806485D01*
X220473780Y-86816485D01*
X220483780Y-86833806D01*
X220263810Y-86960806D01*
X220253810Y-86943485D01*
X219208115Y-87547217D01*
X219219774Y-87808408D01*
X219443119Y-87999255D01*
X219699405Y-88142862D01*
X219929006Y-88217523D01*
X219884379Y-88265171D01*
X219818326Y-88371393D01*
X219774265Y-88488460D01*
X219753889Y-88611873D01*
X219757982Y-88736890D01*
X219786385Y-88858706D01*
X219838008Y-88972641D01*
X220701608Y-90468441D01*
X220774467Y-90570115D01*
X220865761Y-90655621D01*
X220971983Y-90721674D01*
X221089050Y-90765735D01*
X221212463Y-90786111D01*
X221337480Y-90782018D01*
X221459296Y-90753615D01*
X221573231Y-90701992D01*
X223069031Y-89838392D01*
X223170705Y-89765533D01*
X223256211Y-89674239D01*
X223322264Y-89568017D01*
X223366325Y-89450950D01*
X223386701Y-89327537D01*
X223382608Y-89202520D01*
X223369915Y-89148083D01*
X223622401Y-89198305D01*
X223917599Y-89198305D01*
X224207125Y-89140715D01*
X224479853Y-89027747D01*
X224725302Y-88863744D01*
X224934039Y-88655007D01*
X225098042Y-88409558D01*
X225211010Y-88136830D01*
X225268600Y-87847304D01*
X225268600Y-87761371D01*
X225532579Y-87870715D01*
X225822105Y-87928305D01*
X226117303Y-87928305D01*
X226406829Y-87870715D01*
X226679557Y-87757747D01*
X226925006Y-87593744D01*
X227133743Y-87385007D01*
X227297746Y-87139558D01*
X227410714Y-86866830D01*
X227468304Y-86577304D01*
X227468304Y-86491371D01*
X227732284Y-86600715D01*
X228021810Y-86658305D01*
X228317008Y-86658305D01*
X228606534Y-86600715D01*
X228879262Y-86487747D01*
X229124711Y-86323744D01*
X229333448Y-86115007D01*
X229497451Y-85869558D01*
X229610419Y-85596830D01*
X229668009Y-85307304D01*
X229668009Y-85012106D01*
X229618302Y-84762210D01*
X231822642Y-82557871D01*
X232011898Y-82520226D01*
X232200256Y-82442205D01*
X232369774Y-82328937D01*
X232513937Y-82184774D01*
X232627205Y-82015256D01*
X232705226Y-81826898D01*
X232745000Y-81626939D01*
X232745000Y-81423061D01*
X232705226Y-81223102D01*
X232627205Y-81034744D01*
X232513937Y-80865226D01*
X232369774Y-80721063D01*
X232354167Y-80710635D01*
X232786168Y-80278634D01*
X232794774Y-80321898D01*
X232872795Y-80510256D01*
X232986063Y-80679774D01*
X233130226Y-80823937D01*
X233299744Y-80937205D01*
X233488102Y-81015226D01*
X233688061Y-81055000D01*
X233891939Y-81055000D01*
X234091898Y-81015226D01*
X234280256Y-80937205D01*
X234449774Y-80823937D01*
X234593937Y-80679774D01*
X234707205Y-80510256D01*
X234734565Y-80444204D01*
X234734565Y-83241277D01*
X211800001Y-96482554D01*
X206074685Y-93177042D01*
X206645111Y-92189036D01*
X206661329Y-92153241D01*
X206680983Y-92119199D01*
X206732605Y-92005265D01*
X206783015Y-91856761D01*
X206811418Y-91734946D01*
X206831888Y-91579461D01*
X206835981Y-91454449D01*
X206825725Y-91297956D01*
X206805349Y-91174537D01*
X206764759Y-91023054D01*
X206720697Y-90905984D01*
X206651333Y-90765330D01*
X206585282Y-90659113D01*
X206489812Y-90534694D01*
X206404308Y-90443402D01*
X206286400Y-90339998D01*
X206184721Y-90267135D01*
X206048903Y-90188721D01*
X205934969Y-90137099D01*
X205786465Y-90086689D01*
X205664650Y-90058286D01*
X205509165Y-90037816D01*
X205384153Y-90033723D01*
X205227660Y-90043979D01*
X205104241Y-90064355D01*
X204952758Y-90104945D01*
X204835688Y-90149007D01*
X204695034Y-90218371D01*
X204633922Y-90256373D01*
X204636277Y-90184449D01*
X204626021Y-90027956D01*
X204605645Y-89904537D01*
X204565055Y-89753054D01*
X204520993Y-89635984D01*
X204451629Y-89495330D01*
X204385578Y-89389113D01*
X204290108Y-89264694D01*
X204204604Y-89173402D01*
X204086696Y-89069998D01*
X203985017Y-88997135D01*
X203849199Y-88918721D01*
X203735265Y-88867099D01*
X203586761Y-88816689D01*
X203464946Y-88788286D01*
X203309461Y-88767816D01*
X203184449Y-88763723D01*
X203027956Y-88773979D01*
X202904537Y-88794355D01*
X202753054Y-88834945D01*
X202635984Y-88879007D01*
X202495330Y-88948371D01*
X202434217Y-88986374D01*
X202436572Y-88914449D01*
X202426316Y-88757956D01*
X202420865Y-88724942D01*
X209415807Y-81730000D01*
X209436939Y-81730000D01*
X209636898Y-81690226D01*
X209825256Y-81612205D01*
X209975011Y-81512142D01*
X209975010Y-82254289D01*
X209867805Y-82414734D01*
X209789784Y-82603092D01*
X209750010Y-82803051D01*
X209750010Y-83006929D01*
X209789784Y-83206888D01*
X209867805Y-83395246D01*
X209975011Y-83555691D01*
X209975010Y-88029477D01*
X209142560Y-88861928D01*
X208300000Y-88861928D01*
X208175518Y-88874188D01*
X208055820Y-88910498D01*
X207945506Y-88969463D01*
X207848815Y-89048815D01*
X207769463Y-89145506D01*
X207710498Y-89255820D01*
X207674188Y-89375518D01*
X207661928Y-89500000D01*
X207661928Y-90500000D01*
X207674188Y-90624482D01*
X207710498Y-90744180D01*
X207769463Y-90854494D01*
X207848815Y-90951185D01*
X207945506Y-91030537D01*
X208055820Y-91089502D01*
X208175518Y-91125812D01*
X208300000Y-91138072D01*
X208582118Y-91138072D01*
X208540226Y-91166063D01*
X208396063Y-91310226D01*
X208282795Y-91479744D01*
X208204774Y-91668102D01*
X208165000Y-91868061D01*
X208165000Y-92071939D01*
X208166020Y-92077069D01*
X208055820Y-92110498D01*
X207945506Y-92169463D01*
X207848815Y-92248815D01*
X207769463Y-92345506D01*
X207710498Y-92455820D01*
X207674188Y-92575518D01*
X207661928Y-92700000D01*
X207661928Y-93700000D01*
X207674188Y-93824482D01*
X207710498Y-93944180D01*
X207769463Y-94054494D01*
X207848815Y-94151185D01*
X207945506Y-94230537D01*
X208055820Y-94289502D01*
X208175518Y-94325812D01*
X208300000Y-94338072D01*
X210000000Y-94338072D01*
X210124482Y-94325812D01*
X210244180Y-94289502D01*
X210354494Y-94230537D01*
X210451185Y-94151185D01*
X210530537Y-94054494D01*
X210589502Y-93944180D01*
X210625812Y-93824482D01*
X210638072Y-93700000D01*
X210638072Y-92700000D01*
X210625812Y-92575518D01*
X210589502Y-92455820D01*
X210530537Y-92345506D01*
X210451185Y-92248815D01*
X210354494Y-92169463D01*
X210244180Y-92110498D01*
X210228289Y-92105678D01*
X210235000Y-92071939D01*
X210235000Y-91868061D01*
X210195226Y-91668102D01*
X210117205Y-91479744D01*
X210003937Y-91310226D01*
X209859774Y-91166063D01*
X209817882Y-91138072D01*
X210000000Y-91138072D01*
X210124482Y-91125812D01*
X210244180Y-91089502D01*
X210354494Y-91030537D01*
X210451185Y-90951185D01*
X210530537Y-90854494D01*
X210589502Y-90744180D01*
X210625812Y-90624482D01*
X210638072Y-90500000D01*
X210638072Y-89677993D01*
X210706073Y-89779764D01*
X210850236Y-89923927D01*
X211019754Y-90037195D01*
X211208112Y-90115216D01*
X211344286Y-90142302D01*
X211189261Y-90206516D01*
X210966513Y-90355351D01*
X210777081Y-90544783D01*
X210628246Y-90767531D01*
X210525726Y-91015035D01*
X210473462Y-91277784D01*
X210473462Y-91545680D01*
X210525726Y-91808429D01*
X210628246Y-92055933D01*
X210777081Y-92278681D01*
X210966513Y-92468113D01*
X211189261Y-92616948D01*
X211436765Y-92719468D01*
X211699514Y-92771732D01*
X211743723Y-92771732D01*
X211743539Y-92771775D01*
X211521950Y-92872176D01*
X211324206Y-93013877D01*
X211157906Y-93191434D01*
X211029441Y-93398022D01*
X210943748Y-93625703D01*
X210904119Y-93865727D01*
X210912079Y-94108869D01*
X210967321Y-94345789D01*
X211042564Y-94511853D01*
X211453228Y-95223146D01*
X211559423Y-95371340D01*
X211736980Y-95537640D01*
X211943568Y-95666105D01*
X212171248Y-95751798D01*
X212411272Y-95791426D01*
X212654415Y-95783467D01*
X212891335Y-95728225D01*
X213112924Y-95627824D01*
X213310668Y-95486123D01*
X213476968Y-95308566D01*
X213605433Y-95101978D01*
X213691126Y-94874297D01*
X213730754Y-94634272D01*
X213722795Y-94391129D01*
X213710284Y-94337472D01*
X214164250Y-94335000D01*
X214323000Y-94176250D01*
X214323000Y-93327000D01*
X214577000Y-93327000D01*
X214577000Y-94176250D01*
X214735750Y-94335000D01*
X215300000Y-94338072D01*
X215424482Y-94325812D01*
X215544180Y-94289502D01*
X215654494Y-94230537D01*
X215751185Y-94151185D01*
X215830537Y-94054494D01*
X215889502Y-93944180D01*
X215925812Y-93824482D01*
X215938072Y-93700000D01*
X215935000Y-93485750D01*
X215776250Y-93327000D01*
X214577000Y-93327000D01*
X214323000Y-93327000D01*
X214303000Y-93327000D01*
X214303000Y-93073000D01*
X214323000Y-93073000D01*
X214323000Y-92223750D01*
X214577000Y-92223750D01*
X214577000Y-93073000D01*
X215776250Y-93073000D01*
X215935000Y-92914250D01*
X215938072Y-92700000D01*
X215925812Y-92575518D01*
X215889502Y-92455820D01*
X215830537Y-92345506D01*
X215751185Y-92248815D01*
X215654494Y-92169463D01*
X215544180Y-92110498D01*
X215424482Y-92074188D01*
X215300000Y-92061928D01*
X214735750Y-92065000D01*
X214577000Y-92223750D01*
X214323000Y-92223750D01*
X214164250Y-92065000D01*
X213600000Y-92061928D01*
X213475518Y-92074188D01*
X213355820Y-92110498D01*
X213245506Y-92169463D01*
X213148815Y-92248815D01*
X213069463Y-92345506D01*
X213010498Y-92455820D01*
X212974188Y-92575518D01*
X212961928Y-92700000D01*
X212965000Y-92914250D01*
X213123748Y-93072998D01*
X213016021Y-93072998D01*
X212897894Y-92962360D01*
X212691306Y-92833895D01*
X212463625Y-92748202D01*
X212247097Y-92712452D01*
X212477663Y-92616948D01*
X212700411Y-92468113D01*
X212889843Y-92278681D01*
X213038678Y-92055933D01*
X213141198Y-91808429D01*
X213193462Y-91545680D01*
X213193462Y-91277784D01*
X213141198Y-91015035D01*
X213080036Y-90867377D01*
X213148815Y-90951185D01*
X213245506Y-91030537D01*
X213355820Y-91089502D01*
X213475518Y-91125812D01*
X213600000Y-91138072D01*
X215300000Y-91138072D01*
X215424482Y-91125812D01*
X215544180Y-91089502D01*
X215654494Y-91030537D01*
X215751185Y-90951185D01*
X215830537Y-90854494D01*
X215889502Y-90744180D01*
X215925812Y-90624482D01*
X215938072Y-90500000D01*
X215938072Y-90253518D01*
X216029642Y-90271732D01*
X216297538Y-90271732D01*
X216560287Y-90219468D01*
X216807791Y-90116948D01*
X217030539Y-89968113D01*
X217086181Y-89912471D01*
X217005926Y-90125703D01*
X216966297Y-90365727D01*
X216974257Y-90608869D01*
X217029499Y-90845789D01*
X217104742Y-91011853D01*
X217515406Y-91723146D01*
X217621601Y-91871340D01*
X217799158Y-92037640D01*
X218005746Y-92166105D01*
X218233426Y-92251798D01*
X218473450Y-92291426D01*
X218716593Y-92283467D01*
X218953513Y-92228225D01*
X219175102Y-92127824D01*
X219372846Y-91986123D01*
X219539146Y-91808566D01*
X219667611Y-91601978D01*
X219753304Y-91374297D01*
X219792932Y-91134272D01*
X219784973Y-90891129D01*
X219729731Y-90654210D01*
X219654488Y-90488146D01*
X219243823Y-89776854D01*
X219137629Y-89628660D01*
X218960072Y-89462360D01*
X218753484Y-89333895D01*
X218525803Y-89248202D01*
X218285779Y-89208573D01*
X218042637Y-89216533D01*
X217805717Y-89271775D01*
X217584128Y-89372176D01*
X217386384Y-89513877D01*
X217386101Y-89514179D01*
X217471326Y-89308429D01*
X217523590Y-89045680D01*
X217523590Y-88777784D01*
X217471326Y-88515035D01*
X217368806Y-88267531D01*
X217219971Y-88044783D01*
X217030539Y-87855351D01*
X216807791Y-87706516D01*
X216560287Y-87603996D01*
X216297538Y-87551732D01*
X216029642Y-87551732D01*
X215766893Y-87603996D01*
X215519389Y-87706516D01*
X215296641Y-87855351D01*
X215240000Y-87911992D01*
X215240000Y-86897709D01*
X218807141Y-86897709D01*
X218860747Y-87186555D01*
X219081115Y-87327247D01*
X220126810Y-86723515D01*
X219523401Y-85678381D01*
X219261890Y-85689482D01*
X219154172Y-85804485D01*
X218987832Y-86046635D01*
X218871929Y-86316583D01*
X218810917Y-86603955D01*
X218807141Y-86897709D01*
X215240000Y-86897709D01*
X215240000Y-80994801D01*
X216580545Y-79654256D01*
X216627886Y-79701597D01*
X216797404Y-79814865D01*
X216985762Y-79892886D01*
X217185721Y-79932660D01*
X217247859Y-79932660D01*
X217775000Y-80459802D01*
X217775000Y-80521939D01*
X217806440Y-80679999D01*
X217731159Y-80679999D01*
X217677205Y-80549744D01*
X217563937Y-80380226D01*
X217419774Y-80236063D01*
X217250256Y-80122795D01*
X217061898Y-80044774D01*
X216861939Y-80005000D01*
X216658061Y-80005000D01*
X216458102Y-80044774D01*
X216269744Y-80122795D01*
X216100226Y-80236063D01*
X215956063Y-80380226D01*
X215842795Y-80549744D01*
X215764774Y-80738102D01*
X215725000Y-80938061D01*
X215725000Y-81141939D01*
X215764774Y-81341898D01*
X215842795Y-81530256D01*
X215956063Y-81699774D01*
X216100226Y-81843937D01*
X216269744Y-81957205D01*
X216458102Y-82035226D01*
X216658061Y-82075000D01*
X216735774Y-82075000D01*
X216867752Y-82145545D01*
X217011013Y-82189002D01*
X217122666Y-82199999D01*
X217122676Y-82199999D01*
X217159998Y-82203675D01*
X217197321Y-82199999D01*
X218440473Y-82199999D01*
X218415000Y-82328061D01*
X218415000Y-82531939D01*
X218454774Y-82731898D01*
X218532795Y-82920256D01*
X218646063Y-83089774D01*
X218790226Y-83233937D01*
X218959744Y-83347205D01*
X219148102Y-83425226D01*
X219348061Y-83465000D01*
X219551939Y-83465000D01*
X219751898Y-83425226D01*
X219940256Y-83347205D01*
X220109774Y-83233937D01*
X220153711Y-83190000D01*
X220705680Y-83190000D01*
X220743002Y-83193676D01*
X220780324Y-83190000D01*
X220780335Y-83190000D01*
X220891988Y-83179003D01*
X221035249Y-83135546D01*
X221167278Y-83064974D01*
X221283003Y-82970001D01*
X221306806Y-82940997D01*
X225565300Y-78682504D01*
X225565305Y-78682498D01*
X225680998Y-78566805D01*
X225710001Y-78543003D01*
X225728879Y-78520000D01*
X228322678Y-78520000D01*
X228360000Y-78523676D01*
X228397322Y-78520000D01*
X228397333Y-78520000D01*
X228508986Y-78509003D01*
X228652247Y-78465546D01*
X228784276Y-78394974D01*
X228900001Y-78300001D01*
X228923803Y-78270998D01*
X229159801Y-78035000D01*
X229221939Y-78035000D01*
X229421898Y-77995226D01*
X229610256Y-77917205D01*
X229779774Y-77803937D01*
X229923937Y-77659774D01*
X230037205Y-77490256D01*
X230115226Y-77301898D01*
X230155000Y-77101939D01*
X230155000Y-76898061D01*
X230115226Y-76698102D01*
X230037205Y-76509744D01*
X229923937Y-76340226D01*
X229779774Y-76196063D01*
X229610256Y-76082795D01*
X229421898Y-76004774D01*
X229221939Y-75965000D01*
X229018061Y-75965000D01*
X228818102Y-76004774D01*
X228629744Y-76082795D01*
X228460226Y-76196063D01*
X228316063Y-76340226D01*
X228202795Y-76509744D01*
X228124774Y-76698102D01*
X228085000Y-76898061D01*
X228085000Y-76960199D01*
X228045199Y-77000000D01*
X225930000Y-77000000D01*
X225930000Y-76623711D01*
X225973937Y-76579774D01*
X226087205Y-76410256D01*
X226165226Y-76221898D01*
X226205000Y-76021939D01*
X226205000Y-75818061D01*
X226165226Y-75618102D01*
X226087205Y-75429744D01*
X225973937Y-75260226D01*
X225829774Y-75116063D01*
X225660256Y-75002795D01*
X225471898Y-74924774D01*
X225271939Y-74885000D01*
X225068061Y-74885000D01*
X224868102Y-74924774D01*
X224679744Y-75002795D01*
X224510226Y-75116063D01*
X224400000Y-75226289D01*
X224370000Y-75196289D01*
X224370000Y-73757323D01*
X224373676Y-73720000D01*
X224370000Y-73682677D01*
X224370000Y-73682667D01*
X224359003Y-73571014D01*
X224315546Y-73427753D01*
X224244974Y-73295724D01*
X224199243Y-73240000D01*
X228205199Y-73240000D01*
X231850001Y-76884804D01*
G37*
G04 #@! TD.AperFunction*
D22*
X216956063Y-76869774D02*
X217010001Y-76923712D01*
X217010001Y-77075197D01*
X213969003Y-80116196D01*
X213939999Y-80139999D01*
X213908729Y-80178102D01*
X213845026Y-80255724D01*
X213826172Y-80290998D01*
X213774454Y-80387754D01*
X213730997Y-80531015D01*
X213720000Y-80642668D01*
X213720000Y-80642678D01*
X213716324Y-80680000D01*
X213720000Y-80717322D01*
X213720001Y-88861928D01*
X213600000Y-88861928D01*
X213475518Y-88874188D01*
X213355820Y-88910498D01*
X213245506Y-88969463D01*
X213148815Y-89048815D01*
X213069463Y-89145506D01*
X213010498Y-89255820D01*
X212974188Y-89375518D01*
X212961928Y-89500000D01*
X212961928Y-90500000D01*
X212974188Y-90624482D01*
X213000040Y-90709705D01*
X212889843Y-90544783D01*
X212700411Y-90355351D01*
X212477663Y-90206516D01*
X212230159Y-90103996D01*
X211967410Y-90051732D01*
X211965171Y-90051732D01*
X212000266Y-90037195D01*
X212169784Y-89923927D01*
X212313947Y-89779764D01*
X212427215Y-89610246D01*
X212505236Y-89421888D01*
X212545010Y-89221929D01*
X212545010Y-89018051D01*
X212505236Y-88818092D01*
X212427215Y-88629734D01*
X212313947Y-88460216D01*
X212270010Y-88416279D01*
X212270010Y-81360476D01*
X216877817Y-76752670D01*
X216956063Y-76869774D01*
G04 #@! TA.AperFunction,Conductor*
D23*
G36*
X216956063Y-76869774D02*
G01*
X217010001Y-76923712D01*
X217010001Y-77075197D01*
X213969003Y-80116196D01*
X213939999Y-80139999D01*
X213908729Y-80178102D01*
X213845026Y-80255724D01*
X213826172Y-80290998D01*
X213774454Y-80387754D01*
X213730997Y-80531015D01*
X213720000Y-80642668D01*
X213720000Y-80642678D01*
X213716324Y-80680000D01*
X213720000Y-80717322D01*
X213720001Y-88861928D01*
X213600000Y-88861928D01*
X213475518Y-88874188D01*
X213355820Y-88910498D01*
X213245506Y-88969463D01*
X213148815Y-89048815D01*
X213069463Y-89145506D01*
X213010498Y-89255820D01*
X212974188Y-89375518D01*
X212961928Y-89500000D01*
X212961928Y-90500000D01*
X212974188Y-90624482D01*
X213000040Y-90709705D01*
X212889843Y-90544783D01*
X212700411Y-90355351D01*
X212477663Y-90206516D01*
X212230159Y-90103996D01*
X211967410Y-90051732D01*
X211965171Y-90051732D01*
X212000266Y-90037195D01*
X212169784Y-89923927D01*
X212313947Y-89779764D01*
X212427215Y-89610246D01*
X212505236Y-89421888D01*
X212545010Y-89221929D01*
X212545010Y-89018051D01*
X212505236Y-88818092D01*
X212427215Y-88629734D01*
X212313947Y-88460216D01*
X212270010Y-88416279D01*
X212270010Y-81360476D01*
X216877817Y-76752670D01*
X216956063Y-76869774D01*
G37*
G04 #@! TD.AperFunction*
D22*
X222940001Y-62350701D02*
X222940000Y-65914782D01*
X209185278Y-79669505D01*
X209033102Y-79699774D01*
X208844744Y-79777795D01*
X208675226Y-79891063D01*
X208531063Y-80035226D01*
X208417795Y-80204744D01*
X208339774Y-80393102D01*
X208309505Y-80545278D01*
X201323024Y-87531759D01*
X201265241Y-87518286D01*
X201109756Y-87497816D01*
X200984744Y-87493723D01*
X200828251Y-87503979D01*
X200704832Y-87524355D01*
X200553349Y-87564945D01*
X200436279Y-87609007D01*
X200295625Y-87678371D01*
X200234513Y-87716373D01*
X200236868Y-87644449D01*
X200226612Y-87487956D01*
X200206236Y-87364537D01*
X200165646Y-87213054D01*
X200121584Y-87095984D01*
X200052220Y-86955330D01*
X199992939Y-86860000D01*
X201120212Y-86860000D01*
X201160000Y-86863919D01*
X201199788Y-86860000D01*
X201199791Y-86860000D01*
X201318788Y-86848280D01*
X201471473Y-86801963D01*
X201612189Y-86726749D01*
X201735528Y-86625528D01*
X201760900Y-86594612D01*
X208484617Y-79870896D01*
X208515528Y-79845528D01*
X208540896Y-79814617D01*
X209732642Y-78622871D01*
X209921898Y-78585226D01*
X210110256Y-78507205D01*
X210279774Y-78393937D01*
X210423937Y-78249774D01*
X210537205Y-78080256D01*
X210615226Y-77891898D01*
X210640456Y-77765056D01*
X217152642Y-71252871D01*
X217341898Y-71215226D01*
X217530256Y-71137205D01*
X217699774Y-71023937D01*
X217843937Y-70879774D01*
X217957205Y-70710256D01*
X218035226Y-70521898D01*
X218072871Y-70332641D01*
X222598752Y-65806761D01*
X222629661Y-65781395D01*
X222684147Y-65715003D01*
X222730882Y-65658057D01*
X222786353Y-65554276D01*
X222806096Y-65517340D01*
X222852413Y-65364655D01*
X222864133Y-65245658D01*
X222864133Y-65245655D01*
X222868052Y-65205867D01*
X222864133Y-65166079D01*
X222864133Y-62237157D01*
X222940001Y-62350701D01*
G04 #@! TA.AperFunction,Conductor*
D23*
G36*
X222940001Y-62350701D02*
G01*
X222940000Y-65914782D01*
X209185278Y-79669505D01*
X209033102Y-79699774D01*
X208844744Y-79777795D01*
X208675226Y-79891063D01*
X208531063Y-80035226D01*
X208417795Y-80204744D01*
X208339774Y-80393102D01*
X208309505Y-80545278D01*
X201323024Y-87531759D01*
X201265241Y-87518286D01*
X201109756Y-87497816D01*
X200984744Y-87493723D01*
X200828251Y-87503979D01*
X200704832Y-87524355D01*
X200553349Y-87564945D01*
X200436279Y-87609007D01*
X200295625Y-87678371D01*
X200234513Y-87716373D01*
X200236868Y-87644449D01*
X200226612Y-87487956D01*
X200206236Y-87364537D01*
X200165646Y-87213054D01*
X200121584Y-87095984D01*
X200052220Y-86955330D01*
X199992939Y-86860000D01*
X201120212Y-86860000D01*
X201160000Y-86863919D01*
X201199788Y-86860000D01*
X201199791Y-86860000D01*
X201318788Y-86848280D01*
X201471473Y-86801963D01*
X201612189Y-86726749D01*
X201735528Y-86625528D01*
X201760900Y-86594612D01*
X208484617Y-79870896D01*
X208515528Y-79845528D01*
X208540896Y-79814617D01*
X209732642Y-78622871D01*
X209921898Y-78585226D01*
X210110256Y-78507205D01*
X210279774Y-78393937D01*
X210423937Y-78249774D01*
X210537205Y-78080256D01*
X210615226Y-77891898D01*
X210640456Y-77765056D01*
X217152642Y-71252871D01*
X217341898Y-71215226D01*
X217530256Y-71137205D01*
X217699774Y-71023937D01*
X217843937Y-70879774D01*
X217957205Y-70710256D01*
X218035226Y-70521898D01*
X218072871Y-70332641D01*
X222598752Y-65806761D01*
X222629661Y-65781395D01*
X222684147Y-65715003D01*
X222730882Y-65658057D01*
X222786353Y-65554276D01*
X222806096Y-65517340D01*
X222852413Y-65364655D01*
X222864133Y-65245658D01*
X222864133Y-65245655D01*
X222868052Y-65205867D01*
X222864133Y-65166079D01*
X222864133Y-62237157D01*
X222940001Y-62350701D01*
G37*
G04 #@! TD.AperFunction*
D22*
X203920000Y-72085513D02*
X203920000Y-72656852D01*
X203845518Y-72664188D01*
X203725820Y-72700498D01*
X203615506Y-72759463D01*
X203570000Y-72796809D01*
X203524494Y-72759463D01*
X203414180Y-72700498D01*
X203294482Y-72664188D01*
X203170000Y-72651928D01*
X201670000Y-72651928D01*
X201545518Y-72664188D01*
X201425820Y-72700498D01*
X201315506Y-72759463D01*
X201270000Y-72796809D01*
X201224494Y-72759463D01*
X201114180Y-72700498D01*
X200994482Y-72664188D01*
X200870000Y-72651928D01*
X200405750Y-72655000D01*
X200247000Y-72813750D01*
X200247000Y-74163000D01*
X200267000Y-74163000D01*
X200267000Y-74417000D01*
X200247000Y-74417000D01*
X200247000Y-75766250D01*
X200405750Y-75925000D01*
X200870000Y-75928072D01*
X200994482Y-75915812D01*
X201114180Y-75879502D01*
X201224494Y-75820537D01*
X201270000Y-75783191D01*
X201315506Y-75820537D01*
X201425820Y-75879502D01*
X201545518Y-75915812D01*
X201550001Y-75916253D01*
X201550000Y-77534487D01*
X201392964Y-77691523D01*
X201283387Y-77601595D01*
X201129851Y-77519528D01*
X200963255Y-77468992D01*
X200790001Y-77451928D01*
X200139999Y-77451928D01*
X199966745Y-77468992D01*
X199800149Y-77519528D01*
X199646613Y-77601595D01*
X199512038Y-77712038D01*
X199506658Y-77718594D01*
X199441185Y-77638815D01*
X199344494Y-77559463D01*
X199234180Y-77500498D01*
X199114482Y-77464188D01*
X198990000Y-77451928D01*
X198700750Y-77455000D01*
X198542000Y-77613750D01*
X198542000Y-78663000D01*
X198562000Y-78663000D01*
X198562000Y-78917000D01*
X198542000Y-78917000D01*
X198542000Y-79966250D01*
X198700750Y-80125000D01*
X198990000Y-80128072D01*
X199114482Y-80115812D01*
X199234180Y-80079502D01*
X199344494Y-80020537D01*
X199441185Y-79941185D01*
X199506658Y-79861406D01*
X199512038Y-79867962D01*
X199646613Y-79978405D01*
X199800149Y-80060472D01*
X199966745Y-80111008D01*
X200139999Y-80128072D01*
X200790001Y-80128072D01*
X200963255Y-80111008D01*
X201129851Y-80060472D01*
X201283387Y-79978405D01*
X201417962Y-79867962D01*
X201528405Y-79733387D01*
X201607356Y-79585681D01*
X201751473Y-79541963D01*
X201848689Y-79490000D01*
X202901928Y-79490000D01*
X202914188Y-79614482D01*
X202950498Y-79734180D01*
X203009463Y-79844494D01*
X203088815Y-79941185D01*
X203185506Y-80020537D01*
X203295820Y-80079502D01*
X203415518Y-80115812D01*
X203540000Y-80128072D01*
X203829250Y-80125000D01*
X203988000Y-79966250D01*
X203988000Y-78917000D01*
X203063750Y-78917000D01*
X202905000Y-79075750D01*
X202901928Y-79490000D01*
X201848689Y-79490000D01*
X201892189Y-79466749D01*
X202015528Y-79365528D01*
X202040899Y-79334613D01*
X202904619Y-78470894D01*
X202904752Y-78470785D01*
X202905000Y-78504250D01*
X203063750Y-78663000D01*
X203988000Y-78663000D01*
X203988000Y-77613750D01*
X203829250Y-77455000D01*
X203540000Y-77451928D01*
X203415518Y-77464188D01*
X203295820Y-77500498D01*
X203185506Y-77559463D01*
X203170000Y-77572188D01*
X203170000Y-75928072D01*
X203294482Y-75915812D01*
X203414180Y-75879502D01*
X203524494Y-75820537D01*
X203570000Y-75783191D01*
X203615506Y-75820537D01*
X203725820Y-75879502D01*
X203845518Y-75915812D01*
X203917198Y-75922872D01*
X203917711Y-75928072D01*
X203921721Y-75968788D01*
X203946049Y-76048986D01*
X203968038Y-76121473D01*
X204043251Y-76262189D01*
X204084080Y-76311939D01*
X204144473Y-76385528D01*
X204175383Y-76410895D01*
X205359301Y-77594813D01*
X205346613Y-77601595D01*
X205212038Y-77712038D01*
X205206658Y-77718594D01*
X205141185Y-77638815D01*
X205044494Y-77559463D01*
X204934180Y-77500498D01*
X204814482Y-77464188D01*
X204690000Y-77451928D01*
X204400750Y-77455000D01*
X204242000Y-77613750D01*
X204242000Y-78663000D01*
X204262000Y-78663000D01*
X204262000Y-78917000D01*
X204242000Y-78917000D01*
X204242000Y-79966250D01*
X204400750Y-80125000D01*
X204690000Y-80128072D01*
X204814482Y-80115812D01*
X204934180Y-80079502D01*
X205044494Y-80020537D01*
X205141185Y-79941185D01*
X205206658Y-79861406D01*
X205212038Y-79867962D01*
X205346613Y-79978405D01*
X205500149Y-80060472D01*
X205666745Y-80111008D01*
X205839999Y-80128072D01*
X205936415Y-80128072D01*
X201055000Y-85009488D01*
X201055000Y-84918061D01*
X201015226Y-84718102D01*
X200937205Y-84529744D01*
X200823937Y-84360226D01*
X200679774Y-84216063D01*
X200510256Y-84102795D01*
X200321898Y-84024774D01*
X200132642Y-83987129D01*
X197850000Y-81704488D01*
X197850000Y-80600700D01*
X197957205Y-80440256D01*
X198035226Y-80251898D01*
X198060322Y-80125732D01*
X198129250Y-80125000D01*
X198288000Y-79966250D01*
X198288000Y-78917000D01*
X197363750Y-78917000D01*
X197328618Y-78952132D01*
X197141939Y-78915000D01*
X196938061Y-78915000D01*
X196738102Y-78954774D01*
X196549744Y-79032795D01*
X196380226Y-79146063D01*
X196236063Y-79290226D01*
X196122795Y-79459744D01*
X196044774Y-79648102D01*
X196005000Y-79848061D01*
X196005000Y-80051939D01*
X196044774Y-80251898D01*
X196122795Y-80440256D01*
X196230000Y-80600701D01*
X196230001Y-82000202D01*
X196226081Y-82040000D01*
X196236477Y-82145545D01*
X196241721Y-82198788D01*
X196245425Y-82210997D01*
X196288038Y-82351473D01*
X196363251Y-82492189D01*
X196398980Y-82535724D01*
X196464473Y-82615528D01*
X196495383Y-82640895D01*
X198987129Y-85132642D01*
X199008484Y-85240000D01*
X197459675Y-85240000D01*
X197385903Y-85187135D01*
X197250085Y-85108721D01*
X197136151Y-85057099D01*
X196987647Y-85006689D01*
X196865832Y-84978286D01*
X196710347Y-84957816D01*
X196585335Y-84953723D01*
X196428842Y-84963979D01*
X196305423Y-84984355D01*
X196153940Y-85024945D01*
X196036870Y-85069007D01*
X195896216Y-85138371D01*
X195789999Y-85204422D01*
X195665580Y-85299892D01*
X195574288Y-85385396D01*
X195470884Y-85503304D01*
X195398021Y-85604983D01*
X195378370Y-85639020D01*
X195355479Y-85670964D01*
X194785053Y-86658970D01*
X188865436Y-83241278D01*
X188865436Y-79057033D01*
X188886619Y-79126864D01*
X189037993Y-79410065D01*
X189241708Y-79658293D01*
X189489936Y-79862008D01*
X189773137Y-80013382D01*
X190080428Y-80106598D01*
X190400000Y-80138073D01*
X192400000Y-80138073D01*
X192719572Y-80106598D01*
X193026863Y-80013382D01*
X193310064Y-79862008D01*
X193558292Y-79658293D01*
X193762007Y-79410065D01*
X193913381Y-79126864D01*
X193913516Y-79126420D01*
X193975528Y-79075528D01*
X194000899Y-79044613D01*
X194955512Y-78090000D01*
X197201928Y-78090000D01*
X197205000Y-78504250D01*
X197363750Y-78663000D01*
X198288000Y-78663000D01*
X198288000Y-77613750D01*
X198129250Y-77455000D01*
X197840000Y-77451928D01*
X197715518Y-77464188D01*
X197595820Y-77500498D01*
X197485506Y-77559463D01*
X197388815Y-77638815D01*
X197309463Y-77735506D01*
X197250498Y-77845820D01*
X197214188Y-77965518D01*
X197201928Y-78090000D01*
X194955512Y-78090000D01*
X195544619Y-77500894D01*
X195575528Y-77475528D01*
X195676749Y-77352189D01*
X195703630Y-77301898D01*
X195751963Y-77211474D01*
X195775525Y-77133799D01*
X195798280Y-77058788D01*
X195810000Y-76939791D01*
X195810000Y-76939788D01*
X195813919Y-76900000D01*
X195810000Y-76860212D01*
X195810000Y-75290000D01*
X198731928Y-75290000D01*
X198744188Y-75414482D01*
X198780498Y-75534180D01*
X198839463Y-75644494D01*
X198918815Y-75741185D01*
X199015506Y-75820537D01*
X199125820Y-75879502D01*
X199245518Y-75915812D01*
X199370000Y-75928072D01*
X199834250Y-75925000D01*
X199993000Y-75766250D01*
X199993000Y-74417000D01*
X198893750Y-74417000D01*
X198735000Y-74575750D01*
X198731928Y-75290000D01*
X195810000Y-75290000D01*
X195810000Y-74331370D01*
X195912189Y-74276749D01*
X196035528Y-74175528D01*
X196060900Y-74144612D01*
X196915512Y-73290000D01*
X198731928Y-73290000D01*
X198735000Y-74004250D01*
X198893750Y-74163000D01*
X199993000Y-74163000D01*
X199993000Y-72813750D01*
X199834250Y-72655000D01*
X199370000Y-72651928D01*
X199245518Y-72664188D01*
X199125820Y-72700498D01*
X199015506Y-72759463D01*
X198918815Y-72838815D01*
X198839463Y-72935506D01*
X198780498Y-73045820D01*
X198744188Y-73165518D01*
X198731928Y-73290000D01*
X196915512Y-73290000D01*
X199085513Y-71120000D01*
X202954488Y-71120000D01*
X203920000Y-72085513D01*
G04 #@! TA.AperFunction,Conductor*
D23*
G36*
X203920000Y-72085513D02*
G01*
X203920000Y-72656852D01*
X203845518Y-72664188D01*
X203725820Y-72700498D01*
X203615506Y-72759463D01*
X203570000Y-72796809D01*
X203524494Y-72759463D01*
X203414180Y-72700498D01*
X203294482Y-72664188D01*
X203170000Y-72651928D01*
X201670000Y-72651928D01*
X201545518Y-72664188D01*
X201425820Y-72700498D01*
X201315506Y-72759463D01*
X201270000Y-72796809D01*
X201224494Y-72759463D01*
X201114180Y-72700498D01*
X200994482Y-72664188D01*
X200870000Y-72651928D01*
X200405750Y-72655000D01*
X200247000Y-72813750D01*
X200247000Y-74163000D01*
X200267000Y-74163000D01*
X200267000Y-74417000D01*
X200247000Y-74417000D01*
X200247000Y-75766250D01*
X200405750Y-75925000D01*
X200870000Y-75928072D01*
X200994482Y-75915812D01*
X201114180Y-75879502D01*
X201224494Y-75820537D01*
X201270000Y-75783191D01*
X201315506Y-75820537D01*
X201425820Y-75879502D01*
X201545518Y-75915812D01*
X201550001Y-75916253D01*
X201550000Y-77534487D01*
X201392964Y-77691523D01*
X201283387Y-77601595D01*
X201129851Y-77519528D01*
X200963255Y-77468992D01*
X200790001Y-77451928D01*
X200139999Y-77451928D01*
X199966745Y-77468992D01*
X199800149Y-77519528D01*
X199646613Y-77601595D01*
X199512038Y-77712038D01*
X199506658Y-77718594D01*
X199441185Y-77638815D01*
X199344494Y-77559463D01*
X199234180Y-77500498D01*
X199114482Y-77464188D01*
X198990000Y-77451928D01*
X198700750Y-77455000D01*
X198542000Y-77613750D01*
X198542000Y-78663000D01*
X198562000Y-78663000D01*
X198562000Y-78917000D01*
X198542000Y-78917000D01*
X198542000Y-79966250D01*
X198700750Y-80125000D01*
X198990000Y-80128072D01*
X199114482Y-80115812D01*
X199234180Y-80079502D01*
X199344494Y-80020537D01*
X199441185Y-79941185D01*
X199506658Y-79861406D01*
X199512038Y-79867962D01*
X199646613Y-79978405D01*
X199800149Y-80060472D01*
X199966745Y-80111008D01*
X200139999Y-80128072D01*
X200790001Y-80128072D01*
X200963255Y-80111008D01*
X201129851Y-80060472D01*
X201283387Y-79978405D01*
X201417962Y-79867962D01*
X201528405Y-79733387D01*
X201607356Y-79585681D01*
X201751473Y-79541963D01*
X201848689Y-79490000D01*
X202901928Y-79490000D01*
X202914188Y-79614482D01*
X202950498Y-79734180D01*
X203009463Y-79844494D01*
X203088815Y-79941185D01*
X203185506Y-80020537D01*
X203295820Y-80079502D01*
X203415518Y-80115812D01*
X203540000Y-80128072D01*
X203829250Y-80125000D01*
X203988000Y-79966250D01*
X203988000Y-78917000D01*
X203063750Y-78917000D01*
X202905000Y-79075750D01*
X202901928Y-79490000D01*
X201848689Y-79490000D01*
X201892189Y-79466749D01*
X202015528Y-79365528D01*
X202040899Y-79334613D01*
X202904619Y-78470894D01*
X202904752Y-78470785D01*
X202905000Y-78504250D01*
X203063750Y-78663000D01*
X203988000Y-78663000D01*
X203988000Y-77613750D01*
X203829250Y-77455000D01*
X203540000Y-77451928D01*
X203415518Y-77464188D01*
X203295820Y-77500498D01*
X203185506Y-77559463D01*
X203170000Y-77572188D01*
X203170000Y-75928072D01*
X203294482Y-75915812D01*
X203414180Y-75879502D01*
X203524494Y-75820537D01*
X203570000Y-75783191D01*
X203615506Y-75820537D01*
X203725820Y-75879502D01*
X203845518Y-75915812D01*
X203917198Y-75922872D01*
X203917711Y-75928072D01*
X203921721Y-75968788D01*
X203946049Y-76048986D01*
X203968038Y-76121473D01*
X204043251Y-76262189D01*
X204084080Y-76311939D01*
X204144473Y-76385528D01*
X204175383Y-76410895D01*
X205359301Y-77594813D01*
X205346613Y-77601595D01*
X205212038Y-77712038D01*
X205206658Y-77718594D01*
X205141185Y-77638815D01*
X205044494Y-77559463D01*
X204934180Y-77500498D01*
X204814482Y-77464188D01*
X204690000Y-77451928D01*
X204400750Y-77455000D01*
X204242000Y-77613750D01*
X204242000Y-78663000D01*
X204262000Y-78663000D01*
X204262000Y-78917000D01*
X204242000Y-78917000D01*
X204242000Y-79966250D01*
X204400750Y-80125000D01*
X204690000Y-80128072D01*
X204814482Y-80115812D01*
X204934180Y-80079502D01*
X205044494Y-80020537D01*
X205141185Y-79941185D01*
X205206658Y-79861406D01*
X205212038Y-79867962D01*
X205346613Y-79978405D01*
X205500149Y-80060472D01*
X205666745Y-80111008D01*
X205839999Y-80128072D01*
X205936415Y-80128072D01*
X201055000Y-85009488D01*
X201055000Y-84918061D01*
X201015226Y-84718102D01*
X200937205Y-84529744D01*
X200823937Y-84360226D01*
X200679774Y-84216063D01*
X200510256Y-84102795D01*
X200321898Y-84024774D01*
X200132642Y-83987129D01*
X197850000Y-81704488D01*
X197850000Y-80600700D01*
X197957205Y-80440256D01*
X198035226Y-80251898D01*
X198060322Y-80125732D01*
X198129250Y-80125000D01*
X198288000Y-79966250D01*
X198288000Y-78917000D01*
X197363750Y-78917000D01*
X197328618Y-78952132D01*
X197141939Y-78915000D01*
X196938061Y-78915000D01*
X196738102Y-78954774D01*
X196549744Y-79032795D01*
X196380226Y-79146063D01*
X196236063Y-79290226D01*
X196122795Y-79459744D01*
X196044774Y-79648102D01*
X196005000Y-79848061D01*
X196005000Y-80051939D01*
X196044774Y-80251898D01*
X196122795Y-80440256D01*
X196230000Y-80600701D01*
X196230001Y-82000202D01*
X196226081Y-82040000D01*
X196236477Y-82145545D01*
X196241721Y-82198788D01*
X196245425Y-82210997D01*
X196288038Y-82351473D01*
X196363251Y-82492189D01*
X196398980Y-82535724D01*
X196464473Y-82615528D01*
X196495383Y-82640895D01*
X198987129Y-85132642D01*
X199008484Y-85240000D01*
X197459675Y-85240000D01*
X197385903Y-85187135D01*
X197250085Y-85108721D01*
X197136151Y-85057099D01*
X196987647Y-85006689D01*
X196865832Y-84978286D01*
X196710347Y-84957816D01*
X196585335Y-84953723D01*
X196428842Y-84963979D01*
X196305423Y-84984355D01*
X196153940Y-85024945D01*
X196036870Y-85069007D01*
X195896216Y-85138371D01*
X195789999Y-85204422D01*
X195665580Y-85299892D01*
X195574288Y-85385396D01*
X195470884Y-85503304D01*
X195398021Y-85604983D01*
X195378370Y-85639020D01*
X195355479Y-85670964D01*
X194785053Y-86658970D01*
X188865436Y-83241278D01*
X188865436Y-79057033D01*
X188886619Y-79126864D01*
X189037993Y-79410065D01*
X189241708Y-79658293D01*
X189489936Y-79862008D01*
X189773137Y-80013382D01*
X190080428Y-80106598D01*
X190400000Y-80138073D01*
X192400000Y-80138073D01*
X192719572Y-80106598D01*
X193026863Y-80013382D01*
X193310064Y-79862008D01*
X193558292Y-79658293D01*
X193762007Y-79410065D01*
X193913381Y-79126864D01*
X193913516Y-79126420D01*
X193975528Y-79075528D01*
X194000899Y-79044613D01*
X194955512Y-78090000D01*
X197201928Y-78090000D01*
X197205000Y-78504250D01*
X197363750Y-78663000D01*
X198288000Y-78663000D01*
X198288000Y-77613750D01*
X198129250Y-77455000D01*
X197840000Y-77451928D01*
X197715518Y-77464188D01*
X197595820Y-77500498D01*
X197485506Y-77559463D01*
X197388815Y-77638815D01*
X197309463Y-77735506D01*
X197250498Y-77845820D01*
X197214188Y-77965518D01*
X197201928Y-78090000D01*
X194955512Y-78090000D01*
X195544619Y-77500894D01*
X195575528Y-77475528D01*
X195676749Y-77352189D01*
X195703630Y-77301898D01*
X195751963Y-77211474D01*
X195775525Y-77133799D01*
X195798280Y-77058788D01*
X195810000Y-76939791D01*
X195810000Y-76939788D01*
X195813919Y-76900000D01*
X195810000Y-76860212D01*
X195810000Y-75290000D01*
X198731928Y-75290000D01*
X198744188Y-75414482D01*
X198780498Y-75534180D01*
X198839463Y-75644494D01*
X198918815Y-75741185D01*
X199015506Y-75820537D01*
X199125820Y-75879502D01*
X199245518Y-75915812D01*
X199370000Y-75928072D01*
X199834250Y-75925000D01*
X199993000Y-75766250D01*
X199993000Y-74417000D01*
X198893750Y-74417000D01*
X198735000Y-74575750D01*
X198731928Y-75290000D01*
X195810000Y-75290000D01*
X195810000Y-74331370D01*
X195912189Y-74276749D01*
X196035528Y-74175528D01*
X196060900Y-74144612D01*
X196915512Y-73290000D01*
X198731928Y-73290000D01*
X198735000Y-74004250D01*
X198893750Y-74163000D01*
X199993000Y-74163000D01*
X199993000Y-72813750D01*
X199834250Y-72655000D01*
X199370000Y-72651928D01*
X199245518Y-72664188D01*
X199125820Y-72700498D01*
X199015506Y-72759463D01*
X198918815Y-72838815D01*
X198839463Y-72935506D01*
X198780498Y-73045820D01*
X198744188Y-73165518D01*
X198731928Y-73290000D01*
X196915512Y-73290000D01*
X199085513Y-71120000D01*
X202954488Y-71120000D01*
X203920000Y-72085513D01*
G37*
G04 #@! TD.AperFunction*
D22*
X224326196Y-56260997D02*
X224349999Y-56290001D01*
X224434768Y-56359569D01*
X225880000Y-57804802D01*
X225880001Y-65996288D01*
X225836063Y-66040226D01*
X225722795Y-66209744D01*
X225644774Y-66398102D01*
X225605000Y-66598061D01*
X225605000Y-66801939D01*
X225644774Y-67001898D01*
X225722795Y-67190256D01*
X225836063Y-67359774D01*
X225980226Y-67503937D01*
X226149744Y-67617205D01*
X226338102Y-67695226D01*
X226538061Y-67735000D01*
X226741939Y-67735000D01*
X226941898Y-67695226D01*
X227130256Y-67617205D01*
X227299774Y-67503937D01*
X227443937Y-67359774D01*
X227557205Y-67190256D01*
X227635226Y-67001898D01*
X227675000Y-66801939D01*
X227675000Y-66598061D01*
X227635226Y-66398102D01*
X227557205Y-66209744D01*
X227443937Y-66040226D01*
X227400000Y-65996289D01*
X227400000Y-58594802D01*
X228520000Y-59714802D01*
X228520001Y-67666288D01*
X228476063Y-67710226D01*
X228362795Y-67879744D01*
X228284774Y-68068102D01*
X228245000Y-68268061D01*
X228245000Y-68330198D01*
X227915199Y-68660000D01*
X223947323Y-68660000D01*
X223910000Y-68656324D01*
X223872677Y-68660000D01*
X223872667Y-68660000D01*
X223761014Y-68670997D01*
X223617753Y-68714454D01*
X223485723Y-68785026D01*
X223440370Y-68822247D01*
X223369999Y-68879999D01*
X223346201Y-68908997D01*
X221613405Y-70641794D01*
X221584401Y-70665597D01*
X221552250Y-70704774D01*
X221489428Y-70781322D01*
X221425073Y-70901721D01*
X221418856Y-70913352D01*
X221375399Y-71056613D01*
X221364402Y-71168266D01*
X221364402Y-71168276D01*
X221360726Y-71205598D01*
X221364402Y-71242921D01*
X221364403Y-72197070D01*
X221360726Y-72234402D01*
X221364403Y-72271735D01*
X221375400Y-72383388D01*
X221380590Y-72400498D01*
X221418856Y-72526648D01*
X221489428Y-72658678D01*
X221546264Y-72727932D01*
X221584402Y-72774403D01*
X221613400Y-72798201D01*
X222850000Y-74034802D01*
X222850001Y-75196288D01*
X222806063Y-75240226D01*
X222692795Y-75409744D01*
X222614774Y-75598102D01*
X222575000Y-75798061D01*
X222575000Y-76001939D01*
X222614774Y-76201898D01*
X222692795Y-76390256D01*
X222806063Y-76559774D01*
X222850000Y-76603711D01*
X222850000Y-76895198D01*
X220509516Y-79235683D01*
X220515226Y-79221898D01*
X220555000Y-79021939D01*
X220555000Y-78818061D01*
X220515226Y-78618102D01*
X220437205Y-78429744D01*
X220323937Y-78260226D01*
X220179774Y-78116063D01*
X220010256Y-78002795D01*
X219821898Y-77924774D01*
X219621939Y-77885000D01*
X219559801Y-77885000D01*
X219550000Y-77875199D01*
X219550000Y-73593711D01*
X219593937Y-73549774D01*
X219707205Y-73380256D01*
X219785226Y-73191898D01*
X219825000Y-72991939D01*
X219825000Y-72788061D01*
X219785226Y-72588102D01*
X219707205Y-72399744D01*
X219593937Y-72230226D01*
X219449774Y-72086063D01*
X219280256Y-71972795D01*
X219204424Y-71941384D01*
X224294619Y-66851189D01*
X224325528Y-66825823D01*
X224391184Y-66745820D01*
X224426749Y-66702485D01*
X224501962Y-66561769D01*
X224501963Y-66561768D01*
X224548280Y-66409083D01*
X224560000Y-66290086D01*
X224560000Y-66290083D01*
X224563919Y-66250295D01*
X224560000Y-66210507D01*
X224560000Y-62350700D01*
X224667205Y-62190256D01*
X224745226Y-62001898D01*
X224785000Y-61801939D01*
X224785000Y-61598061D01*
X224745226Y-61398102D01*
X224667205Y-61209744D01*
X224560000Y-61049300D01*
X224560000Y-59750700D01*
X224667205Y-59590256D01*
X224745226Y-59401898D01*
X224785000Y-59201939D01*
X224785000Y-58998061D01*
X224745226Y-58798102D01*
X224667205Y-58609744D01*
X224553937Y-58440226D01*
X224409774Y-58296063D01*
X224240256Y-58182795D01*
X224051898Y-58104774D01*
X223862642Y-58067129D01*
X222246388Y-56450875D01*
X222426898Y-56414970D01*
X222615256Y-56336949D01*
X222784774Y-56223681D01*
X222828711Y-56179744D01*
X224244943Y-56179744D01*
X224326196Y-56260997D01*
G04 #@! TA.AperFunction,Conductor*
D23*
G36*
X224326196Y-56260997D02*
G01*
X224349999Y-56290001D01*
X224434768Y-56359569D01*
X225880000Y-57804802D01*
X225880001Y-65996288D01*
X225836063Y-66040226D01*
X225722795Y-66209744D01*
X225644774Y-66398102D01*
X225605000Y-66598061D01*
X225605000Y-66801939D01*
X225644774Y-67001898D01*
X225722795Y-67190256D01*
X225836063Y-67359774D01*
X225980226Y-67503937D01*
X226149744Y-67617205D01*
X226338102Y-67695226D01*
X226538061Y-67735000D01*
X226741939Y-67735000D01*
X226941898Y-67695226D01*
X227130256Y-67617205D01*
X227299774Y-67503937D01*
X227443937Y-67359774D01*
X227557205Y-67190256D01*
X227635226Y-67001898D01*
X227675000Y-66801939D01*
X227675000Y-66598061D01*
X227635226Y-66398102D01*
X227557205Y-66209744D01*
X227443937Y-66040226D01*
X227400000Y-65996289D01*
X227400000Y-58594802D01*
X228520000Y-59714802D01*
X228520001Y-67666288D01*
X228476063Y-67710226D01*
X228362795Y-67879744D01*
X228284774Y-68068102D01*
X228245000Y-68268061D01*
X228245000Y-68330198D01*
X227915199Y-68660000D01*
X223947323Y-68660000D01*
X223910000Y-68656324D01*
X223872677Y-68660000D01*
X223872667Y-68660000D01*
X223761014Y-68670997D01*
X223617753Y-68714454D01*
X223485723Y-68785026D01*
X223440370Y-68822247D01*
X223369999Y-68879999D01*
X223346201Y-68908997D01*
X221613405Y-70641794D01*
X221584401Y-70665597D01*
X221552250Y-70704774D01*
X221489428Y-70781322D01*
X221425073Y-70901721D01*
X221418856Y-70913352D01*
X221375399Y-71056613D01*
X221364402Y-71168266D01*
X221364402Y-71168276D01*
X221360726Y-71205598D01*
X221364402Y-71242921D01*
X221364403Y-72197070D01*
X221360726Y-72234402D01*
X221364403Y-72271735D01*
X221375400Y-72383388D01*
X221380590Y-72400498D01*
X221418856Y-72526648D01*
X221489428Y-72658678D01*
X221546264Y-72727932D01*
X221584402Y-72774403D01*
X221613400Y-72798201D01*
X222850000Y-74034802D01*
X222850001Y-75196288D01*
X222806063Y-75240226D01*
X222692795Y-75409744D01*
X222614774Y-75598102D01*
X222575000Y-75798061D01*
X222575000Y-76001939D01*
X222614774Y-76201898D01*
X222692795Y-76390256D01*
X222806063Y-76559774D01*
X222850000Y-76603711D01*
X222850000Y-76895198D01*
X220509516Y-79235683D01*
X220515226Y-79221898D01*
X220555000Y-79021939D01*
X220555000Y-78818061D01*
X220515226Y-78618102D01*
X220437205Y-78429744D01*
X220323937Y-78260226D01*
X220179774Y-78116063D01*
X220010256Y-78002795D01*
X219821898Y-77924774D01*
X219621939Y-77885000D01*
X219559801Y-77885000D01*
X219550000Y-77875199D01*
X219550000Y-73593711D01*
X219593937Y-73549774D01*
X219707205Y-73380256D01*
X219785226Y-73191898D01*
X219825000Y-72991939D01*
X219825000Y-72788061D01*
X219785226Y-72588102D01*
X219707205Y-72399744D01*
X219593937Y-72230226D01*
X219449774Y-72086063D01*
X219280256Y-71972795D01*
X219204424Y-71941384D01*
X224294619Y-66851189D01*
X224325528Y-66825823D01*
X224391184Y-66745820D01*
X224426749Y-66702485D01*
X224501962Y-66561769D01*
X224501963Y-66561768D01*
X224548280Y-66409083D01*
X224560000Y-66290086D01*
X224560000Y-66290083D01*
X224563919Y-66250295D01*
X224560000Y-66210507D01*
X224560000Y-62350700D01*
X224667205Y-62190256D01*
X224745226Y-62001898D01*
X224785000Y-61801939D01*
X224785000Y-61598061D01*
X224745226Y-61398102D01*
X224667205Y-61209744D01*
X224560000Y-61049300D01*
X224560000Y-59750700D01*
X224667205Y-59590256D01*
X224745226Y-59401898D01*
X224785000Y-59201939D01*
X224785000Y-58998061D01*
X224745226Y-58798102D01*
X224667205Y-58609744D01*
X224553937Y-58440226D01*
X224409774Y-58296063D01*
X224240256Y-58182795D01*
X224051898Y-58104774D01*
X223862642Y-58067129D01*
X222246388Y-56450875D01*
X222426898Y-56414970D01*
X222615256Y-56336949D01*
X222784774Y-56223681D01*
X222828711Y-56179744D01*
X224244943Y-56179744D01*
X224326196Y-56260997D01*
G37*
G04 #@! TD.AperFunction*
D22*
X215167942Y-45461928D02*
X213600000Y-45461928D01*
X213475518Y-45474188D01*
X213355820Y-45510498D01*
X213245506Y-45569463D01*
X213148815Y-45648815D01*
X213069463Y-45745506D01*
X213010498Y-45855820D01*
X212974188Y-45975518D01*
X212961928Y-46100000D01*
X212961928Y-47100000D01*
X212974188Y-47224482D01*
X213010498Y-47344180D01*
X213069463Y-47454494D01*
X213148815Y-47551185D01*
X213245506Y-47630537D01*
X213355820Y-47689502D01*
X213475518Y-47725812D01*
X213600000Y-47738072D01*
X214513271Y-47738072D01*
X214940001Y-48164803D01*
X214940001Y-48663888D01*
X214735750Y-48665000D01*
X214577000Y-48823750D01*
X214577000Y-49673000D01*
X214597000Y-49673000D01*
X214597000Y-49927000D01*
X214577000Y-49927000D01*
X214577000Y-50776250D01*
X214735750Y-50935000D01*
X214940001Y-50936112D01*
X214940002Y-58662669D01*
X214936325Y-58700001D01*
X214940002Y-58737334D01*
X214950999Y-58848987D01*
X214958724Y-58874454D01*
X214994455Y-58992247D01*
X215065000Y-59124226D01*
X215065000Y-59201939D01*
X215104774Y-59401898D01*
X215182795Y-59590256D01*
X215296063Y-59759774D01*
X215440226Y-59903937D01*
X215609744Y-60017205D01*
X215798102Y-60095226D01*
X215866215Y-60108775D01*
X215879764Y-60176888D01*
X215957785Y-60365246D01*
X216071053Y-60534764D01*
X216084830Y-60548541D01*
X216053527Y-60558037D01*
X216033045Y-60568985D01*
X215912810Y-60633251D01*
X215865295Y-60672246D01*
X215789472Y-60734472D01*
X215764105Y-60765382D01*
X214767560Y-61761928D01*
X214249999Y-61761928D01*
X214076745Y-61778992D01*
X213910149Y-61829528D01*
X213756613Y-61911595D01*
X213622038Y-62022038D01*
X213511595Y-62156613D01*
X213429528Y-62310149D01*
X213378992Y-62476745D01*
X213361928Y-62649999D01*
X213361928Y-63550001D01*
X213378992Y-63723255D01*
X213429528Y-63889851D01*
X213511595Y-64043387D01*
X213622038Y-64177962D01*
X213756613Y-64288405D01*
X213910149Y-64370472D01*
X214056946Y-64415002D01*
X213238072Y-64415002D01*
X213238072Y-64400000D01*
X213225812Y-64275518D01*
X213189502Y-64155820D01*
X213130537Y-64045506D01*
X213051185Y-63948815D01*
X212954494Y-63869463D01*
X212844180Y-63810498D01*
X212724482Y-63774188D01*
X212600000Y-63761928D01*
X211636729Y-63761928D01*
X211188804Y-63314002D01*
X211165001Y-63284999D01*
X211049276Y-63190026D01*
X210917247Y-63119454D01*
X210773986Y-63075997D01*
X210662333Y-63065000D01*
X210662322Y-63065000D01*
X210625000Y-63061324D01*
X210587678Y-63065000D01*
X208403711Y-63065000D01*
X208359774Y-63021063D01*
X208190256Y-62907795D01*
X208001898Y-62829774D01*
X207801939Y-62790000D01*
X207598061Y-62790000D01*
X207398102Y-62829774D01*
X207209744Y-62907795D01*
X207040226Y-63021063D01*
X206896063Y-63165226D01*
X206782795Y-63334744D01*
X206750000Y-63413918D01*
X206717205Y-63334744D01*
X206603937Y-63165226D01*
X206459774Y-63021063D01*
X206290256Y-62907795D01*
X206101898Y-62829774D01*
X205901939Y-62790000D01*
X205698061Y-62790000D01*
X205498102Y-62829774D01*
X205309744Y-62907795D01*
X205140226Y-63021063D01*
X204996063Y-63165226D01*
X204958353Y-63221663D01*
X204903939Y-63140226D01*
X204875955Y-63112242D01*
X204888385Y-63103937D01*
X205032548Y-62959774D01*
X205145816Y-62790256D01*
X205223837Y-62601898D01*
X205263611Y-62401939D01*
X205263611Y-62198061D01*
X205253255Y-62145995D01*
X205323000Y-62076250D01*
X205323000Y-61227000D01*
X205303000Y-61227000D01*
X205303000Y-60973000D01*
X205323000Y-60973000D01*
X205323000Y-60953000D01*
X205577000Y-60953000D01*
X205577000Y-60973000D01*
X205597000Y-60973000D01*
X205597000Y-61227000D01*
X205577000Y-61227000D01*
X205577000Y-62076250D01*
X205735750Y-62235000D01*
X206300000Y-62238072D01*
X206424482Y-62225812D01*
X206544180Y-62189502D01*
X206654494Y-62130537D01*
X206751185Y-62051185D01*
X206830537Y-61954494D01*
X206843089Y-61931011D01*
X206998102Y-61995220D01*
X207198061Y-62034994D01*
X207401939Y-62034994D01*
X207601898Y-61995220D01*
X207790256Y-61917199D01*
X207959774Y-61803931D01*
X208103937Y-61659768D01*
X208143872Y-61600000D01*
X210261928Y-61600000D01*
X210274188Y-61724482D01*
X210310498Y-61844180D01*
X210369463Y-61954494D01*
X210448815Y-62051185D01*
X210545506Y-62130537D01*
X210655820Y-62189502D01*
X210775518Y-62225812D01*
X210900000Y-62238072D01*
X211464250Y-62235000D01*
X211623000Y-62076250D01*
X211623000Y-61227000D01*
X211877000Y-61227000D01*
X211877000Y-62076250D01*
X212035750Y-62235000D01*
X212600000Y-62238072D01*
X212724482Y-62225812D01*
X212844180Y-62189502D01*
X212954494Y-62130537D01*
X213051185Y-62051185D01*
X213130537Y-61954494D01*
X213189502Y-61844180D01*
X213225812Y-61724482D01*
X213238072Y-61600000D01*
X213235000Y-61385750D01*
X213076250Y-61227000D01*
X211877000Y-61227000D01*
X211623000Y-61227000D01*
X210423750Y-61227000D01*
X210265000Y-61385750D01*
X210261928Y-61600000D01*
X208143872Y-61600000D01*
X208217205Y-61490250D01*
X208295226Y-61301892D01*
X208335000Y-61101933D01*
X208335000Y-60898055D01*
X208295226Y-60698096D01*
X208237080Y-60557721D01*
X209455000Y-59339802D01*
X209455000Y-59491939D01*
X209494774Y-59691898D01*
X209572795Y-59880256D01*
X209686063Y-60049774D01*
X209830226Y-60193937D01*
X209999744Y-60307205D01*
X210188102Y-60385226D01*
X210295120Y-60406513D01*
X210274188Y-60475518D01*
X210261928Y-60600000D01*
X210265000Y-60814250D01*
X210423750Y-60973000D01*
X211623000Y-60973000D01*
X211623000Y-60123750D01*
X211877000Y-60123750D01*
X211877000Y-60973000D01*
X213076250Y-60973000D01*
X213235000Y-60814250D01*
X213238072Y-60600000D01*
X213225812Y-60475518D01*
X213189502Y-60355820D01*
X213130537Y-60245506D01*
X213051185Y-60148815D01*
X212954494Y-60069463D01*
X212844180Y-60010498D01*
X212724482Y-59974188D01*
X212600000Y-59961928D01*
X212035750Y-59965000D01*
X211877000Y-60123750D01*
X211623000Y-60123750D01*
X211464250Y-59965000D01*
X211350993Y-59964383D01*
X211407205Y-59880256D01*
X211485226Y-59691898D01*
X211525000Y-59491939D01*
X211525000Y-59288061D01*
X211485226Y-59088102D01*
X211407205Y-58899744D01*
X211293937Y-58730226D01*
X211149774Y-58586063D01*
X210980256Y-58472795D01*
X210791898Y-58394774D01*
X210690932Y-58374691D01*
X210725226Y-58291898D01*
X210765000Y-58091939D01*
X210765000Y-57888061D01*
X210725226Y-57688102D01*
X210647205Y-57499744D01*
X210533937Y-57330226D01*
X210389774Y-57186063D01*
X210220256Y-57072795D01*
X210031898Y-56994774D01*
X209910869Y-56970700D01*
X209935226Y-56911898D01*
X209975000Y-56711939D01*
X209975000Y-56508061D01*
X209935226Y-56308102D01*
X209857205Y-56119744D01*
X209743937Y-55950226D01*
X209599774Y-55806063D01*
X209430256Y-55692795D01*
X209241898Y-55614774D01*
X209083914Y-55583349D01*
X209105226Y-55531898D01*
X209145000Y-55331939D01*
X209145000Y-55128061D01*
X209105226Y-54928102D01*
X209027205Y-54739744D01*
X208913937Y-54570226D01*
X208769774Y-54426063D01*
X208600256Y-54312795D01*
X208411898Y-54234774D01*
X208317001Y-54215898D01*
X208335226Y-54171898D01*
X208375000Y-53971939D01*
X208375000Y-53768061D01*
X208335226Y-53568102D01*
X208257205Y-53379744D01*
X208143937Y-53210226D01*
X207999774Y-53066063D01*
X207830256Y-52952795D01*
X207641898Y-52874774D01*
X207513215Y-52849178D01*
X207545226Y-52771898D01*
X207585000Y-52571939D01*
X207585000Y-52368061D01*
X207545226Y-52168102D01*
X207467205Y-51979744D01*
X207353937Y-51810226D01*
X207209774Y-51666063D01*
X207040256Y-51552795D01*
X206851898Y-51474774D01*
X206651939Y-51435000D01*
X206448061Y-51435000D01*
X206248102Y-51474774D01*
X206059744Y-51552795D01*
X205890226Y-51666063D01*
X205746063Y-51810226D01*
X205632795Y-51979744D01*
X205554774Y-52168102D01*
X205515000Y-52368061D01*
X205515000Y-52430198D01*
X200505199Y-57440000D01*
X197173711Y-57440000D01*
X197129774Y-57396063D01*
X196960256Y-57282795D01*
X196771898Y-57204774D01*
X196571939Y-57165000D01*
X196368061Y-57165000D01*
X196168102Y-57204774D01*
X195979744Y-57282795D01*
X195810226Y-57396063D01*
X195666063Y-57540226D01*
X195552795Y-57709744D01*
X195474774Y-57898102D01*
X195435000Y-58098061D01*
X195435000Y-58301939D01*
X195474774Y-58501898D01*
X195552795Y-58690256D01*
X195666063Y-58859774D01*
X195810226Y-59003937D01*
X195979744Y-59117205D01*
X196168102Y-59195226D01*
X196316847Y-59224813D01*
X196294774Y-59278102D01*
X196255000Y-59478061D01*
X196255000Y-59681939D01*
X196294774Y-59881898D01*
X196372795Y-60070256D01*
X196486063Y-60239774D01*
X196630226Y-60383937D01*
X196799744Y-60497205D01*
X196988102Y-60575226D01*
X197127608Y-60602975D01*
X197104774Y-60658102D01*
X197065000Y-60858061D01*
X197065000Y-61061939D01*
X197104774Y-61261898D01*
X197182795Y-61450256D01*
X197296063Y-61619774D01*
X197440226Y-61763937D01*
X197609744Y-61877205D01*
X197798102Y-61955226D01*
X197906065Y-61976701D01*
X197884774Y-62028102D01*
X197845000Y-62228061D01*
X197845000Y-62431939D01*
X197884774Y-62631898D01*
X197962795Y-62820256D01*
X198076063Y-62989774D01*
X198220226Y-63133937D01*
X198389744Y-63247205D01*
X198578102Y-63325226D01*
X198697546Y-63348985D01*
X198664774Y-63428102D01*
X198625000Y-63628061D01*
X198625000Y-63831939D01*
X198664774Y-64031898D01*
X198742795Y-64220256D01*
X198856063Y-64389774D01*
X199000226Y-64533937D01*
X199169744Y-64647205D01*
X199358102Y-64725226D01*
X199523740Y-64758173D01*
X199494774Y-64828102D01*
X199455000Y-65028061D01*
X199455000Y-65231939D01*
X199494774Y-65431898D01*
X199572795Y-65620256D01*
X199686063Y-65789774D01*
X199830226Y-65933937D01*
X199999744Y-66047205D01*
X200188102Y-66125226D01*
X200388061Y-66165000D01*
X200591939Y-66165000D01*
X200791898Y-66125226D01*
X200980256Y-66047205D01*
X201149774Y-65933937D01*
X201193711Y-65890000D01*
X202732680Y-65890000D01*
X202770002Y-65893676D01*
X202807324Y-65890000D01*
X202807335Y-65890000D01*
X202918988Y-65879003D01*
X203062249Y-65835546D01*
X203194278Y-65764974D01*
X203310003Y-65670001D01*
X203333806Y-65640997D01*
X203961928Y-65012875D01*
X203961928Y-65400000D01*
X203974188Y-65524482D01*
X204010498Y-65644180D01*
X204069463Y-65754494D01*
X204148815Y-65851185D01*
X204245506Y-65930537D01*
X204355820Y-65989502D01*
X204475518Y-66025812D01*
X204600000Y-66038072D01*
X206300000Y-66038072D01*
X206424482Y-66025812D01*
X206544180Y-65989502D01*
X206654494Y-65930537D01*
X206751185Y-65851185D01*
X206830537Y-65754494D01*
X206889502Y-65644180D01*
X206925812Y-65524482D01*
X206938072Y-65400000D01*
X206938072Y-64526783D01*
X207040226Y-64628937D01*
X207209744Y-64742205D01*
X207398102Y-64820226D01*
X207598061Y-64860000D01*
X207801939Y-64860000D01*
X208001898Y-64820226D01*
X208190256Y-64742205D01*
X208359774Y-64628937D01*
X208403711Y-64585000D01*
X210261928Y-64585000D01*
X210261928Y-65400000D01*
X210274188Y-65524482D01*
X210310498Y-65644180D01*
X210369463Y-65754494D01*
X210448815Y-65851185D01*
X210545506Y-65930537D01*
X210655820Y-65989502D01*
X210775518Y-66025812D01*
X210900000Y-66038072D01*
X212600000Y-66038072D01*
X212724482Y-66025812D01*
X212844180Y-65989502D01*
X212946141Y-65935002D01*
X214687680Y-65935002D01*
X214725002Y-65938678D01*
X214762324Y-65935002D01*
X214762335Y-65935002D01*
X214830380Y-65928300D01*
X214804896Y-65989823D01*
X214765122Y-66189782D01*
X214765122Y-66230076D01*
X210639007Y-70356192D01*
X210638996Y-70356201D01*
X207878998Y-73116201D01*
X207869003Y-73126196D01*
X207839999Y-73149999D01*
X207807357Y-73189774D01*
X207745026Y-73265724D01*
X207708565Y-73333937D01*
X207674454Y-73397754D01*
X207630997Y-73541015D01*
X207620000Y-73652668D01*
X207620000Y-73652678D01*
X207616324Y-73690000D01*
X207620000Y-73727323D01*
X207620000Y-74066289D01*
X207576063Y-74110226D01*
X207462795Y-74279744D01*
X207399079Y-74433567D01*
X206710899Y-73745387D01*
X206685528Y-73714472D01*
X206562189Y-73613251D01*
X206421473Y-73538037D01*
X206268788Y-73491720D01*
X206149791Y-73480000D01*
X206149788Y-73480000D01*
X206110000Y-73476081D01*
X206108072Y-73476271D01*
X206108072Y-73290000D01*
X206095812Y-73165518D01*
X206059502Y-73045820D01*
X206000537Y-72935506D01*
X205921185Y-72838815D01*
X205824494Y-72759463D01*
X205714180Y-72700498D01*
X205594482Y-72664188D01*
X205540000Y-72658822D01*
X205540000Y-71789791D01*
X205543919Y-71750000D01*
X205528280Y-71591212D01*
X205481963Y-71438526D01*
X205406749Y-71297811D01*
X205395681Y-71284325D01*
X205305528Y-71174472D01*
X205274619Y-71149106D01*
X203890899Y-69765387D01*
X203865528Y-69734472D01*
X203742189Y-69633251D01*
X203732500Y-69628072D01*
X204320000Y-69628072D01*
X204444482Y-69615812D01*
X204564180Y-69579502D01*
X204674494Y-69520537D01*
X204771185Y-69441185D01*
X204850537Y-69344494D01*
X204909502Y-69234180D01*
X204945812Y-69114482D01*
X204958072Y-68990000D01*
X204958072Y-66990000D01*
X204945812Y-66865518D01*
X204909502Y-66745820D01*
X204850537Y-66635506D01*
X204771185Y-66538815D01*
X204674494Y-66459463D01*
X204564180Y-66400498D01*
X204444482Y-66364188D01*
X204320000Y-66351928D01*
X200520000Y-66351928D01*
X200395518Y-66364188D01*
X200275820Y-66400498D01*
X200165506Y-66459463D01*
X200068815Y-66538815D01*
X199989463Y-66635506D01*
X199930498Y-66745820D01*
X199894188Y-66865518D01*
X199881928Y-66990000D01*
X199881928Y-68990000D01*
X199894188Y-69114482D01*
X199930498Y-69234180D01*
X199989463Y-69344494D01*
X200068815Y-69441185D01*
X200140482Y-69500000D01*
X198789788Y-69500000D01*
X198750000Y-69496081D01*
X198710212Y-69500000D01*
X198710209Y-69500000D01*
X198591212Y-69511720D01*
X198474063Y-69547257D01*
X198438526Y-69558037D01*
X198311001Y-69626201D01*
X198297811Y-69633251D01*
X198174472Y-69734472D01*
X198149105Y-69765382D01*
X195530253Y-72384235D01*
X195501185Y-72348815D01*
X195404494Y-72269463D01*
X195294180Y-72210498D01*
X195174482Y-72174188D01*
X195050000Y-72161928D01*
X192550000Y-72161928D01*
X192425518Y-72174188D01*
X192305820Y-72210498D01*
X192235000Y-72248353D01*
X192235000Y-72033288D01*
X192216829Y-71941934D01*
X192305820Y-71989502D01*
X192425518Y-72025812D01*
X192550000Y-72038072D01*
X195050000Y-72038072D01*
X195174482Y-72025812D01*
X195294180Y-71989502D01*
X195404494Y-71930537D01*
X195501185Y-71851185D01*
X195580537Y-71754494D01*
X195639502Y-71644180D01*
X195675812Y-71524482D01*
X195688072Y-71400000D01*
X195688072Y-70300000D01*
X195675812Y-70175518D01*
X195639502Y-70055820D01*
X195580537Y-69945506D01*
X195502158Y-69850000D01*
X195580537Y-69754494D01*
X195639502Y-69644180D01*
X195675812Y-69524482D01*
X195688072Y-69400000D01*
X195688072Y-68300000D01*
X195675812Y-68175518D01*
X195639502Y-68055820D01*
X195580537Y-67945506D01*
X195501185Y-67848815D01*
X195404494Y-67769463D01*
X195294180Y-67710498D01*
X195174482Y-67674188D01*
X195050000Y-67661928D01*
X192550000Y-67661928D01*
X192425518Y-67674188D01*
X192305820Y-67710498D01*
X192216829Y-67758066D01*
X192235000Y-67666712D01*
X192235000Y-67451647D01*
X192305820Y-67489502D01*
X192425518Y-67525812D01*
X192550000Y-67538072D01*
X193514250Y-67535000D01*
X193673000Y-67376250D01*
X193673000Y-66477000D01*
X193927000Y-66477000D01*
X193927000Y-67376250D01*
X194085750Y-67535000D01*
X195050000Y-67538072D01*
X195174482Y-67525812D01*
X195294180Y-67489502D01*
X195404494Y-67430537D01*
X195501185Y-67351185D01*
X195580537Y-67254494D01*
X195639502Y-67144180D01*
X195675812Y-67024482D01*
X195688072Y-66900000D01*
X195685000Y-66635750D01*
X195526250Y-66477000D01*
X193927000Y-66477000D01*
X193673000Y-66477000D01*
X192073750Y-66477000D01*
X191915000Y-66635750D01*
X191913812Y-66737968D01*
X191805394Y-66629550D01*
X191611308Y-66499866D01*
X191395652Y-66410539D01*
X191166712Y-66365000D01*
X190933288Y-66365000D01*
X190704348Y-66410539D01*
X190488692Y-66499866D01*
X190294606Y-66629550D01*
X190129550Y-66794606D01*
X189999866Y-66988692D01*
X189910539Y-67204348D01*
X189865000Y-67433288D01*
X189865000Y-67666712D01*
X189910539Y-67895652D01*
X189999866Y-68111308D01*
X190129550Y-68305394D01*
X190294606Y-68470450D01*
X190488692Y-68600134D01*
X190704348Y-68689461D01*
X190933288Y-68735000D01*
X191166712Y-68735000D01*
X191395652Y-68689461D01*
X191611308Y-68600134D01*
X191805394Y-68470450D01*
X191911928Y-68363916D01*
X191911928Y-69400000D01*
X191924188Y-69524482D01*
X191960498Y-69644180D01*
X192019463Y-69754494D01*
X192097842Y-69850000D01*
X192019463Y-69945506D01*
X191960498Y-70055820D01*
X191924188Y-70175518D01*
X191911928Y-70300000D01*
X191911928Y-71336084D01*
X191805394Y-71229550D01*
X191611308Y-71099866D01*
X191395652Y-71010539D01*
X191166712Y-70965000D01*
X190933288Y-70965000D01*
X190704348Y-71010539D01*
X190488692Y-71099866D01*
X190294606Y-71229550D01*
X190129550Y-71394606D01*
X189999866Y-71588692D01*
X189910539Y-71804348D01*
X189865000Y-72033288D01*
X189865000Y-72266712D01*
X189910539Y-72495652D01*
X189999866Y-72711308D01*
X190129550Y-72905394D01*
X190294606Y-73070450D01*
X190488692Y-73200134D01*
X190704348Y-73289461D01*
X190933288Y-73335000D01*
X191166712Y-73335000D01*
X191395652Y-73289461D01*
X191611308Y-73200134D01*
X191805394Y-73070450D01*
X191911928Y-72963916D01*
X191911928Y-73900000D01*
X191918330Y-73965000D01*
X190172136Y-73965000D01*
X189939286Y-73987934D01*
X189640512Y-74078566D01*
X189365161Y-74225744D01*
X189123813Y-74423813D01*
X188925744Y-74665161D01*
X188865436Y-74777989D01*
X188865436Y-64922011D01*
X188925744Y-65034839D01*
X189123813Y-65276187D01*
X189365161Y-65474256D01*
X189640512Y-65621434D01*
X189939286Y-65712066D01*
X190172136Y-65735000D01*
X191918330Y-65735000D01*
X191911928Y-65800000D01*
X191915000Y-66064250D01*
X192073750Y-66223000D01*
X193673000Y-66223000D01*
X193673000Y-65323750D01*
X193927000Y-65323750D01*
X193927000Y-66223000D01*
X195526250Y-66223000D01*
X195685000Y-66064250D01*
X195688072Y-65800000D01*
X195675812Y-65675518D01*
X195639502Y-65555820D01*
X195580537Y-65445506D01*
X195501185Y-65348815D01*
X195404494Y-65269463D01*
X195294180Y-65210498D01*
X195174482Y-65174188D01*
X195050000Y-65161928D01*
X194085750Y-65165000D01*
X193927000Y-65323750D01*
X193673000Y-65323750D01*
X193514250Y-65165000D01*
X193068601Y-65163580D01*
X193174256Y-65034839D01*
X193321434Y-64759488D01*
X193412066Y-64460714D01*
X193442669Y-64150000D01*
X193412066Y-63839286D01*
X193321434Y-63540512D01*
X193174256Y-63265161D01*
X193069471Y-63137480D01*
X193400000Y-63138072D01*
X193524482Y-63125812D01*
X193644180Y-63089502D01*
X193754494Y-63030537D01*
X193851185Y-62951185D01*
X193930537Y-62854494D01*
X193989502Y-62744180D01*
X194025812Y-62624482D01*
X194038072Y-62500000D01*
X194035000Y-61785750D01*
X193876250Y-61627000D01*
X191527000Y-61627000D01*
X191527000Y-61647000D01*
X191273000Y-61647000D01*
X191273000Y-61627000D01*
X191253000Y-61627000D01*
X191253000Y-61373000D01*
X191273000Y-61373000D01*
X191273000Y-60023750D01*
X191527000Y-60023750D01*
X191527000Y-61373000D01*
X193876250Y-61373000D01*
X194035000Y-61214250D01*
X194038072Y-60500000D01*
X194025812Y-60375518D01*
X193989502Y-60255820D01*
X193930537Y-60145506D01*
X193851185Y-60048815D01*
X193754494Y-59969463D01*
X193644180Y-59910498D01*
X193524482Y-59874188D01*
X193400000Y-59861928D01*
X191685750Y-59865000D01*
X191527000Y-60023750D01*
X191273000Y-60023750D01*
X191114250Y-59865000D01*
X189400000Y-59861928D01*
X189275518Y-59874188D01*
X189155820Y-59910498D01*
X189045506Y-59969463D01*
X188948815Y-60048815D01*
X188869463Y-60145506D01*
X188865436Y-60153040D01*
X188865436Y-56758722D01*
X196481000Y-52361874D01*
X196384305Y-52506589D01*
X196272363Y-52776842D01*
X196215295Y-53063740D01*
X196215295Y-53356260D01*
X196272363Y-53643158D01*
X196384305Y-53913411D01*
X196546820Y-54156632D01*
X196753663Y-54363475D01*
X196996884Y-54525990D01*
X197267137Y-54637932D01*
X197554035Y-54695000D01*
X197846555Y-54695000D01*
X198133453Y-54637932D01*
X198403706Y-54525990D01*
X198646927Y-54363475D01*
X198853770Y-54156632D01*
X199016285Y-53913411D01*
X199128227Y-53643158D01*
X199185295Y-53356260D01*
X199185295Y-53248444D01*
X199196589Y-53255990D01*
X199466842Y-53367932D01*
X199753740Y-53425000D01*
X200046260Y-53425000D01*
X200333158Y-53367932D01*
X200603411Y-53255990D01*
X200846632Y-53093475D01*
X201053475Y-52886632D01*
X201215990Y-52643411D01*
X201327932Y-52373158D01*
X201385000Y-52086260D01*
X201385000Y-51963564D01*
X201505327Y-52030865D01*
X201782240Y-52120674D01*
X202071352Y-52154733D01*
X202361554Y-52131735D01*
X202511366Y-52096800D01*
X202649796Y-51876788D01*
X202053219Y-50843485D01*
X202035898Y-50853485D01*
X201908898Y-50633515D01*
X201926219Y-50623515D01*
X201916219Y-50606194D01*
X202136189Y-50479194D01*
X202146189Y-50496515D01*
X202163510Y-50486515D01*
X202290510Y-50706485D01*
X202273189Y-50716485D01*
X202869767Y-51749788D01*
X203129518Y-51739910D01*
X203234679Y-51627636D01*
X203399697Y-51387813D01*
X203514756Y-51120405D01*
X203538344Y-51009728D01*
X203599853Y-51067338D01*
X203706075Y-51133391D01*
X203823142Y-51177452D01*
X203946555Y-51197828D01*
X204071572Y-51193735D01*
X204193388Y-51165332D01*
X204307323Y-51113709D01*
X205779567Y-50263709D01*
X205881241Y-50190850D01*
X205966747Y-50099556D01*
X206032800Y-49993334D01*
X206076861Y-49876267D01*
X206097237Y-49752854D01*
X206093144Y-49627837D01*
X206064741Y-49506021D01*
X206013118Y-49392086D01*
X205959953Y-49300000D01*
X207661928Y-49300000D01*
X207661928Y-50300000D01*
X207674188Y-50424482D01*
X207710498Y-50544180D01*
X207769463Y-50654494D01*
X207848815Y-50751185D01*
X207945506Y-50830537D01*
X208055820Y-50889502D01*
X208175518Y-50925812D01*
X208300000Y-50938072D01*
X210000000Y-50938072D01*
X210124482Y-50925812D01*
X210244180Y-50889502D01*
X210354494Y-50830537D01*
X210451185Y-50751185D01*
X210530537Y-50654494D01*
X210589502Y-50544180D01*
X210625812Y-50424482D01*
X210638072Y-50300000D01*
X212961928Y-50300000D01*
X212974188Y-50424482D01*
X213010498Y-50544180D01*
X213069463Y-50654494D01*
X213148815Y-50751185D01*
X213245506Y-50830537D01*
X213355820Y-50889502D01*
X213475518Y-50925812D01*
X213600000Y-50938072D01*
X214164250Y-50935000D01*
X214323000Y-50776250D01*
X214323000Y-49927000D01*
X213123750Y-49927000D01*
X212965000Y-50085750D01*
X212961928Y-50300000D01*
X210638072Y-50300000D01*
X210638072Y-49300000D01*
X212961928Y-49300000D01*
X212965000Y-49514250D01*
X213123750Y-49673000D01*
X214323000Y-49673000D01*
X214323000Y-48823750D01*
X214164250Y-48665000D01*
X213600000Y-48661928D01*
X213475518Y-48674188D01*
X213355820Y-48710498D01*
X213245506Y-48769463D01*
X213148815Y-48848815D01*
X213069463Y-48945506D01*
X213010498Y-49055820D01*
X212974188Y-49175518D01*
X212961928Y-49300000D01*
X210638072Y-49300000D01*
X210625812Y-49175518D01*
X210589502Y-49055820D01*
X210530537Y-48945506D01*
X210451185Y-48848815D01*
X210354494Y-48769463D01*
X210244180Y-48710498D01*
X210124482Y-48674188D01*
X210000000Y-48661928D01*
X208300000Y-48661928D01*
X208175518Y-48674188D01*
X208055820Y-48710498D01*
X207945506Y-48769463D01*
X207848815Y-48848815D01*
X207769463Y-48945506D01*
X207710498Y-49055820D01*
X207674188Y-49175518D01*
X207661928Y-49300000D01*
X205959953Y-49300000D01*
X205163118Y-47919842D01*
X205090259Y-47818168D01*
X204998965Y-47732662D01*
X204892743Y-47666609D01*
X204775676Y-47622548D01*
X204708862Y-47611517D01*
X207702149Y-45883342D01*
X207674188Y-45975518D01*
X207661928Y-46100000D01*
X207661928Y-47100000D01*
X207674188Y-47224482D01*
X207710498Y-47344180D01*
X207769463Y-47454494D01*
X207848815Y-47551185D01*
X207945506Y-47630537D01*
X208055820Y-47689502D01*
X208175518Y-47725812D01*
X208300000Y-47738072D01*
X210000000Y-47738072D01*
X210124482Y-47725812D01*
X210244180Y-47689502D01*
X210354494Y-47630537D01*
X210451185Y-47551185D01*
X210530537Y-47454494D01*
X210589502Y-47344180D01*
X210625812Y-47224482D01*
X210638072Y-47100000D01*
X210638072Y-47047440D01*
X211152641Y-46532871D01*
X211341898Y-46495226D01*
X211530256Y-46417205D01*
X211699774Y-46303937D01*
X211843937Y-46159774D01*
X211957205Y-45990256D01*
X212035226Y-45801898D01*
X212075000Y-45601939D01*
X212075000Y-45398061D01*
X212035226Y-45198102D01*
X211957205Y-45009744D01*
X211843937Y-44840226D01*
X211699774Y-44696063D01*
X211530256Y-44582795D01*
X211341898Y-44504774D01*
X211141939Y-44465000D01*
X210938061Y-44465000D01*
X210738102Y-44504774D01*
X210549744Y-44582795D01*
X210380226Y-44696063D01*
X210236063Y-44840226D01*
X210122795Y-45009744D01*
X210044774Y-45198102D01*
X210007129Y-45387359D01*
X209932559Y-45461928D01*
X208432059Y-45461928D01*
X211800001Y-43517446D01*
X215167942Y-45461928D01*
G04 #@! TA.AperFunction,Conductor*
D23*
G36*
X215167942Y-45461928D02*
G01*
X213600000Y-45461928D01*
X213475518Y-45474188D01*
X213355820Y-45510498D01*
X213245506Y-45569463D01*
X213148815Y-45648815D01*
X213069463Y-45745506D01*
X213010498Y-45855820D01*
X212974188Y-45975518D01*
X212961928Y-46100000D01*
X212961928Y-47100000D01*
X212974188Y-47224482D01*
X213010498Y-47344180D01*
X213069463Y-47454494D01*
X213148815Y-47551185D01*
X213245506Y-47630537D01*
X213355820Y-47689502D01*
X213475518Y-47725812D01*
X213600000Y-47738072D01*
X214513271Y-47738072D01*
X214940001Y-48164803D01*
X214940001Y-48663888D01*
X214735750Y-48665000D01*
X214577000Y-48823750D01*
X214577000Y-49673000D01*
X214597000Y-49673000D01*
X214597000Y-49927000D01*
X214577000Y-49927000D01*
X214577000Y-50776250D01*
X214735750Y-50935000D01*
X214940001Y-50936112D01*
X214940002Y-58662669D01*
X214936325Y-58700001D01*
X214940002Y-58737334D01*
X214950999Y-58848987D01*
X214958724Y-58874454D01*
X214994455Y-58992247D01*
X215065000Y-59124226D01*
X215065000Y-59201939D01*
X215104774Y-59401898D01*
X215182795Y-59590256D01*
X215296063Y-59759774D01*
X215440226Y-59903937D01*
X215609744Y-60017205D01*
X215798102Y-60095226D01*
X215866215Y-60108775D01*
X215879764Y-60176888D01*
X215957785Y-60365246D01*
X216071053Y-60534764D01*
X216084830Y-60548541D01*
X216053527Y-60558037D01*
X216033045Y-60568985D01*
X215912810Y-60633251D01*
X215865295Y-60672246D01*
X215789472Y-60734472D01*
X215764105Y-60765382D01*
X214767560Y-61761928D01*
X214249999Y-61761928D01*
X214076745Y-61778992D01*
X213910149Y-61829528D01*
X213756613Y-61911595D01*
X213622038Y-62022038D01*
X213511595Y-62156613D01*
X213429528Y-62310149D01*
X213378992Y-62476745D01*
X213361928Y-62649999D01*
X213361928Y-63550001D01*
X213378992Y-63723255D01*
X213429528Y-63889851D01*
X213511595Y-64043387D01*
X213622038Y-64177962D01*
X213756613Y-64288405D01*
X213910149Y-64370472D01*
X214056946Y-64415002D01*
X213238072Y-64415002D01*
X213238072Y-64400000D01*
X213225812Y-64275518D01*
X213189502Y-64155820D01*
X213130537Y-64045506D01*
X213051185Y-63948815D01*
X212954494Y-63869463D01*
X212844180Y-63810498D01*
X212724482Y-63774188D01*
X212600000Y-63761928D01*
X211636729Y-63761928D01*
X211188804Y-63314002D01*
X211165001Y-63284999D01*
X211049276Y-63190026D01*
X210917247Y-63119454D01*
X210773986Y-63075997D01*
X210662333Y-63065000D01*
X210662322Y-63065000D01*
X210625000Y-63061324D01*
X210587678Y-63065000D01*
X208403711Y-63065000D01*
X208359774Y-63021063D01*
X208190256Y-62907795D01*
X208001898Y-62829774D01*
X207801939Y-62790000D01*
X207598061Y-62790000D01*
X207398102Y-62829774D01*
X207209744Y-62907795D01*
X207040226Y-63021063D01*
X206896063Y-63165226D01*
X206782795Y-63334744D01*
X206750000Y-63413918D01*
X206717205Y-63334744D01*
X206603937Y-63165226D01*
X206459774Y-63021063D01*
X206290256Y-62907795D01*
X206101898Y-62829774D01*
X205901939Y-62790000D01*
X205698061Y-62790000D01*
X205498102Y-62829774D01*
X205309744Y-62907795D01*
X205140226Y-63021063D01*
X204996063Y-63165226D01*
X204958353Y-63221663D01*
X204903939Y-63140226D01*
X204875955Y-63112242D01*
X204888385Y-63103937D01*
X205032548Y-62959774D01*
X205145816Y-62790256D01*
X205223837Y-62601898D01*
X205263611Y-62401939D01*
X205263611Y-62198061D01*
X205253255Y-62145995D01*
X205323000Y-62076250D01*
X205323000Y-61227000D01*
X205303000Y-61227000D01*
X205303000Y-60973000D01*
X205323000Y-60973000D01*
X205323000Y-60953000D01*
X205577000Y-60953000D01*
X205577000Y-60973000D01*
X205597000Y-60973000D01*
X205597000Y-61227000D01*
X205577000Y-61227000D01*
X205577000Y-62076250D01*
X205735750Y-62235000D01*
X206300000Y-62238072D01*
X206424482Y-62225812D01*
X206544180Y-62189502D01*
X206654494Y-62130537D01*
X206751185Y-62051185D01*
X206830537Y-61954494D01*
X206843089Y-61931011D01*
X206998102Y-61995220D01*
X207198061Y-62034994D01*
X207401939Y-62034994D01*
X207601898Y-61995220D01*
X207790256Y-61917199D01*
X207959774Y-61803931D01*
X208103937Y-61659768D01*
X208143872Y-61600000D01*
X210261928Y-61600000D01*
X210274188Y-61724482D01*
X210310498Y-61844180D01*
X210369463Y-61954494D01*
X210448815Y-62051185D01*
X210545506Y-62130537D01*
X210655820Y-62189502D01*
X210775518Y-62225812D01*
X210900000Y-62238072D01*
X211464250Y-62235000D01*
X211623000Y-62076250D01*
X211623000Y-61227000D01*
X211877000Y-61227000D01*
X211877000Y-62076250D01*
X212035750Y-62235000D01*
X212600000Y-62238072D01*
X212724482Y-62225812D01*
X212844180Y-62189502D01*
X212954494Y-62130537D01*
X213051185Y-62051185D01*
X213130537Y-61954494D01*
X213189502Y-61844180D01*
X213225812Y-61724482D01*
X213238072Y-61600000D01*
X213235000Y-61385750D01*
X213076250Y-61227000D01*
X211877000Y-61227000D01*
X211623000Y-61227000D01*
X210423750Y-61227000D01*
X210265000Y-61385750D01*
X210261928Y-61600000D01*
X208143872Y-61600000D01*
X208217205Y-61490250D01*
X208295226Y-61301892D01*
X208335000Y-61101933D01*
X208335000Y-60898055D01*
X208295226Y-60698096D01*
X208237080Y-60557721D01*
X209455000Y-59339802D01*
X209455000Y-59491939D01*
X209494774Y-59691898D01*
X209572795Y-59880256D01*
X209686063Y-60049774D01*
X209830226Y-60193937D01*
X209999744Y-60307205D01*
X210188102Y-60385226D01*
X210295120Y-60406513D01*
X210274188Y-60475518D01*
X210261928Y-60600000D01*
X210265000Y-60814250D01*
X210423750Y-60973000D01*
X211623000Y-60973000D01*
X211623000Y-60123750D01*
X211877000Y-60123750D01*
X211877000Y-60973000D01*
X213076250Y-60973000D01*
X213235000Y-60814250D01*
X213238072Y-60600000D01*
X213225812Y-60475518D01*
X213189502Y-60355820D01*
X213130537Y-60245506D01*
X213051185Y-60148815D01*
X212954494Y-60069463D01*
X212844180Y-60010498D01*
X212724482Y-59974188D01*
X212600000Y-59961928D01*
X212035750Y-59965000D01*
X211877000Y-60123750D01*
X211623000Y-60123750D01*
X211464250Y-59965000D01*
X211350993Y-59964383D01*
X211407205Y-59880256D01*
X211485226Y-59691898D01*
X211525000Y-59491939D01*
X211525000Y-59288061D01*
X211485226Y-59088102D01*
X211407205Y-58899744D01*
X211293937Y-58730226D01*
X211149774Y-58586063D01*
X210980256Y-58472795D01*
X210791898Y-58394774D01*
X210690932Y-58374691D01*
X210725226Y-58291898D01*
X210765000Y-58091939D01*
X210765000Y-57888061D01*
X210725226Y-57688102D01*
X210647205Y-57499744D01*
X210533937Y-57330226D01*
X210389774Y-57186063D01*
X210220256Y-57072795D01*
X210031898Y-56994774D01*
X209910869Y-56970700D01*
X209935226Y-56911898D01*
X209975000Y-56711939D01*
X209975000Y-56508061D01*
X209935226Y-56308102D01*
X209857205Y-56119744D01*
X209743937Y-55950226D01*
X209599774Y-55806063D01*
X209430256Y-55692795D01*
X209241898Y-55614774D01*
X209083914Y-55583349D01*
X209105226Y-55531898D01*
X209145000Y-55331939D01*
X209145000Y-55128061D01*
X209105226Y-54928102D01*
X209027205Y-54739744D01*
X208913937Y-54570226D01*
X208769774Y-54426063D01*
X208600256Y-54312795D01*
X208411898Y-54234774D01*
X208317001Y-54215898D01*
X208335226Y-54171898D01*
X208375000Y-53971939D01*
X208375000Y-53768061D01*
X208335226Y-53568102D01*
X208257205Y-53379744D01*
X208143937Y-53210226D01*
X207999774Y-53066063D01*
X207830256Y-52952795D01*
X207641898Y-52874774D01*
X207513215Y-52849178D01*
X207545226Y-52771898D01*
X207585000Y-52571939D01*
X207585000Y-52368061D01*
X207545226Y-52168102D01*
X207467205Y-51979744D01*
X207353937Y-51810226D01*
X207209774Y-51666063D01*
X207040256Y-51552795D01*
X206851898Y-51474774D01*
X206651939Y-51435000D01*
X206448061Y-51435000D01*
X206248102Y-51474774D01*
X206059744Y-51552795D01*
X205890226Y-51666063D01*
X205746063Y-51810226D01*
X205632795Y-51979744D01*
X205554774Y-52168102D01*
X205515000Y-52368061D01*
X205515000Y-52430198D01*
X200505199Y-57440000D01*
X197173711Y-57440000D01*
X197129774Y-57396063D01*
X196960256Y-57282795D01*
X196771898Y-57204774D01*
X196571939Y-57165000D01*
X196368061Y-57165000D01*
X196168102Y-57204774D01*
X195979744Y-57282795D01*
X195810226Y-57396063D01*
X195666063Y-57540226D01*
X195552795Y-57709744D01*
X195474774Y-57898102D01*
X195435000Y-58098061D01*
X195435000Y-58301939D01*
X195474774Y-58501898D01*
X195552795Y-58690256D01*
X195666063Y-58859774D01*
X195810226Y-59003937D01*
X195979744Y-59117205D01*
X196168102Y-59195226D01*
X196316847Y-59224813D01*
X196294774Y-59278102D01*
X196255000Y-59478061D01*
X196255000Y-59681939D01*
X196294774Y-59881898D01*
X196372795Y-60070256D01*
X196486063Y-60239774D01*
X196630226Y-60383937D01*
X196799744Y-60497205D01*
X196988102Y-60575226D01*
X197127608Y-60602975D01*
X197104774Y-60658102D01*
X197065000Y-60858061D01*
X197065000Y-61061939D01*
X197104774Y-61261898D01*
X197182795Y-61450256D01*
X197296063Y-61619774D01*
X197440226Y-61763937D01*
X197609744Y-61877205D01*
X197798102Y-61955226D01*
X197906065Y-61976701D01*
X197884774Y-62028102D01*
X197845000Y-62228061D01*
X197845000Y-62431939D01*
X197884774Y-62631898D01*
X197962795Y-62820256D01*
X198076063Y-62989774D01*
X198220226Y-63133937D01*
X198389744Y-63247205D01*
X198578102Y-63325226D01*
X198697546Y-63348985D01*
X198664774Y-63428102D01*
X198625000Y-63628061D01*
X198625000Y-63831939D01*
X198664774Y-64031898D01*
X198742795Y-64220256D01*
X198856063Y-64389774D01*
X199000226Y-64533937D01*
X199169744Y-64647205D01*
X199358102Y-64725226D01*
X199523740Y-64758173D01*
X199494774Y-64828102D01*
X199455000Y-65028061D01*
X199455000Y-65231939D01*
X199494774Y-65431898D01*
X199572795Y-65620256D01*
X199686063Y-65789774D01*
X199830226Y-65933937D01*
X199999744Y-66047205D01*
X200188102Y-66125226D01*
X200388061Y-66165000D01*
X200591939Y-66165000D01*
X200791898Y-66125226D01*
X200980256Y-66047205D01*
X201149774Y-65933937D01*
X201193711Y-65890000D01*
X202732680Y-65890000D01*
X202770002Y-65893676D01*
X202807324Y-65890000D01*
X202807335Y-65890000D01*
X202918988Y-65879003D01*
X203062249Y-65835546D01*
X203194278Y-65764974D01*
X203310003Y-65670001D01*
X203333806Y-65640997D01*
X203961928Y-65012875D01*
X203961928Y-65400000D01*
X203974188Y-65524482D01*
X204010498Y-65644180D01*
X204069463Y-65754494D01*
X204148815Y-65851185D01*
X204245506Y-65930537D01*
X204355820Y-65989502D01*
X204475518Y-66025812D01*
X204600000Y-66038072D01*
X206300000Y-66038072D01*
X206424482Y-66025812D01*
X206544180Y-65989502D01*
X206654494Y-65930537D01*
X206751185Y-65851185D01*
X206830537Y-65754494D01*
X206889502Y-65644180D01*
X206925812Y-65524482D01*
X206938072Y-65400000D01*
X206938072Y-64526783D01*
X207040226Y-64628937D01*
X207209744Y-64742205D01*
X207398102Y-64820226D01*
X207598061Y-64860000D01*
X207801939Y-64860000D01*
X208001898Y-64820226D01*
X208190256Y-64742205D01*
X208359774Y-64628937D01*
X208403711Y-64585000D01*
X210261928Y-64585000D01*
X210261928Y-65400000D01*
X210274188Y-65524482D01*
X210310498Y-65644180D01*
X210369463Y-65754494D01*
X210448815Y-65851185D01*
X210545506Y-65930537D01*
X210655820Y-65989502D01*
X210775518Y-66025812D01*
X210900000Y-66038072D01*
X212600000Y-66038072D01*
X212724482Y-66025812D01*
X212844180Y-65989502D01*
X212946141Y-65935002D01*
X214687680Y-65935002D01*
X214725002Y-65938678D01*
X214762324Y-65935002D01*
X214762335Y-65935002D01*
X214830380Y-65928300D01*
X214804896Y-65989823D01*
X214765122Y-66189782D01*
X214765122Y-66230076D01*
X210639007Y-70356192D01*
X210638996Y-70356201D01*
X207878998Y-73116201D01*
X207869003Y-73126196D01*
X207839999Y-73149999D01*
X207807357Y-73189774D01*
X207745026Y-73265724D01*
X207708565Y-73333937D01*
X207674454Y-73397754D01*
X207630997Y-73541015D01*
X207620000Y-73652668D01*
X207620000Y-73652678D01*
X207616324Y-73690000D01*
X207620000Y-73727323D01*
X207620000Y-74066289D01*
X207576063Y-74110226D01*
X207462795Y-74279744D01*
X207399079Y-74433567D01*
X206710899Y-73745387D01*
X206685528Y-73714472D01*
X206562189Y-73613251D01*
X206421473Y-73538037D01*
X206268788Y-73491720D01*
X206149791Y-73480000D01*
X206149788Y-73480000D01*
X206110000Y-73476081D01*
X206108072Y-73476271D01*
X206108072Y-73290000D01*
X206095812Y-73165518D01*
X206059502Y-73045820D01*
X206000537Y-72935506D01*
X205921185Y-72838815D01*
X205824494Y-72759463D01*
X205714180Y-72700498D01*
X205594482Y-72664188D01*
X205540000Y-72658822D01*
X205540000Y-71789791D01*
X205543919Y-71750000D01*
X205528280Y-71591212D01*
X205481963Y-71438526D01*
X205406749Y-71297811D01*
X205395681Y-71284325D01*
X205305528Y-71174472D01*
X205274619Y-71149106D01*
X203890899Y-69765387D01*
X203865528Y-69734472D01*
X203742189Y-69633251D01*
X203732500Y-69628072D01*
X204320000Y-69628072D01*
X204444482Y-69615812D01*
X204564180Y-69579502D01*
X204674494Y-69520537D01*
X204771185Y-69441185D01*
X204850537Y-69344494D01*
X204909502Y-69234180D01*
X204945812Y-69114482D01*
X204958072Y-68990000D01*
X204958072Y-66990000D01*
X204945812Y-66865518D01*
X204909502Y-66745820D01*
X204850537Y-66635506D01*
X204771185Y-66538815D01*
X204674494Y-66459463D01*
X204564180Y-66400498D01*
X204444482Y-66364188D01*
X204320000Y-66351928D01*
X200520000Y-66351928D01*
X200395518Y-66364188D01*
X200275820Y-66400498D01*
X200165506Y-66459463D01*
X200068815Y-66538815D01*
X199989463Y-66635506D01*
X199930498Y-66745820D01*
X199894188Y-66865518D01*
X199881928Y-66990000D01*
X199881928Y-68990000D01*
X199894188Y-69114482D01*
X199930498Y-69234180D01*
X199989463Y-69344494D01*
X200068815Y-69441185D01*
X200140482Y-69500000D01*
X198789788Y-69500000D01*
X198750000Y-69496081D01*
X198710212Y-69500000D01*
X198710209Y-69500000D01*
X198591212Y-69511720D01*
X198474063Y-69547257D01*
X198438526Y-69558037D01*
X198311001Y-69626201D01*
X198297811Y-69633251D01*
X198174472Y-69734472D01*
X198149105Y-69765382D01*
X195530253Y-72384235D01*
X195501185Y-72348815D01*
X195404494Y-72269463D01*
X195294180Y-72210498D01*
X195174482Y-72174188D01*
X195050000Y-72161928D01*
X192550000Y-72161928D01*
X192425518Y-72174188D01*
X192305820Y-72210498D01*
X192235000Y-72248353D01*
X192235000Y-72033288D01*
X192216829Y-71941934D01*
X192305820Y-71989502D01*
X192425518Y-72025812D01*
X192550000Y-72038072D01*
X195050000Y-72038072D01*
X195174482Y-72025812D01*
X195294180Y-71989502D01*
X195404494Y-71930537D01*
X195501185Y-71851185D01*
X195580537Y-71754494D01*
X195639502Y-71644180D01*
X195675812Y-71524482D01*
X195688072Y-71400000D01*
X195688072Y-70300000D01*
X195675812Y-70175518D01*
X195639502Y-70055820D01*
X195580537Y-69945506D01*
X195502158Y-69850000D01*
X195580537Y-69754494D01*
X195639502Y-69644180D01*
X195675812Y-69524482D01*
X195688072Y-69400000D01*
X195688072Y-68300000D01*
X195675812Y-68175518D01*
X195639502Y-68055820D01*
X195580537Y-67945506D01*
X195501185Y-67848815D01*
X195404494Y-67769463D01*
X195294180Y-67710498D01*
X195174482Y-67674188D01*
X195050000Y-67661928D01*
X192550000Y-67661928D01*
X192425518Y-67674188D01*
X192305820Y-67710498D01*
X192216829Y-67758066D01*
X192235000Y-67666712D01*
X192235000Y-67451647D01*
X192305820Y-67489502D01*
X192425518Y-67525812D01*
X192550000Y-67538072D01*
X193514250Y-67535000D01*
X193673000Y-67376250D01*
X193673000Y-66477000D01*
X193927000Y-66477000D01*
X193927000Y-67376250D01*
X194085750Y-67535000D01*
X195050000Y-67538072D01*
X195174482Y-67525812D01*
X195294180Y-67489502D01*
X195404494Y-67430537D01*
X195501185Y-67351185D01*
X195580537Y-67254494D01*
X195639502Y-67144180D01*
X195675812Y-67024482D01*
X195688072Y-66900000D01*
X195685000Y-66635750D01*
X195526250Y-66477000D01*
X193927000Y-66477000D01*
X193673000Y-66477000D01*
X192073750Y-66477000D01*
X191915000Y-66635750D01*
X191913812Y-66737968D01*
X191805394Y-66629550D01*
X191611308Y-66499866D01*
X191395652Y-66410539D01*
X191166712Y-66365000D01*
X190933288Y-66365000D01*
X190704348Y-66410539D01*
X190488692Y-66499866D01*
X190294606Y-66629550D01*
X190129550Y-66794606D01*
X189999866Y-66988692D01*
X189910539Y-67204348D01*
X189865000Y-67433288D01*
X189865000Y-67666712D01*
X189910539Y-67895652D01*
X189999866Y-68111308D01*
X190129550Y-68305394D01*
X190294606Y-68470450D01*
X190488692Y-68600134D01*
X190704348Y-68689461D01*
X190933288Y-68735000D01*
X191166712Y-68735000D01*
X191395652Y-68689461D01*
X191611308Y-68600134D01*
X191805394Y-68470450D01*
X191911928Y-68363916D01*
X191911928Y-69400000D01*
X191924188Y-69524482D01*
X191960498Y-69644180D01*
X192019463Y-69754494D01*
X192097842Y-69850000D01*
X192019463Y-69945506D01*
X191960498Y-70055820D01*
X191924188Y-70175518D01*
X191911928Y-70300000D01*
X191911928Y-71336084D01*
X191805394Y-71229550D01*
X191611308Y-71099866D01*
X191395652Y-71010539D01*
X191166712Y-70965000D01*
X190933288Y-70965000D01*
X190704348Y-71010539D01*
X190488692Y-71099866D01*
X190294606Y-71229550D01*
X190129550Y-71394606D01*
X189999866Y-71588692D01*
X189910539Y-71804348D01*
X189865000Y-72033288D01*
X189865000Y-72266712D01*
X189910539Y-72495652D01*
X189999866Y-72711308D01*
X190129550Y-72905394D01*
X190294606Y-73070450D01*
X190488692Y-73200134D01*
X190704348Y-73289461D01*
X190933288Y-73335000D01*
X191166712Y-73335000D01*
X191395652Y-73289461D01*
X191611308Y-73200134D01*
X191805394Y-73070450D01*
X191911928Y-72963916D01*
X191911928Y-73900000D01*
X191918330Y-73965000D01*
X190172136Y-73965000D01*
X189939286Y-73987934D01*
X189640512Y-74078566D01*
X189365161Y-74225744D01*
X189123813Y-74423813D01*
X188925744Y-74665161D01*
X188865436Y-74777989D01*
X188865436Y-64922011D01*
X188925744Y-65034839D01*
X189123813Y-65276187D01*
X189365161Y-65474256D01*
X189640512Y-65621434D01*
X189939286Y-65712066D01*
X190172136Y-65735000D01*
X191918330Y-65735000D01*
X191911928Y-65800000D01*
X191915000Y-66064250D01*
X192073750Y-66223000D01*
X193673000Y-66223000D01*
X193673000Y-65323750D01*
X193927000Y-65323750D01*
X193927000Y-66223000D01*
X195526250Y-66223000D01*
X195685000Y-66064250D01*
X195688072Y-65800000D01*
X195675812Y-65675518D01*
X195639502Y-65555820D01*
X195580537Y-65445506D01*
X195501185Y-65348815D01*
X195404494Y-65269463D01*
X195294180Y-65210498D01*
X195174482Y-65174188D01*
X195050000Y-65161928D01*
X194085750Y-65165000D01*
X193927000Y-65323750D01*
X193673000Y-65323750D01*
X193514250Y-65165000D01*
X193068601Y-65163580D01*
X193174256Y-65034839D01*
X193321434Y-64759488D01*
X193412066Y-64460714D01*
X193442669Y-64150000D01*
X193412066Y-63839286D01*
X193321434Y-63540512D01*
X193174256Y-63265161D01*
X193069471Y-63137480D01*
X193400000Y-63138072D01*
X193524482Y-63125812D01*
X193644180Y-63089502D01*
X193754494Y-63030537D01*
X193851185Y-62951185D01*
X193930537Y-62854494D01*
X193989502Y-62744180D01*
X194025812Y-62624482D01*
X194038072Y-62500000D01*
X194035000Y-61785750D01*
X193876250Y-61627000D01*
X191527000Y-61627000D01*
X191527000Y-61647000D01*
X191273000Y-61647000D01*
X191273000Y-61627000D01*
X191253000Y-61627000D01*
X191253000Y-61373000D01*
X191273000Y-61373000D01*
X191273000Y-60023750D01*
X191527000Y-60023750D01*
X191527000Y-61373000D01*
X193876250Y-61373000D01*
X194035000Y-61214250D01*
X194038072Y-60500000D01*
X194025812Y-60375518D01*
X193989502Y-60255820D01*
X193930537Y-60145506D01*
X193851185Y-60048815D01*
X193754494Y-59969463D01*
X193644180Y-59910498D01*
X193524482Y-59874188D01*
X193400000Y-59861928D01*
X191685750Y-59865000D01*
X191527000Y-60023750D01*
X191273000Y-60023750D01*
X191114250Y-59865000D01*
X189400000Y-59861928D01*
X189275518Y-59874188D01*
X189155820Y-59910498D01*
X189045506Y-59969463D01*
X188948815Y-60048815D01*
X188869463Y-60145506D01*
X188865436Y-60153040D01*
X188865436Y-56758722D01*
X196481000Y-52361874D01*
X196384305Y-52506589D01*
X196272363Y-52776842D01*
X196215295Y-53063740D01*
X196215295Y-53356260D01*
X196272363Y-53643158D01*
X196384305Y-53913411D01*
X196546820Y-54156632D01*
X196753663Y-54363475D01*
X196996884Y-54525990D01*
X197267137Y-54637932D01*
X197554035Y-54695000D01*
X197846555Y-54695000D01*
X198133453Y-54637932D01*
X198403706Y-54525990D01*
X198646927Y-54363475D01*
X198853770Y-54156632D01*
X199016285Y-53913411D01*
X199128227Y-53643158D01*
X199185295Y-53356260D01*
X199185295Y-53248444D01*
X199196589Y-53255990D01*
X199466842Y-53367932D01*
X199753740Y-53425000D01*
X200046260Y-53425000D01*
X200333158Y-53367932D01*
X200603411Y-53255990D01*
X200846632Y-53093475D01*
X201053475Y-52886632D01*
X201215990Y-52643411D01*
X201327932Y-52373158D01*
X201385000Y-52086260D01*
X201385000Y-51963564D01*
X201505327Y-52030865D01*
X201782240Y-52120674D01*
X202071352Y-52154733D01*
X202361554Y-52131735D01*
X202511366Y-52096800D01*
X202649796Y-51876788D01*
X202053219Y-50843485D01*
X202035898Y-50853485D01*
X201908898Y-50633515D01*
X201926219Y-50623515D01*
X201916219Y-50606194D01*
X202136189Y-50479194D01*
X202146189Y-50496515D01*
X202163510Y-50486515D01*
X202290510Y-50706485D01*
X202273189Y-50716485D01*
X202869767Y-51749788D01*
X203129518Y-51739910D01*
X203234679Y-51627636D01*
X203399697Y-51387813D01*
X203514756Y-51120405D01*
X203538344Y-51009728D01*
X203599853Y-51067338D01*
X203706075Y-51133391D01*
X203823142Y-51177452D01*
X203946555Y-51197828D01*
X204071572Y-51193735D01*
X204193388Y-51165332D01*
X204307323Y-51113709D01*
X205779567Y-50263709D01*
X205881241Y-50190850D01*
X205966747Y-50099556D01*
X206032800Y-49993334D01*
X206076861Y-49876267D01*
X206097237Y-49752854D01*
X206093144Y-49627837D01*
X206064741Y-49506021D01*
X206013118Y-49392086D01*
X205959953Y-49300000D01*
X207661928Y-49300000D01*
X207661928Y-50300000D01*
X207674188Y-50424482D01*
X207710498Y-50544180D01*
X207769463Y-50654494D01*
X207848815Y-50751185D01*
X207945506Y-50830537D01*
X208055820Y-50889502D01*
X208175518Y-50925812D01*
X208300000Y-50938072D01*
X210000000Y-50938072D01*
X210124482Y-50925812D01*
X210244180Y-50889502D01*
X210354494Y-50830537D01*
X210451185Y-50751185D01*
X210530537Y-50654494D01*
X210589502Y-50544180D01*
X210625812Y-50424482D01*
X210638072Y-50300000D01*
X212961928Y-50300000D01*
X212974188Y-50424482D01*
X213010498Y-50544180D01*
X213069463Y-50654494D01*
X213148815Y-50751185D01*
X213245506Y-50830537D01*
X213355820Y-50889502D01*
X213475518Y-50925812D01*
X213600000Y-50938072D01*
X214164250Y-50935000D01*
X214323000Y-50776250D01*
X214323000Y-49927000D01*
X213123750Y-49927000D01*
X212965000Y-50085750D01*
X212961928Y-50300000D01*
X210638072Y-50300000D01*
X210638072Y-49300000D01*
X212961928Y-49300000D01*
X212965000Y-49514250D01*
X213123750Y-49673000D01*
X214323000Y-49673000D01*
X214323000Y-48823750D01*
X214164250Y-48665000D01*
X213600000Y-48661928D01*
X213475518Y-48674188D01*
X213355820Y-48710498D01*
X213245506Y-48769463D01*
X213148815Y-48848815D01*
X213069463Y-48945506D01*
X213010498Y-49055820D01*
X212974188Y-49175518D01*
X212961928Y-49300000D01*
X210638072Y-49300000D01*
X210625812Y-49175518D01*
X210589502Y-49055820D01*
X210530537Y-48945506D01*
X210451185Y-48848815D01*
X210354494Y-48769463D01*
X210244180Y-48710498D01*
X210124482Y-48674188D01*
X210000000Y-48661928D01*
X208300000Y-48661928D01*
X208175518Y-48674188D01*
X208055820Y-48710498D01*
X207945506Y-48769463D01*
X207848815Y-48848815D01*
X207769463Y-48945506D01*
X207710498Y-49055820D01*
X207674188Y-49175518D01*
X207661928Y-49300000D01*
X205959953Y-49300000D01*
X205163118Y-47919842D01*
X205090259Y-47818168D01*
X204998965Y-47732662D01*
X204892743Y-47666609D01*
X204775676Y-47622548D01*
X204708862Y-47611517D01*
X207702149Y-45883342D01*
X207674188Y-45975518D01*
X207661928Y-46100000D01*
X207661928Y-47100000D01*
X207674188Y-47224482D01*
X207710498Y-47344180D01*
X207769463Y-47454494D01*
X207848815Y-47551185D01*
X207945506Y-47630537D01*
X208055820Y-47689502D01*
X208175518Y-47725812D01*
X208300000Y-47738072D01*
X210000000Y-47738072D01*
X210124482Y-47725812D01*
X210244180Y-47689502D01*
X210354494Y-47630537D01*
X210451185Y-47551185D01*
X210530537Y-47454494D01*
X210589502Y-47344180D01*
X210625812Y-47224482D01*
X210638072Y-47100000D01*
X210638072Y-47047440D01*
X211152641Y-46532871D01*
X211341898Y-46495226D01*
X211530256Y-46417205D01*
X211699774Y-46303937D01*
X211843937Y-46159774D01*
X211957205Y-45990256D01*
X212035226Y-45801898D01*
X212075000Y-45601939D01*
X212075000Y-45398061D01*
X212035226Y-45198102D01*
X211957205Y-45009744D01*
X211843937Y-44840226D01*
X211699774Y-44696063D01*
X211530256Y-44582795D01*
X211341898Y-44504774D01*
X211141939Y-44465000D01*
X210938061Y-44465000D01*
X210738102Y-44504774D01*
X210549744Y-44582795D01*
X210380226Y-44696063D01*
X210236063Y-44840226D01*
X210122795Y-45009744D01*
X210044774Y-45198102D01*
X210007129Y-45387359D01*
X209932559Y-45461928D01*
X208432059Y-45461928D01*
X211800001Y-43517446D01*
X215167942Y-45461928D01*
G37*
G04 #@! TD.AperFunction*
D22*
X234734564Y-56758722D02*
X234734564Y-65394727D01*
X234653475Y-65273368D01*
X234446632Y-65066525D01*
X234203411Y-64904010D01*
X233933158Y-64792068D01*
X233646260Y-64735000D01*
X233353740Y-64735000D01*
X233066842Y-64792068D01*
X232796589Y-64904010D01*
X232553368Y-65066525D01*
X232346525Y-65273368D01*
X232184010Y-65516589D01*
X232072068Y-65786842D01*
X232015000Y-66073740D01*
X232015000Y-66366260D01*
X232072068Y-66653158D01*
X232184010Y-66923411D01*
X232346525Y-67166632D01*
X232553368Y-67373475D01*
X232727760Y-67490000D01*
X232553368Y-67606525D01*
X232346525Y-67813368D01*
X232184010Y-68056589D01*
X232072068Y-68326842D01*
X232015000Y-68613740D01*
X232015000Y-68906260D01*
X232072068Y-69193158D01*
X232184010Y-69463411D01*
X232346525Y-69706632D01*
X232553368Y-69913475D01*
X232727760Y-70030000D01*
X232553368Y-70146525D01*
X232346525Y-70353368D01*
X232184010Y-70596589D01*
X232072068Y-70866842D01*
X232015000Y-71153740D01*
X232015000Y-71446260D01*
X232072068Y-71733158D01*
X232184010Y-72003411D01*
X232346525Y-72246632D01*
X232478380Y-72378487D01*
X232405820Y-72400498D01*
X232325000Y-72443698D01*
X232325000Y-72428061D01*
X232285226Y-72228102D01*
X232207205Y-72039744D01*
X232093937Y-71870226D01*
X232010000Y-71786289D01*
X232010000Y-68303711D01*
X232053937Y-68259774D01*
X232167205Y-68090256D01*
X232245226Y-67901898D01*
X232285000Y-67701939D01*
X232285000Y-67498061D01*
X232245226Y-67298102D01*
X232167205Y-67109744D01*
X232053937Y-66940226D01*
X232010000Y-66896289D01*
X232010000Y-60417322D01*
X232013676Y-60379999D01*
X232010000Y-60342676D01*
X232010000Y-60342667D01*
X231999003Y-60231014D01*
X231955546Y-60087753D01*
X231910926Y-60004276D01*
X231884974Y-59955723D01*
X231813799Y-59868997D01*
X231790001Y-59839999D01*
X231761004Y-59816202D01*
X227159275Y-55214473D01*
X227214369Y-55216277D01*
X227370862Y-55206021D01*
X227494281Y-55185645D01*
X227645764Y-55145055D01*
X227762834Y-55100993D01*
X227903488Y-55031629D01*
X228009705Y-54965578D01*
X228134124Y-54870108D01*
X228225416Y-54784604D01*
X228328820Y-54666696D01*
X228401683Y-54565017D01*
X228421334Y-54530980D01*
X228444225Y-54499036D01*
X229038337Y-53470004D01*
X234734564Y-56758722D01*
G04 #@! TA.AperFunction,Conductor*
D23*
G36*
X234734564Y-56758722D02*
G01*
X234734564Y-65394727D01*
X234653475Y-65273368D01*
X234446632Y-65066525D01*
X234203411Y-64904010D01*
X233933158Y-64792068D01*
X233646260Y-64735000D01*
X233353740Y-64735000D01*
X233066842Y-64792068D01*
X232796589Y-64904010D01*
X232553368Y-65066525D01*
X232346525Y-65273368D01*
X232184010Y-65516589D01*
X232072068Y-65786842D01*
X232015000Y-66073740D01*
X232015000Y-66366260D01*
X232072068Y-66653158D01*
X232184010Y-66923411D01*
X232346525Y-67166632D01*
X232553368Y-67373475D01*
X232727760Y-67490000D01*
X232553368Y-67606525D01*
X232346525Y-67813368D01*
X232184010Y-68056589D01*
X232072068Y-68326842D01*
X232015000Y-68613740D01*
X232015000Y-68906260D01*
X232072068Y-69193158D01*
X232184010Y-69463411D01*
X232346525Y-69706632D01*
X232553368Y-69913475D01*
X232727760Y-70030000D01*
X232553368Y-70146525D01*
X232346525Y-70353368D01*
X232184010Y-70596589D01*
X232072068Y-70866842D01*
X232015000Y-71153740D01*
X232015000Y-71446260D01*
X232072068Y-71733158D01*
X232184010Y-72003411D01*
X232346525Y-72246632D01*
X232478380Y-72378487D01*
X232405820Y-72400498D01*
X232325000Y-72443698D01*
X232325000Y-72428061D01*
X232285226Y-72228102D01*
X232207205Y-72039744D01*
X232093937Y-71870226D01*
X232010000Y-71786289D01*
X232010000Y-68303711D01*
X232053937Y-68259774D01*
X232167205Y-68090256D01*
X232245226Y-67901898D01*
X232285000Y-67701939D01*
X232285000Y-67498061D01*
X232245226Y-67298102D01*
X232167205Y-67109744D01*
X232053937Y-66940226D01*
X232010000Y-66896289D01*
X232010000Y-60417322D01*
X232013676Y-60379999D01*
X232010000Y-60342676D01*
X232010000Y-60342667D01*
X231999003Y-60231014D01*
X231955546Y-60087753D01*
X231910926Y-60004276D01*
X231884974Y-59955723D01*
X231813799Y-59868997D01*
X231790001Y-59839999D01*
X231761004Y-59816202D01*
X227159275Y-55214473D01*
X227214369Y-55216277D01*
X227370862Y-55206021D01*
X227494281Y-55185645D01*
X227645764Y-55145055D01*
X227762834Y-55100993D01*
X227903488Y-55031629D01*
X228009705Y-54965578D01*
X228134124Y-54870108D01*
X228225416Y-54784604D01*
X228328820Y-54666696D01*
X228401683Y-54565017D01*
X228421334Y-54530980D01*
X228444225Y-54499036D01*
X229038337Y-53470004D01*
X234734564Y-56758722D01*
G37*
G04 #@! TD.AperFunction*
D22*
X220569123Y-60063947D02*
X220569124Y-62394042D01*
X220401898Y-62324774D01*
X220201939Y-62285000D01*
X219998061Y-62285000D01*
X219996898Y-62285231D01*
X219921778Y-62103876D01*
X219808510Y-61934358D01*
X219664347Y-61790195D01*
X219509999Y-61687063D01*
X219509999Y-59004822D01*
X220569123Y-60063947D01*
G04 #@! TA.AperFunction,Conductor*
D23*
G36*
X220569123Y-60063947D02*
G01*
X220569124Y-62394042D01*
X220401898Y-62324774D01*
X220201939Y-62285000D01*
X219998061Y-62285000D01*
X219996898Y-62285231D01*
X219921778Y-62103876D01*
X219808510Y-61934358D01*
X219664347Y-61790195D01*
X219509999Y-61687063D01*
X219509999Y-59004822D01*
X220569123Y-60063947D01*
G37*
G04 #@! TD.AperFunction*
D22*
X217690226Y-57078927D02*
X217859744Y-57192195D01*
X217990000Y-57246149D01*
X217989999Y-60294505D01*
X217891939Y-60275000D01*
X217829576Y-60275000D01*
X217870216Y-60176888D01*
X217909990Y-59976929D01*
X217909990Y-59773051D01*
X217870216Y-59573092D01*
X217792195Y-59384734D01*
X217678927Y-59215216D01*
X217634990Y-59171279D01*
X217634990Y-57037978D01*
X217636271Y-57024972D01*
X217690226Y-57078927D01*
G04 #@! TA.AperFunction,Conductor*
D23*
G36*
X217690226Y-57078927D02*
G01*
X217859744Y-57192195D01*
X217990000Y-57246149D01*
X217989999Y-60294505D01*
X217891939Y-60275000D01*
X217829576Y-60275000D01*
X217870216Y-60176888D01*
X217909990Y-59976929D01*
X217909990Y-59773051D01*
X217870216Y-59573092D01*
X217792195Y-59384734D01*
X217678927Y-59215216D01*
X217634990Y-59171279D01*
X217634990Y-57037978D01*
X217636271Y-57024972D01*
X217690226Y-57078927D01*
G37*
G04 #@! TD.AperFunction*
D22*
X222551083Y-59046596D02*
X222544389Y-59042123D01*
X222425483Y-58992870D01*
X220834987Y-57402375D01*
X220834987Y-57330499D01*
X222551083Y-59046596D01*
G04 #@! TA.AperFunction,Conductor*
D23*
G36*
X222551083Y-59046596D02*
G01*
X222544389Y-59042123D01*
X222425483Y-58992870D01*
X220834987Y-57402375D01*
X220834987Y-57330499D01*
X222551083Y-59046596D01*
G37*
G04 #@! TD.AperFunction*
D22*
X217748705Y-46951932D02*
X217154593Y-47980964D01*
X217138375Y-48016759D01*
X217118721Y-48050801D01*
X217067099Y-48164735D01*
X217016689Y-48313239D01*
X216988286Y-48435054D01*
X216967816Y-48590539D01*
X216963723Y-48715551D01*
X216973979Y-48872044D01*
X216994355Y-48995463D01*
X217034945Y-49146946D01*
X217079007Y-49264016D01*
X217148371Y-49404670D01*
X217214422Y-49510887D01*
X217309892Y-49635306D01*
X217395396Y-49726598D01*
X217513304Y-49830002D01*
X217614983Y-49902865D01*
X217750801Y-49981279D01*
X217864735Y-50032901D01*
X217878015Y-50037409D01*
X217878015Y-50081284D01*
X217770810Y-50241729D01*
X217692789Y-50430087D01*
X217653015Y-50630046D01*
X217653015Y-50833924D01*
X217692789Y-51033883D01*
X217770810Y-51222241D01*
X217884078Y-51391759D01*
X218028241Y-51535922D01*
X218197759Y-51649190D01*
X218386117Y-51727211D01*
X218575374Y-51764856D01*
X219057598Y-52247081D01*
X218868102Y-52284774D01*
X218679744Y-52362795D01*
X218510226Y-52476063D01*
X218366063Y-52620226D01*
X218252795Y-52789744D01*
X218174774Y-52978102D01*
X218135000Y-53178061D01*
X218135000Y-53381939D01*
X218174774Y-53581898D01*
X218252795Y-53770256D01*
X218366063Y-53939774D01*
X218455001Y-54028712D01*
X218455001Y-55240599D01*
X218451939Y-55239990D01*
X218248061Y-55239990D01*
X218048102Y-55279764D01*
X217859744Y-55357785D01*
X217690226Y-55471053D01*
X217546063Y-55615216D01*
X217532505Y-55635507D01*
X217518947Y-55615216D01*
X217374784Y-55471053D01*
X217205266Y-55357785D01*
X217016908Y-55279764D01*
X216816949Y-55239990D01*
X216613071Y-55239990D01*
X216460001Y-55270437D01*
X216460001Y-47887323D01*
X216463677Y-47850000D01*
X216460001Y-47812677D01*
X216460001Y-47812668D01*
X216449004Y-47701015D01*
X216405547Y-47557754D01*
X216334975Y-47425725D01*
X216240002Y-47310000D01*
X216211005Y-47286203D01*
X215938072Y-47013270D01*
X215938072Y-46100000D01*
X215925812Y-45975518D01*
X215897850Y-45883341D01*
X217748705Y-46951932D01*
G04 #@! TA.AperFunction,Conductor*
D23*
G36*
X217748705Y-46951932D02*
G01*
X217154593Y-47980964D01*
X217138375Y-48016759D01*
X217118721Y-48050801D01*
X217067099Y-48164735D01*
X217016689Y-48313239D01*
X216988286Y-48435054D01*
X216967816Y-48590539D01*
X216963723Y-48715551D01*
X216973979Y-48872044D01*
X216994355Y-48995463D01*
X217034945Y-49146946D01*
X217079007Y-49264016D01*
X217148371Y-49404670D01*
X217214422Y-49510887D01*
X217309892Y-49635306D01*
X217395396Y-49726598D01*
X217513304Y-49830002D01*
X217614983Y-49902865D01*
X217750801Y-49981279D01*
X217864735Y-50032901D01*
X217878015Y-50037409D01*
X217878015Y-50081284D01*
X217770810Y-50241729D01*
X217692789Y-50430087D01*
X217653015Y-50630046D01*
X217653015Y-50833924D01*
X217692789Y-51033883D01*
X217770810Y-51222241D01*
X217884078Y-51391759D01*
X218028241Y-51535922D01*
X218197759Y-51649190D01*
X218386117Y-51727211D01*
X218575374Y-51764856D01*
X219057598Y-52247081D01*
X218868102Y-52284774D01*
X218679744Y-52362795D01*
X218510226Y-52476063D01*
X218366063Y-52620226D01*
X218252795Y-52789744D01*
X218174774Y-52978102D01*
X218135000Y-53178061D01*
X218135000Y-53381939D01*
X218174774Y-53581898D01*
X218252795Y-53770256D01*
X218366063Y-53939774D01*
X218455001Y-54028712D01*
X218455001Y-55240599D01*
X218451939Y-55239990D01*
X218248061Y-55239990D01*
X218048102Y-55279764D01*
X217859744Y-55357785D01*
X217690226Y-55471053D01*
X217546063Y-55615216D01*
X217532505Y-55635507D01*
X217518947Y-55615216D01*
X217374784Y-55471053D01*
X217205266Y-55357785D01*
X217016908Y-55279764D01*
X216816949Y-55239990D01*
X216613071Y-55239990D01*
X216460001Y-55270437D01*
X216460001Y-47887323D01*
X216463677Y-47850000D01*
X216460001Y-47812677D01*
X216460001Y-47812668D01*
X216449004Y-47701015D01*
X216405547Y-47557754D01*
X216334975Y-47425725D01*
X216240002Y-47310000D01*
X216211005Y-47286203D01*
X215938072Y-47013270D01*
X215938072Y-46100000D01*
X215925812Y-45975518D01*
X215897850Y-45883341D01*
X217748705Y-46951932D01*
G37*
G04 #@! TD.AperFunction*
M02*
